<?xml version="1.0" encoding="UTF-8"?>
<svg xmlns="http://www.w3.org/2000/svg" width="122" height="31" viewBox="0 0 122 31" fill="none">
  <g clip-path="url(#clip0_2356_11467)">
    <path d="M13.6696 7.25605C13.6696 7.40119 13.6472 7.54632 13.6472 7.69613C13.6462 8.40174 13.7558 9.10316 13.9721 9.7748C13.8672 10.0885 13.7099 10.3815 13.5048 10.6418C13.3227 10.6202 13.1396 10.6077 12.9562 10.6044C13.415 10.134 13.6734 9.50398 13.6771 8.84689C13.6324 7.31014 12.368 6.09072 10.8307 6.10155C9.08735 6.11186 7.6819 7.5324 7.6902 9.27573C7.69207 9.5688 7.73327 9.86001 7.81286 10.1428C7.64097 9.90043 7.45263 9.67017 7.24916 9.45364V9.27573C7.24293 7.2886 8.8436 5.66995 10.8307 5.65398C11.9917 5.65697 13.0676 6.26388 13.6706 7.25605H13.6696ZM9.44958 2.59309V3.05003C9.90276 2.95171 10.3672 2.90209 10.8307 2.90115C12.2134 2.89139 13.5565 3.36313 14.6294 4.23543C14.708 4.10809 14.7858 3.98168 14.8728 3.86277C13.7276 2.9423 12.2999 2.44493 10.8307 2.45452C10.3672 2.45452 9.9037 2.50133 9.44958 2.59216V2.59309ZM13.4449 1.72792C13.3574 1.55298 13.2814 1.37251 13.2174 1.18765C12.8866 1.09137 12.5501 1.0157 12.2099 0.96106C11.7267 1.05001 11.2548 1.16144 10.7904 1.29627H10.8316C11.7213 1.29018 12.6054 1.43617 13.4459 1.72792H13.4449ZM9.25482 4.33562C9.20455 4.51345 9.14485 4.68848 9.07598 4.85997C9.63896 4.65855 10.2327 4.55683 10.8307 4.5594C11.9771 4.53779 13.0876 4.9594 13.9309 5.73638C13.9796 5.58001 14.0358 5.42739 14.0947 5.27383C13.1837 4.50353 12.0235 4.09087 10.8307 4.11277C10.2997 4.11241 9.77146 4.18873 9.26231 4.33936L9.25482 4.33562ZM8.76979 12.0576C8.82597 12.0089 8.88216 11.9574 8.94114 11.9087C8.82177 11.8046 8.70947 11.6926 8.605 11.5735C8.66492 11.7336 8.72111 11.8825 8.76979 12.0576ZM9.28103 9.24109C9.26357 8.81352 9.41729 8.39662 9.70815 8.08274C9.99901 7.76886 10.403 7.58388 10.8307 7.56879C11.1789 7.55822 11.517 7.68734 11.7695 7.9274C12.0221 8.16746 12.1682 8.49853 12.1753 8.84689C12.1954 9.33619 11.817 9.7501 11.3279 9.77386C11.0849 9.79228 10.8628 9.63672 10.797 9.40214C10.7413 9.21149 10.8194 9.00712 10.988 8.90213L10.753 8.53041C10.4145 8.74368 10.261 9.15735 10.3784 9.53978C10.5048 9.96113 10.9028 10.243 11.3428 10.2252C12.0795 10.2017 12.6587 9.58738 12.6387 8.85063C12.6342 8.37968 12.4397 7.93051 12.0993 7.60506C11.7588 7.27961 11.3014 7.10547 10.8307 7.12216C10.2806 7.13176 9.75734 7.36183 9.37841 7.76074C8.99994 8.15865 8.79776 8.69228 8.81755 9.24109C8.80397 10.0643 9.21645 10.8361 9.90838 11.2823C10.0769 11.198 10.252 11.1194 10.428 11.0482C9.71727 10.7311 9.26544 10.0192 9.28103 9.24109ZM5.75947 7.96018C5.73606 8.05381 5.71453 8.14745 5.6958 8.24295C5.83344 8.3216 5.96827 8.40307 6.09843 8.48921C6.13721 8.24419 6.19481 8.00253 6.27071 7.76636C6.10404 7.83939 5.93363 7.904 5.75947 7.96018Z" fill="#DF143F"></path>
    <path d="M27.2867 18.1784C27.3145 19.1378 27.0154 20.0781 26.4384 20.8451C26.1511 20.9016 25.868 20.9776 25.591 21.0726C26.426 20.3483 26.8852 19.2828 26.8382 18.1784C26.8189 15.9963 25.1205 14.1983 22.943 14.0548C23.2239 13.9602 23.5002 13.8488 23.768 13.7224C25.8187 14.2331 27.2654 16.0651 27.2867 18.1784ZM27.7642 15.4696C27.7356 15.2359 27.7206 15.0008 27.7193 14.7654V14.5351C27.1533 13.7132 26.3804 13.0553 25.4786 12.6278C25.3505 12.7396 25.2171 12.8452 25.0788 12.9443C26.2479 13.4386 27.2007 14.336 27.7642 15.4733V15.4696ZM22.6556 17.2018C23.2174 17.1812 23.6902 17.6175 23.7127 18.1784C23.7231 18.377 23.6535 18.5716 23.5194 18.7185C23.3854 18.8654 23.198 18.9525 22.9992 18.9602C22.8334 18.9596 22.6801 18.8717 22.5957 18.7289C22.5486 18.6459 22.5486 18.5442 22.5957 18.4612L22.2221 18.2336C22.0908 18.4554 22.0908 18.731 22.2221 18.9527C22.3859 19.2336 22.6874 19.4078 23.0142 19.4069C23.333 19.4036 23.6367 19.2709 23.8557 19.0393C24.0747 18.8076 24.19 18.4968 24.1753 18.1784C24.1518 17.3748 23.4856 16.7399 22.6818 16.7551C22.1741 16.7499 21.6855 16.949 21.326 17.3076C20.9676 17.6653 20.7684 18.1524 20.7736 18.6587C20.7736 18.8966 20.8119 19.1334 20.8887 19.3591C21.0788 19.3966 21.2623 19.4443 21.4487 19.4967C21.3012 19.242 21.2228 18.9531 21.2211 18.6587C21.2166 18.2748 21.3656 17.9051 21.6349 17.6315C21.9043 17.3579 22.2717 17.2033 22.6556 17.2018ZM25.4674 11.4133L25.2923 11.212L25.4674 11.4087V11.4133ZM28.3579 17.4705C28.3888 17.7102 28.4047 17.9509 28.4066 18.1934C28.4118 19.0791 28.2071 19.9535 27.8092 20.7449C27.974 20.7449 28.1341 20.7524 28.2914 20.7674C28.6493 19.9924 28.8401 19.1508 28.8513 18.2973C28.6655 18.035 28.5005 17.7586 28.3579 17.4705ZM25.7174 18.1784C25.6907 16.5117 24.3224 15.1798 22.6556 15.198C21.7274 15.1779 20.8313 15.5374 20.1743 16.1933C19.5188 16.8485 19.1601 17.7435 19.1818 18.67C19.1827 18.8666 19.2005 19.0632 19.2342 19.258H19.6865C19.6477 19.0669 19.6276 18.8724 19.6265 18.6774C19.607 17.87 19.9194 17.0899 20.4908 16.5192C21.0628 15.9476 21.8434 15.6344 22.6518 15.6521C24.0752 15.6355 25.244 16.7729 25.2661 18.1962C25.2952 18.7522 25.1022 19.297 24.7295 19.7107C24.3569 20.1244 23.8352 20.3731 23.2792 20.4022C23.4431 20.5174 23.6041 20.64 23.7567 20.7748C24.9531 20.4987 25.7793 19.4046 25.7174 18.1784ZM20.7614 14.4302H20.5975C20.3513 14.4302 20.1041 14.4302 19.8503 14.3928C19.4253 14.6715 19.0474 15.016 18.7305 15.4134C18.7717 15.6231 18.8016 15.8347 18.8194 16.0473C19.2942 15.3296 19.9695 14.7672 20.7614 14.4302Z" fill="#199DBF"></path>
    <path d="M16.1453 0.75971C16.3943 0.778437 16.634 0.803718 16.8625 0.834617C17.1284 1.01627 17.443 1.11365 17.7661 1.11365C17.9159 1.11645 18.0666 1.10522 18.2155 1.07994C18.4814 1.13893 18.7436 1.20541 19.002 1.27657C18.6209 1.4732 18.1968 1.57339 17.7661 1.56777C17.1286 1.57036 16.5276 1.27057 16.1462 0.75971H16.1453ZM17.7661 2.94231C18.8087 2.95332 19.8107 2.53916 20.5414 1.7953C20.39 1.73184 20.237 1.67221 20.0826 1.61646C19.4494 2.1896 18.6238 2.50348 17.7698 2.49568C16.5714 2.52338 15.4787 1.81346 15.017 0.707275H14.5394C15.0232 2.06808 16.3221 2.9678 17.7661 2.94231ZM17.7661 4.30562C19.3441 4.31212 20.8431 3.61581 21.856 2.40579L21.4487 2.19699C20.5205 3.2591 19.1766 3.86559 17.7661 3.85899C15.8271 3.90514 14.1016 2.63578 13.5685 0.770946L13.1162 0.818699C13.6772 2.91332 15.5982 4.35236 17.7661 4.30187V4.30562Z" fill="#F79910"></path>
    <path d="M24.7661 10.5079C24.8513 10.6418 24.9411 10.7729 25.0348 10.8805C23.934 12.1866 22.3014 12.9246 20.5937 12.888C17.5759 12.888 15.2117 10.609 15.2117 7.69511C15.2333 6.38283 15.7497 5.12711 16.6574 4.17917C16.8428 4.22037 17.0319 4.2522 17.2211 4.2728C16.2572 5.15396 15.6936 6.38959 15.6602 7.69511C15.6602 10.3552 17.8259 12.4414 20.5937 12.4414C22.2094 12.4817 23.7516 11.7668 24.7651 10.5079H24.7661ZM20.5937 13.991C19.6886 13.9933 18.7922 13.8147 17.957 13.4658C18.0834 13.6586 18.1976 13.859 18.3006 14.065C21.0796 14.9777 24.1354 14.1742 26.106 12.0126C25.9908 11.9161 25.8709 11.8197 25.7623 11.7148C24.4379 13.1689 22.5605 13.9953 20.5937 13.9901V13.991ZM15.5104 3.77654C15.3722 3.7134 15.2397 3.63854 15.1143 3.55276C14.1584 4.7209 13.6395 6.18572 13.6471 7.69511C13.6449 8.78576 13.9105 9.86027 14.4205 10.8244C14.6405 10.8852 14.8577 10.9592 15.0703 11.0444C14.4305 10.0437 14.0921 8.88004 14.0956 7.69231C14.0901 6.26097 14.5913 4.87387 15.5104 3.77654ZM21.4449 2.84583C21.3128 2.97691 21.1733 3.10145 21.0273 3.21755C22.3024 3.46664 23.3828 4.30809 23.9365 5.48349C23.9889 5.27375 24.0488 5.07056 24.119 4.87206C23.5193 3.87819 22.5606 3.15278 21.4411 2.84583H21.4449ZM20.5928 10.8618C19.7239 10.8969 18.8775 10.5806 18.2445 9.98446C17.612 9.3892 17.2469 8.56355 17.2323 7.69511C17.2051 6.90381 17.5028 6.13581 18.0563 5.56963C18.6112 5.00198 19.3739 4.68543 20.1677 4.69322C20.8359 4.67417 21.4837 4.92452 21.9655 5.38798C22.4477 5.85147 22.7211 6.48818 22.7258 7.15578C22.741 7.73017 22.5204 8.28574 22.1153 8.69325C21.7093 9.10143 21.1544 9.32631 20.5788 9.31591C19.6448 9.35296 18.8559 8.62967 18.8119 7.69605C18.782 7.31853 18.9116 6.94576 19.1693 6.6682C19.4269 6.39064 19.789 6.23366 20.1677 6.23536C20.705 6.20935 21.1624 6.62235 21.1911 7.15953C21.2027 7.32989 21.1436 7.4975 21.0278 7.62293C20.9119 7.74836 20.7495 7.82053 20.5788 7.82246C20.456 7.82554 20.3386 7.77203 20.2604 7.67732C20.2067 7.61462 20.185 7.53068 20.2014 7.44979L19.7641 7.34867C19.7185 7.56231 19.7737 7.78508 19.914 7.95261C20.0771 8.15386 20.3235 8.26914 20.5825 8.26534C20.875 8.26609 21.1552 8.14737 21.3581 7.93666C21.5611 7.72595 21.6692 7.44153 21.6574 7.14923C21.6414 6.77078 21.475 6.41437 21.1951 6.15911C20.9153 5.90385 20.5451 5.77086 20.1668 5.78967C19.6698 5.7887 19.1944 5.99301 18.8531 6.35428C18.5121 6.71488 18.3358 7.20068 18.3662 7.69605C18.4104 8.87718 19.4002 9.80088 20.5816 9.76348C21.276 9.77604 21.9456 9.50484 22.4355 9.01254C22.9248 8.52079 23.1914 7.85018 23.1733 7.15672C23.1696 6.37025 22.8489 5.6185 22.2838 5.0715C21.7175 4.52416 20.955 4.22727 20.1677 4.24752C19.2585 4.24752 18.3887 4.61269 17.7548 5.26251C17.1215 5.91186 16.7789 6.79038 16.8053 7.69699C16.8192 8.68222 17.2297 9.62027 17.9439 10.2991C18.6589 10.979 19.617 11.3434 20.6031 11.3103C22.0596 11.3253 23.4153 10.5684 24.1668 9.32059C24.0923 9.1264 24.0276 8.92859 23.973 8.72789C23.367 10.0449 22.0424 10.8815 20.5928 10.8627V10.8618Z" fill="#169477"></path>
    <path d="M23.7344 7.05847C23.7344 6.03225 23.9741 5.01913 24.4329 4.10059C24.5565 4.20171 24.6763 4.30658 24.8074 4.40958C24.4112 5.23555 24.2018 6.13867 24.1941 7.05473C24.2247 9.54622 25.7554 11.7731 28.0706 12.6943C28.0228 12.8366 27.9769 12.978 27.9367 13.1269C25.4305 12.1495 23.768 9.7492 23.7344 7.05941V7.05847ZM28.5003 11.7411C28.5757 11.6059 28.6569 11.4741 28.7438 11.346C27.0144 10.6016 25.755 8.92085 25.755 7.06222C25.755 6.5566 25.8346 6.05378 25.9909 5.57251C25.8786 5.44891 25.7587 5.32625 25.6436 5.19984C25.4197 5.79552 25.3055 6.4268 25.3065 7.06316C25.3578 9.1151 26.6079 10.9461 28.5003 11.7411ZM28.8739 10.2514C28.784 10.0173 28.6885 9.78696 28.5865 9.55849C27.8176 9.01793 27.3365 8.15677 27.2793 7.21859C27.143 7.01855 27.0009 6.82246 26.8533 6.63057C26.8346 6.77476 26.8252 6.92083 26.8233 7.06596C26.8452 8.43353 27.6437 9.66937 28.8814 10.2514H28.8739Z" fill="#930F4B"></path>
    <path d="M27.7192 14.7691C27.7018 13.3474 28.1918 11.966 29.1012 10.873C29.1574 11.0369 29.2098 11.197 29.2585 11.3646C27.6869 13.5295 27.8265 16.4948 29.5947 18.5023C29.5619 18.6799 29.5232 18.8564 29.4786 19.0314C28.3548 17.897 27.7227 16.3659 27.7192 14.7691ZM29.8222 16.859C29.8522 16.4864 29.8709 16.1147 29.8746 15.742C29.7895 15.4183 29.7455 15.0851 29.7436 14.7504C29.7445 14.5257 29.7632 14.3 29.7997 14.0763C29.7623 13.7045 29.7061 13.3319 29.6434 12.9592C29.4115 13.5229 29.2934 14.1269 29.296 14.7364C29.2922 15.4761 29.4739 16.2064 29.8222 16.859Z" fill="#DF143F"></path>
    <path d="M27.6642 20.7224C28.0884 20.7224 28.5116 20.7599 28.9301 20.8348C28.8777 20.9753 28.8178 21.1213 28.7616 21.259C28.3989 21.1985 28.0319 21.1672 27.6642 21.1653C26.6679 21.1678 25.6876 21.4161 24.8102 21.8882C24.7187 21.7626 24.6254 21.6384 24.5303 21.5155C25.4915 20.9915 26.5694 20.7187 27.6642 20.7224ZM25.4226 22.8976C25.49 23.0352 25.5499 23.1738 25.6061 23.3114C26.2396 22.9545 26.9522 22.7614 27.6792 22.7496H28.0518C28.1305 22.6073 28.2017 22.4659 28.2766 22.3208C28.077 22.2972 27.8763 22.2847 27.6754 22.2833C26.8757 22.2933 26.0916 22.506 25.3964 22.9013L25.4226 22.8976ZM25.9872 24.8311C26.2952 24.6326 26.637 24.4923 26.9956 24.4172C27.1183 24.2496 27.2382 24.082 27.3683 23.9116C26.8606 23.9516 26.3676 24.1014 25.9235 24.3508C25.931 24.5099 25.9573 24.671 25.976 24.8311H25.9872Z" fill="#169477"></path>
    <path d="M14.678 21.8778C14.4288 22.1798 14.2111 22.5064 14.0281 22.8525C13.9382 22.721 13.838 22.5967 13.7285 22.4808C13.8184 22.3244 13.912 22.1746 14.0132 22.0295C14.2379 21.993 14.4598 21.9415 14.678 21.8769V21.8778ZM22.8943 25.3938C22.8866 24.5328 22.5317 23.7115 21.9102 23.1157C21.2874 22.5184 20.4506 22.1968 19.5881 22.2233C17.6276 22.2869 16.0612 23.8764 16.0263 25.8376C16.0279 26.1311 16.0641 26.4233 16.134 26.7084H16.6049C16.5298 26.4289 16.4908 26.141 16.4888 25.8516C16.5174 24.1407 17.8782 22.7503 19.5881 22.6849C20.331 22.6604 21.0527 22.9354 21.5909 23.4481C22.1284 23.9612 22.4364 24.6672 22.4458 25.4087C22.4844 26.6806 21.5152 27.7575 20.2464 27.8526C20.4121 27.9678 20.5713 28.0923 20.7239 28.2243C22.0308 27.9182 22.9395 26.7315 22.8943 25.39V25.3938ZM19.589 20.7299C17.4048 20.7029 15.4487 22.0776 14.7341 24.1419C14.8343 24.3947 14.9186 24.6559 14.9841 24.92C15.4184 22.7294 17.3561 21.1621 19.589 21.1952C21.9642 21.1422 23.9372 23.0153 24.0076 25.39C24.0338 26.4092 23.6686 27.3996 22.987 28.1578C23.3316 27.9378 23.664 27.7065 23.9889 27.4612C24.3016 26.8151 24.4617 26.1063 24.4552 25.39C24.3943 22.7612 22.2181 20.677 19.589 20.7299ZM19.589 24.1868C19.9224 24.1721 20.2478 24.2915 20.4927 24.5182C20.7376 24.7449 20.8815 25.0602 20.8924 25.3938C20.9147 25.6495 20.8309 25.9031 20.6608 26.0954C20.4907 26.2876 20.2491 26.4016 19.9926 26.4106C19.8464 26.4252 19.7009 26.3772 19.5921 26.2785C19.4832 26.1799 19.4213 26.0397 19.4214 25.8928C19.419 25.7278 19.5321 25.5834 19.693 25.5464L19.5993 25.1063C19.2255 25.1814 18.9578 25.5116 18.9617 25.8928C18.9573 26.1607 19.0665 26.418 19.2622 26.601C19.4579 26.784 19.7218 26.8758 19.9889 26.8535C20.3621 26.8406 20.7146 26.679 20.9679 26.4046C21.2212 26.1302 21.3542 25.7659 21.3372 25.3928C21.3291 24.94 21.1387 24.5096 20.8091 24.199C20.4791 23.8882 20.0382 23.7229 19.5853 23.7402C19.0364 23.7438 18.5119 23.9674 18.1293 24.361C17.7473 24.7542 17.5394 25.2851 17.5535 25.8329C17.5535 26.1662 17.6218 26.4958 17.7548 26.802C17.9495 26.8395 18.1293 26.8835 18.3259 26.9359C18.1106 26.6035 17.9982 26.2149 18.002 25.8179C17.9901 25.3884 18.1517 24.9722 18.4503 24.6632C18.7489 24.3542 19.1594 24.1784 19.589 24.1756V24.1868ZM19.589 19.2355C19.0759 19.2355 18.5638 19.286 18.0619 19.389C17.9383 19.5847 17.8025 19.7729 17.6546 19.9508C18.2837 19.7716 18.9349 19.6814 19.589 19.683C22.8044 19.655 25.4552 22.1887 25.5648 25.3938C25.5648 25.6428 25.5488 25.891 25.5198 26.1381C25.6865 25.9724 25.8485 25.8029 26.0058 25.6325V25.3975C25.8934 21.948 23.0488 19.2158 19.589 19.2364V19.2355Z" fill="#DF143F"></path>
    <path d="M8.58994 16.904C8.58315 18.1614 9.081 19.3689 9.97197 20.2561C9.74953 20.2168 9.5251 20.1896 9.29968 20.1747C8.59063 19.3021 8.18649 18.2216 8.14893 17.0979C8.35679 16.7627 8.53095 16.4087 8.66859 16.0398C8.6161 16.3249 8.58977 16.6142 8.58994 16.904ZM12.8222 10.5978C11.3405 10.5809 9.90177 11.0947 8.76597 12.0463C8.80998 12.1961 8.84743 12.3478 8.88489 12.5014C9.96106 11.5255 11.3728 11.0035 12.825 11.0444C15.8793 11.0444 18.3709 13.4827 18.4271 16.5276C18.4271 19.8544 15.473 21.6279 13.3409 21.6279C13.1836 21.6279 13.0272 21.6279 12.8737 21.6054C13.0516 21.7515 13.2201 21.9069 13.3821 22.0708C15.6855 22.0483 18.8606 20.1232 18.8606 16.5276C18.7923 13.2448 16.1134 10.6147 12.8212 10.5978H12.8222ZM17.3035 16.5276C17.2535 14.0891 15.2603 12.1396 12.8212 12.1437C11.3313 12.1214 9.92345 12.8243 9.04594 14.0286C9.04032 14.4031 8.99912 14.7776 8.92609 15.1456C9.57377 13.5725 11.1203 12.5579 12.8212 12.5903C15.0107 12.5927 16.7997 14.3389 16.855 16.5276C16.855 18.9715 15.0254 20.082 13.325 20.082C11.5668 20.082 10.1386 18.6622 10.1283 16.904C10.1116 16.1789 10.3877 15.4775 10.8943 14.9583C11.4011 14.4385 12.0952 14.1437 12.8212 14.14C13.467 14.1221 14.0926 14.3653 14.5566 14.8147C15.0207 15.2641 15.2838 15.8817 15.2866 16.5276C15.2934 17.6207 14.4152 18.5135 13.3222 18.5248C12.8821 18.5454 12.4514 18.3825 12.1358 18.0754C11.8203 17.7684 11.6467 17.3441 11.6564 16.904C11.643 16.5852 11.7586 16.2745 11.9771 16.0419C12.1955 15.8094 12.4985 15.6746 12.8175 15.6681C13.0573 15.6459 13.2953 15.727 13.4715 15.8912C13.6478 16.0553 13.7458 16.2868 13.7407 16.5276C13.7613 16.7929 13.587 17.0341 13.3287 17.0979C13.2232 17.1062 13.1192 17.0694 13.0422 16.9967C13.0011 16.9415 12.9873 16.8705 13.0048 16.8039L12.5647 16.7252C12.5223 16.9222 12.5715 17.1278 12.6986 17.2842C12.8587 17.4612 13.0909 17.5557 13.3297 17.5445C13.839 17.4827 14.2155 17.0389 14.192 16.5276C14.193 16.1708 14.0462 15.8294 13.7865 15.5847C13.5268 15.3399 13.1774 15.2135 12.8212 15.2355C11.9151 15.2524 11.1927 15.9978 11.2042 16.904C11.2021 17.4615 11.4271 17.9958 11.8274 18.3837C12.2277 18.7717 12.7688 18.9799 13.3259 18.9602C14.6663 18.9499 15.7456 17.8568 15.7389 16.5164C15.7365 15.7524 15.4263 15.0216 14.8784 14.4892C14.3298 13.9558 13.59 13.665 12.825 13.6821C11.9793 13.6835 11.1696 14.0246 10.5778 14.6287C9.98744 15.2324 9.66541 16.0487 9.68452 16.8928C9.69329 18.899 11.3235 20.52 13.3297 20.5174C14.3967 20.5481 15.4291 20.1368 16.1827 19.3807C16.9351 18.6258 17.3409 17.5928 17.3035 16.5276Z" fill="#F79910"></path>
    <path d="M9.01604 2.91706C9.01424 2.5984 8.98542 2.28047 8.9299 1.96668L9.35593 1.78784C9.42615 2.15582 9.46267 2.53036 9.46361 2.90489C9.45009 5.36608 7.75189 7.49745 5.3559 8.06036C5.09791 7.93735 4.83203 7.83162 4.56001 7.74388C7.06568 7.52011 8.99325 5.43259 9.01698 2.91706H9.01604ZM6.27351 3.47418C6.04692 3.63523 5.82313 3.8019 5.60122 3.97325C5.4074 4.29161 5.11713 4.54161 4.77256 4.68487C4.56563 4.87588 4.36432 5.07345 4.16675 5.27663C5.19989 5.23358 6.06913 4.48857 6.26976 3.47418H6.27351ZM7.89805 2.91519C7.89805 2.76819 7.89056 2.62212 7.87558 2.47511C7.73045 2.55377 7.58532 2.63991 7.43925 2.72137V2.91519C7.43925 5.15023 5.70609 6.30473 3.99166 6.30473C3.76556 6.3033 3.54023 6.27819 3.31937 6.22982L3.01318 6.60342C3.33154 6.69144 3.66113 6.73638 3.99166 6.73732C5.02347 6.76914 6.02367 6.37893 6.76134 5.65679C7.49753 4.93598 7.90688 3.94543 7.89431 2.91519H7.89805Z" fill="#75BE1E"></path>
    <path d="M5.81462 27.2861C5.81462 27.3339 5.81462 27.3751 5.83709 27.4238L5.72192 27.3339L5.81556 27.2861H5.81462ZM9.236 29.0773C9.97141 29.1068 10.6862 28.8306 11.2107 28.3142C11.7351 27.7983 12.0197 27.0886 12.0001 26.3545C11.995 25.5361 11.6597 24.7545 11.0703 24.1869C10.4799 23.6181 9.68559 23.3107 8.86614 23.3338H8.67232C8.64102 23.4854 8.60354 23.6357 8.55996 23.7842H8.8624C9.56187 23.7654 10.2398 24.0271 10.7454 24.5108C11.251 24.9949 11.5394 25.6597 11.5478 26.3582C11.5592 26.9714 11.3178 27.5623 10.8802 27.9921C10.442 28.4228 9.84633 28.6549 9.23225 28.6345C8.25861 28.6454 7.44658 27.8926 7.38392 26.921C7.36048 26.5063 7.5061 26.0998 7.78753 25.7944C8.06897 25.489 8.46219 25.3106 8.87738 25.3002C9.49536 25.2711 10.0197 25.7459 10.0506 26.362C10.0588 26.5792 9.97437 26.7897 9.81826 26.941C9.66215 27.0923 9.44912 27.1701 9.23225 27.155C9.05089 27.1531 8.88734 27.0455 8.81371 26.8798C8.74121 26.7661 8.74121 26.6207 8.81371 26.5071L8.47007 26.2206C8.28141 26.4617 8.25102 26.7908 8.39236 27.0623C8.53749 27.3863 8.86052 27.5961 9.21727 27.5951C9.55759 27.6056 9.88671 27.4729 10.1245 27.2292C10.3623 26.9855 10.487 26.6532 10.4682 26.3133C10.4262 25.4574 9.70474 24.7939 8.84835 24.8236C8.5712 24.8254 8.29779 24.8891 8.04872 25.0099C7.76884 25.5293 7.40965 26.0019 6.98411 26.4107C6.95203 26.5662 6.93571 26.7246 6.93542 26.8835C6.99646 28.1061 8.00813 29.0646 9.23225 29.0595L9.236 29.0783V29.0773ZM13.1162 26.3283C13.1133 26.8116 13.017 27.2898 12.8325 27.7365C13.0169 27.5979 13.2089 27.4837 13.4083 27.3938C13.5076 27.0399 13.5591 26.6738 13.5609 26.3058C13.556 25.0763 13.0558 23.9006 12.1733 23.0445C11.289 22.1872 10.0974 21.721 8.86614 21.7505H8.77719V22.1971H8.85491C9.9691 22.1659 11.049 22.5843 11.8512 23.3582C12.6518 24.1305 13.1066 25.1934 13.1124 26.3058L13.1162 26.3283ZM14.7229 26.3582C14.7217 26.5538 14.7092 26.7492 14.6855 26.9434C14.837 26.9015 14.9901 26.8653 15.1443 26.8348C15.1443 26.6784 15.1705 26.5183 15.1705 26.3582C15.0984 22.9312 12.3034 20.1831 8.86614 20.1597C8.7285 20.1597 8.60116 20.1597 8.46633 20.1784C8.51502 20.3235 8.55996 20.4687 8.59741 20.6185H8.86614C12.0469 20.6306 14.6396 23.1653 14.7182 26.3357L14.7229 26.3582Z" fill="#CBE30F"></path>
    <path d="M16.4889 29.8039C17.0276 29.7959 17.5597 29.9241 18.0357 30.1766C17.7586 30.2365 17.4786 30.2889 17.1949 30.3292C16.9641 30.2707 16.727 30.2408 16.4889 30.2402C16.0827 30.2485 15.6825 30.3396 15.3129 30.508H14.4346C15.0295 30.0654 15.7476 29.8193 16.4889 29.8039ZM16.4889 28.1944C14.8318 28.1651 13.2622 28.9362 12.2726 30.2655L12.7726 30.3479C13.6917 29.2377 15.0676 28.608 16.5086 28.6382C17.5975 28.641 18.6434 29.0689 19.4206 29.8301C19.5779 29.7814 19.7342 29.7262 19.8878 29.6738C19.0103 28.7287 17.7785 28.1925 16.4889 28.1944ZM16.4889 26.7056C14.1219 26.6792 11.9135 27.8928 10.6667 29.905L11.1143 30.0314C12.2944 28.2144 14.3224 27.1279 16.4889 27.1522C18.2453 27.1133 19.9243 27.8738 21.0535 29.2196C21.1949 29.156 21.3372 29.0923 21.4749 29.0258C20.2675 27.5125 18.4244 26.6476 16.4889 26.6859V26.7056Z" fill="#199DBF"></path>
    <path d="M2.38666 7.87027H2.16569C2.24059 7.72514 2.3567 7.57626 2.45782 7.41241C4.19941 7.39274 5.87545 8.06784 7.1161 9.2907C8.35467 10.5112 9.05216 12.1773 9.0525 13.9162C9.0594 15.498 8.44 17.0182 7.32959 18.1447C7.23457 18.0281 7.13525 17.915 7.03183 17.8057C8.03973 16.7629 8.59874 15.3665 8.58896 13.9162C8.58447 12.2889 7.92542 10.7319 6.76029 9.59594C5.59249 8.45858 4.0174 7.83698 2.3876 7.87027H2.38666ZM0.803317 14.3338C0.770631 13.4263 1.4783 12.6633 2.38573 12.6278C2.73668 12.6152 3.07786 12.7449 3.33176 12.9875C3.58566 13.2301 3.73074 13.565 3.73405 13.9162C3.74243 14.4015 3.35787 14.8028 2.87262 14.8151C2.62086 14.8353 2.3878 14.6811 2.30801 14.4415C2.2469 14.2581 2.31401 14.0564 2.47281 13.9462L2.21063 13.5735C1.87537 13.7945 1.73366 14.2154 1.867 14.5941C2.00932 15.0155 2.41663 15.2879 2.86045 15.2617C3.59325 15.2504 4.17914 14.649 4.17132 13.9162C4.16805 13.4473 3.97545 12.9997 3.63728 12.6749C3.2991 12.3501 2.84404 12.1758 2.37543 12.1915C1.22905 12.2322 0.328462 13.187 0.354812 14.3338C0.351211 14.9573 0.581775 15.5594 1.00088 16.0211C1.18347 15.9836 1.37448 15.9574 1.55707 15.9359C1.08064 15.5401 0.804514 14.9532 0.803317 14.3338ZM6.93164 13.9125C6.93795 14.9863 6.50973 16.017 5.74437 16.7702C5.87545 16.8479 6.00186 16.9293 6.11797 17.0192C6.92604 16.1876 7.37526 15.072 7.36891 13.9125C7.37068 12.6 6.84384 11.3422 5.90729 10.4227C4.96927 9.50185 3.70097 8.99588 2.38666 9.01822C2.08703 9.01822 1.78928 9.04257 1.4934 9.08845C1.41522 9.2497 1.3406 9.41267 1.26961 9.57722C1.63821 9.5004 2.0139 9.46274 2.39041 9.46486C3.59153 9.4279 4.75578 9.88237 5.61422 10.7233C6.47124 11.5628 6.94728 12.7166 6.93164 13.9162V13.9125ZM5.33331 13.9125C5.36843 14.8161 4.882 15.6597 4.08237 16.0819C4.27245 16.1297 4.45597 16.1859 4.6423 16.2496C5.37168 15.6979 5.78924 14.8275 5.76309 13.9134C5.7616 13.022 5.40114 12.1688 4.76309 11.5463C4.1236 10.9232 3.26059 10.5832 2.36794 10.6025C1.80354 10.6075 1.24828 10.7455 0.747137 11.0051C0.676912 11.2158 0.613241 11.4302 0.556124 11.6484C1.09369 11.2586 1.74138 11.05 2.40539 11.0529C3.17565 11.0399 3.91911 11.3356 4.47001 11.8741C5.02058 12.4124 5.33144 13.1484 5.33331 13.9171V13.9125Z" fill="#930F4B"></path>
    <path d="M5.72944 27.3338C5.59836 27.2308 5.46727 27.1297 5.35491 27.0211C7.234 26.1012 8.40771 24.1736 8.36242 22.0819C8.3231 18.8656 5.67888 16.2897 2.45414 16.3263C1.63133 16.3226 0.815128 16.4732 0.0477532 16.7701C0.0390637 16.6128 0.0231291 16.4559 0 16.3C0.780517 16.018 1.60456 15.8753 2.43448 15.8787C5.90454 15.8469 8.74539 18.6222 8.78471 22.0819C8.83395 24.2678 7.6538 26.2968 5.72944 27.3348V27.3338ZM7.18545 22.1184C7.16125 19.5191 5.03762 17.4298 2.43822 17.448C1.6634 17.4445 0.897683 17.6151 0.197567 17.9471C0.223784 18.1034 0.250002 18.256 0.279965 18.4087C0.952741 18.0648 1.6986 17.8885 2.45414 17.8946C4.79505 17.8935 6.69978 19.7786 6.7229 22.1194C6.76315 23.812 5.66916 25.3235 4.04872 25.8142C4.16108 25.934 4.27344 26.0529 4.38861 26.1868C6.10287 25.5791 7.23162 23.9376 7.18545 22.1194V22.1184ZM3.23411 24.8572C3.12175 24.7196 3.01407 24.5773 2.90639 24.4321C3.50752 24.4217 4.07929 24.1703 4.49348 23.7346C4.90726 23.299 5.12802 22.7151 5.10584 22.1147C5.07258 20.6666 3.87622 19.5171 2.42792 19.5416C1.8039 19.5392 1.19538 19.736 0.691017 20.1034C0.642327 19.9546 0.601128 19.8019 0.559929 19.6531C1.11386 19.2866 1.76376 19.0921 2.42792 19.0941C4.12502 19.069 5.52264 20.4214 5.55341 22.1184C5.60265 23.493 4.598 24.6793 3.23411 24.8572ZM1.32211 21.7392C1.25469 21.5679 1.18353 21.4302 1.1208 21.2701C1.45788 20.9124 1.92792 20.7111 2.42043 20.7149C3.24272 20.6696 3.94703 21.2973 3.99629 22.1194C4.04259 22.7874 3.54295 23.3685 2.87549 23.4228C2.55516 23.4353 2.25556 23.2646 2.10301 22.9827C1.96692 22.7043 1.99991 22.3729 2.18822 22.1269L2.56275 22.3909C2.47998 22.497 2.461 22.6395 2.51313 22.7636C2.58959 22.8959 2.73534 22.9724 2.88766 22.9602C3.30652 22.9042 3.60439 22.5245 3.55902 22.1044C3.50693 21.5344 3.01032 21.1096 2.43916 21.1465C1.99055 21.1425 1.57031 21.3655 1.32211 21.7392Z" fill="#75BE1E"></path>
    <path d="M45.93 8.37987V27.6587H41.492V8.37987H36.678V4.62955H50.7176V8.37987H45.93ZM60.6573 13.8816C60.0317 13.7093 59.3852 13.6245 58.7363 13.6294C58.0084 13.6165 57.2842 13.7353 56.5987 13.9801V27.6587H52.3108V11.3691C54.5223 10.5329 56.8694 10.1128 59.2337 10.1301C59.9719 10.1232 60.7089 10.1759 61.4379 10.2894L60.6573 13.8816ZM70.4916 28.0369C65.391 28.0369 62.8408 26.0025 62.8408 22.5032C62.8408 17.8244 67.6536 16.9029 72.7874 16.6186V15.7303C72.7874 13.9469 71.561 13.2775 69.6079 13.2775C67.9745 13.3291 66.3642 13.6741 64.8535 14.2976L63.7852 11.3691C65.7868 10.5661 67.9212 10.1459 70.0778 10.1301C74.4195 10.1301 76.846 11.8471 76.846 16.2404V26.8048C74.8433 27.659 72.6822 28.079 70.5053 28.0369H70.4916ZM72.7874 19.3821C69.64 19.5403 66.8868 19.8257 66.8868 22.4034C66.8868 24.0276 68.1453 24.948 70.3815 24.948C71.2035 24.9609 72.0222 24.8425 72.8069 24.5972V19.3821H72.7874ZM90.4443 27.6518V16.3848C90.4443 14.669 89.4082 13.6145 87.454 13.6145C86.5866 13.6052 85.7241 13.7444 84.9037 14.026V27.6713H80.6215V11.3691C82.7733 10.5134 85.0732 10.0923 87.3886 10.1301C92.4238 10.1301 94.7517 12.231 94.7517 15.9218V27.6587H90.4398L90.4466 27.653V27.6518H90.4443ZM100.797 7.7701C99.4703 7.79632 98.3732 6.74336 98.345 5.41698C98.4054 4.10263 99.4855 3.06636 100.801 3.06042C102.11 3.06042 103.19 4.09543 103.258 5.41698C103.229 6.73339 102.148 7.78232 100.831 7.7701H100.798H100.797ZM98.6602 27.6518V10.5083H102.941V27.6518H98.6602ZM113.943 28.0358C109 28.0358 106.265 24.1846 106.265 19.0623C106.265 13.9389 109.007 10.1221 113.945 10.1221C118.881 10.1221 121.622 13.9389 121.622 19.0623C121.622 24.1857 118.881 28.0369 113.943 28.0369V28.0358ZM113.943 13.5285C111.674 13.5285 110.547 15.5962 110.547 19.0359C110.547 22.4745 111.682 24.5101 113.943 24.5101C116.206 24.5101 117.341 22.4756 117.341 19.0359C117.341 15.5974 116.206 13.5285 113.943 13.5285Z" fill="black"></path>
  </g>
  <defs>
    <clipPath id="clip0_2356_11467">
      <rect width="121.622" height="30" fill="white" transform="translate(0 0.707275)"></rect>
    </clipPath>
  </defs>
</svg>
