<?xml version="1.0" encoding="UTF-8"?>
<svg xmlns="http://www.w3.org/2000/svg" width="135" height="31" viewBox="0 0 135 31" fill="none">
  <g clip-path="url(#clip0_2356_11424)">
    <path d="M18.2131 5.62991C20.7089 5.15994 22.6592 3.20435 23.1224 0.707275C20.6268 1.17725 18.6764 3.13284 18.2131 5.62991Z" fill="#2A89C9"></path>
    <path d="M12.328 17.2362C12.5035 20.6197 15.3887 23.2203 18.7723 23.0447C19.9752 22.9823 21.133 22.5672 22.1016 21.8511C19.3716 19.8421 18.7871 16.0003 20.7962 13.2703C21.3031 12.5816 21.9482 12.0063 22.6904 11.5816C22.1143 10.8421 21.4508 10.1751 20.7145 9.59492C16.4895 6.22128 12.8744 3.42048 12.3121 1.07324C11.7471 3.42048 8.13483 6.22128 3.9098 9.58167C-0.315217 12.9421 0.00557547 16.902 0.00557547 16.902C-0.00518323 20.2959 2.73737 23.0559 6.13121 23.0668C9.41144 23.0772 12.1216 20.5095 12.2881 17.2335C12.0565 21.8845 9.21017 26.003 4.94133 27.8637H19.6746C15.4067 26.0035 12.5605 21.8863 12.328 17.2362Z" fill="#2A89C9"></path>
    <path d="M67.4285 21.8486V8.09132H70.6297C71.0754 8.09067 71.5201 8.13777 71.9558 8.23184C72.3734 8.31844 72.767 8.4949 73.1095 8.74892C73.4671 9.0272 73.7474 9.39247 73.9237 9.80983C74.1487 10.365 74.2536 10.9617 74.2314 11.5604V13.8279C74.2536 14.4266 74.1487 15.0232 73.9237 15.5785C73.7443 15.9941 73.4645 16.3586 73.1095 16.6394C72.7694 16.9003 72.3751 17.0815 71.9558 17.1698C71.5201 17.2639 71.0754 17.311 70.6297 17.3104H69.7146V21.8486H67.4285ZM69.7147 15.2948H70.5317C70.9207 15.3315 71.3091 15.2177 71.6165 14.9765C71.8357 14.7643 71.9454 14.4108 71.9454 13.9156V11.4942C71.9454 10.9761 71.8357 10.6117 71.6165 10.4014C71.3091 10.1603 70.9207 10.0464 70.5317 10.0831H69.7147V15.2948Z" fill="#2A89C9"></path>
    <path d="M80.1539 21.0556C79.6234 21.586 78.8578 21.8512 77.857 21.8512C76.8562 21.8512 76.0835 21.586 75.539 21.0556C75.0086 20.5251 74.7434 19.6968 74.7434 18.5704V14.8281C74.7434 13.7019 75.0086 12.8736 75.539 12.3431C76.0695 11.8126 76.8421 11.5475 77.857 11.5475C78.8526 11.5475 79.6181 11.8126 80.1539 12.3431C80.6897 12.8736 80.9549 13.7028 80.9495 14.8309V18.5706C80.9567 19.6967 80.6915 20.5251 80.1539 21.0556ZM77.857 13.2791C77.5386 13.2481 77.2236 13.3654 77.003 13.5974C76.8083 13.8761 76.7147 14.2129 76.7378 14.5522V18.8487C76.7147 19.188 76.8083 19.5248 77.003 19.8035C77.2236 20.0354 77.5386 20.1527 77.857 20.1218C78.5873 20.1218 78.9524 19.6975 78.9524 18.8487V14.5494C78.9506 13.7007 78.5856 13.2764 77.857 13.2764V13.2791Z" fill="#2A89C9"></path>
    <path d="M84.2571 15.2948C84.4339 14.9163 84.6692 14.4742 84.9625 13.9687L86.3338 11.5418H88.2619L85.9386 15.8413L88.4634 21.8485H86.355L84.6256 17.6049L83.7716 19.077V21.8485H81.7427V8.08069H83.7716V16.3397C83.9149 16.0215 84.0768 15.6732 84.2571 15.2948Z" fill="#2A89C9"></path>
    <path d="M90.5005 18.8462C90.4774 19.1854 90.571 19.5222 90.7657 19.801C90.9869 20.0335 91.3029 20.151 91.6223 20.1193C92.3524 20.1193 92.7168 19.695 92.715 18.8462V18.7003H94.5715V18.5677C94.5715 19.6959 94.3063 20.5251 93.7759 21.0556C93.2454 21.586 92.4931 21.8512 91.5189 21.8512C90.5252 21.8512 89.7693 21.586 89.2512 21.0556C88.7332 20.5251 88.475 19.6968 88.4768 18.5704V14.8281C88.4768 13.7019 88.735 12.8736 89.2512 12.3431C89.7676 11.8126 90.5233 11.5475 91.5189 11.5475C92.5002 11.5475 93.2525 11.8126 93.7759 12.3431C94.2992 12.8736 94.5645 13.7028 94.5715 14.8309V17.2975H90.5004L90.5005 18.8462ZM92.7071 15.6422V14.5496C92.7071 13.7008 92.3429 13.2765 91.6144 13.2765C91.2951 13.2451 90.979 13.3624 90.7578 13.5948C90.5631 13.8735 90.4695 14.2103 90.4926 14.5496V15.6422H92.7071Z" fill="#2A89C9"></path>
    <path d="M95.3169 11.5472H97.2079V13.1384C97.2249 13.045 97.2581 12.9552 97.3061 12.8732C97.3437 12.7878 97.3862 12.7045 97.4333 12.6239C97.5275 12.4639 97.6396 12.3154 97.7677 12.181C98.3013 11.568 99.1652 11.3614 99.9186 11.6664C100.167 11.7556 100.385 11.9151 100.545 12.1252C100.735 12.3831 100.871 12.6773 100.942 12.9899C101.044 13.4333 101.091 13.8877 101.08 14.3426V14.9049H99.2239V14.5522C99.2239 14.0606 99.1444 13.7255 98.9852 13.547C98.7597 13.3046 98.414 13.2158 98.0993 13.3189C97.7921 13.4703 97.5622 13.7435 97.4655 14.0722C97.3946 14.2713 97.3596 14.4814 97.362 14.6928V21.8537H95.3329L95.3169 11.5472Z" fill="#2A89C9"></path>
    <path d="M35.3256 16.2204C35.2461 15.6244 35.17 15.0056 35.0975 14.3638C35.025 13.7219 34.9684 13.0686 34.9278 12.4039C34.8623 13.067 34.7996 13.7203 34.7395 14.3638C34.6794 15.0074 34.6095 15.6263 34.53 16.2204L33.7555 21.8485H31.0687L29.0212 8.078H31.3472L32.1428 13.4966C32.249 14.2922 32.3453 15.0447 32.432 15.7537C32.5186 16.4626 32.5947 17.215 32.66 18.0106C32.713 17.215 32.7794 16.4626 32.8589 15.7537C32.9385 15.0447 33.0384 14.2852 33.1586 13.4753L33.9542 8.078H36.222L36.9965 13.4966C37.1026 14.2922 37.1954 15.0447 37.275 15.7537C37.3545 16.4626 37.4271 17.215 37.4925 18.0106C37.5597 17.215 37.6295 16.4626 37.7021 15.7537C37.7746 15.0447 37.8709 14.2852 37.9912 13.4753L38.7869 8.078H40.8954L38.8479 21.8512H36.1213L35.3256 16.2204Z" fill="black"></path>
    <path d="M46.3006 21.0556C45.7701 21.586 45.0046 21.8512 44.0037 21.8512C43.0029 21.8512 42.2303 21.586 41.6858 21.0556C41.1553 20.5251 40.8901 19.6968 40.8901 18.5704V14.8281C40.8901 13.7019 41.1553 12.8736 41.6858 12.3431C42.2162 11.8126 42.9889 11.5475 44.0037 11.5475C44.9993 11.5475 45.7649 11.8126 46.3006 12.3431C46.8364 12.8736 47.1016 13.7028 47.0962 14.8309V18.5706C47.1016 19.6967 46.8364 20.5251 46.3006 21.0556ZM44.0037 13.2791C43.6853 13.2481 43.3703 13.3654 43.1497 13.5974C42.955 13.8761 42.8615 14.2129 42.8846 14.5522V18.8487C42.8615 19.188 42.955 19.5248 43.1497 19.8035C43.3703 20.0354 43.6853 20.1527 44.0037 20.1218C44.734 20.1218 45.0992 19.6975 45.0992 18.8487V14.5494C45.0957 13.7007 44.7297 13.2764 44.0012 13.2764L44.0037 13.2791Z" fill="black"></path>
    <path d="M47.8813 11.5472H49.7725V13.1384C49.7894 13.045 49.8226 12.9552 49.8707 12.8732C49.9083 12.7878 49.9507 12.7045 49.9979 12.6239C50.092 12.4639 50.2042 12.3154 50.3321 12.181C50.8658 11.568 51.7297 11.3614 52.4832 11.6664C52.7318 11.7556 52.9492 11.9151 53.1092 12.1252C53.2999 12.3831 53.4353 12.6773 53.507 12.9899C53.6086 13.4333 53.655 13.8877 53.645 14.3426V14.9049H51.7885V14.5522C51.7885 14.0606 51.7088 13.7255 51.5498 13.547C51.3241 13.3046 50.9784 13.2158 50.6639 13.3189C50.3565 13.4703 50.1266 13.7435 50.0301 14.0722C49.9592 14.2713 49.9242 14.4814 49.9266 14.6928V21.8537H47.8976L47.8813 11.5472Z" fill="black"></path>
    <path d="M54.4854 8.078H56.5144V21.8485H54.4854V8.078Z" fill="black"></path>
    <path d="M113.869 18.8462C113.846 19.1854 113.94 19.5222 114.135 19.801C114.356 20.0335 114.672 20.151 114.991 20.1193C115.721 20.1193 116.086 19.695 116.084 18.8462V18.7003H117.94V18.5677C117.94 19.6959 117.675 20.5251 117.145 21.0556C116.614 21.586 115.862 21.8512 114.888 21.8512C113.894 21.8512 113.138 21.586 112.62 21.0556C112.102 20.5251 111.844 19.6968 111.846 18.5704V14.8281C111.846 13.7019 112.104 12.8736 112.62 12.3431C113.137 11.8126 113.892 11.5475 114.888 11.5475C115.869 11.5475 116.621 11.8126 117.145 12.3431C117.668 12.8736 117.933 13.7028 117.94 14.8309V17.2975H113.869L113.869 18.8462ZM116.076 15.6422V14.5496C116.076 13.7008 115.712 13.2765 114.983 13.2765C114.664 13.2451 114.348 13.3624 114.127 13.5948C113.932 13.8735 113.838 14.2103 113.862 14.5496V15.6422H116.076Z" fill="black"></path>
    <path d="M107.565 8.07801C108.011 8.07749 108.455 8.12459 108.891 8.21853C109.309 8.30513 109.702 8.48173 110.045 8.73574C110.403 9.01363 110.685 9.3789 110.862 9.79665C111.087 10.3518 111.192 10.9484 111.169 11.5472V18.3874C111.192 18.9859 111.087 19.5825 110.862 20.1379C110.685 20.5555 110.403 20.9208 110.045 21.1988C109.704 21.4575 109.31 21.6386 108.891 21.7292C108.455 21.8232 108.011 21.8703 107.565 21.8698H104.321V8.07801H107.565ZM106.61 19.8593H107.464C107.853 19.8961 108.242 19.7822 108.549 19.541C108.768 19.3289 108.878 18.9645 108.878 18.4484V11.4782C108.878 10.9602 108.768 10.5958 108.549 10.3855C108.242 10.1443 107.853 10.0305 107.464 10.0672H106.61V19.8593Z" fill="black"></path>
    <path d="M125.63 8.078H127.659V21.8485H125.63V8.078Z" fill="black"></path>
    <path d="M132.035 18.0691C131.727 17.7523 131.357 17.5038 130.947 17.3396C130.263 17.0293 129.531 16.7455 128.99 16.2045C128.216 15.4274 128.139 14.2498 128.502 13.2552C128.753 12.5496 129.314 11.9981 130.024 11.7595C131.536 11.229 133.738 11.6162 134.223 13.3878C134.309 13.7347 134.349 14.0914 134.342 14.4488V14.8014H132.486V14.47C132.486 14.0536 132.393 13.5789 132.029 13.3242C131.611 13.0537 131.066 13.0859 130.682 13.4037C130.351 13.7598 130.241 14.2689 130.395 14.7298C130.565 15.1382 131.016 15.3876 131.393 15.568C132.104 15.9075 132.865 16.1701 133.43 16.743C134.058 17.3573 134.399 18.2068 134.371 19.085C134.334 19.8222 134.133 20.618 133.576 21.1378C133.019 21.6577 132.313 21.8645 131.358 21.8645C130.404 21.8645 129.648 21.5994 129.131 21.1087C128.613 20.618 128.356 19.817 128.356 18.7428V18.4776H130.213V18.9286C130.213 19.5864 130.497 20.2098 131.231 20.2546C132.324 20.3208 132.642 18.7798 132.035 18.0691Z" fill="black"></path>
    <path d="M61.6176 8.078H61.538V12.8204C61.3553 12.4522 61.0815 12.1372 60.7423 11.9052C60.3782 11.6614 59.9472 11.5363 59.5092 11.5472C59.2082 11.5445 58.9088 11.5922 58.6233 11.6877C58.3542 11.7783 58.1142 11.9396 57.9284 12.1545C57.7151 12.414 57.5595 12.7159 57.4722 13.0404C57.3493 13.4867 57.2922 13.9487 57.3024 14.4115V18.9867C57.2922 19.4496 57.3493 19.9114 57.4722 20.3579C57.5596 20.6822 57.7152 20.9841 57.9284 21.2436C58.1134 21.4582 58.3525 21.6193 58.6206 21.7106C58.9061 21.8061 59.2054 21.8536 59.5064 21.8511C59.9815 21.8652 60.4478 21.7216 60.8325 21.4427C61.195 21.1804 61.4717 20.8167 61.6281 20.3976V21.8485H63.5643V8.078H61.6176ZM61.5378 18.7081C61.5494 19.0746 61.4258 19.4324 61.1905 19.7134C60.9802 19.975 60.6615 20.1258 60.3259 20.1217C60.051 20.1435 59.78 20.0471 59.5805 19.8566C59.4143 19.6797 59.3312 19.3447 59.3312 18.8514V14.5547C59.3312 14.0633 59.4144 13.7282 59.5805 13.5496C59.78 13.3591 60.051 13.2625 60.3259 13.2844C60.6615 13.2806 60.9802 13.4311 61.1905 13.6929C61.4239 13.9718 61.5475 14.3264 61.5378 14.6901V18.7081Z" fill="black"></path>
    <path d="M124.744 19.6127V14.8095C124.744 13.6832 124.495 12.8574 123.999 12.3324C123.502 11.8072 122.756 11.542 121.76 11.5367C120.766 11.5367 120.014 11.8019 119.503 12.3324C118.992 12.8628 118.736 13.6885 118.736 14.8095V15.0298H120.625V14.5497C120.602 14.2109 120.685 13.8735 120.864 13.5843C121.065 13.3463 121.37 13.2231 121.68 13.2554C121.984 13.2261 122.282 13.3493 122.476 13.5843C122.877 14.1323 122.758 14.9013 122.211 15.3031C121.827 15.5451 121.424 15.7538 121.004 15.9263C120.635 16.1126 120.28 16.3262 119.943 16.5655C119.27 17.0103 118.78 17.6825 118.561 18.4593C118.315 19.4883 118.49 20.9338 119.463 21.5385C120.269 21.9936 121.264 21.9482 122.025 21.4218C122.377 21.1514 122.64 20.782 122.781 20.3609V21.8436H124.731V20.467C124.744 20.2094 124.752 19.923 124.744 19.6127ZM122.715 18.7162C122.727 19.0808 122.607 19.4376 122.378 19.7215C122.166 19.9871 121.842 20.1383 121.503 20.1298C120.963 20.1589 120.502 19.7449 120.473 19.2052C120.471 19.166 120.471 19.1266 120.474 19.0875C120.497 18.3436 120.924 17.6713 121.588 17.3345C121.956 17.133 122.354 16.9897 122.717 16.7828C122.712 17.4165 122.715 18.0691 122.715 18.7162Z" fill="black"></path>
    <path d="M33.0104 26.1001C34.232 26.0391 35.2717 26.9801 35.3327 28.2017C35.3358 28.2667 35.3362 28.3319 35.3337 28.3969C35.3638 29.6358 34.3839 30.6645 33.1451 30.6946C33.1002 30.6958 33.0552 30.6955 33.0104 30.6938C31.7917 30.7549 30.7543 29.8164 30.6932 28.5978C30.6899 28.5309 30.6895 28.4639 30.6923 28.3969C30.6593 27.1611 31.6344 26.1325 32.8702 26.0994C32.9168 26.0981 32.9637 26.0984 33.0104 26.1001ZM33.0104 29.9644C33.9466 29.9644 34.5062 29.2776 34.5062 28.3996C34.5554 27.575 33.9267 26.8665 33.102 26.8173C32.2772 26.7681 31.5688 27.3968 31.5196 28.2214C31.5161 28.2807 31.5161 28.3401 31.5196 28.3994C31.4874 29.2309 32.1352 29.931 32.9665 29.9633C32.9812 29.9639 32.9958 29.9643 33.0104 29.9644Z" fill="#C7C8CA"></path>
    <path d="M39.6699 30.6275L37.2192 27.5403V30.6275H36.4871V26.1691H37.1103L39.561 29.2695V26.1691H40.293V30.6249L39.6699 30.6275Z" fill="#C7C8CA"></path>
    <path d="M41.7361 26.1689H42.5317V29.8821H44.5368V30.6141H41.7361V26.1689Z" fill="#C7C8CA"></path>
    <path d="M45.489 26.1689H46.2846V30.6248H45.489V26.1689Z" fill="#C7C8CA"></path>
    <path d="M50.9288 30.6275L48.4781 27.5403V30.6275H47.7461V26.1691H48.3693L50.8201 29.2695V26.1691H51.5521V30.6249L50.9288 30.6275Z" fill="#C7C8CA"></path>
    <path d="M53.0002 26.1689H55.5782V26.9009H53.7826V28.0096H55.3739V28.7416H53.7826V29.882H55.6391V30.614H52.9868L53.0002 26.1689Z" fill="#C7C8CA"></path>
    <path d="M58.647 30.6275V26.1691C58.8961 26.1691 59.6017 26.1691 59.9147 26.1691C61.2249 26.1691 61.6387 26.8693 61.6387 27.6013C61.6387 28.3333 61.0711 29.0469 60.0102 29.0469C59.8775 29.0469 59.623 29.0469 59.4321 29.0283V30.6383L58.647 30.6275ZM59.4427 26.9143V28.2829C59.6267 28.3028 59.8117 28.3135 59.9971 28.3146C60.4611 28.3146 60.8246 28.092 60.8246 27.5959C60.8246 27.0998 60.5381 26.9009 60.0023 26.9009C59.83 26.8904 59.6389 26.8957 59.4162 26.9037L59.4427 26.9143Z" fill="#C7C8CA"></path>
    <path d="M64.7896 26.1001C66.0112 26.0391 67.0508 26.9801 67.1118 28.2017C67.1149 28.2667 67.1153 28.3319 67.113 28.3969C67.143 29.6358 66.1632 30.6645 64.9242 30.6946C64.8794 30.6958 64.8344 30.6955 64.7896 30.6938C63.571 30.7549 62.5336 29.8164 62.4724 28.5978C62.4691 28.5309 62.4689 28.4639 62.4715 28.3969C62.4384 27.1611 63.4135 26.1325 64.6495 26.0994C64.6961 26.0981 64.7428 26.0984 64.7896 26.1001ZM64.7896 29.9644C65.7259 29.9644 66.2853 29.2776 66.2853 28.3996C66.3345 27.575 65.7059 26.8665 64.8812 26.8173C64.0566 26.7681 63.3481 27.3968 63.2989 28.2214C63.2955 28.2807 63.2955 28.3401 63.2989 28.3994C63.2666 29.2309 63.9143 29.931 64.7458 29.9633C64.7605 29.9639 64.7749 29.9643 64.7896 29.9644Z" fill="#C7C8CA"></path>
    <path d="M68.2639 26.1689H69.0595V28.2908L70.8153 26.1689H71.7568L69.9242 28.2431L71.8708 30.6301H70.8789L69.0595 28.3332V30.6301H68.2639V26.1689Z" fill="#C7C8CA"></path>
    <path d="M72.7782 26.1689H75.3561V26.9009H73.5604V28.0096H75.1518V28.7416H73.5604V29.882H75.4169V30.614H72.7646L72.7782 26.1689Z" fill="#C7C8CA"></path>
    <path d="M76.6558 30.6275V26.1691H78.0111C79.2258 26.1691 79.629 26.7738 79.629 27.5457C79.6542 28.1129 79.3052 28.6299 78.7696 28.8187L80.1647 30.6381H79.2153L77.982 28.9592H77.4515V30.6275H76.6558ZM77.4514 26.9143V28.2404H77.9607C78.4117 28.2404 78.8147 28.0124 78.8147 27.5535C78.8147 27.2033 78.6238 26.9037 77.9872 26.9037C77.8281 26.8904 77.6504 26.8957 77.4514 26.9037V26.9143Z" fill="#C7C8CA"></path>
    <path d="M82.8328 30.6275V26.1691H84.1881C85.4028 26.1691 85.806 26.7738 85.806 27.5457C85.8312 28.1129 85.4822 28.6299 84.9466 28.8187L86.3417 30.6381H85.3923L84.1643 28.9697H83.618V30.6381L82.8328 30.6275ZM83.6285 26.9143V28.2404H84.1378C84.5888 28.2404 84.9919 28.0124 84.9919 27.5535C84.9919 27.2033 84.8009 26.9037 84.1643 26.9037C84.0026 26.8904 83.8169 26.8957 83.6153 26.9037L83.6285 26.9143Z" fill="#C7C8CA"></path>
    <path d="M89.145 26.1001C90.3667 26.0391 91.4063 26.9801 91.4673 28.2017C91.4705 28.2667 91.4709 28.3319 91.4684 28.3969C91.4984 29.6358 90.5186 30.6645 89.2798 30.6946C89.2348 30.6958 89.1898 30.6955 89.145 30.6938C87.9264 30.7549 86.889 29.8164 86.828 28.5978C86.8247 28.5309 86.8243 28.4639 86.8269 28.3969C86.794 27.1611 87.7691 26.1325 89.0049 26.0994C89.0517 26.0981 89.0984 26.0984 89.145 26.1001ZM89.145 29.9644C90.0813 29.9644 90.6409 29.2776 90.6409 28.3996C90.6901 27.575 90.0613 26.8665 89.2367 26.8173C88.412 26.7681 87.7035 27.3968 87.6544 28.2214C87.6509 28.2807 87.6509 28.3401 87.6544 28.3994C87.6221 29.2309 88.2699 29.931 89.1013 29.9633C89.116 29.9639 89.1306 29.9643 89.145 29.9644Z" fill="#C7C8CA"></path>
    <path d="M96.0598 30.1951C95.6652 30.5377 95.155 30.7171 94.6328 30.6963C93.2696 30.6963 92.3359 29.7866 92.3359 28.3995C92.3359 27.1211 93.1316 26.1026 94.6142 26.1026C95.1058 26.0835 95.5874 26.2437 95.9695 26.5536L95.6194 27.1344C95.3248 26.93 94.9726 26.8252 94.6142 26.8347C93.7867 26.8347 93.1633 27.4341 93.1633 28.3996C93.1158 29.2156 93.7386 29.9157 94.5546 29.9633C94.6046 29.9662 94.6546 29.9666 94.7044 29.9645C95.0877 29.9667 95.4608 29.8415 95.7653 29.609L96.0598 30.1951Z" fill="#C7C8CA"></path>
    <path d="M97.041 26.1689H97.8366V28.2908L99.595 26.1689H100.526L98.6932 28.2431L100.64 30.6301H99.648L97.8286 28.3332V30.6301H97.033L97.041 26.1689Z" fill="#C7C8CA"></path>
    <path d="M101.295 27.3307C101.295 26.6623 101.826 26.1028 102.682 26.1028C103.154 26.0794 103.615 26.2524 103.955 26.5803L103.536 27.1663C103.332 26.9449 103.041 26.8236 102.741 26.8349C102.353 26.8349 102.117 27.0312 102.117 27.3255C102.117 28.2485 104.136 27.9568 104.136 29.4473C104.136 30.1979 103.481 30.7073 102.645 30.7073C102.072 30.7073 101.404 30.458 101.187 30.007L101.632 29.4766C101.881 29.7888 102.257 29.9736 102.656 29.9805C103.025 29.9805 103.306 29.7949 103.306 29.4501C103.313 28.5561 101.295 28.7815 101.295 27.3307Z" fill="#C7C8CA"></path>
    <path d="M104.796 26.1689H108.483V26.9009H107.024V30.6141H106.228V26.9009H104.796V26.1689H104.796Z" fill="#C7C8CA"></path>
    <path d="M110.247 26.1689H110.933L112.817 30.638H111.984L111.52 29.5001H109.615L109.151 30.638H108.355L110.247 26.1689ZM109.915 28.7656H111.22L110.57 27.1742L109.915 28.7656Z" fill="#C7C8CA"></path>
    <path d="M113.729 30.6275V26.1691H115.084C116.299 26.1691 116.702 26.7738 116.702 27.5457C116.727 28.1129 116.378 28.6299 115.843 28.8187L117.238 30.6381H116.288L115.06 28.9697H114.514V30.6381L113.729 30.6275ZM114.525 26.9143V28.2404H115.034C115.485 28.2404 115.888 28.0124 115.888 27.5535C115.888 27.2033 115.697 26.9037 115.06 26.9037C114.901 26.8904 114.724 26.8957 114.514 26.9037L114.525 26.9143Z" fill="#C7C8CA"></path>
    <path d="M117.906 27.3307C117.906 26.6623 118.437 26.1028 119.293 26.1028C119.765 26.0794 120.226 26.2524 120.566 26.5803L120.153 27.1637C119.949 26.9421 119.658 26.821 119.357 26.8322C118.97 26.8322 118.734 27.0284 118.734 27.3229C118.734 28.2458 120.752 27.9541 120.752 29.4447C120.752 30.1953 120.097 30.7045 119.262 30.7045C118.689 30.7045 118.02 30.4552 117.803 30.0043L118.249 29.4738C118.498 29.7861 118.873 29.9708 119.272 29.9778C119.641 29.9778 119.922 29.7921 119.922 29.4473C119.922 28.5561 117.906 28.7815 117.906 27.3307Z" fill="#C7C8CA"></path>
  </g>
  <defs>
    <clipPath id="clip0_2356_11424">
      <rect width="135" height="30" fill="white" transform="translate(0 0.707275)"></rect>
    </clipPath>
  </defs>
</svg>
