<?xml version="1.0" encoding="UTF-8"?>
<svg xmlns="http://www.w3.org/2000/svg" width="110" height="30" viewBox="0 0 110 30" fill="none">
  <g clip-path="url(#clip0_2353_11257)">
    <path d="M44.1996 16.5971V22.7627H40.6208V5.26389H47.3963C48.6999 5.26389 49.848 5.50442 50.8373 5.9855C51.8278 6.46657 52.5884 7.14902 53.1213 8.0351C53.6543 8.92005 53.9208 9.92807 53.9208 11.058C53.9208 12.7731 53.3379 14.1246 52.1731 15.1136C51.0083 16.1026 49.3961 16.5982 47.3363 16.5982H44.1996V16.5971ZM44.1996 13.6771H47.3963C48.3423 13.6771 49.0641 13.4522 49.5615 13.0036C50.059 12.555 50.3066 11.9139 50.3066 11.0804C50.3066 10.2234 50.0556 9.52978 49.5548 9.00172C49.0541 8.47254 48.3623 8.20067 47.4796 8.18501H44.1996V13.6771ZM63.4033 13.0159C62.9924 12.9563 62.5781 12.9242 62.163 12.9197C60.8595 12.9197 60.0045 13.3638 59.5981 14.2533V22.7616H56.1515V9.75801H59.4082L59.5037 11.3086C60.1955 10.1149 61.1537 9.51748 62.3785 9.51748C62.7604 9.51748 63.118 9.57006 63.4522 9.6741L63.4044 13.0148L63.4033 13.0159ZM71.0016 23.0032C69.1095 23.0032 67.5683 22.4181 66.3791 21.249C65.1899 20.0787 64.5959 18.5214 64.5959 16.5736V16.2368C64.5959 14.9312 64.8468 13.7632 65.3476 12.734C65.8483 11.7047 66.5579 10.9115 67.4761 10.3543C68.3944 9.79717 69.4426 9.51859 70.6196 9.51859C72.3851 9.51859 73.7741 10.0791 74.7879 11.2012C75.8017 12.3234 76.3091 13.9131 76.3091 15.9728V17.3914H68.0913C68.2023 18.2406 68.5388 18.9219 69.0995 19.4343C69.6602 19.9467 70.3698 20.204 71.2281 20.204C72.5561 20.204 73.5943 19.7196 74.3415 18.7496L76.0348 20.6605C75.5185 21.3978 74.8179 21.9728 73.9351 22.3856C73.0524 22.7985 72.0742 23.0043 71.0004 23.0043L71.0016 23.0032ZM70.6085 12.3312C69.9245 12.3312 69.3704 12.5639 68.944 13.0282C68.5188 13.4925 68.2467 14.1582 68.1268 15.023H72.9214V14.7466C72.9058 13.9769 72.6982 13.3828 72.3007 12.9622C71.9032 12.5415 71.338 12.3312 70.6074 12.3312H70.6085ZM89.8833 16.3812C89.8833 18.3838 89.4325 19.9881 88.5298 21.1941C87.6271 22.4002 86.409 23.0032 84.8745 23.0032C83.5709 23.0032 82.5172 22.5467 81.7132 21.6327V27.7625H78.2667V9.75913H81.4634L81.5822 11.0334C82.4172 10.0243 83.5065 9.51859 84.85 9.51859C86.4401 9.51859 87.677 10.1115 88.5598 11.2974C89.4425 12.4834 89.8833 14.1179 89.8833 16.201V16.3812ZM86.4367 16.1283C86.4367 14.9189 86.2235 13.9848 85.7983 13.328C85.373 12.6713 84.7545 12.3424 83.944 12.3424C82.8625 12.3424 82.1185 12.7586 81.7132 13.5921V18.9163C82.1352 19.7733 82.8858 20.2018 83.9673 20.2018C85.6129 20.2018 86.4367 18.8436 86.4367 16.1272V16.1283ZM95.6572 22.7627H92.1984V4.30286H95.6572V22.7627ZM103.314 17.8468L105.699 9.75913H109.397L104.208 24.7821L103.922 25.4668C103.15 27.1651 101.879 28.0142 100.104 28.0142C99.6035 28.0142 99.0938 27.9381 98.5775 27.786V25.1535L99.1027 25.1658C99.7545 25.1658 100.242 25.0651 100.564 24.8649C100.886 24.6646 101.138 24.3323 101.321 23.8669L101.726 22.7974L97.2062 9.75801H100.916L103.313 17.8456L103.314 17.8468Z" fill="black"></path>
    <path d="M0.0446982 17.2717L0.32451 17.5234C1.7269 18.7339 3.42798 19.5428 5.16681 20.1671C4.35069 20.4669 3.54568 20.8092 2.78286 21.2165C2.47449 21.3809 2.3563 21.7657 2.51859 22.0768C2.6807 22.3878 3.06267 22.5076 3.37024 22.3431C4.56055 21.7076 5.88633 21.2333 7.20322 20.826L8.61783 21.2344C9.37509 21.4492 10.0979 21.655 10.7497 21.8676C10.129 22.0668 9.45393 22.2581 8.75329 22.4583C6.8046 23.0132 4.66826 23.6207 2.78286 24.6276C2.47449 24.792 2.3563 25.1768 2.51859 25.488C2.6807 25.799 3.06267 25.9187 3.37024 25.7542C5.13683 24.81 7.20655 24.2215 9.09417 23.6845C10.3522 23.3265 11.5359 22.9886 12.5363 22.5792V22.5803C13.1448 22.9025 13.5556 23.2638 13.68 23.7013C13.3646 24.8178 11.1828 25.4387 8.61783 26.1682C5.7864 26.9737 2.57189 27.8889 0.229019 29.9653L0.149072 30L0.00583542 29.9866L0.000283593 29.9843V17.9508C0.000283593 17.7192 0.0147183 17.4921 0.0446982 17.2717ZM0.149072 0L0.229019 0.0346821C2.57189 2.11113 5.78751 3.02629 8.61783 3.83181C11.3915 4.62167 13.7188 5.28398 13.7188 6.58288V20.6079C12.5163 19.9623 10.9374 19.5126 9.23075 19.027C6.66358 18.2965 3.75221 17.4686 1.79907 15.7815C1.18948 15.2545 0.734235 14.6772 0.436657 14.053C0.141827 13.4272 -0.0074177 12.7419 0.000283593 12.0492V0.0156629L0.00583542 0.0134253L0.149072 0Z" fill="#3BB3BD"></path>
    <path d="M15.9939 9.39335C17.1964 10.0389 18.7754 10.4886 20.482 10.9742C23.0492 11.7047 25.9605 12.5338 27.9126 14.2198C28.5221 14.7467 28.9774 15.324 29.2761 15.9483C29.5704 16.5738 29.7196 17.2586 29.7125 17.9509V29.9844L29.708 29.9867L29.5648 30.0001L29.4848 29.9654C27.142 27.889 23.9263 26.9738 21.096 26.1683C18.3223 25.3784 15.995 24.7161 15.995 23.4172H15.9939V9.39335ZM29.5637 0.0012207L29.7069 0.014646L29.7113 0.0168836V12.0504C29.7113 12.2832 29.6958 12.5091 29.6669 12.7295L29.3871 12.4778C27.9847 11.2673 26.2848 10.4595 24.5448 9.83415C25.3609 9.53432 26.1659 9.19197 26.9288 8.78474C27.2371 8.62035 27.3553 8.23555 27.193 7.9244C27.1153 7.77511 26.9819 7.66312 26.8221 7.61316C26.6623 7.5632 26.4893 7.57938 26.3414 7.65813C25.1511 8.2936 23.8253 8.76796 22.5084 9.17407L21.0938 8.76572C20.3365 8.5498 19.6137 8.34394 18.9619 8.13249C19.5837 7.93335 20.2577 7.74092 20.9583 7.54178C22.907 6.98686 25.0434 6.37937 26.9288 5.37135C27.2129 5.19583 27.3132 4.8284 27.1582 4.53114C27.0033 4.23387 26.646 4.10863 26.3414 4.24474C24.5748 5.18899 22.5051 5.77747 20.6175 6.3156C19.3594 6.67361 18.1758 7.01036 17.1764 7.42095C16.568 7.09874 16.1571 6.73738 16.0328 6.29994C16.3481 5.18451 18.5311 4.56359 21.0949 3.83303C23.9263 3.02751 27.1408 2.11235 29.4837 0.0359028L29.5637 0.0012207Z" fill="#F8463D"></path>
  </g>
  <defs>
    <clipPath id="clip0_2353_11257">
      <rect width="110" height="30" fill="white"></rect>
    </clipPath>
  </defs>
</svg>
