<?xml version="1.0" encoding="UTF-8"?>
<svg xmlns="http://www.w3.org/2000/svg" width="150" height="19" viewBox="0 0 150 19" fill="none">
  <g clip-path="url(#clip0_2356_11410)">
    <path fill-rule="evenodd" clip-rule="evenodd" d="M16.2932 0.826416V4.14773H14.8519V5.90239H16.2932V11.1246C16.2932 11.7721 16.3977 12.2944 16.5648 12.7121C16.7528 13.1299 17.0035 13.4641 17.3377 13.7357C17.651 14.0072 18.0061 14.1952 18.4448 14.3206C18.6367 14.3754 19.6003 14.4182 20.6236 14.4491L20.917 14.4576C22.0431 14.4888 23.1596 14.5057 23.331 14.5082L23.3537 14.5086V12.7539H22.7897C22.5599 12.7539 22.2883 12.733 21.9332 12.6912C21.5781 12.6495 21.2648 12.5241 20.9932 12.3152C20.659 12.0228 20.4919 11.6677 20.4292 11.2499C20.3666 10.8321 20.3457 10.4561 20.3666 10.0801V5.90239H23.291V4.14773H20.3666V0.826416H23.7714C24.7741 0.826416 25.5679 1.64108 25.5679 2.62285V16.8899C25.5679 17.8925 24.7532 18.6863 23.7714 18.6863H7.22752V14.5295H10.1311C10.6951 14.5712 11.3217 14.4877 11.9902 14.3206C12.6586 14.1535 13.2644 13.7357 13.7866 13.0464C14.1417 12.5032 14.3715 11.8975 14.4759 11.2081C14.5595 10.5397 14.6221 9.82948 14.6013 9.14015C14.6221 8.53438 14.5804 7.90771 14.455 7.19749C14.3297 6.50816 14.0164 5.86061 13.515 5.29661C12.9719 4.79528 12.4288 4.46106 11.8439 4.33573C11.2591 4.18951 10.7786 4.12684 10.4235 4.14773H4.55375C4.34487 4.14773 4.13598 4.16862 3.9062 4.2104C3.67643 4.25218 3.46754 4.33573 3.25865 4.48195C3.11243 4.5864 2.9871 4.73262 2.86176 4.94151C2.75732 5.15039 2.67376 5.42195 2.67376 5.75617V18.7072H1.79644C0.793774 18.7072 0 17.8925 0 16.9108V2.62285C0 1.62019 0.793774 0.826416 1.79644 0.826416H16.2932ZM7.66043 5.90258L7.79377 5.90611C8.23331 5.92829 8.61871 6.04861 8.91951 6.23661C9.25373 6.4455 9.5044 6.73794 9.65062 7.07216C9.71328 7.19749 9.77595 7.42727 9.83862 7.76149C9.90128 8.09571 9.94306 8.61793 9.94306 9.30726C9.94306 10.0801 9.90128 10.6441 9.81773 11.0201C9.73417 11.3961 9.62973 11.6468 9.52528 11.793C9.39995 12.0019 9.19106 12.2108 8.87773 12.4197C8.5644 12.6077 8.12574 12.7121 7.56174 12.733H7.18574V6.38283C7.18574 6.32016 7.20663 6.2575 7.22752 6.19483C7.24841 6.15305 7.29018 6.09039 7.35285 6.02772C7.39463 6.00683 7.43641 5.96506 7.49907 5.94417C7.56174 5.92328 7.60352 5.90239 7.66618 5.90239L7.66043 5.90258Z" fill="#808080"></path>
    <path fill-rule="evenodd" clip-rule="evenodd" d="M35.699 8.09573C36.0123 8.55528 36.1794 9.22372 36.1794 10.1219C36.1794 11.0202 36.0123 11.6886 35.699 12.169C35.3857 12.6495 34.9261 12.9001 34.3412 12.9001C33.631 12.9001 33.1297 12.6913 32.8372 12.2526C32.5239 11.8139 32.3777 11.1246 32.3777 10.1428V9.89216C32.3777 9.03572 32.5239 8.40906 32.8372 8.01217C33.1506 7.61529 33.631 7.42729 34.3203 7.42729C34.9261 7.4064 35.3857 7.63618 35.699 8.09573ZM37.0777 13.1926C37.6416 12.4615 37.9341 11.4379 37.9341 10.1219C37.9341 8.80595 37.6625 7.80329 37.0985 7.07218C36.5345 6.34107 35.7617 5.98596 34.759 5.98596C33.6937 5.98596 32.8999 6.40374 32.3777 7.19751H32.2941C32.1688 6.63352 32.0852 6.27841 32.0435 6.13218H30.6648V17.7463H32.3777V14.4459C32.3777 14.2997 32.3359 13.8819 32.2732 13.2135H32.3777C32.9417 13.9446 33.7146 14.2997 34.7381 14.2997C35.7408 14.2997 36.5137 13.9237 37.0777 13.1926ZM41.0465 8.11662C41.3598 7.63618 41.8821 7.4064 42.6132 7.4064C43.9709 7.4064 44.6603 8.32551 44.6603 10.1219C44.6603 11.9602 43.9918 12.8793 42.6341 12.8793C41.2554 12.8793 40.587 11.9602 40.587 10.1219C40.5452 9.2655 40.7123 8.57617 41.0465 8.11662ZM45.3914 7.11396C44.7021 6.36196 43.8038 5.98596 42.6341 5.98596C41.4225 5.98596 40.4825 6.36196 39.8141 7.07218C39.1456 7.7824 38.8114 8.82684 38.8114 10.1219C38.8114 10.9575 38.9576 11.6886 39.271 12.3153C39.5843 12.9419 40.023 13.4433 40.6079 13.7775C41.1927 14.1117 41.8403 14.2788 42.5923 14.2788C43.8038 14.2788 44.7229 13.9028 45.3914 13.1717C46.0598 12.4406 46.394 11.417 46.394 10.1011C46.394 8.86861 46.0598 7.86595 45.3914 7.11396ZM56.2744 14.1535L58.5513 6.15307H56.8384L55.794 10.0802C55.5224 11.1455 55.3553 11.981 55.2718 12.5659H55.2091C55.1882 12.2944 55.1256 11.9184 55.0211 11.4379C54.9167 10.9575 54.8122 10.5815 54.7496 10.3517L53.5589 6.15307H51.6789L50.4465 10.3517C50.3629 10.5815 50.2794 10.9157 50.1749 11.3753C50.0705 11.8348 50.0078 12.2317 49.9451 12.5868H49.9242C49.8198 11.8975 49.6527 11.0619 49.4229 10.0802L48.3785 6.15307H46.6447L48.9216 14.1535H50.8225L51.8878 10.4353C52.0549 9.89216 52.2847 8.97306 52.5562 7.67795H52.6189C52.9531 9.11928 53.1829 10.0384 53.3082 10.4353L54.3527 14.1535H56.2744ZM63.8153 7.76151C64.1286 8.09573 64.2957 8.61795 64.2957 9.28639H60.6193C60.682 8.61795 60.87 8.11662 61.2042 7.76151C61.5384 7.4064 61.9771 7.23929 62.5202 7.23929C63.0633 7.26018 63.502 7.42729 63.8153 7.76151ZM64.2957 14.1744C64.7344 14.0908 65.1522 13.9446 65.5699 13.7357V12.3153C65.0895 12.5242 64.6508 12.6704 64.2331 12.7539C63.8153 12.8375 63.3766 12.8793 62.8962 12.8793C62.1651 12.8793 61.6011 12.6704 61.2042 12.2735C60.8073 11.8766 60.5984 11.2917 60.5775 10.5397H65.9668V9.62061C65.9668 8.49262 65.6535 7.61529 65.0477 6.96774C64.4211 6.32018 63.5855 6.00685 62.5202 6.00685C61.3713 6.00685 60.4731 6.38285 59.8046 7.13485C59.1571 7.88684 58.8229 8.91039 58.8229 10.2264C58.8229 11.5006 59.178 12.5033 59.8882 13.2344C60.5984 13.9655 61.5802 14.3206 62.8335 14.3206C63.3766 14.2997 63.8779 14.2579 64.2957 14.1744ZM69.9775 6.42463C69.5388 6.69618 69.2046 7.07218 68.933 7.55262H68.8495L68.6197 6.15307H67.2828V14.1535H68.9957V9.97572C68.9957 9.2655 69.2046 8.7015 69.6224 8.24195C70.0401 7.80329 70.6041 7.57351 71.2935 7.57351C71.565 7.57351 71.8157 7.5944 72.0455 7.65707L72.2126 6.06952C71.9828 6.02774 71.7112 5.98596 71.3561 5.98596C70.8757 6.00685 70.3952 6.13218 69.9775 6.42463ZM77.581 7.76151C77.8943 8.09573 78.0614 8.61795 78.0614 9.28639H74.3641C74.4268 8.61795 74.6148 8.11662 74.949 7.76151C75.2832 7.4064 75.7219 7.23929 76.265 7.23929C76.829 7.26018 77.2677 7.42729 77.581 7.76151ZM78.0614 14.1744C78.5001 14.0908 78.9179 13.9446 79.3356 13.7357V12.3153C78.8552 12.5242 78.4165 12.6704 77.9988 12.7539C77.581 12.8375 77.1423 12.8793 76.6619 12.8793C75.9308 12.8793 75.3668 12.6704 74.9699 12.2735C74.573 11.8766 74.3641 11.2917 74.3432 10.5397H79.7325V9.62061C79.7325 8.49262 79.4192 7.61529 78.8134 6.96774C78.2077 6.32018 77.3512 6.00685 76.2859 6.00685C75.137 6.00685 74.2388 6.38285 73.5703 7.13485C72.9019 7.88684 72.5886 8.91039 72.5886 10.2264C72.5886 11.5006 72.9437 12.5033 73.6539 13.2344C74.3641 13.9655 75.3459 14.3206 76.5992 14.3206C77.1423 14.2997 77.6437 14.2579 78.0614 14.1744ZM82.7823 12.1899C82.469 11.7304 82.3018 11.0619 82.3018 10.1846C82.3018 9.28639 82.469 8.61795 82.7823 8.13751C83.0956 7.65707 83.5761 7.4064 84.161 7.4064C84.8503 7.4064 85.3725 7.61529 85.7067 8.03306C86.0409 8.45084 86.2081 9.16106 86.2081 10.1637V10.3935C86.2081 11.2708 86.0409 11.8975 85.7067 12.2944C85.3934 12.6913 84.8712 12.8793 84.1818 12.8793C83.5761 12.9001 83.0956 12.6704 82.7823 12.1899ZM86.1245 13.109H86.2081L86.5005 14.1535H87.8374V2.87354H86.1245V5.79796C86.1245 6.13218 86.1663 6.59174 86.2498 7.15573H86.1663C85.6232 6.38285 84.8085 5.98596 83.7641 5.98596C82.7614 5.98596 81.9676 6.36196 81.4036 7.09307C80.8396 7.82418 80.5472 8.84773 80.5472 10.1637C80.5472 11.4797 80.8187 12.4824 81.3827 13.2135C81.9467 13.9446 82.7196 14.2997 83.7223 14.2997C84.7876 14.2997 85.5814 13.9028 86.1245 13.109Z" fill="#D33D3E"></path>
    <path fill-rule="evenodd" clip-rule="evenodd" d="M122.074 5.98596C123.077 5.98596 123.85 6.34107 124.414 7.07218C124.978 7.80329 125.249 8.80595 125.249 10.1219C125.249 11.4379 124.957 12.4615 124.393 13.1926C123.829 13.9237 123.056 14.2997 122.053 14.2997C121.078 14.2997 120.331 13.9776 119.775 13.3154L119.693 13.2135H119.588C119.647 13.8374 119.687 14.2429 119.692 14.4131L119.693 14.4459V17.7463H117.98V6.13218H119.358C119.397 6.26796 119.472 6.58385 119.583 7.07985L119.609 7.19751H119.693C120.215 6.40374 121.009 5.98596 122.074 5.98596ZM99.5768 6.00685C100.642 6.00685 101.478 6.32018 102.104 6.96774C102.698 7.58121 103.01 8.4009 103.042 9.44459L103.044 9.62061V10.5397H97.655C97.6968 11.2917 97.9057 11.8766 98.3025 12.2735C98.6994 12.6704 99.2634 12.8793 99.9945 12.8793C100.475 12.8793 100.914 12.8375 101.331 12.7539C101.69 12.6823 102.063 12.5646 102.465 12.4009L102.668 12.3153V13.7357C102.251 13.9446 101.812 14.0908 101.394 14.1744C100.955 14.2579 100.475 14.2997 99.8901 14.3206C98.6368 14.3206 97.655 13.9655 96.9448 13.2344C96.2345 12.5033 95.8794 11.5006 95.8794 10.2264C95.8794 8.91039 96.2137 7.88684 96.8612 7.13485C97.5297 6.38285 98.4279 6.00685 99.5768 6.00685ZM146.389 6.00685C147.454 6.00685 148.289 6.32018 148.916 6.96774C149.49 7.58121 149.801 8.4009 149.833 9.44459L149.835 9.62061V10.5397H144.446C144.467 11.2917 144.676 11.8766 145.073 12.2735C145.469 12.6704 146.033 12.8793 146.765 12.8793C147.245 12.8793 147.684 12.8375 148.101 12.7539C148.459 12.6823 148.833 12.5646 149.235 12.4009L149.438 12.3153V13.7357C149.021 13.9446 148.582 14.0908 148.164 14.1744C147.725 14.2579 147.245 14.2997 146.702 14.3206C145.449 14.3206 144.467 13.9655 143.757 13.2344C143.046 12.5033 142.691 11.5006 142.691 10.2264C142.691 8.91039 143.005 7.88684 143.673 7.13485C144.341 6.38285 145.24 6.00685 146.389 6.00685ZM133.166 6.00685C134.189 6.00685 134.962 6.23663 135.485 6.67529C135.958 7.08959 136.227 7.7461 136.255 8.60964L136.257 8.76417V14.1326H135.046L134.712 13.0255H134.649C134.252 13.5268 133.876 13.861 133.479 14.0281C133.082 14.2161 132.581 14.2997 131.975 14.2997C131.202 14.2997 130.576 14.0908 130.137 13.673C129.677 13.2553 129.469 12.6495 129.469 11.8766C129.469 11.0619 129.782 10.4353 130.388 10.0175C130.96 9.62293 131.83 9.39606 132.981 9.33687L133.187 9.32817L134.565 9.28639V8.84773C134.565 8.32551 134.461 7.92862 134.21 7.65707C133.981 7.38551 133.605 7.26018 133.103 7.26018C132.685 7.26018 132.289 7.32284 131.913 7.44818C131.612 7.53173 131.324 7.64203 131.04 7.76836L130.826 7.86595L130.283 6.67529C130.701 6.44552 131.181 6.27841 131.704 6.17396C132.226 6.06952 132.706 6.00685 133.166 6.00685ZM93.0803 4.4193V6.15307H95.3363V7.4064H93.0803V11.6886C93.0803 12.1064 93.1848 12.4197 93.3937 12.6077C93.6026 12.7957 93.8741 12.9001 94.1875 12.8584C94.6052 12.8584 95.0021 12.7957 95.4199 12.6704V13.9864C95.2319 14.0699 94.9812 14.1326 94.6888 14.1953C94.3963 14.2579 94.083 14.2788 93.7697 14.2788C92.1612 14.2788 91.3675 13.4224 91.3675 11.7095V7.38551H90.2812V6.6544L91.451 6.04863L92.0359 4.4193H93.0803ZM139.85 4.4193V6.15307H142.106V7.4064H139.85V11.6886C139.85 12.1064 139.955 12.4197 140.164 12.6077C140.373 12.7957 140.644 12.9001 140.957 12.8584C141.375 12.8584 141.772 12.7957 142.19 12.6704V13.9864C142.002 14.0699 141.751 14.1326 141.459 14.1953C141.166 14.2579 140.853 14.2788 140.54 14.2788C138.931 14.2788 138.137 13.4224 138.137 11.7095V7.38551H137.051V6.6544L138.221 6.04863L138.806 4.4193H139.85ZM128.278 2.87354V14.1535H126.565V2.87354H128.278ZM113.468 5.94419C114.429 5.94419 115.118 6.17396 115.578 6.67529C116.037 7.17662 116.246 7.90773 116.246 8.8895V14.1117H114.533V9.20284C114.533 8.59706 114.408 8.13751 114.178 7.84506C113.927 7.53173 113.572 7.38551 113.071 7.38551C112.402 7.38551 111.922 7.5944 111.609 8.01217C111.295 8.42995 111.149 9.05661 111.149 9.91305V14.0699H109.436V9.16106C109.436 8.55528 109.311 8.09573 109.081 7.80329C108.851 7.48996 108.496 7.34373 107.995 7.34373C107.326 7.34373 106.846 7.57351 106.533 7.99129C106.219 8.42995 106.073 9.14017 106.073 10.1219V14.0908H104.36V6.09041H105.697L105.927 7.13485H106.011C106.24 6.75885 106.574 6.46641 106.992 6.25752C107.41 6.04863 107.87 5.94419 108.392 5.94419C109.624 5.94419 110.46 6.36196 110.857 7.19751H110.982C111.212 6.80063 111.546 6.50818 111.985 6.27841C112.423 6.04863 112.904 5.94419 113.468 5.94419ZM134.565 10.3726L133.542 10.4144C132.727 10.4353 132.142 10.5606 131.787 10.8113C131.432 11.0619 131.244 11.417 131.244 11.9184C131.244 12.2735 131.349 12.5659 131.557 12.7539C131.766 12.9419 132.08 13.0464 132.518 13.0255C133.124 13.0255 133.625 12.8584 134.001 12.5033C134.352 12.1913 134.54 11.752 134.563 11.1853L134.565 11.0619V10.3726ZM121.747 7.4263L121.635 7.42729C120.946 7.42729 120.466 7.61529 120.152 8.01217C119.858 8.38426 119.712 8.95829 119.694 9.73427L119.693 9.89216V10.1428C119.693 11.1246 119.839 11.8139 120.152 12.2526C120.445 12.6913 120.967 12.9001 121.656 12.9001C122.241 12.9001 122.701 12.6495 123.014 12.169C123.327 11.6886 123.494 11.0202 123.494 10.1219C123.494 9.22372 123.327 8.55528 123.014 8.09573C122.74 7.69362 122.354 7.46743 121.856 7.43116L121.747 7.4263ZM99.5976 7.23929C99.0545 7.23929 98.6159 7.4064 98.2816 7.76151C97.9713 8.09125 97.787 8.54708 97.7121 9.1457L97.6968 9.28639H101.373C101.373 8.61795 101.206 8.09573 100.893 7.76151C100.579 7.42729 100.162 7.26018 99.5976 7.23929ZM146.368 7.23929C145.825 7.23929 145.386 7.4064 145.052 7.76151C144.741 8.09125 144.557 8.54708 144.482 9.1457L144.467 9.28639H148.143C148.143 8.61795 147.976 8.09573 147.663 7.76151C147.349 7.42729 146.911 7.26018 146.368 7.23929Z" fill="#808080"></path>
  </g>
  <defs>
    <clipPath id="clip0_2356_11410">
      <rect width="150" height="17.8808" fill="white" transform="translate(0 0.826416)"></rect>
    </clipPath>
  </defs>
</svg>
