<?xml version="1.0" encoding="UTF-8"?>
<svg xmlns="http://www.w3.org/2000/svg" width="120" height="21" viewBox="0 0 120 21" fill="none">
  <path fill-rule="evenodd" clip-rule="evenodd" d="M28.1058 7.08099C27.4453 7.83174 27.115 8.74711 27.115 9.87273C27.115 10.9974 27.4453 11.9127 28.1058 12.7051C28.7653 13.4965 29.6301 13.8714 30.7021 13.8714C32.4327 13.8714 34.083 12.5375 35.6083 9.87273C34.083 7.29025 32.4744 5.99802 30.7845 5.99802C29.7134 5.99802 28.8476 6.3719 28.1058 7.08099ZM49.6235 12.6635C50.283 11.9554 50.6122 11.038 50.6122 9.87273C50.6122 8.70546 50.283 7.74843 49.6235 6.99769C48.964 6.24893 48.0982 5.87306 47.0261 5.87306C46.078 5.87306 45.2132 6.16463 44.4288 6.83108C43.6453 7.49752 42.9035 8.45752 42.1626 9.78843C43.6463 12.4136 45.2539 13.7048 46.9438 13.7048C48.0565 13.7048 48.9233 13.3299 49.6235 12.6635ZM23.9008 2.8324C25.5898 1.04132 27.8172 0.124959 30.4959 0.124959C33.7121 0.124959 36.5554 1.79107 38.9464 5.08165C41.1312 1.70777 43.9349 0 47.3157 0C49.9954 0 52.2208 0.916364 53.9524 2.79074C55.684 4.66512 56.5507 6.99769 56.5507 9.78843C56.5507 12.7874 55.684 15.1626 53.9524 16.9537C52.2208 18.7448 49.9954 19.6205 47.274 19.6205C45.7488 19.6205 44.2661 19.1623 42.8638 18.245C41.4208 17.3703 40.1841 16.1623 39.0307 14.6628C36.6803 18.0793 33.7944 19.7871 30.4145 19.7871C27.8182 19.7871 25.6334 18.8281 23.9018 16.9121C22.1286 14.996 21.2638 12.6635 21.2638 9.91438C21.2638 6.95703 22.0879 4.58281 23.9018 2.83339M10.4083 14.8175H5.77587V12.3878H10.4073C11.2364 12.3878 11.7521 12.9312 11.7521 13.6175C11.7521 14.3316 11.2364 14.8175 10.4083 14.8175ZM10.2367 7.5838H5.77587V5.35339H10.2367C10.8377 5.35339 11.3792 5.78182 11.3792 6.44033C11.3792 7.12661 10.8377 7.5838 10.2367 7.5838ZM11.9812 19.6215C15.8122 19.6215 17.6132 17.1055 17.6132 14.4466C17.6132 11.9871 16.0413 10.1008 13.9825 9.78546C15.84 9.38579 17.2413 7.78413 17.2413 5.41091C17.2413 3.1805 15.5256 0.550413 11.5795 0.550413H0V19.6215H11.9802H11.9812ZM69.4493 19.9636C74.5666 19.9636 77.6836 17.5339 77.6836 13.3309C77.6836 6.24 67.076 7.78413 67.076 5.98215C67.076 5.4962 67.3904 5.12529 68.5339 5.12529C70.3359 5.12529 72.48 5.75405 74.1372 7.01256L77.2264 2.92364C75.0536 1.15041 72.2509 0.263802 69.1339 0.263802C63.9025 0.263802 61.2139 3.35306 61.2139 6.58314C61.2139 14.1035 71.8502 12.244 71.8502 14.0757C71.8502 14.8175 70.8218 15.1041 69.7349 15.1041C67.445 15.1069 65.2424 14.2259 63.5861 12.6446L60.5851 16.9339C62.6142 18.7636 65.3891 19.9646 69.4493 19.9646M92.3365 19.6215V5.58248H97.4261V0.550413H81.4413V5.58248H86.5587V19.6215H92.3365ZM111.072 12.359H107.298L109.185 6.21124L111.072 12.359ZM119.849 19.6215L112.816 0.550413H105.552L98.519 19.6215H105.066L105.753 17.3921H112.616L113.302 19.6215H119.849Z" fill="#EA1C2C"></path>
</svg>
