<?xml version="1.0" encoding="UTF-8"?>
<svg xmlns="http://www.w3.org/2000/svg" width="62" height="31" viewBox="0 0 62 31" fill="none">
  <g clip-path="url(#clip0_2356_11417)">
    <path d="M2.62271 17.8866C2.62271 19.9491 1.96703 20.6528 0 20.6528V24.4866C0.607991 24.5715 1.09677 24.5958 1.62131 24.5958C5.16197 24.5958 7.26013 22.8852 7.26013 18.4569V6.40955H2.62271V17.8866ZM10.2882 24.5351H14.7706V10.5952H10.2882V24.5351ZM25.0349 10.5952V24.5351H29.5174V10.5952H25.0349Z" fill="#353C42"></path>
    <path fill-rule="evenodd" clip-rule="evenodd" d="M27.2766 3.8252C28.6834 3.8252 29.8158 4.97775 29.8158 6.40936C29.8158 7.84097 28.6834 8.99355 27.2766 8.99355C25.8699 8.99355 24.7373 7.84097 24.7373 6.40936C24.7373 4.98989 25.8699 3.8252 27.2766 3.8252Z" fill="#F45F4D"></path>
    <path fill-rule="evenodd" clip-rule="evenodd" d="M12.5295 3.8252C13.9362 3.8252 15.0688 4.97775 15.0688 6.40936C15.0688 7.84097 13.9362 8.99355 12.5295 8.99355C11.1228 8.99355 9.99023 7.84097 9.99023 6.40936C9.99023 4.98989 11.1228 3.8252 12.5295 3.8252Z" fill="#FFA010"></path>
    <path d="M46.7442 30.3196C54.8358 30.3196 61.3953 23.8295 61.3953 15.8235C61.3953 7.81753 54.8358 1.32739 46.7442 1.32739C38.6526 1.32739 32.093 7.81753 32.093 15.8235C32.093 23.8295 38.6526 30.3196 46.7442 30.3196Z" fill="white"></path>
    <path d="M16.5947 30.5162C20.7195 30.0066 22.2573 27.4103 22.2573 23.3339V6.95538H17.8226V23.6008C17.8226 25.9545 17.1669 26.4398 15.8794 27.0828L16.5947 30.5162ZM20.0519 5.71789C21.5182 5.71789 22.6507 4.72305 22.6507 3.23078C22.6507 1.72638 21.5301 0.707275 20.0519 0.707275C18.5855 0.707275 17.4768 1.72638 17.4768 3.23078C17.4888 4.72305 18.5855 5.71789 20.0519 5.71789Z" fill="#3DB83A"></path>
    <path fill-rule="evenodd" clip-rule="evenodd" d="M46.7439 0.81665C54.8385 0.81665 61.3953 7.50151 61.3953 15.7272C61.3953 23.9528 54.8385 30.6377 46.7439 30.6377C38.6493 30.6377 32.0925 23.9649 32.0925 15.7272C32.0925 7.48937 38.6493 0.81665 46.7439 0.81665ZM57.1751 12.7427V10.5831C55.983 10.5103 55.3512 10.8743 54.7074 11.396C54.0636 10.9713 53.1695 10.7287 52.0609 10.7287C50.0819 10.7287 48.6513 11.4567 48.1506 12.7912C48.1148 12.6093 48.0791 12.4272 48.0195 12.2696C47.7096 11.3232 47.0181 10.753 45.6472 10.753C44.5742 10.753 43.6324 11.1048 42.9768 12.2696V10.8379H39.8891V20.4588H42.9768V15.072C42.9768 13.6405 43.5013 13.2037 44.2881 13.2037C44.8723 13.2037 45.1465 13.4585 45.1465 14.6475V20.4588H48.234V15.3148C48.4725 15.8121 48.8659 16.2125 49.3904 16.5158C48.6751 16.9647 48.2699 17.6077 48.2699 18.3478C48.2699 19.1485 48.7109 19.6824 49.2713 19.9735C48.5917 20.3254 47.793 20.8227 47.793 22.0845C47.793 23.6253 49.0328 24.5959 52.0131 24.5959C55.375 24.5959 56.8413 23.3706 56.8413 21.1503C56.8413 19.3548 55.8757 18.275 53.6226 18.19L51.5244 18.093C50.8806 18.0809 50.7257 17.9474 50.7257 17.5956C50.7257 17.3893 50.833 17.1831 51.0356 17.0254C51.3337 17.0617 51.6436 17.086 51.9893 17.086C54.6001 17.086 56.0664 15.8486 56.0664 13.9195C56.0664 13.4706 55.9711 13.046 55.828 12.682C56.2772 12.6263 56.7164 12.6833 57.0806 12.7305L57.1751 12.7427ZM52.943 20.8955C53.7299 20.9683 53.9325 21.2717 53.9325 21.6599C53.9325 22.3392 53.2888 22.6062 52.2516 22.6062C50.9879 22.6062 50.4276 22.2301 50.4276 21.4415C50.4276 21.1261 50.523 20.8834 50.6422 20.6651L52.943 20.8955ZM52.025 15.3026C51.3098 15.3026 51.0237 14.7324 51.0237 13.8952C51.0237 13.0096 51.3575 12.5122 52.0131 12.5122C52.7403 12.5122 53.0384 13.1431 53.0384 13.9559C53.0264 14.8901 52.633 15.3026 52.025 15.3026ZM39.0546 18.8937C39.0546 18.008 38.3513 17.3044 37.4929 17.3044C36.6346 17.3044 35.9312 18.008 35.9312 18.8937C35.9312 19.7793 36.6346 20.483 37.4929 20.483C38.3632 20.483 39.0546 19.7672 39.0546 18.8937Z" fill="#3DB83A"></path>
  </g>
  <defs>
    <clipPath id="clip0_2356_11417">
      <rect width="61.3953" height="30" fill="white" transform="translate(0 0.707275)"></rect>
    </clipPath>
  </defs>
</svg>
