<?xml version="1.0" encoding="UTF-8"?>
<svg xmlns="http://www.w3.org/2000/svg" width="111" height="31" viewBox="0 0 111 31" fill="none">
  <g clip-path="url(#clip0_2353_11329)">
    <path d="M49.8975 13.472C49.8975 9.78896 47.0656 6.80746 43.4171 6.80746H41.7144H33.7746L18.2077 23.925C18.2077 23.925 10.7717 14.8225 6.56729 9.64867H6.60204L6.58466 9.63115L14.3855 9.64867H15.1499L20.9181 16.5588L23.0203 14.2613L16.9394 6.78992H4.25657H0L18.0166 29.0111C21.0744 25.6437 24.6534 21.7502 28.1455 17.9268L28.1629 22.9954L33.2013 29.3093C33.2013 29.3093 33.6009 29.3093 33.8267 29.3093C39.1258 29.2917 43.9557 29.3093 49.2721 29.2917C49.498 29.2917 49.8975 29.2917 49.8975 29.2917L42.5832 20.2594H43.5213C47.1351 20.277 49.8975 17.1727 49.8975 13.472ZM42.5832 17.4883L35.7379 17.5059L43.0348 26.5031C40.1508 26.5031 38.2571 26.5031 35.5815 26.5031C35.4077 26.5031 35.2688 26.5031 35.2688 26.5031C35.2688 26.5031 34.5391 25.7314 34.4349 25.6261C33.0102 24.0302 29.5528 19.5579 28.1282 17.9268C30.7342 15.068 33.2882 12.2619 35.5815 9.75391H42.5832H42.7569C44.8591 9.75391 46.5791 11.5429 46.5791 13.665C46.5791 15.7871 44.8764 17.4883 42.7569 17.4883H42.5832Z" fill="black"></path>
    <path d="M51.3914 6.9657L69.547 29.2395H73.873L55.7174 6.9657H51.3914Z" fill="#FF6D00"></path>
    <path d="M106.519 6.94702V22.3808L90.2225 5.43872V22.3808L73.9429 5.45626V29.2384H77.3656V13.6643L93.6623 30.6064V13.6643L109.959 30.5888V6.94702H106.519Z" fill="#FF6D00"></path>
    <path d="M51.1829 5.5268C52.411 5.5268 53.4067 4.52189 53.4067 3.28226C53.4067 2.04263 52.411 1.03772 51.1829 1.03772C49.9547 1.03772 48.959 2.04263 48.959 3.28226C48.959 4.52189 49.9547 5.5268 51.1829 5.5268Z" fill="#FF6D00"></path>
  </g>
  <defs>
    <clipPath id="clip0_2353_11329">
      <rect width="110.526" height="30" fill="white" transform="translate(0 0.826416)"></rect>
    </clipPath>
  </defs>
</svg>
