<svg width="1202" height="214" fill="none" xmlns="http://www.w3.org/2000/svg"><path fill="#0069FF" fill-opacity=".1" d="M1 212.5h1200v1H1z"/><path fill="#FF002E" d="M361 2h1v210h-1z"/><g filter="url(#filter0_d_2316_11233)"><rect x="267" y="22" width="180.201" height="52" rx="20" fill="#fff"/><path d="M291.67 42.64h2.24L298.086 54h-2.272l-1.056-2.832h-3.968L289.75 54h-2.272l4.192-11.36zm2.688 6.976l-1.568-4.688-1.632 4.688h3.2zM299.355 54v-6.304h-1.104v-1.632h1.104v-.512c0-.693.112-1.29.336-1.792.235-.512.56-.907.976-1.184.427-.277.923-.416 1.488-.416.342 0 .683.043 1.024.128.352.085.699.208 1.04.368l-.432 1.616a2.44 2.44 0 00-.56-.208 2.115 2.115 0 00-.608-.096c-.362 0-.64.128-.832.384-.192.256-.288.63-.288 1.12v.592h2.048v1.632h-2.048V54h-2.144zm10.434-.432c-.181.075-.4.16-.656.256s-.533.17-.832.224a4.042 4.042 0 01-.88.096c-.395 0-.757-.07-1.088-.208a1.78 1.78 0 01-.8-.656c-.192-.31-.288-.71-.288-1.2v-4.816h-1.104v-1.648h1.104v-2.72h2.144v2.72h1.76v1.648h-1.76v4.096c.011.288.091.496.24.624a.83.83 0 00.56.192c.224 0 .443-.037.656-.112.213-.075.384-.139.512-.192l.432 1.696zm4.911.592c-.672 0-1.28-.112-1.824-.336a4.283 4.283 0 01-1.392-.944 4.498 4.498 0 01-.896-1.376 4.512 4.512 0 01-.304-1.648c0-.8.176-1.53.528-2.192a4.137 4.137 0 011.536-1.584c.672-.405 1.461-.608 2.368-.608.917 0 1.701.203 2.352.608a3.93 3.93 0 011.488 1.584 4.37 4.37 0 01.528 2.112c0 .128-.005.261-.016.4a8.035 8.035 0 01-.032.32h-6.48c.043.427.165.8.368 1.12.213.32.48.565.8.736.331.16.683.24 1.056.24.427 0 .827-.101 1.2-.304.384-.213.645-.49.784-.832l1.84.512a3.446 3.446 0 01-.88 1.136c-.373.33-.816.592-1.328.784a5.05 5.05 0 01-1.696.272zm-2.192-5.024h4.384a2.421 2.421 0 00-.368-1.104 1.958 1.958 0 00-.768-.736 2.135 2.135 0 00-1.072-.272c-.384 0-.736.09-1.056.272a2.11 2.11 0 00-.768.736 2.55 2.55 0 00-.352 1.104zm12.874-1.664c-.651 0-1.232.128-1.744.384-.512.245-.88.603-1.104 1.072V54h-2.144v-8.384h1.968v1.792c.299-.576.677-1.03 1.136-1.36.459-.33.944-.512 1.456-.544h.272c.064 0 .117.005.16.016v1.952z" fill="#101828"/><path d="M336 43.07h9.871v2.303h-7.568A2.303 2.303 0 01336 43.07z" fill="#0069FF"/><path d="M343.568 43.07h2.303v9.871a2.303 2.303 0 01-2.303-2.303V43.07z" fill="#0069FF"/><path d="M344.297 43.059l1.629 1.629-8.189 8.189-1.629-1.629 8.189-8.19z" fill="#0069FF"/><path d="M355.988 53.737a5.803 5.803 0 01-1.52-.197 5.616 5.616 0 01-1.342-.593 4.598 4.598 0 01-1.067-.947l1.382-1.382c.33.381.705.671 1.126.868.434.185.921.277 1.461.277.487 0 .855-.072 1.105-.217.25-.145.376-.356.376-.632a.76.76 0 00-.356-.671c-.237-.158-.546-.29-.928-.395a33.193 33.193 0 00-1.184-.355 6.556 6.556 0 01-1.185-.474 2.674 2.674 0 01-.908-.85c-.237-.355-.355-.815-.355-1.381 0-.606.138-1.126.414-1.56.29-.434.691-.77 1.204-1.007.527-.237 1.152-.355 1.876-.355.763 0 1.435.138 2.014.414a3.65 3.65 0 011.481 1.205l-1.382 1.382a2.763 2.763 0 00-.948-.77 2.792 2.792 0 00-1.224-.257c-.435 0-.77.066-1.007.197-.237.132-.355.323-.355.573 0 .263.118.467.355.612.237.145.54.27.908.375.382.105.777.224 1.185.355.421.119.816.29 1.184.514.382.21.691.5.928.868.237.356.356.823.356 1.402 0 .922-.323 1.652-.968 2.192-.645.54-1.52.81-2.626.81zm9.392 0c-.948 0-1.803-.21-2.567-.632a4.943 4.943 0 01-1.796-1.776c-.435-.75-.652-1.593-.652-2.528 0-.934.217-1.77.652-2.507a4.84 4.84 0 011.757-1.777 4.873 4.873 0 012.487-.651c.882 0 1.659.204 2.33.612a4.27 4.27 0 011.599 1.678c.395.71.592 1.52.592 2.428 0 .158-.013.323-.039.494a4.614 4.614 0 01-.079.533h-7.779v-1.777h6.654l-.81.71c-.026-.578-.138-1.065-.335-1.46a2.107 2.107 0 00-.849-.908c-.356-.21-.797-.316-1.323-.316-.553 0-1.033.118-1.441.355a2.418 2.418 0 00-.948 1.007c-.224.421-.336.928-.336 1.52 0 .593.119 1.112.356 1.56.237.447.572.796 1.007 1.046.434.237.934.356 1.5.356a3.44 3.44 0 001.343-.257 2.806 2.806 0 001.066-.75l1.382 1.402c-.461.54-1.02.947-1.678 1.224a5.354 5.354 0 01-2.093.414zm10.092 0c-.921 0-1.757-.217-2.507-.651a5.106 5.106 0 01-1.797-1.797c-.434-.75-.651-1.586-.651-2.507 0-.922.217-1.75.651-2.488a4.996 4.996 0 011.797-1.757 4.805 4.805 0 012.507-.671c.935 0 1.777.217 2.527.651a4.796 4.796 0 011.777 1.777c.447.737.671 1.566.671 2.488 0 .921-.224 1.757-.671 2.507a4.947 4.947 0 01-1.777 1.797c-.75.434-1.592.651-2.527.651zm0-2.093c.54 0 1.013-.118 1.422-.355.421-.25.743-.592.967-1.026a3.04 3.04 0 00.355-1.481c0-.553-.118-1.04-.355-1.461a2.582 2.582 0 00-.967-.987c-.409-.25-.882-.376-1.422-.376-.526 0-1 .126-1.421.376a2.578 2.578 0 00-.968.987c-.224.42-.336.908-.336 1.46 0 .553.112 1.047.336 1.482.237.434.559.776.968 1.026.421.237.895.355 1.421.355zm11.46 2.093c-.724 0-1.368-.151-1.934-.454A3.594 3.594 0 01383.655 52c-.316-.54-.474-1.152-.474-1.836v-2.725c0-.684.165-1.296.494-1.836.329-.54.776-.96 1.342-1.263.566-.316 1.205-.474 1.915-.474a4.13 4.13 0 012.31.671 4.54 4.54 0 011.639 1.777c.408.737.612 1.573.612 2.507 0 .922-.204 1.757-.612 2.508a4.576 4.576 0 01-1.639 1.757c-.684.434-1.454.651-2.31.651zm-.355-2.053c.526 0 .987-.118 1.382-.355a2.55 2.55 0 00.948-1.027c.237-.434.355-.935.355-1.5 0-.566-.118-1.067-.355-1.501a2.418 2.418 0 00-.948-1.007c-.395-.25-.856-.375-1.382-.375a2.63 2.63 0 00-1.402.375 2.41 2.41 0 00-.947 1.007c-.224.434-.336.934-.336 1.5s.112 1.067.336 1.5c.223.435.539.777.947 1.028.408.236.876.355 1.402.355zm-4.719 5.804V44.063h2.172v2.547l-.375 2.31.375 2.29v6.278h-2.172zm11.058-3.948v-9.477h2.172v9.477h-2.172zm2.172-5.272l-.75-.375c0-1.197.263-2.165.789-2.902.54-.75 1.349-1.125 2.429-1.125.473 0 .901.085 1.283.256.382.172.737.448 1.066.83l-1.421 1.46a1.502 1.502 0 00-.573-.394 2.074 2.074 0 00-.73-.119c-.606 0-1.106.191-1.501.573-.395.381-.592.98-.592 1.796zm9.527 5.47c-.921 0-1.757-.218-2.507-.652a5.114 5.114 0 01-1.797-1.797c-.434-.75-.651-1.586-.651-2.507 0-.922.217-1.75.651-2.488a5.004 5.004 0 011.797-1.757 4.805 4.805 0 012.507-.671c.935 0 1.777.217 2.527.651a4.788 4.788 0 011.777 1.777c.448.737.672 1.566.672 2.488 0 .921-.224 1.757-.672 2.507a4.939 4.939 0 01-1.777 1.797c-.75.434-1.592.651-2.527.651zm0-2.093c.54 0 1.014-.119 1.422-.356.421-.25.743-.592.967-1.026.237-.435.356-.928.356-1.481s-.119-1.04-.356-1.461a2.582 2.582 0 00-.967-.987c-.408-.25-.882-.376-1.422-.376-.526 0-1 .126-1.421.376a2.585 2.585 0 00-.968.987c-.223.42-.335.908-.335 1.46 0 .553.112 1.047.335 1.482.237.434.56.776.968 1.026.421.237.895.355 1.421.355zm7.42 1.895V42.82c0-.725.158-1.363.474-1.916a3.544 3.544 0 011.342-1.303c.579-.316 1.244-.474 1.994-.474.579 0 1.073.1 1.481.297.408.197.79.48 1.145.849l-1.402 1.401a1.979 1.979 0 00-.513-.375c-.184-.092-.421-.138-.711-.138-.526 0-.934.145-1.224.434-.276.277-.414.678-.414 1.205v10.74h-2.172zm-2.271-7.502v-1.975h7.305v1.974h-7.305zm11.345 7.6l-4.047-9.575h2.389l2.764 7.029h-.691l2.922-7.029h2.408l-4.402 9.575h-1.343zm-2.823 3.85l2.942-6.06 1.224 2.21-1.757 3.85h-2.409z" fill="#101828"/></g><path d="M601 79.5L361.5 175v37.5H1201V2l-119 20-239 11-242 46.5z" fill="url(#paint0_linear_2316_11233)" fill-opacity=".12"/><path d="M1 198.5L122 186l239.5-11L601 79.5 843 33l239-11 119-20" stroke="url(#paint1_linear_2316_11233)" stroke-width="3"/><circle cx="122" cy="186" r="3.5" fill="#fff" stroke="#0069FF" stroke-width="3"/><circle cx="362" cy="174" r="3.5" fill="#fff" stroke="#0069FF" stroke-width="3"/><circle cx="602" cy="80" r="3.5" fill="#fff" stroke="#0069FF" stroke-width="3"/><circle cx="842" cy="34" r="3.5" fill="#fff" stroke="#0069FF" stroke-width="3"/><circle cx="1082" cy="22" r="3.5" fill="#fff" stroke="#0069FF" stroke-width="3"/><defs><linearGradient id="paint0_linear_2316_11233" x1="781.25" y1="2" x2="781.25" y2="212.5" gradientUnits="userSpaceOnUse"><stop stop-color="#0069FF"/><stop offset="1" stop-color="#0069FF" stop-opacity=".1"/></linearGradient><linearGradient id="paint1_linear_2316_11233" x1="639" y1="-370.404" x2="639" y2="122" gradientUnits="userSpaceOnUse"><stop stop-color="#0069FF"/><stop offset="1" stop-color="#0069FF"/></linearGradient><filter id="filter0_d_2316_11233" x="247" y="12" width="220.201" height="92" filterUnits="userSpaceOnUse" color-interpolation-filters="sRGB"><feFlood flood-opacity="0" result="BackgroundImageFix"/><feColorMatrix in="SourceAlpha" values="0 0 0 0 0 0 0 0 0 0 0 0 0 0 0 0 0 0 127 0" result="hardAlpha"/><feOffset dy="10"/><feGaussianBlur stdDeviation="10"/><feColorMatrix values="0 0 0 0 0 0 0 0 0 0 0 0 0 0 0 0 0 0 0.06 0"/><feBlend in2="BackgroundImageFix" result="effect1_dropShadow_2316_11233"/><feBlend in="SourceGraphic" in2="effect1_dropShadow_2316_11233" result="shape"/></filter></defs></svg>