<svg width="150" height="30" fill="none" xmlns="http://www.w3.org/2000/svg"><path fill-rule="evenodd" clip-rule="evenodd" d="M64.76 10.861c-1.262 0-2.454.22-3.524.694a8.618 8.618 0 00-2.755 1.824 7.823 7.823 0 00-1.83 2.748 9.043 9.043 0 00-.637 3.352c0 1.19.22 2.325.637 3.384a7.784 7.784 0 001.84 2.757c.76.763 1.703 1.377 2.757 1.822 1.07.422 2.25.643 3.524.643 1.286 0 2.471-.22 3.56-.694a8.59 8.59 0 002.755-1.824 8.29 8.29 0 001.805-2.773 8.804 8.804 0 00.643-3.316c0-1.228-.22-2.362-.642-3.42a7.802 7.802 0 00-1.812-2.732 8.495 8.495 0 00-4.404-2.292 10.362 10.362 0 00-1.917-.173zm-56.96.303L1 27.758h4.937l.59-1.625h7.056l.59 1.625h5.013l-6.854-16.596H7.8zm24.038 0v7.915c0 1.54-.37 2.64-1.035 3.34-.672.745-1.645 1.122-3.063 1.128a4.601 4.601 0 01-1.742-.336 3.708 3.708 0 01-1.262-.925 3.974 3.974 0 01-.793-1.384 5.438 5.438 0 01-.3-1.801v-7.936h-4.185v7.914c0 1.325.19 2.569.614 3.663a8.697 8.697 0 001.695 2.854 7.932 7.932 0 002.64 1.84 8.734 8.734 0 003.333.65c1.193 0 2.327-.197 3.334-.626 1.013-.416 1.91-1.012 2.64-1.817.74-.765 1.314-1.713 1.725-2.813.4-1.113.59-2.337.59-3.681v-7.985h-4.191zm7.276.022v4.21h5.301V27.76h4.516V15.396h5.301v-4.21H39.114zm25.646 3.84c.689 0 1.286.111 1.813.331.509.224.954.532 1.284.903.376.398.66.856.845 1.412.192.554.295 1.14.295 1.806a6.101 6.101 0 01-.271 1.749c-.214.542-.481 1.011-.817 1.388-.37.404-.81.724-1.337.95-.514.224-1.111.353-1.812.353a4.846 4.846 0 01-1.788-.33 4.545 4.545 0 01-1.319-.939 3.844 3.844 0 01-.834-1.382 5.75 5.75 0 01-.295-1.788 5.5 5.5 0 01.295-1.778c.185-.534.47-.996.834-1.384a3.926 3.926 0 011.302-.937 4.566 4.566 0 011.805-.353zm-54.702 1.4l2.113 5.819H7.946l2.112-5.818z" fill="#132530"/><path fill-rule="evenodd" clip-rule="evenodd" d="M101.734 10.861c-1.261 0-2.454.22-3.525.694a8.62 8.62 0 00-2.755 1.824 7.818 7.818 0 00-1.83 2.748 9.046 9.046 0 00-.641 3.352c0 1.19.225 2.325.641 3.384a7.866 7.866 0 001.836 2.757c.764.763 1.707 1.377 2.76 1.822 1.071.422 2.252.643 3.525.643 1.285 0 2.465-.22 3.554-.694a8.555 8.555 0 002.761-1.824 8.374 8.374 0 001.806-2.773 8.808 8.808 0 00.643-3.316 9.117 9.117 0 00-.643-3.42 7.886 7.886 0 00-1.812-2.732 8.492 8.492 0 00-4.403-2.292 10.365 10.365 0 00-1.917-.173zm20.073 0c-1.378 0-2.65.217-3.773.69a8.502 8.502 0 00-2.855 1.85 7.689 7.689 0 00-1.811 2.782c-.44 1.047-.637 2.165-.637 3.335 0 1.29.22 2.448.643 3.507a8.29 8.29 0 001.776 2.721 8.625 8.625 0 002.779 1.742c1.077.399 2.252.596 3.507.596h.024c2.784 0 5.156-.89 7.008-2.65l.36-.336-2.645-3.265-.417.406c-.545.52-1.174.903-1.876 1.21a6.765 6.765 0 01-2.269.4c-.66 0-1.267-.105-1.799-.314a4.179 4.179 0 01-1.366-.896c-.388-.365-.672-.805-.903-1.36a5.026 5.026 0 01-.307-1.8c0-.668.104-1.245.312-1.784.209-.539.486-.979.885-1.401.377-.377.823-.659 1.372-.89.54-.204 1.141-.306 1.853-.307.81 0 1.528.11 2.141.358l.018.006.018.005c.647.209 1.198.54 1.677.974l.429.392 2.576-3.38-.37-.328a8.668 8.668 0 00-2.866-1.677c-1.053-.39-2.228-.586-3.484-.584v-.002zm-46.23.324v4.188h6.183c1.54 0 2.638.377 3.333 1.037.752.67 1.129 1.65 1.135 3.067 0 .642-.127 1.222-.33 1.743-.243.496-.521.891-.932 1.255a4.03 4.03 0 01-1.383.8c-.556.19-1.14.295-1.8.295h-6.205v4.188h6.182c1.325-.005 2.564-.195 3.663-.612 1.118-.418 2.06-.983 2.847-1.701a7.758 7.758 0 001.854-2.64 8.84 8.84 0 00.636-3.328c0-1.2-.19-2.327-.613-3.336-.423-1.006-1.019-1.913-1.824-2.642-.763-.741-1.712-1.311-2.812-1.724-1.118-.399-2.333-.59-3.682-.59h-6.251zm26.157 3.84c.689 0 1.284.111 1.805.331.516.224.962.532 1.292.903.376.398.659.856.845 1.412.191.554.295 1.14.295 1.806 0 .595-.104 1.193-.272 1.749-.214.542-.481 1.012-.816 1.388a3.822 3.822 0 01-1.344.95c-.509.224-1.104.353-1.805.353-.671 0-1.28-.127-1.794-.33a4.607 4.607 0 01-1.314-.939 3.837 3.837 0 01-.833-1.382 5.724 5.724 0 01-.297-1.788 5.51 5.51 0 01.297-1.778 3.83 3.83 0 01.833-1.384 3.878 3.878 0 011.302-.937 4.573 4.573 0 011.806-.353z" fill="#F37C2E"/><path fill-rule="evenodd" clip-rule="evenodd" d="M144.814 6.304a1.725 1.725 0 01-1.745-1.747L143.068 1h-4.192v4.22a5.273 5.273 0 005.271 5.27h5.085V6.301l-4.417.005-.001-.002z" fill="#132530"/><path fill-rule="evenodd" clip-rule="evenodd" d="M137.096 8.734h-5.085v4.186h4.416c.979 0 1.743.764 1.746 1.745l.003 3.557h4.188v-4.22a5.27 5.27 0 00-5.268-5.27" fill="#F37C2E"/><path fill-rule="evenodd" clip-rule="evenodd" d="M140.014 17.755h.59v-1.18h-.59v1.18zm0-2.359v-.344a3.94 3.94 0 00-.076-.775l.579-.112a4.5 4.5 0 01.087.887v.344h.001-.591zm-1.075-3.04l.426-.408c.29.306.538.65.733 1.024l-.524.276a3.927 3.927 0 00-.635-.892zm-1.87-1.096l.145-.57c.414.104.806.268 1.165.479l-.299.508a3.786 3.786 0 00-1.011-.417zm-2.278-.117h1.18v-.594h-1.18v.594zm-2.361 0h1.179v-.594h-1.179v.594z" fill="#FEFEFE"/></svg>