<svg width="255" height="277" fill="none" xmlns="http://www.w3.org/2000/svg"><path d="M27.666 40.5c0-7.732 6.268-14 14-14h68c7.732 0 14 6.268 14 14v68c0 7.732-6.268 14-14 14h-68c-7.732 0-14-6.268-14-14v-68z" fill="#F5F9FF"/><path d="M85.563 102.666c3.364 1.779 10.439 3.634 10.555 3.712.155.077 2.34.483 6.669 2.513 4.311 2.03 4.543 6.437 4.543 6.437v7.153l-31.664.019L44 122.481v-7.153s.232-4.407 4.543-6.437c4.31-2.03 6.514-2.436 6.67-2.513.134-.078 7.19-1.933 10.554-3.712.077-.039.155-.077.232-.135 0 0 .02 0 .02-.02a2.496 2.496 0 001.14-2.087V96.19c-11.251.097-14.576-4.717-14.576-4.717s6.418-.096 6.031-17.05C58.21 57.47 66.02 54.667 68.938 53.565c8.487-3.228 12.74 1.914 12.74 1.914 9.82-.909 12.546 9.82 11.328 22.056-1.199 12.237 5.51 14.132 5.51 14.132-4.621 4.716-14.345 4.523-14.345 4.523v4.234c0 .85.426 1.643 1.14 2.087l.252.155z" fill="#D9DFE9"/><path d="M129.666 40.5c0-7.732 6.268-14 14-14h68c7.732 0 14 6.268 14 14v68c0 7.732-6.268 14-14 14h-68c-7.732 0-14-6.268-14-14v-68z" fill="#F5F9FF"/><path d="M211.525 112.948c0-2.006-.873-3.932-2.422-5.203-8.639-7.109-17.973-11.836-19.879-12.75a.595.595 0 01-.338-.555v-6.434c1.013-1.748 1.669-3.595 1.927-5.283.735-.06 1.708-1.092 2.76-4.786 1.37-4.885.02-5.739-1.231-5.68 3.118-14.298-4.905-14.337-4.905-14.337-.675-2.999-4.925-6.117-8.897-5.283-3.972.815-12.153-.099-12.153-.099-.12 1.728 1.37 2.939 1.37 2.939-7.189 4.389-5.541 14.04-4.885 16.8-1.232 0-2.483.934-1.152 5.7 1.052 3.694 2.025 4.726 2.76 4.786.258 1.668.914 3.515 1.926 5.282v6.395a.629.629 0 01-.337.556c-1.887.933-11.22 5.64-19.879 12.749-1.549 1.271-2.422 3.197-2.422 5.203v9.552h67.797v-9.552h-.04z" fill="#D9DFE9"/><path d="M27.666 142.5c0-7.732 6.268-14 14-14h68c7.732 0 14 6.268 14 14v68c0 7.732-6.268 14-14 14h-68c-7.732 0-14-6.268-14-14v-68z" fill="#F5F9FF"/><path fill-rule="evenodd" clip-rule="evenodd" d="M76.999 187.084v1.416h4v2.667H70.332V188.5h4v-1.416C69.071 186.428 65 181.939 65 176.5v-2.667h2.667v2.667a8 8 0 0016 0v-2.667h2.666v2.667c0 5.439-4.071 9.928-9.333 10.584zm-1.333-25.251a5.334 5.334 0 015.333 5.334v9.333a5.333 5.333 0 11-10.667 0v-9.333a5.334 5.334 0 015.334-5.334zm0 2.667a2.667 2.667 0 00-2.667 2.667v9.333a2.667 2.667 0 105.333 0v-9.333a2.667 2.667 0 00-2.666-2.667z" fill="#C0C8D0"/><rect x="129.666" y="128.5" width="96" height="96" rx="14" fill="#F5F9FF"/><path d="M185.781 198.963v-2.93s9.267.285 13.662-4.206c0 0-6.393-1.808-5.252-13.472 1.142-11.646-1.427-21.884-10.808-21.028 0 0-4.053-4.89-12.141-1.807-2.759 1.046-10.218 3.729-9.838 19.866.381 16.137-5.746 16.232-5.746 16.232s3.158 4.586 13.853 4.491v3.006l8.125 23.768 8.126-23.711.019-.209z" fill="#D9DFE9"/><path d="M148.789 224.5h57.772a1.08 1.08 0 001.066-1.275l-1.637-9.039a9.377 9.377 0 00-5.099-6.755l-10.238-5.043c-.59-.285-1.161-.609-1.732-.932l3.235 9.533-4.51-.342-9.952 12.255-9.99-12.274-4.51.342 3.292-9.533-2.055 1.046-9.99 4.929a9.429 9.429 0 00-5.1 6.755l-1.637 9.039a1.1 1.1 0 001.085 1.294z" fill="#D9DFE9"/><g filter="url(#filter0_d_1628_11114)"><rect x="2.333" y=".5" width="64" height="64" rx="14" fill="#2196F3" shape-rendering="crispEdges"/><g clip-path="url(#clip0_1628_11114)"><path d="M34.333 60.5c15.464 0 28-12.537 28-28 0-15.464-12.536-28-28-28-15.465 0-28 12.536-28 28 0 15.463 12.536 28 28 28z" fill="#2196F3"/><path fill-rule="evenodd" clip-rule="evenodd" d="M22.763 40.503h18.519v-13.58a3.703 3.703 0 00-3.704-3.703H19.06v13.579a3.703 3.703 0 003.703 3.704zm20.987-4.938l7.407 4.938V23.22l-7.406 4.938-.001 7.407z" fill="#fff"/></g></g><g filter="url(#filter1_d_1628_11114)"><rect x="188.333" y="186.5" width="64" height="64" rx="14" fill="#fff" shape-rendering="crispEdges"/><g clip-path="url(#clip1_1628_11114)"><path d="M222.727 218.5l3.554 4.062 4.779 3.054.833-7.091-.833-6.933-4.871 2.683-3.462 4.225z" fill="#00832D"/><path d="M202.103 224.958v6.041c0 1.382 1.118 2.5 2.499 2.5h6.042l1.25-4.566-1.25-3.975-4.146-1.25-4.395 1.25z" fill="#0066DA"/><path d="M210.644 203.501l-8.541 8.541 4.395 1.25 4.146-1.25 1.229-3.921-1.229-4.62z" fill="#E94235"/><path d="M210.644 212.042h-8.541v12.916h8.541v-12.916z" fill="#2684FC"/><path d="M236.517 207.117l-5.458 4.475v14.024l5.483 4.496c.821.642 2.021.056 2.021-.987v-21.041c0-1.056-1.227-1.636-2.046-.967zM222.726 218.5v6.458h-12.082v8.541h17.915c1.382 0 2.5-1.118 2.5-2.5v-5.383l-8.333-7.116z" fill="#00AC47"/><path d="M228.559 203.501h-17.915v8.541h12.082v6.458l8.333-6.904v-5.595c0-1.382-1.118-2.5-2.5-2.5z" fill="#FFBA00"/></g></g><defs><clipPath id="clip0_1628_11114"><path fill="#fff" transform="translate(6.333 4.5)" d="M0 0h56v56H0z"/></clipPath><clipPath id="clip1_1628_11114"><path fill="#fff" transform="translate(202.103 203.5)" d="M0 0h36.461v30H0z"/></clipPath><filter id="filter0_d_1628_11114" x=".333" y=".5" width="88" height="90" filterUnits="userSpaceOnUse" color-interpolation-filters="sRGB"><feFlood flood-opacity="0" result="BackgroundImageFix"/><feColorMatrix in="SourceAlpha" values="0 0 0 0 0 0 0 0 0 0 0 0 0 0 0 0 0 0 127 0" result="hardAlpha"/><feOffset dx="10" dy="14"/><feGaussianBlur stdDeviation="6"/><feComposite in2="hardAlpha" operator="out"/><feColorMatrix values="0 0 0 0 0 0 0 0 0 0 0 0 0 0 0 0 0 0 0.12 0"/><feBlend in2="BackgroundImageFix" result="effect1_dropShadow_1628_11114"/><feBlend in="SourceGraphic" in2="effect1_dropShadow_1628_11114" result="shape"/></filter><filter id="filter1_d_1628_11114" x="166.333" y="186.5" width="88" height="90" filterUnits="userSpaceOnUse" color-interpolation-filters="sRGB"><feFlood flood-opacity="0" result="BackgroundImageFix"/><feColorMatrix in="SourceAlpha" values="0 0 0 0 0 0 0 0 0 0 0 0 0 0 0 0 0 0 127 0" result="hardAlpha"/><feOffset dx="-10" dy="14"/><feGaussianBlur stdDeviation="6"/><feComposite in2="hardAlpha" operator="out"/><feColorMatrix values="0 0 0 0 0 0 0 0 0 0 0 0 0 0 0 0 0 0 0.12 0"/><feBlend in2="BackgroundImageFix" result="effect1_dropShadow_1628_11114"/><feBlend in="SourceGraphic" in2="effect1_dropShadow_1628_11114" result="shape"/></filter></defs></svg>