<svg width="38" height="39" fill="none" xmlns="http://www.w3.org/2000/svg"><path d="M26.73 15.568l-7.126-4.215a1.184 1.184 0 00-1.208 0L11.27 15.57a1.187 1.187 0 00-.584 1.022v8.193c0 .42.223.81.584 1.022l7.125 4.215a1.174 1.174 0 001.208 0l7.125-4.215c.361-.213.584-.601.584-1.022v-8.193c0-.42-.223-.81-.584-1.023zm-1.793 8.54L19 27.62l-5.938-3.512v-6.84L19 13.754l5.938 3.512v6.84z" fill="#0069FF"/><path d="M7.125 24.468V13.646l7.363-4.351L13.28 7.25l-7.947 4.696a1.188 1.188 0 00-.583 1.023v11.5a3.555 3.555 0 00-2.375 3.343 3.567 3.567 0 003.563 3.563A3.567 3.567 0 009.5 27.812c0-1.546-.996-2.852-2.375-3.344zM5.937 29a1.189 1.189 0 010-2.375 1.189 1.189 0 010 2.375zm26.126-4.75a3.567 3.567 0 00-3.563 3.563c0 .419.085.815.22 1.19L19 34.744l-7.605-4.493-1.207 2.045 8.208 4.85a1.184 1.184 0 001.209.001l10.64-6.288a3.53 3.53 0 001.817.515 3.567 3.567 0 003.563-3.563 3.567 3.567 0 00-3.563-3.562zm0 4.75a1.189 1.189 0 010-2.375 1.189 1.189 0 010 2.375zM19 8.813c.868 0 1.653-.325 2.272-.841l9.603 5.675v8.228h2.375v-8.906c0-.42-.222-.809-.583-1.023l-10.173-6.01a3.61 3.61 0 00.069-.686A3.567 3.567 0 0019 1.687a3.567 3.567 0 00-3.563 3.563A3.567 3.567 0 0019 8.813zm0-4.75a1.189 1.189 0 010 2.375 1.189 1.189 0 010-2.375z" fill="#0069FF"/></svg>