<svg width="266" height="254" fill="none" xmlns="http://www.w3.org/2000/svg"><rect x="93.667" y=".5" width="172" height="250" rx="20" fill="#F5F9FF"/><g filter="url(#filter0_d_1628_11176)"><rect x="15.667" y="23" width="174" height="94" rx="14" fill="#fff" shape-rendering="crispEdges"/><path d="M28.157 47.96c0-.607.107-1.2.322-1.778.215-.588.527-1.12.938-1.596.42-.485.929-.868 1.526-1.148.597-.29 1.274-.434 2.03-.434.896 0 1.67.205 2.324.616.653.401 1.139.92 1.456 1.554L35.521 46c-.187-.401-.425-.719-.714-.952a2.46 2.46 0 00-.924-.49 3.506 3.506 0 00-.966-.14c-.523 0-.98.107-1.372.322-.392.205-.723.48-.994.826a3.928 3.928 0 00-.602 1.162 4.43 4.43 0 00-.196 1.288c0 .476.08.938.238 1.386.159.439.378.83.658 1.176.29.336.63.602 1.022.798a2.84 2.84 0 001.288.294c.317 0 .649-.056.994-.168.345-.112.663-.285.952-.518.299-.243.532-.56.7-.952l1.302.742a3.094 3.094 0 01-.966 1.26c-.43.345-.915.607-1.456.784a4.98 4.98 0 01-1.582.266c-.7 0-1.34-.145-1.918-.434a4.985 4.985 0 01-1.498-1.176 5.69 5.69 0 01-.98-1.652 5.222 5.222 0 01-.35-1.862zm10.018-5.18h1.54v8.106c0 .373.056.611.168.714a.598.598 0 00.42.154c.187 0 .36-.019.518-.056a2.13 2.13 0 00.434-.14l.224 1.218c-.224.093-.49.173-.798.238a4.029 4.029 0 01-.826.098c-.522 0-.933-.145-1.232-.434-.298-.299-.448-.71-.448-1.232V42.78zM42.372 53v-7.322h1.54V53h-1.54zm0-8.526V42.78h1.54v1.694h-1.54zm6.709 8.666a3.97 3.97 0 01-1.554-.294 3.83 3.83 0 01-1.19-.826 3.94 3.94 0 01-.784-1.204 3.99 3.99 0 01-.266-1.456c0-.69.159-1.32.476-1.89.317-.579.76-1.04 1.33-1.386.57-.355 1.236-.532 2.002-.532.765 0 1.423.177 1.974.532.56.345.994.803 1.302 1.372a3.795 3.795 0 01.42 2.394h-5.866c.028.43.145.807.35 1.134.215.317.485.57.812.756.326.177.676.266 1.05.266.41 0 .798-.103 1.162-.308.373-.205.625-.476.756-.812l1.316.378a2.842 2.842 0 01-.728.966 3.69 3.69 0 01-1.134.672 4.168 4.168 0 01-1.428.238zm-2.198-4.312h4.424a2.197 2.197 0 00-.364-1.106 2.136 2.136 0 00-.798-.756 2.059 2.059 0 00-1.064-.28c-.383 0-.738.093-1.064.28-.318.177-.579.43-.784.756a2.277 2.277 0 00-.35 1.106zM60.655 53h-1.54v-4.102c0-.681-.112-1.18-.336-1.498-.215-.317-.537-.476-.966-.476-.299 0-.597.075-.896.224-.29.15-.55.355-.784.616a2.247 2.247 0 00-.504.882V53h-1.54v-7.322h1.4v1.47c.187-.327.43-.607.728-.84.308-.243.653-.43 1.036-.56.383-.13.789-.196 1.218-.196.439 0 .798.08 1.078.238.29.159.513.378.672.658.168.27.28.588.336.952.065.355.098.733.098 1.134V53zm5.807-.378c-.13.065-.294.135-.49.21a4.85 4.85 0 01-.672.196 3.352 3.352 0 01-.756.084c-.317 0-.611-.056-.882-.168-.27-.112-.49-.29-.658-.532-.159-.252-.238-.574-.238-.966v-4.578H61.8v-1.19h.966V43.27h1.54v2.408h1.596v1.19h-1.596v4.088c.019.252.098.439.238.56a.84.84 0 00.546.182c.215 0 .42-.037.616-.112a5.18 5.18 0 00.434-.182l.322 1.218z" fill="#101828"/><rect x="27.667" y="67" width="150" height="13" rx="6.5" fill="#ECF0F4"/><rect x="27.667" y="88" width="108" height="13" rx="6.5" fill="#ECF0F4"/></g><g filter="url(#filter1_d_1628_11176)"><rect x="199.667" y="47" width="46" height="46" rx="23" fill="#CCCDDD" shape-rendering="crispEdges"/><path d="M229.272 74.726l-3.503-1.751a.966.966 0 01-.536-.867v-1.24c.084-.103.173-.22.264-.349a8.41 8.41 0 001.083-2.126c.518-.237.853-.749.853-1.326V65.6c0-.353-.132-.695-.366-.962v-1.95c.02-.203.101-1.403-.767-2.393-.753-.86-1.976-1.295-3.633-1.295-1.658 0-2.88.436-3.633 1.294-.868.99-.788 2.192-.767 2.393v1.95a1.46 1.46 0 00-.367.963v1.467c0 .446.203.862.549 1.14a7.712 7.712 0 001.284 2.653v1.213a.968.968 0 01-.505.851l-3.271 1.784a3.308 3.308 0 00-1.724 2.905V78.8c0 1.74 5.517 2.2 8.434 2.2 2.917 0 8.433-.46 8.433-2.2v-1.116a3.29 3.29 0 00-1.828-2.958z" fill="#596275"/></g><g filter="url(#filter2_d_1628_11176)"><rect x="15.667" y="159" width="46" height="46" rx="23" fill="#0069FF" shape-rendering="crispEdges"/><path d="M31.667 175.015h13.922v3.263H34.93a3.263 3.263 0 01-3.263-3.263z" fill="#fff"/><path d="M42.34 175.015h3.25V189a3.248 3.248 0 01-3.25-3.248v-10.737z" fill="#fff"/><path d="M43.37 175l2.297 2.308-11.55 11.601-2.296-2.307L43.37 175z" fill="#fff"/></g><g filter="url(#filter3_d_1628_11176)"><rect x="71.667" y="135" width="174" height="94" rx="14" fill="#fff" shape-rendering="crispEdges"/><path d="M90.667 157.398a1.97 1.97 0 00-.406-.322 3.641 3.641 0 00-.63-.336 4.757 4.757 0 00-.784-.252 3.826 3.826 0 00-.868-.098c-.653 0-1.139.121-1.456.364-.317.243-.476.579-.476 1.008 0 .317.089.569.266.756.177.177.448.327.812.448.364.121.821.252 1.372.392.672.159 1.255.35 1.75.574.495.215.873.504 1.134.868.261.364.392.845.392 1.442 0 .504-.093.938-.28 1.302a2.416 2.416 0 01-.784.896 3.747 3.747 0 01-1.162.504c-.439.103-.91.154-1.414.154a7.225 7.225 0 01-2.884-.602 6.43 6.43 0 01-1.218-.742l.714-1.344c.121.121.294.257.518.406.233.14.5.275.798.406.308.131.64.243.994.336.364.084.733.126 1.106.126.625 0 1.101-.107 1.428-.322.336-.224.504-.541.504-.952 0-.336-.107-.602-.322-.798-.215-.205-.527-.378-.938-.518-.41-.14-.9-.28-1.47-.42-.653-.177-1.2-.369-1.638-.574-.439-.215-.77-.485-.994-.812-.215-.336-.322-.761-.322-1.274 0-.653.159-1.204.476-1.652a2.86 2.86 0 011.288-1.022c.55-.233 1.167-.35 1.848-.35.448 0 .873.051 1.274.154.401.093.775.224 1.12.392.355.168.677.359.966.574l-.714 1.288zm5.8 7.742a3.969 3.969 0 01-1.553-.294 3.832 3.832 0 01-1.19-.826 3.946 3.946 0 01-.784-1.204 3.992 3.992 0 01-.266-1.456c0-.691.158-1.321.476-1.89a3.642 3.642 0 011.33-1.386c.569-.355 1.236-.532 2.002-.532.765 0 1.423.177 1.974.532.56.345.994.803 1.302 1.372a3.791 3.791 0 01.42 2.394h-5.866c.028.429.144.807.35 1.134.214.317.485.569.812.756.326.177.676.266 1.05.266.41 0 .798-.103 1.162-.308.373-.205.625-.476.756-.812l1.316.378a2.835 2.835 0 01-.728.966c-.318.28-.696.504-1.134.672a4.16 4.16 0 01-1.428.238zm-2.197-4.312h4.424a2.195 2.195 0 00-.364-1.106 2.13 2.13 0 00-.798-.756 2.056 2.056 0 00-1.064-.28c-.383 0-.738.093-1.064.28a2.163 2.163 0 00-.784.756 2.277 2.277 0 00-.35 1.106zm10.496 4.312c-.579 0-1.097-.098-1.554-.294a3.702 3.702 0 01-1.19-.84 3.85 3.85 0 01-.756-1.204 3.978 3.978 0 01-.266-1.456c0-.513.088-.999.266-1.456.177-.457.429-.859.756-1.204.336-.355.732-.63 1.19-.826a3.819 3.819 0 011.554-.308c.569 0 1.082.103 1.54.308.466.196.863.471 1.19.826.336.345.592.747.77 1.204.177.457.266.943.266 1.456s-.089.999-.266 1.456a3.75 3.75 0 01-.77 1.204 3.526 3.526 0 01-1.19.84 3.876 3.876 0 01-1.54.294zm-2.184-3.78c0 .467.098.887.294 1.26.196.373.457.667.784.882.326.215.695.322 1.106.322.401 0 .765-.107 1.092-.322.336-.224.602-.523.798-.896.196-.383.294-.803.294-1.26 0-.467-.098-.887-.294-1.26a2.286 2.286 0 00-.798-.882 1.89 1.89 0 00-1.092-.336c-.411 0-.78.112-1.106.336a2.438 2.438 0 00-.784.896c-.196.364-.294.784-.294 1.26zm7.389 3.64v-9.94h4.172c.448 0 .858.093 1.232.28.373.187.7.434.98.742s.494.653.644 1.036c.149.383.224.775.224 1.176 0 .551-.126 1.078-.378 1.582a3.047 3.047 0 01-1.05 1.204c-.448.308-.971.462-1.568.462h-2.688V165h-1.568zm1.568-4.844h2.59c.298 0 .56-.079.784-.238.224-.168.396-.392.518-.672.13-.28.196-.597.196-.952 0-.364-.075-.686-.224-.966a1.65 1.65 0 00-.588-.644 1.34 1.34 0 00-.77-.238h-2.506v3.71zm11.074-1.148a3.321 3.321 0 00-1.596.406c-.457.261-.784.63-.98 1.106V165h-1.54v-7.322h1.428v1.638c.252-.504.584-.905.994-1.204.411-.308.845-.476 1.302-.504h.224c.066 0 .122.005.168.014v1.386zm4.274 6.132c-.579 0-1.097-.098-1.554-.294a3.713 3.713 0 01-1.19-.84 3.85 3.85 0 01-.756-1.204 3.999 3.999 0 01-.266-1.456c0-.513.089-.999.266-1.456.177-.457.429-.859.756-1.204.336-.355.733-.63 1.19-.826a3.825 3.825 0 011.554-.308c.569 0 1.083.103 1.54.308.467.196.863.471 1.19.826.336.345.593.747.77 1.204.177.457.266.943.266 1.456s-.089.999-.266 1.456a3.734 3.734 0 01-.77 1.204 3.517 3.517 0 01-1.19.84 3.873 3.873 0 01-1.54.294zm-2.184-3.78c0 .467.098.887.294 1.26.196.373.457.667.784.882.327.215.695.322 1.106.322.401 0 .765-.107 1.092-.322.336-.224.602-.523.798-.896.196-.383.294-.803.294-1.26 0-.467-.098-.887-.294-1.26a2.286 2.286 0 00-.798-.882 1.89 1.89 0 00-1.092-.336 1.91 1.91 0 00-1.106.336 2.438 2.438 0 00-.784.896c-.196.364-.294.784-.294 1.26zm7.64 3.64v-5.95h-.98v-1.19h.98v-.294c0-.597.093-1.115.28-1.554.196-.439.467-.775.812-1.008.355-.243.77-.364 1.246-.364.299 0 .593.042.882.126.289.075.565.182.826.322l-.336 1.148a1.561 1.561 0 00-.504-.21 1.899 1.899 0 00-.546-.084c-.355 0-.63.135-.826.406-.196.271-.294.663-.294 1.176v.336h1.876v1.19h-1.876V165h-1.54zm4.822 1.722c.14.019.276.037.406.056.14.028.252.042.336.042a.577.577 0 00.406-.154c.122-.093.243-.271.364-.532.122-.261.271-.639.448-1.134l-3.01-7.322h1.61l2.24 5.754 1.988-5.754h1.484l-3.318 9.016a2.41 2.41 0 01-.448.742 2.026 2.026 0 01-.728.546c-.289.131-.63.196-1.022.196-.112 0-.228-.009-.35-.028a4.862 4.862 0 01-.406-.084v-1.344z" fill="#101828"/><rect x="83.667" y="179" width="150" height="13" rx="6.5" fill="#ECF0F4"/><rect x="83.667" y="200" width="108" height="13" rx="6.5" fill="#ECF0F4"/></g><defs><filter id="filter0_d_1628_11176" x=".667" y="18" width="204" height="124" filterUnits="userSpaceOnUse" color-interpolation-filters="sRGB"><feFlood flood-opacity="0" result="BackgroundImageFix"/><feColorMatrix in="SourceAlpha" values="0 0 0 0 0 0 0 0 0 0 0 0 0 0 0 0 0 0 127 0" result="hardAlpha"/><feOffset dy="10"/><feGaussianBlur stdDeviation="7.5"/><feComposite in2="hardAlpha" operator="out"/><feColorMatrix values="0 0 0 0 0 0 0 0 0 0 0 0 0 0 0 0 0 0 0.09 0"/><feBlend in2="BackgroundImageFix" result="effect1_dropShadow_1628_11176"/><feBlend in="SourceGraphic" in2="effect1_dropShadow_1628_11176" result="shape"/></filter><filter id="filter1_d_1628_11176" x="180.667" y="45" width="74" height="74" filterUnits="userSpaceOnUse" color-interpolation-filters="sRGB"><feFlood flood-opacity="0" result="BackgroundImageFix"/><feColorMatrix in="SourceAlpha" values="0 0 0 0 0 0 0 0 0 0 0 0 0 0 0 0 0 0 127 0" result="hardAlpha"/><feOffset dx="-5" dy="12"/><feGaussianBlur stdDeviation="7"/><feComposite in2="hardAlpha" operator="out"/><feColorMatrix values="0 0 0 0 0 0 0 0 0 0 0 0 0 0 0 0 0 0 0.12 0"/><feBlend in2="BackgroundImageFix" result="effect1_dropShadow_1628_11176"/><feBlend in="SourceGraphic" in2="effect1_dropShadow_1628_11176" result="shape"/></filter><filter id="filter2_d_1628_11176" x="6.667" y="157" width="74" height="74" filterUnits="userSpaceOnUse" color-interpolation-filters="sRGB"><feFlood flood-opacity="0" result="BackgroundImageFix"/><feColorMatrix in="SourceAlpha" values="0 0 0 0 0 0 0 0 0 0 0 0 0 0 0 0 0 0 127 0" result="hardAlpha"/><feOffset dx="5" dy="12"/><feGaussianBlur stdDeviation="7"/><feComposite in2="hardAlpha" operator="out"/><feColorMatrix values="0 0 0 0 0 0 0 0 0 0 0 0 0 0 0 0 0 0 0.12 0"/><feBlend in2="BackgroundImageFix" result="effect1_dropShadow_1628_11176"/><feBlend in="SourceGraphic" in2="effect1_dropShadow_1628_11176" result="shape"/></filter><filter id="filter3_d_1628_11176" x="56.667" y="130" width="204" height="124" filterUnits="userSpaceOnUse" color-interpolation-filters="sRGB"><feFlood flood-opacity="0" result="BackgroundImageFix"/><feColorMatrix in="SourceAlpha" values="0 0 0 0 0 0 0 0 0 0 0 0 0 0 0 0 0 0 127 0" result="hardAlpha"/><feOffset dy="10"/><feGaussianBlur stdDeviation="7.5"/><feComposite in2="hardAlpha" operator="out"/><feColorMatrix values="0 0 0 0 0 0 0 0 0 0 0 0 0 0 0 0 0 0 0.09 0"/><feBlend in2="BackgroundImageFix" result="effect1_dropShadow_1628_11176"/><feBlend in="SourceGraphic" in2="effect1_dropShadow_1628_11176" result="shape"/></filter></defs></svg>