<svg width="39" height="39" fill="none" xmlns="http://www.w3.org/2000/svg"><path d="M16.958 29a11.876 11.876 0 1111.875-11.875h2.375a14.25 14.25 0 10-14.25 14.25V29z" fill="#0069FF"/><path d="M14.583 19.013l-3.076-3.076-1.674 1.675 4.75 4.75 8.312-8.313-1.674-1.674-6.638 6.638zM35.958 29a7.125 7.125 0 10-7.125 7.125A7.133 7.133 0 0035.958 29zm-2.375 0a4.693 4.693 0 01-.673 2.398l-6.474-6.475a4.694 4.694 0 012.397-.673 4.755 4.755 0 014.75 4.75zm-9.5 0a4.693 4.693 0 01.673-2.398l6.475 6.475a4.693 4.693 0 01-2.398.673 4.755 4.755 0 01-4.75-4.75z" fill="#0069FF"/></svg>