<svg width="39" height="39" fill="none" xmlns="http://www.w3.org/2000/svg"><path d="M25.27 14.75v-2.375h-4.75V8.812h-2.375v3.563h-2.374a2.378 2.378 0 00-2.376 2.375v3.563a2.378 2.378 0 002.376 2.375h7.124v3.562h-9.5v2.375h4.75v3.563h2.375v-3.563h2.375a2.378 2.378 0 002.375-2.375v-3.563a2.377 2.377 0 00-2.375-2.375h-7.124V14.75h9.5z" fill="#0069FF"/><path d="M19.333 5.25A14.25 14.25 0 115.083 19.5a14.292 14.292 0 0114.25-14.25zm0-2.375A16.625 16.625 0 1035.958 19.5 16.674 16.674 0 0019.333 2.875z" fill="#0069FF"/></svg>