<svg width="22" height="22" fill="none" xmlns="http://www.w3.org/2000/svg"><g clip-path="url(#clip0_1199_8183)" fill="#0069FF"><path d="M2.75 13.75v1.375h3.153l-4.528 4.528.972.972 4.528-4.528v3.153H8.25v-5.5h-5.5zm15.125.688H16.5v3.437h1.375v-3.438zM15.125 11H13.75v6.875h1.375V11zm-2.75 1.375H11v5.5h1.375v-5.5z"/><path d="M19.25 1.375H2.75A1.376 1.376 0 001.375 2.75V11H2.75V8.937h16.5l.001 10.313H11v1.375h8.25a1.377 1.377 0 001.375-1.375V2.75a1.376 1.376 0 00-1.375-1.375zm-11 6.188h-5.5V2.75h5.5v4.813zm1.375 0V2.75h9.625v4.813H9.625z"/></g><defs><clipPath id="clip0_1199_8183"><path fill="#fff" d="M0 0h22v22H0z"/></clipPath></defs></svg>