<svg width="22" height="22" fill="none" xmlns="http://www.w3.org/2000/svg"><path style="mix-blend-mode:multiply" d="M0 0h22v22H0z"/><path d="M14.438 15.812a1.375 1.375 0 100-2.75 1.375 1.375 0 000 2.75zM4.813 6.187a1.375 1.375 0 100-2.75 1.375 1.375 0 000 2.75zm13.75 15.125a2.75 2.75 0 112.75-2.75 2.758 2.758 0 01-2.75 2.75zm0-4.125a1.375 1.375 0 100 2.75 1.375 1.375 0 000-2.75z" fill="#0069FF"/><path d="M20.625 11A9.653 9.653 0 0011 1.375a8.967 8.967 0 00-4.675 1.237l.756 1.17a16.79 16.79 0 011.65-.688 17.28 17.28 0 00-1.856 7.218H2.75a7.665 7.665 0 01.962-3.23l-1.03-.895A9.516 9.516 0 001.374 11 9.623 9.623 0 0011 20.625a9.188 9.188 0 003.575-.688l-.412-1.306a7.865 7.865 0 01-3.575.619 14.486 14.486 0 01-2.338-7.563h12.306c.057-.224.08-.456.069-.687zM8.8 18.975a8.95 8.95 0 01-3.644-2.131 8.597 8.597 0 01-2.406-5.157h4.125A17.195 17.195 0 008.8 18.975zm-.55-8.663c.055-2.68.84-5.294 2.269-7.562h.962a14.745 14.745 0 012.269 7.562h-5.5zm6.875 0A16.004 16.004 0 0013.2 3.025a8.314 8.314 0 015.981 7.287h-4.056z" fill="#0069FF"/></svg>