<svg width="22" height="22" fill="none" xmlns="http://www.w3.org/2000/svg"><path style="mix-blend-mode:multiply" d="M0 0h22v22H0z"/><path d="M18.563 6.875h-4.125a2.065 2.065 0 00-2.063 2.063v4.124a1.376 1.376 0 001.375 1.376v4.812a1.376 1.376 0 001.375 1.375h2.75a1.376 1.376 0 001.375-1.375v-4.813a1.376 1.376 0 001.375-1.374V8.936a2.065 2.065 0 00-2.063-2.062zm.687 6.188h-1.375v6.187h-2.75v-6.188H13.75V8.939a.688.688 0 01.688-.688h4.124a.688.688 0 01.688.688v4.124zm-5.5-9.625a2.75 2.75 0 115.5 0 2.75 2.75 0 01-5.5 0zm1.375 0a1.375 1.375 0 102.75 0 1.375 1.375 0 00-2.75 0zM9.625 11V8.937a2.065 2.065 0 00-2.063-2.062H3.438a2.065 2.065 0 00-2.062 2.063V11H0v1.375h11V11H9.625zM2.75 8.937a.688.688 0 01.688-.687h4.124a.688.688 0 01.688.688V11h-5.5V8.937zm0-5.499a2.75 2.75 0 115.5 0 2.75 2.75 0 01-5.5 0zm1.375 0a1.375 1.375 0 102.75 0 1.375 1.375 0 00-2.75 0z" fill="#0069FF"/></svg>