<svg width="22" height="22" fill="none" xmlns="http://www.w3.org/2000/svg"><path d="M5.5 2.75V5.5H2.75V2.75H5.5zM1.375 1.375v5.5h5.5v-5.5h-5.5zm11 3.438v2.75h-2.75v-2.75h2.75zM8.25 3.438v5.5h5.5v-5.5h-5.5zM5.5 11v2.75H2.75V11H5.5zM1.375 9.625v5.5h5.5v-5.5h-5.5z" fill="#0069FF"/><path d="M15.125 6.875V11H11v4.125H6.875v5.5h13.75V6.875h-5.5zm-2.75 5.5h2.75v2.75h-2.75v-2.75zM11 19.25H8.25V16.5H11v2.75zm4.125 0h-2.75V16.5h2.75v2.75zm4.125 0H16.5V16.5h2.75v2.75zm0-4.125H16.5v-2.75h2.75v2.75zM16.5 11V8.25h2.75V11H16.5z" fill="#0069FF"/></svg>