<svg width="150" height="30" fill="none" xmlns="http://www.w3.org/2000/svg"><path opacity=".25" d="M10.98 13.926L8.009 8.783 4.987 3.589a2.146 2.146 0 00-.699-.724h-.025c-.3.175-.549.425-.724.75L1.292 7.508a1.781 1.781 0 000 1.798l2.697 4.67c.2.324.274.698.274 1.073 0 .374-.1.749-.274 1.074l-2.672 4.619a1.781 1.781 0 000 1.798l2.247 3.895c.175.3.425.574.724.749h.025c.3-.175.525-.425.7-.724l2.996-5.194 2.97-5.193a2.192 2.192 0 000-2.148z" fill="url(#paint0_linear_749_2818)"/><path opacity=".25" d="M25.312 13.777l-2.996-5.169-3.071-5.318a2.2 2.2 0 00-.55-.625.612.612 0 00-.4-.15c-1.572 0-2.646.05-3.445.05-.125 0-.2.15-.175.275l.774 4.345c0 .05 0 .1-.025.15-.3.549-.274 1.223.05 1.772l2.747 4.794c.2.35.3.725.3 1.099s-.1.749-.3 1.099l-2.772 4.794a1.862 1.862 0 00-.05 1.772c.025.05.025.1.025.15l-.774 4.32c-.025.125.05.274.175.274.724 0-.3.075 3.546.075a.885.885 0 00.25-.05c.274-.1.449-.424.599-.699l3.07-5.343 2.972-5.169c.474-.749.474-1.672.05-2.446z" fill="url(#paint1_linear_749_2818)"/><path d="M24.089 13.926L18.12 3.59a2.14 2.14 0 00-1.848-1.073H4.338c-.4 0-.774.124-1.123.324v.025c.274.175.524.425.699.724L6.91 8.783c.275-.125.6-.2.899-.2h4.944c.774 0 1.473.4 1.848 1.074l2.471 4.27a2.19 2.19 0 010 2.147l-2.471 4.27a2.172 2.172 0 01-1.848 1.073h-4.92c-.324 0-.623-.075-.898-.2L3.94 26.411c-.175.3-.425.549-.7.724v.025c.325.2.725.324 1.124.324h11.96c.774 0 1.473-.4 1.848-1.073l5.968-10.337c.35-.675.35-1.474-.05-2.148z" fill="url(#paint2_linear_749_2818)"/><path d="M9.881 13.926l-2.97-5.143-2.997-5.194a2.16 2.16 0 00-.7-.724H3.19c-.3.175-.55.425-.724.75L.243 7.484a1.781 1.781 0 000 1.797l2.697 4.67c.2.324.275.698.275 1.073 0 .374-.1.75-.275 1.074L.243 20.743a1.781 1.781 0 000 1.798l2.248 3.895c.174.3.424.574.724.749h.025c.3-.175.524-.425.699-.724l2.996-5.194 2.971-5.143c.375-.724.375-1.523-.025-2.198z" fill="url(#paint3_linear_749_2818)"/><path d="M33.026 7.551h7.208c1.669 0 3.15.315 4.442.944 1.292.63 2.293 1.522 3.005 2.678.71 1.155 1.067 2.509 1.067 4.06 0 1.55-.356 2.904-1.067 4.06-.712 1.156-1.713 2.048-3.005 2.677-1.292.63-2.773.944-4.442.944h-7.208V7.55zm7.033 11.895c1.307 0 2.352-.373 3.136-1.119.798-.746 1.198-1.778 1.198-3.094 0-1.317-.4-2.349-1.198-3.095-.784-.746-1.83-1.12-3.136-1.12h-2.721v8.428h2.721zm24.17 3.468l-.044-8.142-3.92 6.628H58.35l-3.898-6.409v7.923h-3.985V7.55h3.55l5.356 8.867 5.226-8.867h3.55l.043 15.363h-3.963zm17.226-2.984h-6.446l-1.197 2.984h-4.399L76.142 7.55h4.246l6.75 15.363h-4.486l-1.197-2.985zm-1.263-3.205l-1.96-4.916-1.96 4.916h3.92zm14.831 2.107h-2.352v4.082h-4.31V7.55h6.967c1.38 0 2.577.234 3.593.703 1.016.453 1.8 1.112 2.352 1.975.551.848.827 1.85.827 3.006 0 1.112-.261 2.085-.784 2.92-.508.819-1.241 1.462-2.2 1.93l3.289 4.829h-4.616l-2.766-4.082zm2.722-5.597c0-.716-.225-1.272-.675-1.667-.45-.396-1.118-.593-2.003-.593h-2.395v4.499h2.395c.885 0 1.553-.19 2.003-.57.45-.396.675-.952.675-1.669zm12.613 4.105l-1.612 1.733v3.84h-4.268V7.552h4.268v6.387l5.901-6.387h4.747l-6.227 6.804 6.554 8.559h-5.008l-4.355-5.575zm23.28 2.216v3.358h-12.237V7.55h11.954v3.358h-7.687v2.59h6.772v3.248h-6.772v2.81h7.97zm6.186-8.559h-4.682V7.55h13.653v3.446h-4.66v11.917h-4.311V10.997z" fill="#3C4562"/><defs><linearGradient id="paint0_linear_749_2818" x1="1.071" y1="15.025" x2="11.256" y2="15.025" gradientUnits="userSpaceOnUse"><stop stop-color="#00BA96"/><stop offset=".525" stop-color="#00D9AF"/><stop offset="1" stop-color="#00D9AF"/></linearGradient><linearGradient id="paint1_linear_749_2818" x1="14.664" y1="15" x2="25.642" y2="15" gradientUnits="userSpaceOnUse"><stop stop-color="#008D85"/><stop offset="1" stop-color="#00FFE0"/></linearGradient><linearGradient id="paint2_linear_749_2818" x1="3.215" y1="15" x2="24.395" y2="15" gradientUnits="userSpaceOnUse"><stop stop-color="#008D94"/><stop offset="1" stop-color="#00FFE0"/></linearGradient><linearGradient id="paint3_linear_749_2818" x1="0" y1="15.025" x2="10.184" y2="15.025" gradientUnits="userSpaceOnUse"><stop stop-color="#00BA96"/><stop offset=".525" stop-color="#00D9AF"/><stop offset="1" stop-color="#00FAAF"/></linearGradient></defs></svg>