<svg width="38" height="39" fill="none" xmlns="http://www.w3.org/2000/svg"><g clip-path="url(#clip0_629_3624)" fill="#0069FF"><path d="M11.875 10H9.5v4.75h2.375V10zm0 7.125H9.5v4.75h2.375v-4.75zM19 10h-2.375v4.75H19V10zm0 7.125h-2.375v4.75H19v-4.75zm-7.125 7.125H9.5V29h2.375v-4.75zm7.125 0h-2.375V29H19v-4.75z"/><path d="M35.625 17.125a2.375 2.375 0 00-2.375-2.375h-7.125v-9.5a2.375 2.375 0 00-2.375-2.375h-19A2.375 2.375 0 002.375 5.25v30.875h33.25v-19zM4.75 5.25h19v28.5h-19V5.25zm21.375 28.5V17.125h7.125V33.75h-7.125z"/></g><defs><clipPath id="clip0_629_3624"><path fill="#fff" transform="translate(0 .5)" d="M0 0h38v38H0z"/></clipPath></defs></svg>