<svg width="38" height="39" fill="none" xmlns="http://www.w3.org/2000/svg"><path d="M33.25 24.25v-3.563a4.75 4.75 0 10-9.5 0v3.563a2.378 2.378 0 00-2.375 2.375v7.125a2.378 2.378 0 002.375 2.375h9.5a2.378 2.378 0 002.375-2.375v-7.125a2.378 2.378 0 00-2.375-2.375zm-7.125-3.563a2.375 2.375 0 114.75 0v3.563h-4.75v-3.563zM33.25 33.75h-9.5v-7.125h9.5v7.125z" fill="#0069FF"/><path d="M19 5.25a14.25 14.25 0 0113.165 8.797l2.178-.91A16.67 16.67 0 0019 2.876a16.625 16.625 0 100 33.25V33.75A14.25 14.25 0 014.75 19.5 14.292 14.292 0 0119 5.25z" fill="#0069FF"/><path fill-rule="evenodd" clip-rule="evenodd" d="M24.938 12.375v2.375h-9.5v3.563H21l-.5 2.375h-5.063a2.378 2.378 0 01-2.374-2.375V14.75a2.378 2.378 0 012.374-2.375h2.376V8.812h2.375v3.563h4.75zM19 24.25h-5.938v2.375h4.75v3.563H19V24.25z" fill="#0069FF"/></svg>