<svg width="38" height="38" fill="none" xmlns="http://www.w3.org/2000/svg"><path d="M29.688 11.875H8.313a3.566 3.566 0 00-3.563 3.563v7.124a2.378 2.378 0 002.375 2.375v8.313A2.378 2.378 0 009.5 35.625h4.75a2.378 2.378 0 002.375-2.375V19H14.25v14.25H9.5V22.562H7.125v-7.125a1.189 1.189 0 011.188-1.187h21.374a1.189 1.189 0 011.188 1.188v7.124H28.5V33.25h-4.75V19h-2.375v14.25a2.378 2.378 0 002.375 2.375h4.75a2.378 2.378 0 002.375-2.375v-8.313a2.378 2.378 0 002.375-2.375v-7.125a3.566 3.566 0 00-3.563-3.562zm-17.813-1.187a4.75 4.75 0 110-9.5 4.75 4.75 0 010 9.5zm0-7.126a2.375 2.375 0 100 4.75 2.375 2.375 0 000-4.75zm14.25 7.126a4.75 4.75 0 110-9.501 4.75 4.75 0 010 9.5zm0-7.126a2.375 2.375 0 100 4.75 2.375 2.375 0 000-4.75z" fill="#0069FF"/></svg>