<svg width="580" height="323" fill="none" xmlns="http://www.w3.org/2000/svg"><g filter="url(#filter0_d_1589_12722)"><rect x="20" y="19.5" width="296" height="273" rx="10" fill="#fff"/><path d="M57.92 58.84c0 .8-.207 1.473-.62 2.02-.413.533-.973.94-1.68 1.22-.693.28-1.453.42-2.28.42h-6.86V48.3h7.6c.667 0 1.24.18 1.72.54.493.347.867.8 1.12 1.36a3.884 3.884 0 01-.12 3.66 3.153 3.153 0 01-1.52 1.36c.813.24 1.453.673 1.92 1.3.48.627.72 1.4.72 2.32zm-2.78-.52c0-.36-.073-.68-.22-.96a1.661 1.661 0 00-.6-.68 1.4 1.4 0 00-.84-.26h-4.24v3.74h4.1c.333 0 .633-.08.9-.24.28-.173.5-.4.66-.68.16-.28.24-.587.24-.92zm-5.9-7.66v3.58h3.68c.307 0 .587-.073.84-.22a1.58 1.58 0 00.6-.62c.16-.267.24-.587.24-.96 0-.36-.073-.673-.22-.94a1.487 1.487 0 00-.56-.62 1.404 1.404 0 00-.78-.22h-3.8zM64.674 62.7c-.84 0-1.6-.14-2.28-.42a5.354 5.354 0 01-1.74-1.18 5.63 5.63 0 01-1.12-1.72 5.646 5.646 0 01-.38-2.06c0-1 .22-1.913.66-2.74a5.163 5.163 0 011.92-1.98c.84-.507 1.826-.76 2.96-.76 1.146 0 2.126.253 2.94.76a4.919 4.919 0 011.86 1.98c.44.813.66 1.693.66 2.64 0 .16-.007.327-.02.5-.014.16-.027.293-.04.4h-8.1c.053.533.206 1 .46 1.4.266.4.6.707 1 .92.413.2.853.3 1.32.3.533 0 1.033-.127 1.5-.38.48-.267.806-.613.98-1.04l2.3.64a4.303 4.303 0 01-1.1 1.42 5.26 5.26 0 01-1.66.98c-.64.227-1.347.34-2.12.34zm-2.74-6.28h5.48c-.054-.533-.207-.993-.46-1.38-.24-.4-.56-.707-.96-.92a2.67 2.67 0 00-1.34-.34c-.48 0-.92.113-1.32.34a2.63 2.63 0 00-.96.92c-.24.387-.387.847-.44 1.38zm10.434 6.08v-7.88h-1.38v-2.04h1.38v-.64c0-.867.14-1.613.42-2.24.293-.64.7-1.133 1.22-1.48.533-.347 1.153-.52 1.86-.52.427 0 .853.053 1.28.16.44.107.873.26 1.3.46l-.54 2.02a3.065 3.065 0 00-.7-.26c-.267-.08-.52-.12-.76-.12-.453 0-.8.16-1.04.48-.24.32-.36.787-.36 1.4v.74h2.56v2.04h-2.56v7.88h-2.68zm11.465.2c-.853 0-1.62-.14-2.3-.42a5.202 5.202 0 01-1.74-1.2 5.457 5.457 0 01-1.08-1.74 5.649 5.649 0 01-.38-2.06c0-.733.127-1.427.38-2.08a5.457 5.457 0 011.08-1.74c.48-.507 1.06-.9 1.74-1.18.68-.293 1.447-.44 2.3-.44.854 0 1.614.147 2.28.44.68.28 1.26.673 1.74 1.18a5.03 5.03 0 011.08 1.74c.254.653.38 1.347.38 2.08 0 .72-.126 1.407-.38 2.06a5.03 5.03 0 01-1.08 1.74 4.988 4.988 0 01-1.72 1.2c-.68.28-1.446.42-2.3.42zm-2.74-5.42c0 .613.12 1.16.36 1.64.24.467.567.833.98 1.1.414.267.88.4 1.4.4.507 0 .967-.133 1.38-.4.414-.28.74-.653.98-1.12.254-.48.38-1.027.38-1.64 0-.6-.126-1.14-.38-1.62a2.774 2.774 0 00-.98-1.12 2.492 2.492 0 00-1.38-.4c-.52 0-.986.14-1.4.42-.413.267-.74.64-.98 1.12-.24.467-.36 1.007-.36 1.62zm16.27-2.94c-.814 0-1.54.16-2.18.48-.64.307-1.1.753-1.38 1.34v6.34h-2.68V52.02h2.46v2.24c.373-.72.846-1.287 1.42-1.7.573-.413 1.18-.64 1.82-.68h.34c.08 0 .146.007.2.02v2.44zm6.217 8.36c-.84 0-1.6-.14-2.28-.42a5.354 5.354 0 01-1.74-1.18 5.631 5.631 0 01-1.12-1.72 5.649 5.649 0 01-.38-2.06c0-1 .22-1.913.66-2.74a5.163 5.163 0 011.92-1.98c.84-.507 1.827-.76 2.96-.76 1.147 0 2.127.253 2.94.76a4.923 4.923 0 011.86 1.98c.44.813.66 1.693.66 2.64a6.7 6.7 0 01-.02.5c-.013.16-.027.293-.04.4h-8.1c.053.533.207 1 .46 1.4.267.4.6.707 1 .92.413.2.853.3 1.32.3.533 0 1.033-.127 1.5-.38.48-.267.807-.613.98-1.04l2.3.64a4.298 4.298 0 01-1.1 1.42 5.27 5.27 0 01-1.66.98c-.64.227-1.347.34-2.12.34zm-2.74-6.28h5.48c-.053-.533-.207-.993-.46-1.38-.24-.4-.56-.707-.96-.92a2.67 2.67 0 00-1.34-.34c-.48 0-.92.113-1.32.34a2.63 2.63 0 00-.96.92c-.24.387-.387.847-.44 1.38z" fill="#101828"/><path d="M62.984 117.85L45 120h52.672v-5l-18.226 2.307-16.462.543z" fill="url(#paint0_linear_1589_12722)" fill-opacity=".12"/><path d="M45 120l17.984-2.15 16.462-.543L97.672 115" stroke="#FF002E" stroke-width="2" stroke-linecap="round" stroke-linejoin="round"/><path d="M119.573 118.84c-1.7-.023-3.207-.408-4.522-1.156a10.309 10.309 0 01-3.298-2.958 14.085 14.085 0 01-2.006-3.944c-.431-1.428-.646-2.822-.646-4.182 0-1.451.238-2.901.714-4.352a13.119 13.119 0 012.074-3.944 10.556 10.556 0 013.332-2.856c1.292-.725 2.743-1.088 4.352-1.088 1.745 0 3.264.385 4.556 1.156a10.687 10.687 0 013.298 2.992 13.329 13.329 0 011.972 3.978c.453 1.428.68 2.799.68 4.114 0 1.473-.238 2.935-.714 4.386a12.821 12.821 0 01-2.108 3.91 10.77 10.77 0 01-3.298 2.856c-1.292.703-2.754 1.065-4.386 1.088zm-5.746-12.24c.023.952.147 1.904.374 2.856.249.929.601 1.791 1.054 2.584a6.173 6.173 0 001.802 1.938c.725.476 1.564.714 2.516.714 1.02 0 1.893-.261 2.618-.782a6.046 6.046 0 001.768-2.006 9.77 9.77 0 001.054-2.618c.227-.929.34-1.825.34-2.686 0-.952-.125-1.893-.374-2.822a8.64 8.64 0 00-1.088-2.618 5.818 5.818 0 00-1.802-1.904c-.703-.499-1.541-.748-2.516-.748-.997 0-1.859.26-2.584.782a6.412 6.412 0 00-1.802 2.006 10.505 10.505 0 00-1.02 2.618 11.31 11.31 0 00-.34 2.686zm19.658 11.9v-4.896h3.74v4.896h-3.74zm14.81.34c-1.745 0-3.32-.374-4.726-1.122-1.382-.771-2.448-1.802-3.196-3.094l2.618-2.72a7.548 7.548 0 002.38 2.108c.952.521 1.938.782 2.958.782.816 0 1.542-.17 2.176-.51a3.55 3.55 0 001.462-1.428c.363-.612.544-1.315.544-2.108 0-.771-.17-1.451-.51-2.04a3.433 3.433 0 00-1.394-1.394c-.589-.34-1.258-.51-2.006-.51-.725 0-1.416.17-2.074.51a3.728 3.728 0 00-1.564 1.394h-3.978l2.788-14.348h11.9v4.148h-8.602l-.952 5.406c.272-.295.669-.533 1.19-.714.522-.204 1.168-.306 1.938-.306 1.519 0 2.879.34 4.08 1.02a7.232 7.232 0 012.822 2.72c.703 1.156 1.054 2.493 1.054 4.012 0 1.609-.396 3.037-1.19 4.284-.77 1.224-1.824 2.187-3.162 2.89-1.314.68-2.833 1.02-4.556 1.02zm17.012-14.518c-1.043 0-1.983-.227-2.822-.68a5.985 5.985 0 01-2.04-1.87 4.819 4.819 0 01-.748-2.618c0-.952.249-1.813.748-2.584a5.571 5.571 0 012.04-1.87c.839-.453 1.779-.68 2.822-.68 1.043 0 1.983.227 2.822.68a5.247 5.247 0 012.04 1.87 4.65 4.65 0 01.748 2.584c0 .952-.249 1.825-.748 2.618-.499.771-1.179 1.394-2.04 1.87-.839.453-1.779.68-2.822.68zm0-2.278a1.99 1.99 0 001.224-.408c.363-.272.646-.623.85-1.054.227-.431.34-.895.34-1.394 0-.544-.113-1.031-.34-1.462a2.78 2.78 0 00-.884-1.02 1.99 1.99 0 00-2.414 0 2.78 2.78 0 00-.884 1.02c-.204.43-.306.907-.306 1.428 0 .521.113 1.009.34 1.462.227.431.521.782.884 1.054a2.06 2.06 0 001.19.374zm13.124 16.796c-1.043 0-1.983-.227-2.822-.68a5.675 5.675 0 01-2.04-1.836 4.819 4.819 0 01-.748-2.618c0-.975.249-1.847.748-2.618a5.675 5.675 0 012.04-1.836c.839-.476 1.779-.714 2.822-.714 1.043 0 1.983.238 2.822.714.861.453 1.541 1.065 2.04 1.836.499.771.748 1.632.748 2.584 0 .952-.249 1.825-.748 2.618-.499.771-1.179 1.394-2.04 1.87-.839.453-1.779.68-2.822.68zm0-2.278a1.99 1.99 0 001.224-.408c.363-.272.646-.623.85-1.054.227-.431.34-.895.34-1.394 0-.544-.113-1.031-.34-1.462a2.42 2.42 0 00-.884-1.02 1.94 1.94 0 00-1.19-.408c-.431 0-.839.136-1.224.408-.363.249-.657.601-.884 1.054a3.215 3.215 0 00-.306 1.394 3.088 3.088 0 001.224 2.516 2.06 2.06 0 001.19.374zm-16.796.34l9.554-11.186 8.84-11.628 2.074 1.836-9.316 11.016-9.112 11.798-2.04-1.836z" fill="#FF002E"/><path d="M108.873 143.5v-10.65h4.635c.48 0 .92.1 1.32.3.4.2.745.465 1.035.795.3.33.53.7.69 1.11.17.41.255.83.255 1.26 0 .47-.085.92-.255 1.35-.17.43-.415.8-.735 1.11-.31.31-.675.535-1.095.675l2.505 4.05h-1.89l-2.31-3.705h-2.475v3.705h-1.68zm1.68-5.19h2.94c.31 0 .585-.09.825-.27.24-.18.43-.42.57-.72.14-.31.21-.645.21-1.005 0-.37-.08-.7-.24-.99-.16-.3-.37-.54-.63-.72a1.38 1.38 0 00-.825-.27h-2.85v3.975zm11.333 5.34a4.26 4.26 0 01-1.665-.315 4.105 4.105 0 01-1.275-.885c-.36-.38-.64-.81-.84-1.29a4.277 4.277 0 01-.285-1.56c0-.74.17-1.415.51-2.025.34-.62.815-1.115 1.425-1.485.61-.38 1.325-.57 2.145-.57.82 0 1.525.19 2.115.57.6.37 1.065.86 1.395 1.47a4.066 4.066 0 01.48 2.31c-.01.1-.02.185-.03.255h-6.285c.03.46.155.865.375 1.215.23.34.52.61.87.81.35.19.725.285 1.125.285.44 0 .855-.11 1.245-.33.4-.22.67-.51.81-.87l1.41.405c-.17.38-.43.725-.78 1.035-.34.3-.745.54-1.215.72-.47.17-.98.255-1.53.255zm-2.355-4.62h4.74c-.03-.45-.16-.845-.39-1.185-.22-.35-.505-.62-.855-.81-.34-.2-.72-.3-1.14-.3a2.324 2.324 0 00-1.98 1.11 2.44 2.44 0 00-.375 1.185zm12.012 4.065c-.14.07-.315.145-.525.225-.21.08-.45.15-.72.21-.26.06-.53.09-.81.09-.34 0-.655-.06-.945-.18-.29-.12-.525-.31-.705-.57-.17-.27-.255-.615-.255-1.035v-4.905h-1.035v-1.275h1.035v-2.58h1.65v2.58h1.71v1.275h-1.71v4.38c.02.27.105.47.255.6.16.13.355.195.585.195.23 0 .45-.04.66-.12.21-.08.365-.145.465-.195l.345 1.305zm1.068-2.64v-4.8h1.65v4.47c0 .7.125 1.23.375 1.59.26.35.635.525 1.125.525.31 0 .61-.065.9-.195.3-.13.57-.32.81-.57.25-.26.45-.57.6-.93v-4.89h1.65v5.985c0 .19.035.325.105.405.07.08.185.125.345.135v1.32c-.17.03-.31.05-.42.06-.11.01-.215.015-.315.015-.3 0-.55-.08-.75-.24a.963.963 0 01-.345-.645l-.03-.78a3.557 3.557 0 01-1.365 1.305c-.56.29-1.175.435-1.845.435-.82 0-1.44-.27-1.86-.81-.42-.54-.63-1.335-.63-2.385zm13.626-3.375c-.64.01-1.21.155-1.71.435-.49.28-.84.675-1.05 1.185v4.8h-1.65v-7.845h1.53v1.755c.27-.54.625-.97 1.065-1.29.44-.33.905-.51 1.395-.54h.24c.07 0 .13.005.18.015v1.485zm8.235 6.42h-1.65v-4.395c0-.73-.12-1.265-.36-1.605-.23-.34-.575-.51-1.035-.51-.32 0-.64.08-.96.24-.31.16-.59.38-.84.66-.25.27-.43.585-.54.945v4.665h-1.65v-7.845h1.5v1.575c.2-.35.46-.65.78-.9.33-.26.7-.46 1.11-.6.41-.14.845-.21 1.305-.21.47 0 .855.085 1.155.255.31.17.55.405.72.705.18.29.3.63.36 1.02.07.38.105.785.105 1.215v4.785zm9.147.15c-.62 0-1.175-.105-1.665-.315-.49-.22-.915-.52-1.275-.9-.35-.38-.62-.81-.81-1.29a4.277 4.277 0 01-.285-1.56c0-.55.095-1.07.285-1.56.19-.49.46-.92.81-1.29.36-.38.785-.675 1.275-.885a4.09 4.09 0 011.665-.33c.61 0 1.16.11 1.65.33.5.21.925.505 1.275.885.36.37.635.8.825 1.29.19.49.285 1.01.285 1.56s-.095 1.07-.285 1.56c-.19.48-.465.91-.825 1.29-.35.38-.775.68-1.275.9a4.15 4.15 0 01-1.65.315zm-2.34-4.05c0 .5.105.95.315 1.35.21.4.49.715.84.945.35.23.745.345 1.185.345.43 0 .82-.115 1.17-.345.36-.24.645-.56.855-.96.21-.41.315-.86.315-1.35 0-.5-.105-.95-.315-1.35-.21-.4-.495-.715-.855-.945-.35-.24-.74-.36-1.17-.36-.44 0-.835.12-1.185.36-.35.24-.63.56-.84.96-.21.39-.315.84-.315 1.35zm14.873 3.9h-1.65v-4.395c0-.73-.12-1.265-.36-1.605-.23-.34-.575-.51-1.035-.51-.32 0-.64.08-.96.24-.31.16-.59.38-.84.66-.25.27-.43.585-.54.945v4.665h-1.65v-7.845h1.5v1.575c.2-.35.46-.65.78-.9.33-.26.7-.46 1.11-.6.41-.14.845-.21 1.305-.21.47 0 .855.085 1.155.255.31.17.55.405.72.705.18.29.3.63.36 1.02.07.38.105.785.105 1.215v4.785zm5.831 0v-10.65h1.68v10.65h-1.68zm10.912 0h-1.65v-4.395c0-.73-.12-1.265-.36-1.605-.23-.34-.575-.51-1.035-.51-.32 0-.64.08-.96.24-.31.16-.59.38-.84.66-.25.27-.43.585-.54.945v4.665h-1.65v-7.845h1.5v1.575c.2-.35.46-.65.78-.9.33-.26.7-.46 1.11-.6.41-.14.845-.21 1.305-.21.47 0 .855.085 1.155.255.31.17.55.405.72.705.18.29.3.63.36 1.02.07.38.105.785.105 1.215v4.785zm3.959 0l-2.985-7.845h1.71l2.235 6.315 2.235-6.315h1.59l-2.985 7.845h-1.8zm9.26.15a4.26 4.26 0 01-1.665-.315 4.105 4.105 0 01-1.275-.885c-.36-.38-.64-.81-.84-1.29a4.277 4.277 0 01-.285-1.56c0-.74.17-1.415.51-2.025.34-.62.815-1.115 1.425-1.485.61-.38 1.325-.57 2.145-.57.82 0 1.525.19 2.115.57.6.37 1.065.86 1.395 1.47a4.066 4.066 0 01.48 2.31c-.01.1-.02.185-.03.255h-6.285c.03.46.155.865.375 1.215.23.34.52.61.87.81.35.19.725.285 1.125.285.44 0 .855-.11 1.245-.33.4-.22.67-.51.81-.87l1.41.405c-.17.38-.43.725-.78 1.035-.34.3-.745.54-1.215.72-.47.17-.98.255-1.53.255zm-2.355-4.62h4.74c-.03-.45-.16-.845-.39-1.185-.22-.35-.505-.62-.855-.81-.34-.2-.72-.3-1.14-.3a2.324 2.324 0 00-1.98 1.11 2.44 2.44 0 00-.375 1.185zm10.511 4.62a5.55 5.55 0 01-1.875-.315 4.078 4.078 0 01-1.515-.975l.615-1.11c.45.4.9.69 1.35.87.46.18.915.27 1.365.27.46 0 .835-.085 1.125-.255.29-.18.435-.44.435-.78 0-.25-.075-.435-.225-.555-.15-.12-.37-.225-.66-.315-.28-.09-.62-.19-1.02-.3-.56-.17-1.03-.345-1.41-.525-.38-.19-.665-.42-.855-.69-.19-.27-.285-.615-.285-1.035 0-.51.13-.945.39-1.305s.62-.635 1.08-.825c.47-.19 1.01-.285 1.62-.285.57 0 1.095.09 1.575.27.49.17.92.44 1.29.81l-.705 1.095c-.35-.32-.71-.555-1.08-.705-.36-.15-.75-.225-1.17-.225-.24 0-.47.03-.69.09-.22.05-.405.15-.555.3-.14.14-.21.34-.21.6 0 .21.06.38.18.51s.3.24.54.33c.24.09.535.19.885.3.61.18 1.13.36 1.56.54.43.17.76.395.99.675.24.27.36.645.36 1.125 0 .76-.285 1.355-.855 1.785-.56.42-1.31.63-2.25.63zm8.929-.555c-.14.07-.315.145-.525.225-.21.08-.45.15-.72.21-.26.06-.53.09-.81.09-.34 0-.655-.06-.945-.18-.29-.12-.525-.31-.705-.57-.17-.27-.255-.615-.255-1.035v-4.905h-1.035v-1.275h1.035v-2.58h1.65v2.58h1.71v1.275h-1.71v4.38c.02.27.105.47.255.6.16.13.355.195.585.195.23 0 .45-.04.66-.12.21-.08.365-.145.465-.195l.345 1.305zm13.143.405h-1.65v-4.395c0-.73-.12-1.265-.36-1.605-.24-.34-.59-.51-1.05-.51-.46 0-.89.175-1.29.525-.39.34-.665.785-.825 1.335v4.65h-1.65v-4.395c0-.73-.12-1.265-.36-1.605-.24-.34-.585-.51-1.035-.51-.46 0-.89.17-1.29.51-.39.34-.67.785-.84 1.335v4.665h-1.65v-7.845h1.5v1.575c.31-.55.715-.97 1.215-1.26.51-.3 1.09-.45 1.74-.45.65 0 1.16.17 1.53.51.38.34.615.765.705 1.275.34-.58.755-1.02 1.245-1.32.5-.31 1.07-.465 1.71-.465.46 0 .845.085 1.155.255.31.17.55.405.72.705.17.29.29.63.36 1.02.08.38.12.785.12 1.215v4.785zm5.456.15a4.26 4.26 0 01-1.665-.315 4.105 4.105 0 01-1.275-.885c-.36-.38-.64-.81-.84-1.29a4.277 4.277 0 01-.285-1.56c0-.74.17-1.415.51-2.025.34-.62.815-1.115 1.425-1.485.61-.38 1.325-.57 2.145-.57.82 0 1.525.19 2.115.57.6.37 1.065.86 1.395 1.47a4.066 4.066 0 01.48 2.31c-.01.1-.02.185-.03.255h-6.285c.03.46.155.865.375 1.215.23.34.52.61.87.81.35.19.725.285 1.125.285.44 0 .855-.11 1.245-.33.4-.22.67-.51.81-.87l1.41.405c-.17.38-.43.725-.78 1.035-.34.3-.745.54-1.215.72-.47.17-.98.255-1.53.255zm-2.355-4.62h4.74c-.03-.45-.16-.845-.39-1.185-.22-.35-.505-.62-.855-.81-.34-.2-.72-.3-1.14-.3a2.324 2.324 0 00-1.98 1.11 2.44 2.44 0 00-.375 1.185zm14.756 4.47h-1.65v-4.395c0-.73-.12-1.265-.36-1.605-.23-.34-.575-.51-1.035-.51-.32 0-.64.08-.96.24-.31.16-.59.38-.84.66-.25.27-.43.585-.54.945v4.665h-1.65v-7.845h1.5v1.575c.2-.35.46-.65.78-.9.33-.26.7-.46 1.11-.6.41-.14.845-.21 1.305-.21.47 0 .855.085 1.155.255.31.17.55.405.72.705.18.29.3.63.36 1.02.07.38.105.785.105 1.215v4.785zm6.221-.405c-.14.07-.315.145-.525.225-.21.08-.45.15-.72.21-.26.06-.53.09-.81.09-.34 0-.655-.06-.945-.18-.29-.12-.525-.31-.705-.57-.17-.27-.255-.615-.255-1.035v-4.905h-1.035v-1.275h1.035v-2.58h1.65v2.58h1.71v1.275h-1.71v4.38c.02.27.105.47.255.6.16.13.355.195.585.195.23 0 .45-.04.66-.12.21-.08.365-.145.465-.195l.345 1.305z" fill="#101828" fill-opacity=".5"/><path d="M54.36 177.08v2.42h-8.04v-2.42h2.76v-9.24c-.107.16-.287.34-.54.54-.24.187-.52.373-.84.56a6.31 6.31 0 01-.96.44c-.32.12-.613.18-.88.18v-2.48c.36 0 .727-.093 1.1-.28.373-.187.72-.4 1.04-.64.32-.24.573-.46.76-.66l.32-.34h2.74v11.92h2.54zm7.445 2.62c-1-.013-1.887-.24-2.66-.68a6.066 6.066 0 01-1.94-1.74 8.285 8.285 0 01-1.18-2.32 8.498 8.498 0 01-.38-2.46c0-.853.14-1.707.42-2.56a7.724 7.724 0 011.22-2.32 6.203 6.203 0 011.96-1.68c.76-.427 1.613-.64 2.56-.64 1.026 0 1.92.227 2.68.68a6.285 6.285 0 011.94 1.76c.52.72.906 1.5 1.16 2.34.266.84.4 1.647.4 2.42 0 .867-.14 1.727-.42 2.58a7.53 7.53 0 01-1.24 2.3 6.347 6.347 0 01-1.94 1.68c-.76.413-1.62.627-2.58.64zm-3.38-7.2c.013.56.086 1.12.22 1.68a6.34 6.34 0 00.62 1.52c.28.467.633.847 1.06 1.14.426.28.92.42 1.48.42.6 0 1.113-.153 1.54-.46.426-.307.773-.7 1.04-1.18.28-.48.486-.993.62-1.54a6.68 6.68 0 00.2-1.58 6.38 6.38 0 00-.22-1.66 5.088 5.088 0 00-.64-1.54 3.415 3.415 0 00-1.06-1.12c-.414-.293-.907-.44-1.48-.44-.587 0-1.094.153-1.52.46-.427.307-.78.7-1.06 1.18-.267.48-.467.993-.6 1.54a6.665 6.665 0 00-.2 1.58zm15.783 7.2c-1.026 0-1.953-.22-2.78-.66-.813-.453-1.44-1.06-1.88-1.82l1.54-1.6c.387.52.854.933 1.4 1.24.56.307 1.14.46 1.74.46.48 0 .907-.1 1.28-.3.374-.2.66-.48.86-.84.214-.36.32-.773.32-1.24 0-.453-.1-.853-.3-1.2-.2-.36-.473-.633-.82-.82-.346-.2-.74-.3-1.18-.3-.427 0-.833.1-1.22.3-.387.187-.693.46-.92.82h-2.34l1.64-8.44h7v2.44h-5.06l-.56 3.18c.16-.173.394-.313.7-.42.307-.12.687-.18 1.14-.18.894 0 1.694.2 2.4.6a4.26 4.26 0 011.66 1.6c.413.68.62 1.467.62 2.36 0 .947-.233 1.787-.7 2.52a4.771 4.771 0 01-1.86 1.7c-.773.4-1.666.6-2.68.6z" fill="#FF002E"/><path d="M50.625 203.575c-.77 0-1.465-.15-2.085-.45a5.053 5.053 0 01-1.605-1.215c-.45-.52-.8-1.1-1.05-1.74a5.717 5.717 0 01-.36-1.995c0-.71.13-1.385.39-2.025.26-.65.62-1.225 1.08-1.725.46-.51 1-.91 1.62-1.2.63-.3 1.31-.45 2.04-.45.76 0 1.45.155 2.07.465.63.31 1.165.725 1.605 1.245.45.52.795 1.1 1.035 1.74a5.443 5.443 0 01-.015 4.005 5.593 5.593 0 01-1.065 1.725c-.46.5-1.005.895-1.635 1.185a4.72 4.72 0 01-2.025.435zm-3.39-5.4c0 .5.08.985.24 1.455.16.47.385.89.675 1.26.3.36.66.645 1.08.855.42.21.89.315 1.41.315.54 0 1.02-.11 1.44-.33.42-.22.77-.515 1.05-.885.29-.38.51-.8.66-1.26.15-.47.225-.94.225-1.41 0-.5-.08-.98-.24-1.44a3.662 3.662 0 00-.675-1.245c-.3-.37-.66-.66-1.08-.87-.41-.21-.87-.315-1.38-.315-.54 0-1.02.11-1.44.33-.42.22-.775.515-1.065.885-.29.37-.515.785-.675 1.245-.15.46-.225.93-.225 1.41zm14.371-1.095c-.64.01-1.21.155-1.71.435-.49.28-.84.675-1.05 1.185v4.8h-1.65v-7.845h1.53v1.755c.27-.54.625-.97 1.065-1.29.44-.33.905-.51 1.395-.54h.24c.07 0 .13.005.18.015v1.485zm4.188 6.495c-.53 0-1.015-.105-1.455-.315a3.65 3.65 0 01-1.14-.885 4.339 4.339 0 01-.735-1.275 4.504 4.504 0 01-.255-1.515c0-.56.09-1.085.27-1.575.18-.49.43-.92.75-1.29.33-.38.715-.675 1.155-.885.44-.21.93-.315 1.47-.315.63 0 1.18.15 1.65.45.48.3.875.69 1.185 1.17v-1.485h1.455v7.62c0 .76-.185 1.405-.555 1.935-.36.53-.855.935-1.485 1.215-.63.28-1.34.42-2.13.42-.87 0-1.59-.15-2.16-.45-.57-.3-1.055-.71-1.455-1.23l.93-.87c.3.42.685.74 1.155.96.48.22.99.33 1.53.33.45 0 .865-.085 1.245-.255.39-.16.7-.415.93-.765.23-.34.345-.77.345-1.29v-1.2c-.28.47-.665.84-1.155 1.11-.49.26-1.005.39-1.545.39zm.54-1.335c.25 0 .49-.04.72-.12a2.67 2.67 0 001.14-.84c.14-.19.24-.39.3-.6v-2.055a2.606 2.606 0 00-.555-.885c-.24-.26-.51-.46-.81-.6-.3-.14-.605-.21-.915-.21-.36 0-.685.08-.975.24-.28.15-.52.355-.72.615-.2.25-.355.535-.465.855-.11.32-.165.65-.165.99 0 .36.06.695.18 1.005.13.31.305.59.525.84.22.24.48.43.78.57.3.13.62.195.96.195zm5.219-1.035c0-.5.14-.935.42-1.305.29-.38.685-.67 1.185-.87.5-.21 1.08-.315 1.74-.315.35 0 .705.025 1.065.075.37.05.695.13.975.24v-.495c0-.55-.165-.98-.495-1.29-.33-.31-.805-.465-1.425-.465-.44 0-.855.08-1.245.24-.39.15-.805.365-1.245.645l-.555-1.11c.52-.35 1.04-.61 1.56-.78a5.418 5.418 0 011.665-.255c1.05 0 1.875.28 2.475.84.61.55.915 1.335.915 2.355v2.925c0 .19.03.325.09.405.07.08.185.125.345.135v1.32a3.621 3.621 0 01-.705.075c-.35 0-.615-.085-.795-.255a.982.982 0 01-.315-.6l-.045-.45c-.34.44-.775.78-1.305 1.02-.53.24-1.065.36-1.605.36-.52 0-.985-.105-1.395-.315a2.49 2.49 0 01-.96-.885 2.31 2.31 0 01-.345-1.245zm4.995.48c.12-.13.215-.26.285-.39a.748.748 0 00.105-.345v-.9c-.28-.11-.575-.19-.885-.24-.31-.06-.615-.09-.915-.09-.6 0-1.09.12-1.47.36-.37.24-.555.57-.555.99 0 .23.06.45.18.66.13.21.31.38.54.51.24.13.535.195.885.195.36 0 .705-.07 1.035-.21.33-.14.595-.32.795-.54zm11.077 1.815h-1.65v-4.395c0-.73-.12-1.265-.36-1.605-.23-.34-.575-.51-1.035-.51-.32 0-.64.08-.96.24-.31.16-.59.38-.84.66-.25.27-.43.585-.54.945v4.665h-1.65v-7.845h1.5v1.575c.2-.35.46-.65.78-.9.33-.26.7-.46 1.11-.6.41-.14.845-.21 1.305-.21.47 0 .855.085 1.155.255.31.17.55.405.72.705.18.29.3.63.36 1.02.07.38.105.785.105 1.215v4.785zm1.915 0v-7.845h1.65v7.845h-1.65zm0-9.135v-1.815h1.65v1.815h-1.65zm7.188 9.285a4.26 4.26 0 01-1.665-.315c-.49-.22-.915-.52-1.275-.9-.36-.38-.64-.815-.84-1.305a4.277 4.277 0 01-.285-1.56c0-.74.165-1.415.495-2.025.34-.61.81-1.1 1.41-1.47.61-.37 1.33-.555 2.16-.555.8 0 1.495.18 2.085.54.6.35 1.04.82 1.32 1.41l-1.605.51a1.879 1.879 0 00-.765-.765 2.047 2.047 0 00-1.065-.285c-.44 0-.84.115-1.2.345-.35.22-.63.53-.84.93-.2.39-.3.845-.3 1.365 0 .5.105.955.315 1.365.21.4.49.72.84.96.36.23.76.345 1.2.345.27 0 .53-.045.78-.135.26-.1.485-.23.675-.39.19-.17.325-.355.405-.555l1.62.48c-.17.39-.425.735-.765 1.035-.33.3-.725.54-1.185.72a4.26 4.26 0 01-1.515.255zm16.1-9.315h-3.54v9.165h-1.695v-9.165h-3.555v-1.485h8.79v1.485zm4.633 2.745c-.64.01-1.21.155-1.71.435-.49.28-.84.675-1.05 1.185v4.8h-1.65v-7.845h1.53v1.755c.27-.54.625-.97 1.065-1.29.44-.33.905-.51 1.395-.54h.24c.07 0 .13.005.18.015v1.485zm.615 4.125c0-.5.14-.935.42-1.305.29-.38.685-.67 1.185-.87.5-.21 1.08-.315 1.74-.315.35 0 .705.025 1.065.075.37.05.695.13.975.24v-.495c0-.55-.165-.98-.495-1.29-.33-.31-.805-.465-1.425-.465-.44 0-.855.08-1.245.24-.39.15-.805.365-1.245.645l-.555-1.11c.52-.35 1.04-.61 1.56-.78a5.418 5.418 0 011.665-.255c1.05 0 1.875.28 2.475.84.61.55.915 1.335.915 2.355v2.925c0 .19.03.325.09.405.07.08.185.125.345.135v1.32a3.621 3.621 0 01-.705.075c-.35 0-.615-.085-.795-.255a.982.982 0 01-.315-.6l-.045-.45c-.34.44-.775.78-1.305 1.02-.53.24-1.065.36-1.605.36-.52 0-.985-.105-1.395-.315a2.49 2.49 0 01-.96-.885 2.31 2.31 0 01-.345-1.245zm4.995.48c.12-.13.215-.26.285-.39a.748.748 0 00.105-.345v-.9c-.28-.11-.575-.19-.885-.24-.31-.06-.615-.09-.915-.09-.6 0-1.09.12-1.47.36-.37.24-.555.57-.555.99 0 .23.06.45.18.66.13.21.31.38.54.51.24.13.535.195.885.195.36 0 .705-.07 1.035-.21.33-.14.595-.32.795-.54zm4.448 1.815v-6.375h-1.05v-1.275h1.05v-.12c0-.5.105-.96.315-1.38.21-.42.51-.755.9-1.005.4-.26.87-.39 1.41-.39.37 0 .71.045 1.02.135.31.09.615.205.915.345l-.39 1.275a2.289 2.289 0 00-1.215-.345c-.22 0-.41.04-.57.12a1.1 1.1 0 00-.405.3c-.11.12-.195.26-.255.42a1.46 1.46 0 00-.075.465v.18h2.01v1.275h-2.01v6.375h-1.65zm3.765-6.375h-1.05v-1.275h1.05v-.315c0-.41.065-.8.195-1.17.13-.38.325-.715.585-1.005.26-.3.575-.535.945-.705.38-.17.82-.255 1.32-.255.37 0 .715.04 1.035.12.32.08.615.19.885.33.28.13.53.27.75.42l-.675 1.23c-.23-.2-.515-.365-.855-.495-.33-.13-.68-.195-1.05-.195-.33 0-.61.08-.84.24-.22.16-.385.37-.495.63-.1.26-.15.53-.15.81v.36h4.11v7.65h-1.65v-6.375h-2.46v6.375h-1.65v-6.375zm11.279 6.525a4.26 4.26 0 01-1.665-.315c-.49-.22-.915-.52-1.275-.9-.36-.38-.64-.815-.84-1.305a4.277 4.277 0 01-.285-1.56c0-.74.165-1.415.495-2.025.34-.61.81-1.1 1.41-1.47.61-.37 1.33-.555 2.16-.555.8 0 1.495.18 2.085.54.6.35 1.04.82 1.32 1.41l-1.605.51a1.879 1.879 0 00-.765-.765 2.047 2.047 0 00-1.065-.285c-.44 0-.84.115-1.2.345-.35.22-.63.53-.84.93-.2.39-.3.845-.3 1.365 0 .5.105.955.315 1.365.21.4.49.72.84.96.36.23.76.345 1.2.345.27 0 .53-.045.78-.135.26-.1.485-.23.675-.39.19-.17.325-.355.405-.555l1.62.48c-.17.39-.425.735-.765 1.035-.33.3-.725.54-1.185.72a4.26 4.26 0 01-1.515.255z" fill="#101828" fill-opacity=".5"/><path d="M54.36 237.08v2.42h-8.04v-2.42h2.76v-9.24c-.107.16-.287.34-.54.54-.24.187-.52.373-.84.56a6.31 6.31 0 01-.96.44c-.32.12-.613.18-.88.18v-2.48c.36 0 .727-.093 1.1-.28.373-.187.72-.4 1.04-.64.32-.24.573-.46.76-.66l.32-.34h2.74v11.92h2.54zm7.445 2.62c-1-.013-1.887-.24-2.66-.68a6.066 6.066 0 01-1.94-1.74 8.285 8.285 0 01-1.18-2.32 8.498 8.498 0 01-.38-2.46c0-.853.14-1.707.42-2.56a7.724 7.724 0 011.22-2.32 6.203 6.203 0 011.96-1.68c.76-.427 1.613-.64 2.56-.64 1.026 0 1.92.227 2.68.68a6.285 6.285 0 011.94 1.76c.52.72.906 1.5 1.16 2.34.266.84.4 1.647.4 2.42 0 .867-.14 1.727-.42 2.58a7.53 7.53 0 01-1.24 2.3 6.347 6.347 0 01-1.94 1.68c-.76.413-1.62.627-2.58.64zm-3.38-7.2c.013.56.086 1.12.22 1.68a6.34 6.34 0 00.62 1.52c.28.467.633.847 1.06 1.14.426.28.92.42 1.48.42.6 0 1.113-.153 1.54-.46.426-.307.773-.7 1.04-1.18.28-.48.486-.993.62-1.54a6.68 6.68 0 00.2-1.58 6.38 6.38 0 00-.22-1.66 5.088 5.088 0 00-.64-1.54 3.415 3.415 0 00-1.06-1.12c-.414-.293-.907-.44-1.48-.44-.587 0-1.094.153-1.52.46-.427.307-.78.7-1.06 1.18-.267.48-.467.993-.6 1.54a6.665 6.665 0 00-.2 1.58zm15.783 7.2c-1.026 0-1.953-.22-2.78-.66-.813-.453-1.44-1.06-1.88-1.82l1.54-1.6c.387.52.854.933 1.4 1.24.56.307 1.14.46 1.74.46.48 0 .907-.1 1.28-.3.374-.2.66-.48.86-.84.214-.36.32-.773.32-1.24 0-.453-.1-.853-.3-1.2-.2-.36-.473-.633-.82-.82-.346-.2-.74-.3-1.18-.3-.427 0-.833.1-1.22.3-.387.187-.693.46-.92.82h-2.34l1.64-8.44h7v2.44h-5.06l-.56 3.18c.16-.173.394-.313.7-.42.307-.12.687-.18 1.14-.18.894 0 1.694.2 2.4.6a4.26 4.26 0 011.66 1.6c.413.68.62 1.467.62 2.36 0 .947-.233 1.787-.7 2.52a4.771 4.771 0 01-1.86 1.7c-.773.4-1.666.6-2.68.6z" fill="#FF002E"/><path d="M46.2 263.5v-10.65h4.635c.48 0 .92.1 1.32.3.4.2.745.465 1.035.795.3.33.53.7.69 1.11.17.41.255.83.255 1.26 0 .47-.085.92-.255 1.35-.17.43-.415.8-.735 1.11-.31.31-.675.535-1.095.675l2.505 4.05h-1.89l-2.31-3.705H47.88v3.705H46.2zm1.68-5.19h2.94c.31 0 .585-.09.825-.27.24-.18.43-.42.57-.72.14-.31.21-.645.21-1.005 0-.37-.08-.7-.24-.99-.16-.3-.37-.54-.63-.72a1.38 1.38 0 00-.825-.27h-2.85v3.975zm7.325 2.895c0-.5.14-.935.42-1.305.29-.38.685-.67 1.185-.87.5-.21 1.08-.315 1.74-.315.35 0 .705.025 1.065.075.37.05.695.13.975.24v-.495c0-.55-.165-.98-.495-1.29-.33-.31-.805-.465-1.425-.465-.44 0-.855.08-1.245.24-.39.15-.805.365-1.245.645l-.555-1.11c.52-.35 1.04-.61 1.56-.78a5.418 5.418 0 011.665-.255c1.05 0 1.875.28 2.475.84.61.55.915 1.335.915 2.355v2.925c0 .19.03.325.09.405.07.08.185.125.345.135v1.32a3.621 3.621 0 01-.705.075c-.35 0-.615-.085-.795-.255a.982.982 0 01-.315-.6l-.045-.45c-.34.44-.775.78-1.305 1.02-.53.24-1.065.36-1.605.36-.52 0-.985-.105-1.395-.315a2.49 2.49 0 01-.96-.885 2.31 2.31 0 01-.345-1.245zm4.995.48c.12-.13.215-.26.285-.39a.748.748 0 00.105-.345v-.9c-.28-.11-.575-.19-.885-.24-.31-.06-.615-.09-.915-.09-.6 0-1.09.12-1.47.36-.37.24-.555.57-.555.99 0 .23.06.45.18.66.13.21.31.38.54.51.24.13.535.195.885.195.36 0 .705-.07 1.035-.21.33-.14.595-.32.795-.54zm11.077 1.815h-1.65v-4.395c0-.73-.12-1.265-.36-1.605-.23-.34-.575-.51-1.035-.51-.32 0-.64.08-.96.24-.31.16-.59.38-.84.66-.25.27-.43.585-.54.945v4.665h-1.65v-7.845h1.5v1.575c.2-.35.46-.65.78-.9.33-.26.7-.46 1.11-.6.41-.14.845-.21 1.305-.21.47 0 .855.085 1.155.255.31.17.55.405.72.705.18.29.3.63.36 1.02.07.38.105.785.105 1.215v4.785zm7.375 0l-2.52-3.615-1.29 1.23v2.385h-1.65v-10.95h1.65v6.9l3.63-3.78h1.77l-3.045 3.285 3.21 4.545h-1.755zm2.758 0v-7.845h1.65v7.845h-1.65zm0-9.135v-1.815h1.65v1.815h-1.65zm10.668 9.135h-1.65v-4.395c0-.73-.12-1.265-.36-1.605-.23-.34-.575-.51-1.035-.51-.32 0-.64.08-.96.24-.31.16-.59.38-.84.66-.25.27-.43.585-.54.945v4.665h-1.65v-7.845h1.5v1.575c.2-.35.46-.65.78-.9.33-.26.7-.46 1.11-.6.41-.14.845-.21 1.305-.21.47 0 .855.085 1.155.255.31.17.55.405.72.705.18.29.3.63.36 1.02.07.38.105.785.105 1.215v4.785zm5.02.075c-.53 0-1.015-.105-1.455-.315a3.65 3.65 0 01-1.14-.885 4.339 4.339 0 01-.735-1.275 4.504 4.504 0 01-.255-1.515c0-.56.09-1.085.27-1.575.18-.49.43-.92.75-1.29.33-.38.715-.675 1.155-.885.44-.21.93-.315 1.47-.315.63 0 1.18.15 1.65.45.48.3.875.69 1.185 1.17v-1.485h1.455v7.62c0 .76-.185 1.405-.555 1.935-.36.53-.855.935-1.485 1.215-.63.28-1.34.42-2.13.42-.87 0-1.59-.15-2.16-.45-.57-.3-1.055-.71-1.455-1.23l.93-.87c.3.42.685.74 1.155.96.48.22.99.33 1.53.33.45 0 .865-.085 1.245-.255.39-.16.7-.415.93-.765.23-.34.345-.77.345-1.29v-1.2c-.28.47-.665.84-1.155 1.11-.49.26-1.005.39-1.545.39zm.54-1.335c.25 0 .49-.04.72-.12a2.67 2.67 0 001.14-.84c.14-.19.24-.39.3-.6v-2.055a2.606 2.606 0 00-.555-.885c-.24-.26-.51-.46-.81-.6-.3-.14-.605-.21-.915-.21-.36 0-.685.08-.975.24-.28.15-.52.355-.72.615-.2.25-.355.535-.465.855-.11.32-.165.65-.165.99 0 .36.06.695.18 1.005.13.31.305.59.525.84.22.24.48.43.78.57.3.13.62.195.96.195zm9.705 1.26v-10.635h1.68v5.475l5.01-5.49h1.86l-4.2 4.71 4.44 5.94h-1.905l-3.6-4.875-1.605 1.665v3.21h-1.68zm12.734.15a4.26 4.26 0 01-1.665-.315 4.105 4.105 0 01-1.275-.885c-.36-.38-.64-.81-.84-1.29a4.277 4.277 0 01-.285-1.56c0-.74.17-1.415.51-2.025.34-.62.815-1.115 1.425-1.485.61-.38 1.325-.57 2.145-.57.82 0 1.525.19 2.115.57.6.37 1.065.86 1.395 1.47a4.066 4.066 0 01.48 2.31c-.01.1-.02.185-.03.255h-6.285c.03.46.155.865.375 1.215.23.34.52.61.87.81.35.19.725.285 1.125.285.44 0 .855-.11 1.245-.33.4-.22.67-.51.81-.87l1.41.405c-.17.38-.43.725-.78 1.035-.34.3-.745.54-1.215.72-.47.17-.98.255-1.53.255zm-2.355-4.62h4.74c-.03-.45-.16-.845-.39-1.185-.22-.35-.505-.62-.855-.81-.34-.2-.72-.3-1.14-.3a2.324 2.324 0 00-1.98 1.11 2.44 2.44 0 00-.375 1.185zm7.757 6.315l.435.06c.15.03.27.045.36.045a.62.62 0 00.435-.165c.13-.1.26-.29.39-.57.13-.28.29-.685.48-1.215l-3.225-7.845h1.725l2.4 6.165 2.13-6.165h1.59l-3.555 9.66a2.6 2.6 0 01-.48.795c-.21.25-.47.445-.78.585-.31.14-.675.21-1.095.21-.12 0-.245-.01-.375-.03-.13-.02-.275-.05-.435-.09v-1.44zm17.713-9.69h1.575l-3.3 7.845h-1.41l-1.41-3.54-1.41 3.54h-1.41l-3.315-7.845h1.575l2.52 6.24 1.11-2.895-1.35-3.33h1.395l.885 2.445.87-2.445h1.395l-1.335 3.33 1.11 2.895 2.505-6.24zm5.932 7.995c-.62 0-1.175-.105-1.665-.315-.49-.22-.915-.52-1.275-.9-.35-.38-.62-.81-.81-1.29a4.277 4.277 0 01-.285-1.56c0-.55.095-1.07.285-1.56.19-.49.46-.92.81-1.29.36-.38.785-.675 1.275-.885a4.09 4.09 0 011.665-.33c.61 0 1.16.11 1.65.33.5.21.925.505 1.275.885.36.37.635.8.825 1.29.19.49.285 1.01.285 1.56s-.095 1.07-.285 1.56c-.19.48-.465.91-.825 1.29-.35.38-.775.68-1.275.9a4.15 4.15 0 01-1.65.315zm-2.34-4.05c0 .5.105.95.315 1.35.21.4.49.715.84.945.35.23.745.345 1.185.345.43 0 .82-.115 1.17-.345.36-.24.645-.56.855-.96.21-.41.315-.86.315-1.35 0-.5-.105-.95-.315-1.35-.21-.4-.495-.715-.855-.945-.35-.24-.74-.36-1.17-.36-.44 0-.835.12-1.185.36-.35.24-.63.56-.84.96-.21.39-.315.84-.315 1.35zm12.249-2.52c-.64.01-1.21.155-1.71.435-.49.28-.84.675-1.05 1.185v4.8h-1.65v-7.845h1.53v1.755c.27-.54.625-.97 1.065-1.29.44-.33.905-.51 1.395-.54h.24c.07 0 .13.005.18.015v1.485zm.588 2.505c0-.75.15-1.43.45-2.04.31-.62.73-1.11 1.26-1.47.53-.37 1.14-.555 1.83-.555.6 0 1.14.155 1.62.465.49.31.87.695 1.14 1.155v-4.59h1.65v9.09c0 .19.035.325.105.405.07.08.185.125.345.135v1.32c-.31.05-.55.075-.72.075-.31 0-.575-.09-.795-.27a.872.872 0 01-.33-.645l-.015-.585c-.3.5-.705.89-1.215 1.17-.51.27-1.04.405-1.59.405-.54 0-1.04-.105-1.5-.315a3.647 3.647 0 01-1.185-.885c-.33-.38-.59-.815-.78-1.305-.18-.49-.27-1.01-.27-1.56zm6.3 1.095v-2.055c-.11-.32-.29-.605-.54-.855a2.739 2.739 0 00-.825-.615c-.3-.15-.6-.225-.9-.225-.35 0-.67.075-.96.225-.28.15-.525.35-.735.6-.2.25-.355.535-.465.855a3.07 3.07 0 00.015 2.025c.12.31.29.59.51.84.23.24.49.43.78.57.3.13.625.195.975.195.22 0 .44-.04.66-.12.23-.08.445-.19.645-.33.21-.14.385-.305.525-.495.15-.19.255-.395.315-.615zm6.536 2.97a5.55 5.55 0 01-1.875-.315 4.078 4.078 0 01-1.515-.975l.615-1.11c.45.4.9.69 1.35.87.46.18.915.27 1.365.27.46 0 .835-.085 1.125-.255.29-.18.435-.44.435-.78 0-.25-.075-.435-.225-.555-.15-.12-.37-.225-.66-.315-.28-.09-.62-.19-1.02-.3-.56-.17-1.03-.345-1.41-.525-.38-.19-.665-.42-.855-.69-.19-.27-.285-.615-.285-1.035 0-.51.13-.945.39-1.305s.62-.635 1.08-.825c.47-.19 1.01-.285 1.62-.285.57 0 1.095.09 1.575.27.49.17.92.44 1.29.81l-.705 1.095c-.35-.32-.71-.555-1.08-.705-.36-.15-.75-.225-1.17-.225-.24 0-.47.03-.69.09-.22.05-.405.15-.555.3-.14.14-.21.34-.21.6 0 .21.06.38.18.51s.3.24.54.33c.24.09.535.19.885.3.61.18 1.13.36 1.56.54.43.17.76.395.99.675.24.27.36.645.36 1.125 0 .76-.285 1.355-.855 1.785-.56.42-1.31.63-2.25.63z" fill="#101828" fill-opacity=".5"/><rect x="20.5" y="20" width="295" height="272" rx="9.5" stroke="#000" stroke-opacity=".06"/></g><rect x="270" width="310" height="313" rx="10" fill="#E1FFE8"/><path d="M300.34 48.8h2.8l5.22 14.2h-2.84l-1.32-3.54h-4.96l-1.3 3.54h-2.84l5.24-14.2zm3.36 8.72l-1.96-5.86-2.04 5.86h4zm6.246 5.48v-7.88h-1.38v-2.04h1.38v-.64c0-.867.14-1.613.42-2.24.293-.64.7-1.133 1.22-1.48.533-.347 1.153-.52 1.86-.52.427 0 .853.053 1.28.16.44.107.873.26 1.3.46l-.54 2.02a3.06 3.06 0 00-.7-.26c-.267-.08-.52-.12-.76-.12-.453 0-.8.16-1.04.48-.24.32-.36.787-.36 1.4v.74h2.56v2.04h-2.56V63h-2.68zm13.042-.54c-.226.093-.5.2-.82.32a5.91 5.91 0 01-1.04.28c-.36.08-.726.12-1.1.12-.493 0-.946-.087-1.36-.26a2.23 2.23 0 01-1-.82c-.24-.387-.36-.887-.36-1.5v-6.02h-1.38v-2.06h1.38v-3.4h2.68v3.4h2.2v2.06h-2.2v5.12c.014.36.114.62.3.78.187.16.42.24.7.24.28 0 .554-.047.82-.14.267-.093.48-.173.64-.24l.54 2.12zm6.139.74c-.84 0-1.6-.14-2.28-.42a5.354 5.354 0 01-1.74-1.18 5.637 5.637 0 01-1.12-1.72 5.655 5.655 0 01-.38-2.06c0-1 .22-1.913.66-2.74a5.159 5.159 0 011.92-1.98c.84-.507 1.827-.76 2.96-.76 1.147 0 2.127.253 2.94.76a4.923 4.923 0 011.86 1.98c.44.813.66 1.693.66 2.64a6.7 6.7 0 01-.02.5c-.013.16-.027.293-.04.4h-8.1c.053.533.207 1 .46 1.4.267.4.6.707 1 .92.413.2.853.3 1.32.3.533 0 1.033-.127 1.5-.38.48-.267.807-.613.98-1.04l2.3.64a4.298 4.298 0 01-1.1 1.42 5.27 5.27 0 01-1.66.98c-.64.227-1.347.34-2.12.34zm-2.74-6.28h5.48c-.053-.533-.207-.993-.46-1.38-.24-.4-.56-.707-.96-.92a2.67 2.67 0 00-1.34-.34c-.48 0-.92.113-1.32.34a2.63 2.63 0 00-.96.92c-.24.387-.387.847-.44 1.38zm16.093-2.08c-.814 0-1.54.16-2.18.48-.64.307-1.1.753-1.38 1.34V63h-2.68V52.52h2.46v2.24c.373-.72.846-1.287 1.42-1.7.573-.413 1.18-.64 1.82-.68h.34c.08 0 .146.007.2.02v2.44z" fill="#101828"/><path d="M353 51.929h12.156v2.836h-9.32A2.836 2.836 0 01353 51.93z" fill="#0069FF"/><path d="M362.319 51.929h2.837v12.156a2.837 2.837 0 01-2.837-2.837v-9.32z" fill="#0069FF"/><path d="M363.218 51.916l2.005 2.005-10.084 10.084L353.133 62l10.085-10.084z" fill="#0069FF"/><path d="M377.614 64.594a7.146 7.146 0 01-1.872-.243 6.94 6.94 0 01-1.653-.73 5.666 5.666 0 01-1.313-1.167l1.702-1.702c.405.47.867.827 1.386 1.07.535.227 1.135.34 1.799.34.6 0 1.054-.089 1.361-.267.308-.178.462-.438.462-.778a.935.935 0 00-.437-.826c-.292-.195-.673-.357-1.143-.487a41.17 41.17 0 00-1.459-.437 8.068 8.068 0 01-1.458-.584 3.29 3.29 0 01-1.119-1.045c-.291-.438-.437-1.005-.437-1.702 0-.746.17-1.386.51-1.92.357-.535.851-.949 1.483-1.24.649-.292 1.419-.438 2.31-.438.94 0 1.767.17 2.48.51a4.488 4.488 0 011.823 1.483l-1.702 1.702a3.384 3.384 0 00-1.167-.948c-.437-.21-.94-.316-1.507-.316-.535 0-.948.081-1.24.243-.292.162-.437.397-.437.705 0 .324.145.575.437.754.292.178.665.332 1.118.462.471.13.957.275 1.459.437a5.841 5.841 0 011.459.633c.47.259.851.615 1.143 1.07.291.437.437 1.012.437 1.725 0 1.135-.397 2.034-1.191 2.699-.794.664-1.872.997-3.234.997zm11.565 0c-1.167 0-2.22-.26-3.16-.778a6.092 6.092 0 01-2.213-2.188c-.535-.924-.802-1.962-.802-3.112 0-1.151.267-2.18.802-3.088a5.96 5.96 0 012.164-2.188c.924-.535 1.945-.802 3.063-.802 1.086 0 2.043.251 2.869.753a5.25 5.25 0 011.969 2.067c.487.875.73 1.872.73 2.99 0 .195-.016.397-.049.608a5.96 5.96 0 01-.097.657h-9.579v-2.188h8.193l-.997.875c-.032-.713-.17-1.313-.413-1.8a2.59 2.59 0 00-1.045-1.118c-.438-.259-.981-.389-1.629-.389-.681 0-1.273.146-1.775.438a2.98 2.98 0 00-1.167 1.24c-.276.519-.413 1.143-.413 1.872 0 .73.146 1.37.437 1.92.292.551.705.981 1.24 1.289.535.292 1.151.438 1.848.438.6 0 1.151-.106 1.653-.317.519-.21.956-.518 1.313-.923l1.702 1.726a5.462 5.462 0 01-2.067 1.507 6.59 6.59 0 01-2.577.51zm12.428 0c-1.135 0-2.164-.268-3.088-.803a6.285 6.285 0 01-2.212-2.212c-.535-.924-.802-1.953-.802-3.087 0-1.135.267-2.156.802-3.064a6.151 6.151 0 012.212-2.164c.924-.55 1.953-.826 3.088-.826 1.151 0 2.188.267 3.112.802a5.905 5.905 0 012.188 2.188c.551.908.826 1.929.826 3.064 0 1.134-.275 2.163-.826 3.087a6.092 6.092 0 01-2.188 2.212c-.924.535-1.961.803-3.112.803zm0-2.577c.664 0 1.248-.146 1.75-.438.519-.308.916-.73 1.192-1.264.291-.535.437-1.143.437-1.823 0-.681-.146-1.281-.437-1.8a3.179 3.179 0 00-1.192-1.215c-.502-.308-1.086-.462-1.75-.462-.648 0-1.232.154-1.751.462a3.183 3.183 0 00-1.191 1.215c-.275.519-.413 1.119-.413 1.8 0 .68.138 1.288.413 1.823.292.535.689.956 1.191 1.264a3.511 3.511 0 001.751.438zm14.112 2.577c-.891 0-1.685-.187-2.382-.56a4.423 4.423 0 01-1.653-1.58c-.389-.664-.584-1.418-.584-2.26v-3.356c0-.843.203-1.596.608-2.26a4.24 4.24 0 011.653-1.557c.697-.389 1.483-.583 2.358-.583 1.054 0 2.002.275 2.845.826a5.598 5.598 0 012.018 2.188c.502.908.753 1.937.753 3.088 0 1.135-.251 2.164-.753 3.088a5.643 5.643 0 01-2.018 2.163c-.843.535-1.791.803-2.845.803zm-.437-2.529c.648 0 1.215-.146 1.702-.437a3.14 3.14 0 001.166-1.264c.292-.535.438-1.151.438-1.848 0-.697-.146-1.313-.438-1.848a2.97 2.97 0 00-1.166-1.24c-.487-.308-1.054-.462-1.702-.462-.649 0-1.224.154-1.726.462a2.967 2.967 0 00-1.167 1.24c-.276.535-.414 1.15-.414 1.848 0 .697.138 1.313.414 1.848a3.13 3.13 0 001.167 1.264c.502.291 1.077.437 1.726.437zm-5.811 7.148V52.68h2.674v3.136l-.461 2.845.461 2.82v7.73h-2.674zm13.617-4.862V52.68h2.674v11.67h-2.674zm2.674-6.492l-.924-.462c0-1.474.324-2.666.973-3.573.664-.924 1.661-1.386 2.99-1.386.583 0 1.11.105 1.58.316.47.21.908.55 1.313 1.021l-1.75 1.799a1.849 1.849 0 00-.705-.486 2.562 2.562 0 00-.9-.146c-.746 0-1.361.235-1.848.705-.486.47-.729 1.208-.729 2.212zm11.732 6.735c-1.134 0-2.163-.268-3.087-.803a6.288 6.288 0 01-2.213-2.212c-.535-.924-.802-1.953-.802-3.087 0-1.135.267-2.156.802-3.064a6.154 6.154 0 012.213-2.164c.924-.55 1.953-.826 3.087-.826 1.151 0 2.188.267 3.112.802a5.905 5.905 0 012.188 2.188c.551.908.827 1.929.827 3.064 0 1.134-.276 2.163-.827 3.087a6.092 6.092 0 01-2.188 2.212c-.924.535-1.961.803-3.112.803zm0-2.577c.665 0 1.248-.146 1.751-.438.518-.308.915-.73 1.191-1.264.292-.535.438-1.143.438-1.823 0-.681-.146-1.281-.438-1.8a3.183 3.183 0 00-1.191-1.215c-.503-.308-1.086-.462-1.751-.462a3.36 3.36 0 00-1.75.462 3.17 3.17 0 00-1.191 1.215c-.276.519-.414 1.119-.414 1.8 0 .68.138 1.288.414 1.823.291.535.688.956 1.191 1.264a3.505 3.505 0 001.75.438zm9.137 2.334V51.149c0-.891.194-1.677.583-2.358a4.363 4.363 0 011.653-1.604c.714-.39 1.532-.584 2.456-.584.713 0 1.321.122 1.823.365.503.243.973.591 1.41 1.045l-1.726 1.726a2.42 2.42 0 00-.632-.462c-.227-.113-.519-.17-.875-.17-.648 0-1.151.178-1.507.535-.341.34-.511.835-.511 1.483v13.226h-2.674zm-2.796-9.239v-2.431h8.995v2.431h-8.995zm13.97 9.36l-4.984-11.791h2.942l3.404 8.655h-.851l3.598-8.655h2.966l-5.422 11.791h-1.653zm-3.477 4.74l3.623-7.463 1.507 2.723-2.163 4.74h-2.967z" fill="#101828"/><path d="M312.984 120.1L295 133h52.672v-30l-18.226 13.843-16.462 3.257z" fill="url(#paint1_linear_1589_12722)" fill-opacity=".12"/><path d="M295 133l14.461-10.373a19.999 19.999 0 017.776-3.368l7.675-1.519a19.988 19.988 0 008.215-3.693L347.672 103" stroke="#20C845" stroke-width="2" stroke-linecap="round" stroke-linejoin="round"/><path d="M370.389 105.094v3.672h-3.502v3.842h-4.114v-3.842h-3.502v-3.672h3.502v-3.842h4.114v3.842h3.502zm10.74 14.246c-1.745 0-3.32-.374-4.726-1.122-1.382-.771-2.448-1.802-3.196-3.094l2.618-2.72a7.548 7.548 0 002.38 2.108c.952.521 1.938.782 2.958.782.816 0 1.542-.17 2.176-.51a3.55 3.55 0 001.462-1.428c.363-.612.544-1.315.544-2.108 0-.771-.17-1.451-.51-2.04a3.433 3.433 0 00-1.394-1.394c-.589-.34-1.258-.51-2.006-.51-.725 0-1.416.17-2.074.51a3.728 3.728 0 00-1.564 1.394h-3.978l2.788-14.348h11.9v4.148h-8.602l-.952 5.406c.272-.295.669-.533 1.19-.714.522-.204 1.168-.306 1.938-.306 1.519 0 2.879.34 4.08 1.02a7.232 7.232 0 012.822 2.72c.703 1.156 1.054 2.493 1.054 4.012 0 1.609-.396 3.037-1.19 4.284-.77 1.224-1.824 2.187-3.162 2.89-1.314.68-2.833 1.02-4.556 1.02zm22.112 0c-1.7-.023-3.208-.408-4.522-1.156a10.309 10.309 0 01-3.298-2.958 14.085 14.085 0 01-2.006-3.944c-.431-1.428-.646-2.822-.646-4.182 0-1.451.238-2.901.714-4.352a13.119 13.119 0 012.074-3.944 10.556 10.556 0 013.332-2.856c1.292-.725 2.742-1.088 4.352-1.088 1.745 0 3.264.385 4.556 1.156a10.698 10.698 0 013.298 2.992 13.329 13.329 0 011.972 3.978c.453 1.428.68 2.799.68 4.114 0 1.473-.238 2.935-.714 4.386a12.821 12.821 0 01-2.108 3.91 10.77 10.77 0 01-3.298 2.856c-1.292.703-2.754 1.065-4.386 1.088zm-5.746-12.24c.022.952.147 1.904.374 2.856.249.929.6 1.791 1.054 2.584a6.161 6.161 0 001.802 1.938c.725.476 1.564.714 2.516.714 1.02 0 1.892-.261 2.618-.782a6.057 6.057 0 001.768-2.006 9.77 9.77 0 001.054-2.618c.226-.929.34-1.825.34-2.686 0-.952-.125-1.893-.374-2.822a8.665 8.665 0 00-1.088-2.618 5.818 5.818 0 00-1.802-1.904c-.703-.499-1.542-.748-2.516-.748-.998 0-1.859.26-2.584.782a6.397 6.397 0 00-1.802 2.006 10.429 10.429 0 00-1.02 2.618 11.31 11.31 0 00-.34 2.686zm29.586 12.24c-1.7-.023-3.208-.408-4.522-1.156a10.309 10.309 0 01-3.298-2.958 14.085 14.085 0 01-2.006-3.944c-.431-1.428-.646-2.822-.646-4.182 0-1.451.238-2.901.714-4.352a13.119 13.119 0 012.074-3.944 10.556 10.556 0 013.332-2.856c1.292-.725 2.742-1.088 4.352-1.088 1.745 0 3.264.385 4.556 1.156a10.698 10.698 0 013.298 2.992 13.329 13.329 0 011.972 3.978c.453 1.428.68 2.799.68 4.114 0 1.473-.238 2.935-.714 4.386a12.821 12.821 0 01-2.108 3.91 10.77 10.77 0 01-3.298 2.856c-1.292.703-2.754 1.065-4.386 1.088zm-5.746-12.24c.022.952.147 1.904.374 2.856.249.929.6 1.791 1.054 2.584a6.161 6.161 0 001.802 1.938c.725.476 1.564.714 2.516.714 1.02 0 1.892-.261 2.618-.782a6.057 6.057 0 001.768-2.006 9.77 9.77 0 001.054-2.618c.226-.929.34-1.825.34-2.686 0-.952-.125-1.893-.374-2.822a8.665 8.665 0 00-1.088-2.618 5.818 5.818 0 00-1.802-1.904c-.703-.499-1.542-.748-2.516-.748-.998 0-1.859.26-2.584.782a6.397 6.397 0 00-1.802 2.006 10.429 10.429 0 00-1.02 2.618 11.31 11.31 0 00-.34 2.686zm24.486-2.278c-1.043 0-1.984-.227-2.822-.68a5.985 5.985 0 01-2.04-1.87 4.819 4.819 0 01-.748-2.618c0-.952.249-1.813.748-2.584a5.571 5.571 0 012.04-1.87c.838-.453 1.779-.68 2.822-.68 1.042 0 1.983.227 2.822.68a5.247 5.247 0 012.04 1.87 4.66 4.66 0 01.748 2.584c0 .952-.25 1.825-.748 2.618-.499.771-1.179 1.394-2.04 1.87-.839.453-1.78.68-2.822.68zm0-2.278a1.99 1.99 0 001.224-.408c.362-.272.646-.623.85-1.054.226-.431.34-.895.34-1.394a3.1 3.1 0 00-.34-1.462 2.79 2.79 0 00-.884-1.02 1.942 1.942 0 00-1.19-.408c-.454 0-.862.136-1.224.408-.363.25-.658.59-.884 1.02-.204.43-.306.907-.306 1.428 0 .521.113 1.009.34 1.462.226.431.521.782.884 1.054.362.249.759.374 1.19.374zm13.124 16.796c-1.043 0-1.984-.227-2.822-.68a5.675 5.675 0 01-2.04-1.836 4.819 4.819 0 01-.748-2.618c0-.975.249-1.847.748-2.618a5.675 5.675 0 012.04-1.836c.838-.476 1.779-.714 2.822-.714 1.042 0 1.983.238 2.822.714.861.453 1.541 1.065 2.04 1.836.498.771.748 1.632.748 2.584 0 .952-.25 1.825-.748 2.618-.499.771-1.179 1.394-2.04 1.87-.839.453-1.78.68-2.822.68zm0-2.278a1.99 1.99 0 001.224-.408c.362-.272.646-.623.85-1.054.226-.431.34-.895.34-1.394a3.1 3.1 0 00-.34-1.462 2.42 2.42 0 00-.884-1.02 1.942 1.942 0 00-1.19-.408c-.431 0-.839.136-1.224.408-.363.249-.658.601-.884 1.054a3.215 3.215 0 00-.306 1.394 3.088 3.088 0 001.224 2.516c.362.249.759.374 1.19.374zm-16.796.34l9.554-11.186 8.84-11.628 2.074 1.836-9.316 11.016-9.112 11.798-2.04-1.836z" fill="#20C845"/><path d="M358.873 144v-10.65h4.635c.48 0 .92.1 1.32.3.4.2.745.465 1.035.795.3.33.53.7.69 1.11.17.41.255.83.255 1.26 0 .47-.085.92-.255 1.35-.17.43-.415.8-.735 1.11-.31.31-.675.535-1.095.675l2.505 4.05h-1.89l-2.31-3.705h-2.475V144h-1.68zm1.68-5.19h2.94c.31 0 .585-.09.825-.27.24-.18.43-.42.57-.72.14-.31.21-.645.21-1.005 0-.37-.08-.7-.24-.99-.16-.3-.37-.54-.63-.72a1.38 1.38 0 00-.825-.27h-2.85v3.975zm11.333 5.34a4.26 4.26 0 01-1.665-.315 4.105 4.105 0 01-1.275-.885c-.36-.38-.64-.81-.84-1.29a4.277 4.277 0 01-.285-1.56c0-.74.17-1.415.51-2.025.34-.62.815-1.115 1.425-1.485.61-.38 1.325-.57 2.145-.57.82 0 1.525.19 2.115.57.6.37 1.065.86 1.395 1.47a4.066 4.066 0 01.48 2.31c-.01.1-.02.185-.03.255h-6.285c.03.46.155.865.375 1.215.23.34.52.61.87.81.35.19.725.285 1.125.285.44 0 .855-.11 1.245-.33.4-.22.67-.51.81-.87l1.41.405c-.17.38-.43.725-.78 1.035-.34.3-.745.54-1.215.72-.47.17-.98.255-1.53.255zm-2.355-4.62h4.74c-.03-.45-.16-.845-.39-1.185-.22-.35-.505-.62-.855-.81-.34-.2-.72-.3-1.14-.3a2.324 2.324 0 00-1.98 1.11 2.44 2.44 0 00-.375 1.185zm12.012 4.065c-.14.07-.315.145-.525.225-.21.08-.45.15-.72.21-.26.06-.53.09-.81.09-.34 0-.655-.06-.945-.18-.29-.12-.525-.31-.705-.57-.17-.27-.255-.615-.255-1.035v-4.905h-1.035v-1.275h1.035v-2.58h1.65v2.58h1.71v1.275h-1.71v4.38c.02.27.105.47.255.6.16.13.355.195.585.195.23 0 .45-.04.66-.12.21-.08.365-.145.465-.195l.345 1.305zm1.068-2.64v-4.8h1.65v4.47c0 .7.125 1.23.375 1.59.26.35.635.525 1.125.525.31 0 .61-.065.9-.195.3-.13.57-.32.81-.57.25-.26.45-.57.6-.93v-4.89h1.65v5.985c0 .19.035.325.105.405.07.08.185.125.345.135V144c-.17.03-.31.05-.42.06-.11.01-.215.015-.315.015-.3 0-.55-.08-.75-.24a.963.963 0 01-.345-.645l-.03-.78a3.557 3.557 0 01-1.365 1.305c-.56.29-1.175.435-1.845.435-.82 0-1.44-.27-1.86-.81-.42-.54-.63-1.335-.63-2.385zm13.626-3.375c-.64.01-1.21.155-1.71.435-.49.28-.84.675-1.05 1.185v4.8h-1.65v-7.845h1.53v1.755c.27-.54.625-.97 1.065-1.29.44-.33.905-.51 1.395-.54h.24c.07 0 .13.005.18.015v1.485zm8.235 6.42h-1.65v-4.395c0-.73-.12-1.265-.36-1.605-.23-.34-.575-.51-1.035-.51-.32 0-.64.08-.96.24-.31.16-.59.38-.84.66-.25.27-.43.585-.54.945V144h-1.65v-7.845h1.5v1.575c.2-.35.46-.65.78-.9.33-.26.7-.46 1.11-.6.41-.14.845-.21 1.305-.21.47 0 .855.085 1.155.255.31.17.55.405.72.705.18.29.3.63.36 1.02.07.38.105.785.105 1.215V144zm9.147.15c-.62 0-1.175-.105-1.665-.315-.49-.22-.915-.52-1.275-.9-.35-.38-.62-.81-.81-1.29a4.277 4.277 0 01-.285-1.56c0-.55.095-1.07.285-1.56.19-.49.46-.92.81-1.29.36-.38.785-.675 1.275-.885a4.09 4.09 0 011.665-.33c.61 0 1.16.11 1.65.33.5.21.925.505 1.275.885.36.37.635.8.825 1.29.19.49.285 1.01.285 1.56s-.095 1.07-.285 1.56c-.19.48-.465.91-.825 1.29-.35.38-.775.68-1.275.9a4.15 4.15 0 01-1.65.315zm-2.34-4.05c0 .5.105.95.315 1.35.21.4.49.715.84.945.35.23.745.345 1.185.345.43 0 .82-.115 1.17-.345.36-.24.645-.56.855-.96.21-.41.315-.86.315-1.35 0-.5-.105-.95-.315-1.35-.21-.4-.495-.715-.855-.945-.35-.24-.74-.36-1.17-.36-.44 0-.835.12-1.185.36-.35.24-.63.56-.84.96-.21.39-.315.84-.315 1.35zm14.873 3.9h-1.65v-4.395c0-.73-.12-1.265-.36-1.605-.23-.34-.575-.51-1.035-.51-.32 0-.64.08-.96.24-.31.16-.59.38-.84.66-.25.27-.43.585-.54.945V144h-1.65v-7.845h1.5v1.575c.2-.35.46-.65.78-.9.33-.26.7-.46 1.11-.6.41-.14.845-.21 1.305-.21.47 0 .855.085 1.155.255.31.17.55.405.72.705.18.29.3.63.36 1.02.07.38.105.785.105 1.215V144zm5.831 0v-10.65h1.68V144h-1.68zm10.912 0h-1.65v-4.395c0-.73-.12-1.265-.36-1.605-.23-.34-.575-.51-1.035-.51-.32 0-.64.08-.96.24-.31.16-.59.38-.84.66-.25.27-.43.585-.54.945V144h-1.65v-7.845h1.5v1.575c.2-.35.46-.65.78-.9.33-.26.7-.46 1.11-.6.41-.14.845-.21 1.305-.21.47 0 .855.085 1.155.255.31.17.55.405.72.705.18.29.3.63.36 1.02.07.38.105.785.105 1.215V144zm3.959 0l-2.985-7.845h1.71l2.235 6.315 2.235-6.315h1.59L448.654 144h-1.8zm9.26.15a4.26 4.26 0 01-1.665-.315 4.105 4.105 0 01-1.275-.885c-.36-.38-.64-.81-.84-1.29a4.277 4.277 0 01-.285-1.56c0-.74.17-1.415.51-2.025.34-.62.815-1.115 1.425-1.485.61-.38 1.325-.57 2.145-.57.82 0 1.525.19 2.115.57.6.37 1.065.86 1.395 1.47a4.066 4.066 0 01.48 2.31c-.01.1-.02.185-.03.255h-6.285c.03.46.155.865.375 1.215.23.34.52.61.87.81.35.19.725.285 1.125.285.44 0 .855-.11 1.245-.33.4-.22.67-.51.81-.87l1.41.405c-.17.38-.43.725-.78 1.035-.34.3-.745.54-1.215.72-.47.17-.98.255-1.53.255zm-2.355-4.62h4.74c-.03-.45-.16-.845-.39-1.185-.22-.35-.505-.62-.855-.81-.34-.2-.72-.3-1.14-.3a2.324 2.324 0 00-1.98 1.11 2.44 2.44 0 00-.375 1.185zm10.511 4.62a5.55 5.55 0 01-1.875-.315 4.078 4.078 0 01-1.515-.975l.615-1.11c.45.4.9.69 1.35.87.46.18.915.27 1.365.27.46 0 .835-.085 1.125-.255.29-.18.435-.44.435-.78 0-.25-.075-.435-.225-.555-.15-.12-.37-.225-.66-.315-.28-.09-.62-.19-1.02-.3-.56-.17-1.03-.345-1.41-.525-.38-.19-.665-.42-.855-.69-.19-.27-.285-.615-.285-1.035 0-.51.13-.945.39-1.305s.62-.635 1.08-.825c.47-.19 1.01-.285 1.62-.285.57 0 1.095.09 1.575.27.49.17.92.44 1.29.81l-.705 1.095c-.35-.32-.71-.555-1.08-.705-.36-.15-.75-.225-1.17-.225-.24 0-.47.03-.69.09-.22.05-.405.15-.555.3-.14.14-.21.34-.21.6 0 .21.06.38.18.51s.3.24.54.33c.24.09.535.19.885.3.61.18 1.13.36 1.56.54.43.17.76.395.99.675.24.27.36.645.36 1.125 0 .76-.285 1.355-.855 1.785-.56.42-1.31.63-2.25.63zm8.929-.555c-.14.07-.315.145-.525.225-.21.08-.45.15-.72.21-.26.06-.53.09-.81.09-.34 0-.655-.06-.945-.18-.29-.12-.525-.31-.705-.57-.17-.27-.255-.615-.255-1.035v-4.905h-1.035v-1.275h1.035v-2.58h1.65v2.58h1.71v1.275h-1.71v4.38c.02.27.105.47.255.6.16.13.355.195.585.195.23 0 .45-.04.66-.12.21-.08.365-.145.465-.195l.345 1.305zm13.143.405h-1.65v-4.395c0-.73-.12-1.265-.36-1.605-.24-.34-.59-.51-1.05-.51-.46 0-.89.175-1.29.525-.39.34-.665.785-.825 1.335V144h-1.65v-4.395c0-.73-.12-1.265-.36-1.605-.24-.34-.585-.51-1.035-.51-.46 0-.89.17-1.29.51-.39.34-.67.785-.84 1.335V144h-1.65v-7.845h1.5v1.575c.31-.55.715-.97 1.215-1.26.51-.3 1.09-.45 1.74-.45.65 0 1.16.17 1.53.51.38.34.615.765.705 1.275.34-.58.755-1.02 1.245-1.32.5-.31 1.07-.465 1.71-.465.46 0 .845.085 1.155.255.31.17.55.405.72.705.17.29.29.63.36 1.02.08.38.12.785.12 1.215V144zm5.456.15a4.26 4.26 0 01-1.665-.315 4.105 4.105 0 01-1.275-.885c-.36-.38-.64-.81-.84-1.29a4.277 4.277 0 01-.285-1.56c0-.74.17-1.415.51-2.025.34-.62.815-1.115 1.425-1.485.61-.38 1.325-.57 2.145-.57.82 0 1.525.19 2.115.57.6.37 1.065.86 1.395 1.47a4.066 4.066 0 01.48 2.31c-.01.1-.02.185-.03.255h-6.285c.03.46.155.865.375 1.215.23.34.52.61.87.81.35.19.725.285 1.125.285.44 0 .855-.11 1.245-.33.4-.22.67-.51.81-.87l1.41.405c-.17.38-.43.725-.78 1.035-.34.3-.745.54-1.215.72-.47.17-.98.255-1.53.255zm-2.355-4.62h4.74c-.03-.45-.16-.845-.39-1.185-.22-.35-.505-.62-.855-.81-.34-.2-.72-.3-1.14-.3a2.324 2.324 0 00-1.98 1.11 2.44 2.44 0 00-.375 1.185zm14.756 4.47h-1.65v-4.395c0-.73-.12-1.265-.36-1.605-.23-.34-.575-.51-1.035-.51-.32 0-.64.08-.96.24-.31.16-.59.38-.84.66-.25.27-.43.585-.54.945V144h-1.65v-7.845h1.5v1.575c.2-.35.46-.65.78-.9.33-.26.7-.46 1.11-.6.41-.14.845-.21 1.305-.21.47 0 .855.085 1.155.255.31.17.55.405.72.705.18.29.3.63.36 1.02.07.38.105.785.105 1.215V144zm6.221-.405c-.14.07-.315.145-.525.225-.21.08-.45.15-.72.21-.26.06-.53.09-.81.09-.34 0-.655-.06-.945-.18-.29-.12-.525-.31-.705-.57-.17-.27-.255-.615-.255-1.035v-4.905h-1.035v-1.275h1.035v-2.58h1.65v2.58h1.71v1.275h-1.71v4.38c.02.27.105.47.255.6.16.13.355.195.585.195.23 0 .45-.04.66-.12.21-.08.365-.145.465-.195l.345 1.305z" fill="#101828" fill-opacity=".5"/><path d="M304.36 177.58V180h-8.04v-2.42h2.76v-9.24c-.107.16-.287.34-.54.54-.24.187-.52.373-.84.56a6.31 6.31 0 01-.96.44c-.32.12-.613.18-.88.18v-2.48c.36 0 .727-.093 1.1-.28.373-.187.72-.4 1.04-.64.32-.24.573-.46.76-.66l.32-.34h2.74v11.92h2.54zm1.905 4.72l.54-2.38h-.84v-2.8h2.32v2.8l-.82 2.38h-1.2zm8.628-2.16c-.76 0-1.453-.093-2.08-.28a5.341 5.341 0 01-1.62-.84 4.28 4.28 0 01-1.08-1.32l1.44-1.82c.133.293.347.58.64.86.293.28.66.507 1.1.68.44.173.94.26 1.5.26.547 0 1.02-.08 1.42-.24.4-.16.707-.38.92-.66.227-.293.34-.647.34-1.06 0-.44-.14-.813-.42-1.12-.267-.307-.667-.54-1.2-.7-.533-.16-1.187-.24-1.96-.24h-.66v-2h.7c.96 0 1.727-.167 2.3-.5.587-.333.88-.807.88-1.42 0-.373-.1-.693-.3-.96-.2-.28-.467-.487-.8-.62-.333-.147-.7-.22-1.1-.22-.667 0-1.26.16-1.78.48a3.132 3.132 0 00-1.16 1.2l-1.74-1.94a3.62 3.62 0 011.2-1.08 6.704 6.704 0 011.7-.72c.64-.173 1.3-.26 1.98-.26.947 0 1.787.167 2.52.5.733.32 1.307.76 1.72 1.32.413.56.62 1.2.62 1.92 0 .533-.113 1.02-.34 1.46-.213.44-.52.807-.92 1.1-.4.293-.873.507-1.42.64.587.093 1.1.313 1.54.66.453.333.8.76 1.04 1.28.253.507.38 1.06.38 1.66 0 .84-.24 1.553-.72 2.14-.467.587-1.107 1.04-1.92 1.36-.8.32-1.707.48-2.72.48zm11.639.06c-1.026 0-1.953-.22-2.78-.66-.813-.453-1.44-1.06-1.88-1.82l1.54-1.6c.387.52.854.933 1.4 1.24.56.307 1.14.46 1.74.46.48 0 .907-.1 1.28-.3.374-.2.66-.48.86-.84.214-.36.32-.773.32-1.24 0-.453-.1-.853-.3-1.2-.2-.36-.473-.633-.82-.82-.346-.2-.74-.3-1.18-.3-.426 0-.833.1-1.22.3-.386.187-.693.46-.92.82h-2.34l1.64-8.44h7v2.44h-5.06l-.56 3.18c.16-.173.394-.313.7-.42.307-.12.687-.18 1.14-.18.894 0 1.694.2 2.4.6.707.387 1.26.92 1.66 1.6.414.68.62 1.467.62 2.36 0 .947-.233 1.787-.7 2.52a4.767 4.767 0 01-1.86 1.7c-.773.4-1.666.6-2.68.6zm13.007 0c-1-.013-1.887-.24-2.66-.68a6.07 6.07 0 01-1.94-1.74 8.293 8.293 0 01-1.18-2.32 8.508 8.508 0 01-.38-2.46c0-.853.14-1.707.42-2.56a7.73 7.73 0 011.22-2.32 6.206 6.206 0 011.96-1.68c.76-.427 1.613-.64 2.56-.64 1.027 0 1.92.227 2.68.68a6.288 6.288 0 011.94 1.76c.52.72.907 1.5 1.16 2.34.267.84.4 1.647.4 2.42 0 .867-.14 1.727-.42 2.58a7.524 7.524 0 01-1.24 2.3 6.344 6.344 0 01-1.94 1.68c-.76.413-1.62.627-2.58.64zm-3.38-7.2c.013.56.087 1.12.22 1.68.147.547.353 1.053.62 1.52.28.467.633.847 1.06 1.14.427.28.92.42 1.48.42.6 0 1.113-.153 1.54-.46.427-.307.773-.7 1.04-1.18.28-.48.487-.993.62-1.54a6.68 6.68 0 00.2-1.58c0-.56-.073-1.113-.22-1.66a5.088 5.088 0 00-.64-1.54 3.412 3.412 0 00-1.06-1.12c-.413-.293-.907-.44-1.48-.44-.587 0-1.093.153-1.52.46-.427.307-.78.7-1.06 1.18-.267.48-.467.993-.6 1.54a6.68 6.68 0 00-.2 1.58zm11.864 9.3l.54-2.38h-.84v-2.8h2.32v2.8l-.82 2.38h-1.2zm4.008-2.3c0-.813.053-1.527.16-2.14.107-.627.273-1.18.5-1.66.24-.493.547-.927.92-1.3a7.338 7.338 0 011.38-1.06c.467-.267.947-.527 1.44-.78.507-.253.973-.52 1.4-.8.44-.28.793-.6 1.06-.96.28-.36.42-.8.42-1.32 0-.4-.087-.74-.26-1.02-.16-.293-.4-.52-.72-.68-.307-.16-.68-.24-1.12-.24-.507 0-.98.093-1.42.28a4.918 4.918 0 00-1.16.66c-.333.253-.62.507-.86.76l-1.68-1.76c.187-.213.44-.453.76-.72a8.56 8.56 0 011.18-.78 7.38 7.38 0 011.58-.62 7.362 7.362 0 011.94-.24c1.04 0 1.913.187 2.62.56.707.36 1.24.86 1.6 1.5.373.627.56 1.353.56 2.18 0 .6-.1 1.133-.3 1.6a3.823 3.823 0 01-.78 1.2c-.333.347-.707.66-1.12.94-.413.267-.84.527-1.28.78-.693.373-1.253.7-1.68.98-.427.28-.767.54-1.02.78-.24.24-.427.48-.56.72a5.88 5.88 0 00-.32.72h7.08V180h-10.32zm12.168 0c0-.813.053-1.527.16-2.14.107-.627.273-1.18.5-1.66.24-.493.547-.927.92-1.3a7.338 7.338 0 011.38-1.06c.467-.267.947-.527 1.44-.78.507-.253.973-.52 1.4-.8.44-.28.793-.6 1.06-.96.28-.36.42-.8.42-1.32 0-.4-.087-.74-.26-1.02-.16-.293-.4-.52-.72-.68-.307-.16-.68-.24-1.12-.24-.507 0-.98.093-1.42.28a4.918 4.918 0 00-1.16.66c-.333.253-.62.507-.86.76l-1.68-1.76c.187-.213.44-.453.76-.72a8.56 8.56 0 011.18-.78 7.38 7.38 0 011.58-.62 7.362 7.362 0 011.94-.24c1.04 0 1.913.187 2.62.56.707.36 1.24.86 1.6 1.5.373.627.56 1.353.56 2.18 0 .6-.1 1.133-.3 1.6a3.823 3.823 0 01-.78 1.2c-.333.347-.707.66-1.12.94-.413.267-.84.527-1.28.78-.693.373-1.253.7-1.68.98-.427.28-.767.54-1.02.78-.24.24-.427.48-.56.72a5.88 5.88 0 00-.32.72h7.08V180h-10.32zm17.731 0v-3.22h-5.98v-2.4l6.82-8.58h1.84v8.56h1.76v2.42h-1.76V180h-2.68zm-3.28-5.64h3.58v-4.52l-3.58 4.52z" fill="#20C845"/><path d="M300.625 204.075c-.77 0-1.465-.15-2.085-.45a5.053 5.053 0 01-1.605-1.215c-.45-.52-.8-1.1-1.05-1.74a5.717 5.717 0 01-.36-1.995c0-.71.13-1.385.39-2.025.26-.65.62-1.225 1.08-1.725.46-.51 1-.91 1.62-1.2.63-.3 1.31-.45 2.04-.45.76 0 1.45.155 2.07.465.63.31 1.165.725 1.605 1.245.45.52.795 1.1 1.035 1.74a5.443 5.443 0 01-.015 4.005 5.593 5.593 0 01-1.065 1.725c-.46.5-1.005.895-1.635 1.185a4.72 4.72 0 01-2.025.435zm-3.39-5.4c0 .5.08.985.24 1.455.16.47.385.89.675 1.26.3.36.66.645 1.08.855.42.21.89.315 1.41.315.54 0 1.02-.11 1.44-.33.42-.22.77-.515 1.05-.885.29-.38.51-.8.66-1.26.15-.47.225-.94.225-1.41 0-.5-.08-.98-.24-1.44a3.662 3.662 0 00-.675-1.245c-.3-.37-.66-.66-1.08-.87-.41-.21-.87-.315-1.38-.315-.54 0-1.02.11-1.44.33-.42.22-.775.515-1.065.885-.29.37-.515.785-.675 1.245-.15.46-.225.93-.225 1.41zm14.371-1.095c-.64.01-1.21.155-1.71.435-.49.28-.84.675-1.05 1.185v4.8h-1.65v-7.845h1.53v1.755c.27-.54.625-.97 1.065-1.29.44-.33.905-.51 1.395-.54h.24c.07 0 .13.005.18.015v1.485zm4.188 6.495c-.53 0-1.015-.105-1.455-.315a3.65 3.65 0 01-1.14-.885 4.339 4.339 0 01-.735-1.275 4.504 4.504 0 01-.255-1.515c0-.56.09-1.085.27-1.575.18-.49.43-.92.75-1.29.33-.38.715-.675 1.155-.885.44-.21.93-.315 1.47-.315.63 0 1.18.15 1.65.45.48.3.875.69 1.185 1.17v-1.485h1.455v7.62c0 .76-.185 1.405-.555 1.935-.36.53-.855.935-1.485 1.215-.63.28-1.34.42-2.13.42-.87 0-1.59-.15-2.16-.45-.57-.3-1.055-.71-1.455-1.23l.93-.87c.3.42.685.74 1.155.96.48.22.99.33 1.53.33.45 0 .865-.085 1.245-.255.39-.16.7-.415.93-.765.23-.34.345-.77.345-1.29v-1.2c-.28.47-.665.84-1.155 1.11-.49.26-1.005.39-1.545.39zm.54-1.335c.25 0 .49-.04.72-.12a2.67 2.67 0 001.14-.84c.14-.19.24-.39.3-.6v-2.055a2.606 2.606 0 00-.555-.885c-.24-.26-.51-.46-.81-.6-.3-.14-.605-.21-.915-.21-.36 0-.685.08-.975.24-.28.15-.52.355-.72.615-.2.25-.355.535-.465.855-.11.32-.165.65-.165.99 0 .36.06.695.18 1.005.13.31.305.59.525.84.22.24.48.43.78.57.3.13.62.195.96.195zm5.219-1.035c0-.5.14-.935.42-1.305.29-.38.685-.67 1.185-.87.5-.21 1.08-.315 1.74-.315.35 0 .705.025 1.065.075.37.05.695.13.975.24v-.495c0-.55-.165-.98-.495-1.29-.33-.31-.805-.465-1.425-.465-.44 0-.855.08-1.245.24-.39.15-.805.365-1.245.645l-.555-1.11c.52-.35 1.04-.61 1.56-.78a5.418 5.418 0 011.665-.255c1.05 0 1.875.28 2.475.84.61.55.915 1.335.915 2.355v2.925c0 .19.03.325.09.405.07.08.185.125.345.135V204a3.621 3.621 0 01-.705.075c-.35 0-.615-.085-.795-.255a.982.982 0 01-.315-.6l-.045-.45c-.34.44-.775.78-1.305 1.02-.53.24-1.065.36-1.605.36-.52 0-.985-.105-1.395-.315a2.49 2.49 0 01-.96-.885 2.31 2.31 0 01-.345-1.245zm4.995.48c.12-.13.215-.26.285-.39a.748.748 0 00.105-.345v-.9c-.28-.11-.575-.19-.885-.24-.31-.06-.615-.09-.915-.09-.6 0-1.09.12-1.47.36-.37.24-.555.57-.555.99 0 .23.06.45.18.66.13.21.31.38.54.51.24.13.535.195.885.195.36 0 .705-.07 1.035-.21.33-.14.595-.32.795-.54zM337.625 204h-1.65v-4.395c0-.73-.12-1.265-.36-1.605-.23-.34-.575-.51-1.035-.51-.32 0-.64.08-.96.24-.31.16-.59.38-.84.66-.25.27-.43.585-.54.945V204h-1.65v-7.845h1.5v1.575c.2-.35.46-.65.78-.9.33-.26.7-.46 1.11-.6.41-.14.845-.21 1.305-.21.47 0 .855.085 1.155.255.31.17.55.405.72.705.18.29.3.63.36 1.02.07.38.105.785.105 1.215V204zm1.915 0v-7.845h1.65V204h-1.65zm0-9.135v-1.815h1.65v1.815h-1.65zm7.188 9.285a4.26 4.26 0 01-1.665-.315c-.49-.22-.915-.52-1.275-.9-.36-.38-.64-.815-.84-1.305a4.277 4.277 0 01-.285-1.56c0-.74.165-1.415.495-2.025.34-.61.81-1.1 1.41-1.47.61-.37 1.33-.555 2.16-.555.8 0 1.495.18 2.085.54.6.35 1.04.82 1.32 1.41l-1.605.51a1.879 1.879 0 00-.765-.765 2.047 2.047 0 00-1.065-.285c-.44 0-.84.115-1.2.345-.35.22-.63.53-.84.93-.2.39-.3.845-.3 1.365 0 .5.105.955.315 1.365.21.4.49.72.84.96.36.23.76.345 1.2.345.27 0 .53-.045.78-.135.26-.1.485-.23.675-.39.19-.17.325-.355.405-.555l1.62.48c-.17.39-.425.735-.765 1.035-.33.3-.725.54-1.185.72a4.26 4.26 0 01-1.515.255zm16.1-9.315h-3.54V204h-1.695v-9.165h-3.555v-1.485h8.79v1.485zm4.633 2.745c-.64.01-1.21.155-1.71.435-.49.28-.84.675-1.05 1.185v4.8h-1.65v-7.845h1.53v1.755c.27-.54.625-.97 1.065-1.29.44-.33.905-.51 1.395-.54h.24c.07 0 .13.005.18.015v1.485zm.615 4.125c0-.5.14-.935.42-1.305.29-.38.685-.67 1.185-.87.5-.21 1.08-.315 1.74-.315.35 0 .705.025 1.065.075.37.05.695.13.975.24v-.495c0-.55-.165-.98-.495-1.29-.33-.31-.805-.465-1.425-.465-.44 0-.855.08-1.245.24-.39.15-.805.365-1.245.645l-.555-1.11c.52-.35 1.04-.61 1.56-.78a5.418 5.418 0 011.665-.255c1.05 0 1.875.28 2.475.84.61.55.915 1.335.915 2.355v2.925c0 .19.03.325.09.405.07.08.185.125.345.135V204a3.621 3.621 0 01-.705.075c-.35 0-.615-.085-.795-.255a.982.982 0 01-.315-.6l-.045-.45c-.34.44-.775.78-1.305 1.02-.53.24-1.065.36-1.605.36-.52 0-.985-.105-1.395-.315a2.49 2.49 0 01-.96-.885 2.31 2.31 0 01-.345-1.245zm4.995.48c.12-.13.215-.26.285-.39a.748.748 0 00.105-.345v-.9c-.28-.11-.575-.19-.885-.24-.31-.06-.615-.09-.915-.09-.6 0-1.09.12-1.47.36-.37.24-.555.57-.555.99 0 .23.06.45.18.66.13.21.31.38.54.51.24.13.535.195.885.195.36 0 .705-.07 1.035-.21.33-.14.595-.32.795-.54zm4.448 1.815v-6.375h-1.05v-1.275h1.05v-.12c0-.5.105-.96.315-1.38.21-.42.51-.755.9-1.005.4-.26.87-.39 1.41-.39.37 0 .71.045 1.02.135.31.09.615.205.915.345l-.39 1.275a2.289 2.289 0 00-1.215-.345c-.22 0-.41.04-.57.12a1.1 1.1 0 00-.405.3c-.11.12-.195.26-.255.42a1.46 1.46 0 00-.075.465v.18h2.01v1.275h-2.01V204h-1.65zm3.765-6.375h-1.05v-1.275h1.05v-.315c0-.41.065-.8.195-1.17.13-.38.325-.715.585-1.005.26-.3.575-.535.945-.705.38-.17.82-.255 1.32-.255.37 0 .715.04 1.035.12.32.08.615.19.885.33.28.13.53.27.75.42l-.675 1.23c-.23-.2-.515-.365-.855-.495-.33-.13-.68-.195-1.05-.195-.33 0-.61.08-.84.24-.22.16-.385.37-.495.63-.1.26-.15.53-.15.81v.36h4.11V204h-1.65v-6.375h-2.46V204h-1.65v-6.375zm11.279 6.525a4.26 4.26 0 01-1.665-.315c-.49-.22-.915-.52-1.275-.9-.36-.38-.64-.815-.84-1.305a4.277 4.277 0 01-.285-1.56c0-.74.165-1.415.495-2.025.34-.61.81-1.1 1.41-1.47.61-.37 1.33-.555 2.16-.555.8 0 1.495.18 2.085.54.6.35 1.04.82 1.32 1.41l-1.605.51a1.879 1.879 0 00-.765-.765 2.047 2.047 0 00-1.065-.285c-.44 0-.84.115-1.2.345-.35.22-.63.53-.84.93-.2.39-.3.845-.3 1.365 0 .5.105.955.315 1.365.21.4.49.72.84.96.36.23.76.345 1.2.345.27 0 .53-.045.78-.135.26-.1.485-.23.675-.39.19-.17.325-.355.405-.555l1.62.48c-.17.39-.425.735-.765 1.035-.33.3-.725.54-1.185.72a4.26 4.26 0 01-1.515.255z" fill="#101828" fill-opacity=".5"/><path d="M306.2 235.8c0 .88-.24 1.647-.72 2.3-.467.653-1.093 1.167-1.88 1.54-.787.36-1.647.54-2.58.54-.947 0-1.813-.193-2.6-.58a4.9 4.9 0 01-1.86-1.58c-.453-.68-.68-1.453-.68-2.32 0-.533.113-1.013.34-1.44.227-.44.507-.813.84-1.12.347-.32.693-.567 1.04-.74-.32-.16-.62-.373-.9-.64a3.16 3.16 0 01-.64-.92 2.594 2.594 0 01-.24-1.1c0-.627.14-1.187.42-1.68.28-.493.653-.907 1.12-1.24a4.78 4.78 0 011.52-.76 5.602 5.602 0 011.66-.26c.533 0 1.08.087 1.64.26.56.16 1.073.407 1.54.74.467.333.84.747 1.12 1.24.293.48.44 1.04.44 1.68 0 .373-.087.74-.26 1.1a3.242 3.242 0 01-1.58 1.58c.387.2.753.46 1.1.78.347.32.627.7.84 1.14.213.44.32.933.32 1.48zm-2.72-.16a1.91 1.91 0 00-.2-.9 1.78 1.78 0 00-.56-.66 2.543 2.543 0 00-.8-.42 2.958 2.958 0 00-.9-.14c-.427 0-.827.087-1.2.26-.36.173-.653.42-.88.74-.227.32-.34.693-.34 1.12 0 .32.067.613.2.88.147.253.333.473.56.66.24.187.5.333.78.44.293.093.593.14.9.14a2.64 2.64 0 001.2-.28c.373-.187.673-.44.9-.76.227-.32.34-.68.34-1.08zm-4.44-5.82c0 .36.1.667.3.92.2.253.453.447.76.58.32.12.633.18.94.18.32 0 .627-.067.92-.2.307-.133.56-.32.76-.56.213-.253.32-.567.32-.94 0-.333-.093-.62-.28-.86a1.848 1.848 0 00-.74-.56 2.397 2.397 0 00-1-.2c-.347 0-.673.067-.98.2a1.78 1.78 0 00-.74.58c-.173.24-.26.527-.26.86zm9.49 12.48l.54-2.38h-.84v-2.8h2.32v2.8l-.82 2.38h-1.2zm14.529-7.04c0-.893-.22-1.693-.66-2.4a4.594 4.594 0 00-1.76-1.7c-.747-.427-1.594-.64-2.54-.64-.44 0-.854.067-1.24.2-.387.12-.727.3-1.02.54-.294.227-.534.5-.72.82.026-.853.16-1.58.4-2.18.24-.613.58-1.08 1.02-1.4.44-.32.96-.48 1.56-.48.586 0 1.133.147 1.64.44.506.28.92.667 1.24 1.16l1.54-1.68a5.328 5.328 0 00-1.92-1.66 5.267 5.267 0 00-2.46-.58c-1.12 0-2.094.307-2.92.92-.827.6-1.467 1.5-1.92 2.7-.44 1.187-.66 2.64-.66 4.36 0 1.36.213 2.527.64 3.5.426.973 1.026 1.72 1.8 2.24.786.52 1.713.78 2.78.78.986 0 1.866-.22 2.64-.66a4.98 4.98 0 001.86-1.78c.466-.747.7-1.58.7-2.5zm-5.2 2.68c-.454 0-.88-.12-1.28-.36a2.93 2.93 0 01-.96-.98c-.24-.413-.36-.86-.36-1.34 0-.48.113-.913.34-1.3.24-.4.56-.713.96-.94.4-.24.84-.36 1.32-.36.48 0 .913.12 1.3.36.4.227.72.54.96.94.24.387.36.82.36 1.3 0 .48-.12.927-.36 1.34-.24.4-.56.727-.96.98-.4.24-.84.36-1.32.36zm11.388 2.26c-1.026 0-1.953-.22-2.78-.66-.813-.453-1.44-1.06-1.88-1.82l1.54-1.6c.387.52.854.933 1.4 1.24.56.307 1.14.46 1.74.46.48 0 .907-.1 1.28-.3.374-.2.66-.48.86-.84.214-.36.32-.773.32-1.24 0-.453-.1-.853-.3-1.2-.2-.36-.473-.633-.82-.82-.346-.2-.74-.3-1.18-.3-.426 0-.833.1-1.22.3-.386.187-.693.46-.92.82h-2.34l1.64-8.44h7v2.44h-5.06l-.56 3.18c.16-.173.394-.313.7-.42.307-.12.687-.18 1.14-.18.894 0 1.694.2 2.4.6.707.387 1.26.92 1.66 1.6.414.68.62 1.467.62 2.36 0 .947-.233 1.787-.7 2.52a4.767 4.767 0 01-1.86 1.7c-.773.4-1.666.6-2.68.6zm15.367-2.62V240h-8.04v-2.42h2.76v-9.24c-.107.16-.287.34-.54.54-.24.187-.52.373-.84.56a6.31 6.31 0 01-.96.44c-.32.12-.613.18-.88.18v-2.48c.36 0 .727-.093 1.1-.28.373-.187.72-.4 1.04-.64.32-.24.573-.46.76-.66l.32-.34h2.74v11.92h2.54z" fill="#20C845"/><path d="M296.2 264v-10.65h4.635c.48 0 .92.1 1.32.3.4.2.745.465 1.035.795.3.33.53.7.69 1.11.17.41.255.83.255 1.26 0 .47-.085.92-.255 1.35-.17.43-.415.8-.735 1.11-.31.31-.675.535-1.095.675l2.505 4.05h-1.89l-2.31-3.705h-2.475V264h-1.68zm1.68-5.19h2.94c.31 0 .585-.09.825-.27.24-.18.43-.42.57-.72.14-.31.21-.645.21-1.005 0-.37-.08-.7-.24-.99-.16-.3-.37-.54-.63-.72a1.38 1.38 0 00-.825-.27h-2.85v3.975zm7.325 2.895c0-.5.14-.935.42-1.305.29-.38.685-.67 1.185-.87.5-.21 1.08-.315 1.74-.315.35 0 .705.025 1.065.075.37.05.695.13.975.24v-.495c0-.55-.165-.98-.495-1.29-.33-.31-.805-.465-1.425-.465-.44 0-.855.08-1.245.24-.39.15-.805.365-1.245.645l-.555-1.11c.52-.35 1.04-.61 1.56-.78a5.418 5.418 0 011.665-.255c1.05 0 1.875.28 2.475.84.61.55.915 1.335.915 2.355v2.925c0 .19.03.325.09.405.07.08.185.125.345.135V264a3.621 3.621 0 01-.705.075c-.35 0-.615-.085-.795-.255a.982.982 0 01-.315-.6l-.045-.45c-.34.44-.775.78-1.305 1.02-.53.24-1.065.36-1.605.36-.52 0-.985-.105-1.395-.315a2.49 2.49 0 01-.96-.885 2.31 2.31 0 01-.345-1.245zm4.995.48c.12-.13.215-.26.285-.39a.748.748 0 00.105-.345v-.9c-.28-.11-.575-.19-.885-.24-.31-.06-.615-.09-.915-.09-.6 0-1.09.12-1.47.36-.37.24-.555.57-.555.99 0 .23.06.45.18.66.13.21.31.38.54.51.24.13.535.195.885.195.36 0 .705-.07 1.035-.21.33-.14.595-.32.795-.54zM321.277 264h-1.65v-4.395c0-.73-.12-1.265-.36-1.605-.23-.34-.575-.51-1.035-.51-.32 0-.64.08-.96.24-.31.16-.59.38-.84.66-.25.27-.43.585-.54.945V264h-1.65v-7.845h1.5v1.575c.2-.35.46-.65.78-.9.33-.26.7-.46 1.11-.6.41-.14.845-.21 1.305-.21.47 0 .855.085 1.155.255.31.17.55.405.72.705.18.29.3.63.36 1.02.07.38.105.785.105 1.215V264zm7.375 0l-2.52-3.615-1.29 1.23V264h-1.65v-10.95h1.65v6.9l3.63-3.78h1.77l-3.045 3.285 3.21 4.545h-1.755zm2.758 0v-7.845h1.65V264h-1.65zm0-9.135v-1.815h1.65v1.815h-1.65zM342.078 264h-1.65v-4.395c0-.73-.12-1.265-.36-1.605-.23-.34-.575-.51-1.035-.51-.32 0-.64.08-.96.24-.31.16-.59.38-.84.66-.25.27-.43.585-.54.945V264h-1.65v-7.845h1.5v1.575c.2-.35.46-.65.78-.9.33-.26.7-.46 1.11-.6.41-.14.845-.21 1.305-.21.47 0 .855.085 1.155.255.31.17.55.405.72.705.18.29.3.63.36 1.02.07.38.105.785.105 1.215V264zm5.02.075c-.53 0-1.015-.105-1.455-.315a3.65 3.65 0 01-1.14-.885 4.339 4.339 0 01-.735-1.275 4.504 4.504 0 01-.255-1.515c0-.56.09-1.085.27-1.575.18-.49.43-.92.75-1.29.33-.38.715-.675 1.155-.885.44-.21.93-.315 1.47-.315.63 0 1.18.15 1.65.45.48.3.875.69 1.185 1.17v-1.485h1.455v7.62c0 .76-.185 1.405-.555 1.935-.36.53-.855.935-1.485 1.215-.63.28-1.34.42-2.13.42-.87 0-1.59-.15-2.16-.45-.57-.3-1.055-.71-1.455-1.23l.93-.87c.3.42.685.74 1.155.96.48.22.99.33 1.53.33.45 0 .865-.085 1.245-.255.39-.16.7-.415.93-.765.23-.34.345-.77.345-1.29v-1.2c-.28.47-.665.84-1.155 1.11-.49.26-1.005.39-1.545.39zm.54-1.335c.25 0 .49-.04.72-.12a2.67 2.67 0 001.14-.84c.14-.19.24-.39.3-.6v-2.055a2.606 2.606 0 00-.555-.885c-.24-.26-.51-.46-.81-.6-.3-.14-.605-.21-.915-.21-.36 0-.685.08-.975.24-.28.15-.52.355-.72.615-.2.25-.355.535-.465.855-.11.32-.165.65-.165.99 0 .36.06.695.18 1.005.13.31.305.59.525.84.22.24.48.43.78.57.3.13.62.195.96.195zm9.705 1.26v-10.635h1.68v5.475l5.01-5.49h1.86l-4.2 4.71 4.44 5.94h-1.905l-3.6-4.875-1.605 1.665V264h-1.68zm12.734.15a4.26 4.26 0 01-1.665-.315 4.105 4.105 0 01-1.275-.885c-.36-.38-.64-.81-.84-1.29a4.277 4.277 0 01-.285-1.56c0-.74.17-1.415.51-2.025.34-.62.815-1.115 1.425-1.485.61-.38 1.325-.57 2.145-.57.82 0 1.525.19 2.115.57.6.37 1.065.86 1.395 1.47a4.066 4.066 0 01.48 2.31c-.01.1-.02.185-.03.255h-6.285c.03.46.155.865.375 1.215.23.34.52.61.87.81.35.19.725.285 1.125.285.44 0 .855-.11 1.245-.33.4-.22.67-.51.81-.87l1.41.405c-.17.38-.43.725-.78 1.035-.34.3-.745.54-1.215.72-.47.17-.98.255-1.53.255zm-2.355-4.62h4.74c-.03-.45-.16-.845-.39-1.185-.22-.35-.505-.62-.855-.81-.34-.2-.72-.3-1.14-.3a2.324 2.324 0 00-1.98 1.11 2.44 2.44 0 00-.375 1.185zm7.757 6.315l.435.06c.15.03.27.045.36.045a.62.62 0 00.435-.165c.13-.1.26-.29.39-.57.13-.28.29-.685.48-1.215l-3.225-7.845h1.725l2.4 6.165 2.13-6.165h1.59l-3.555 9.66a2.6 2.6 0 01-.48.795c-.21.25-.47.445-.78.585-.31.14-.675.21-1.095.21-.12 0-.245-.01-.375-.03-.13-.02-.275-.05-.435-.09v-1.44zm17.713-9.69h1.575l-3.3 7.845h-1.41l-1.41-3.54-1.41 3.54h-1.41l-3.315-7.845h1.575l2.52 6.24 1.11-2.895-1.35-3.33h1.395l.885 2.445.87-2.445h1.395l-1.335 3.33 1.11 2.895 2.505-6.24zm5.932 7.995c-.62 0-1.175-.105-1.665-.315-.49-.22-.915-.52-1.275-.9-.35-.38-.62-.81-.81-1.29a4.277 4.277 0 01-.285-1.56c0-.55.095-1.07.285-1.56.19-.49.46-.92.81-1.29.36-.38.785-.675 1.275-.885a4.09 4.09 0 011.665-.33c.61 0 1.16.11 1.65.33.5.21.925.505 1.275.885.36.37.635.8.825 1.29.19.49.285 1.01.285 1.56s-.095 1.07-.285 1.56c-.19.48-.465.91-.825 1.29-.35.38-.775.68-1.275.9a4.15 4.15 0 01-1.65.315zm-2.34-4.05c0 .5.105.95.315 1.35.21.4.49.715.84.945.35.23.745.345 1.185.345.43 0 .82-.115 1.17-.345.36-.24.645-.56.855-.96.21-.41.315-.86.315-1.35 0-.5-.105-.95-.315-1.35-.21-.4-.495-.715-.855-.945-.35-.24-.74-.36-1.17-.36-.44 0-.835.12-1.185.36-.35.24-.63.56-.84.96-.21.39-.315.84-.315 1.35zm12.249-2.52c-.64.01-1.21.155-1.71.435-.49.28-.84.675-1.05 1.185v4.8h-1.65v-7.845h1.53v1.755c.27-.54.625-.97 1.065-1.29.44-.33.905-.51 1.395-.54h.24c.07 0 .13.005.18.015v1.485zm.588 2.505c0-.75.15-1.43.45-2.04.31-.62.73-1.11 1.26-1.47.53-.37 1.14-.555 1.83-.555.6 0 1.14.155 1.62.465.49.31.87.695 1.14 1.155v-4.59h1.65v9.09c0 .19.035.325.105.405.07.08.185.125.345.135V264c-.31.05-.55.075-.72.075-.31 0-.575-.09-.795-.27a.872.872 0 01-.33-.645l-.015-.585c-.3.5-.705.89-1.215 1.17-.51.27-1.04.405-1.59.405-.54 0-1.04-.105-1.5-.315a3.647 3.647 0 01-1.185-.885c-.33-.38-.59-.815-.78-1.305-.18-.49-.27-1.01-.27-1.56zm6.3 1.095v-2.055c-.11-.32-.29-.605-.54-.855a2.739 2.739 0 00-.825-.615c-.3-.15-.6-.225-.9-.225-.35 0-.67.075-.96.225-.28.15-.525.35-.735.6-.2.25-.355.535-.465.855a3.07 3.07 0 00.015 2.025c.12.31.29.59.51.84.23.24.49.43.78.57.3.13.625.195.975.195.22 0 .44-.04.66-.12.23-.08.445-.19.645-.33.21-.14.385-.305.525-.495.15-.19.255-.395.315-.615zm6.536 2.97a5.55 5.55 0 01-1.875-.315 4.078 4.078 0 01-1.515-.975l.615-1.11c.45.4.9.69 1.35.87.46.18.915.27 1.365.27.46 0 .835-.085 1.125-.255.29-.18.435-.44.435-.78 0-.25-.075-.435-.225-.555-.15-.12-.37-.225-.66-.315-.28-.09-.62-.19-1.02-.3-.56-.17-1.03-.345-1.41-.525-.38-.19-.665-.42-.855-.69-.19-.27-.285-.615-.285-1.035 0-.51.13-.945.39-1.305s.62-.635 1.08-.825c.47-.19 1.01-.285 1.62-.285.57 0 1.095.09 1.575.27.49.17.92.44 1.29.81l-.705 1.095c-.35-.32-.71-.555-1.08-.705-.36-.15-.75-.225-1.17-.225-.24 0-.47.03-.69.09-.22.05-.405.15-.555.3-.14.14-.21.34-.21.6 0 .21.06.38.18.51s.3.24.54.33c.24.09.535.19.885.3.61.18 1.13.36 1.56.54.43.17.76.395.99.675.24.27.36.645.36 1.125 0 .76-.285 1.355-.855 1.785-.56.42-1.31.63-2.25.63z" fill="#101828" fill-opacity=".5"/><defs><linearGradient id="paint0_linear_1589_12722" x1="71.336" y1="115" x2="71.336" y2="120" gradientUnits="userSpaceOnUse"><stop stop-color="#FF002E"/><stop offset="1" stop-color="#FF002E" stop-opacity=".1"/></linearGradient><linearGradient id="paint1_linear_1589_12722" x1="321.336" y1="103" x2="321.336" y2="133" gradientUnits="userSpaceOnUse"><stop stop-color="#20C845"/><stop offset="1" stop-color="#20C845" stop-opacity=".1"/></linearGradient><filter id="filter0_d_1589_12722" x="0" y="9.5" width="336" height="313" filterUnits="userSpaceOnUse" color-interpolation-filters="sRGB"><feFlood flood-opacity="0" result="BackgroundImageFix"/><feColorMatrix in="SourceAlpha" values="0 0 0 0 0 0 0 0 0 0 0 0 0 0 0 0 0 0 127 0" result="hardAlpha"/><feOffset dy="10"/><feGaussianBlur stdDeviation="10"/><feColorMatrix values="0 0 0 0 0 0 0 0 0 0 0 0 0 0 0 0 0 0 0.06 0"/><feBlend in2="BackgroundImageFix" result="effect1_dropShadow_1589_12722"/><feBlend in="SourceGraphic" in2="effect1_dropShadow_1589_12722" result="shape"/></filter></defs></svg>