<svg width="39" height="39" fill="none" xmlns="http://www.w3.org/2000/svg"><path d="M35.376 21.506L28.25 17.29a1.184 1.184 0 00-1.209.001l-7.125 4.216c-.361.212-.583.6-.583 1.021v8.194c0 .42.222.809.583 1.021l7.125 4.216a1.175 1.175 0 001.209 0l7.125-4.216c.36-.212.583-.6.583-1.021v-8.194c0-.42-.222-.809-.583-1.022zm-1.792 8.539l-5.938 3.513-5.937-3.513v-6.84l5.938-3.513 5.937 3.513v6.84zM7.459 8.813a1.187 1.187 0 100-2.375 1.187 1.187 0 000 2.375zm3.562 0a1.188 1.188 0 100-2.376 1.188 1.188 0 000 2.375z" fill="#0069FF"/><path d="M33.584 2.875h-28.5A2.377 2.377 0 002.709 5.25V29a2.377 2.377 0 002.375 2.375h10.688V29H5.083V12.375h28.5v4.75h2.375V5.25a2.377 2.377 0 00-2.375-2.375zM5.084 10V5.25h28.5V10h-28.5z" fill="#0069FF"/></svg>