<svg width="163" height="61" fill="none" xmlns="http://www.w3.org/2000/svg"><path d="M8.202 26.113v-4.495h2.786V10.305H8.202V5.5h14.084v4.805H19.5v11.313h2.786v4.495H8.202zm27.548 0v-4.495h1.857v-4.65c0-1.394-.929-2.014-2.322-2.014-1.547 0-2.785 1.085-2.94 2.634v4.03h2.012v4.495H23.523v-4.495h1.858v-6.664h-1.858v-4.495h8.667v3.1l.464-.465c1.393-1.705 3.714-2.635 5.881-2.48 3.405 0 6.19 1.395 6.19 5.115v5.89h1.858v4.494H35.749z" fill="#101828"/><path d="M64.536 16.969l-6.036.62c0-1.705-.464-3.41-2.476-3.41-2.631 0-2.786 2.17-2.786 4.184 0 2.17.155 4.34 2.786 4.34 1.238.155 2.476-.775 2.63-2.17v-.31h6.036v.465c-.928 4.96-5.416 5.735-8.511 5.735-4.953 0-9.905-2.48-9.905-8.06 0-5.579 4.952-8.059 9.904-8.059-.154.155 7.739-.31 8.358 6.665z" fill="#101828"/><path d="M69.179 23.633a2.446 2.446 0 01-2.477 2.48 2.446 2.446 0 01-2.476-2.48 2.446 2.446 0 012.477-2.48 2.446 2.446 0 012.476 2.48z" fill="#101828"/><path d="M28.012 31.478c-6.035 0-9.44 4.03-9.44 11.933 0 7.905 3.405 11.934 9.44 11.934 6.036 0 9.44-4.03 9.44-11.934 0-7.904-3.559-11.933-9.44-11.933zm0 19.063c-2.166 0-2.63-2.17-2.63-7.13 0-4.959.464-7.129 2.63-7.129 2.167 0 2.631 2.17 2.631 7.13 0 4.959-.464 7.129-2.63 7.129z" fill="#FD0"/><path d="M47.976 31.478c-6.035 0-9.44 4.03-9.44 11.933 0 7.905 3.405 11.934 9.44 11.934 6.036 0 9.44-4.03 9.44-11.934 0-7.904-3.559-11.933-9.44-11.933zm0 19.063c-2.166 0-2.63-2.17-2.63-7.13 0-4.959.464-7.129 2.63-7.129 2.167 0 2.631 2.17 2.631 7.13 0 4.959-.464 7.129-2.63 7.129z" fill="#007DC5"/><path d="M67.94 31.478c-6.035 0-9.44 4.03-9.44 11.933 0 7.905 3.405 11.934 9.44 11.934 6.036 0 9.44-4.03 9.44-11.934 0-7.904-3.559-11.933-9.44-11.933zm0 19.063c-2.166 0-2.63-2.17-2.63-7.13 0-4.959.464-7.129 2.63-7.129 2.167 0 2.631 2.17 2.631 7.13 0 4.959-.464 7.129-2.63 7.129z" fill="#101828"/><path d="M15.786 41.087c-1.548-1.24-3.405-2.015-5.417-1.86-1.548 0-3.25.465-4.333 1.55l.464-3.72h9.75v-5.424H2.012L.464 42.482l4.179 2.17c1.083-.93 2.321-1.55 3.714-1.55.774 0 1.393.31 2.012.774.774.775 1.083 1.86 1.083 2.945 0 .465 0 .93-.154 1.24-.155 1.395-1.393 2.325-2.786 2.17-2.631 0-2.476-3.255-1.857-4.495L0 49.301c.464 4.184 4.798 6.2 8.357 6.2 2.476 0 4.798-.776 6.5-2.326.62-.62 1.238-1.24 1.703-2.17.773-1.24 1.083-2.79 1.083-4.184.31-2.17-.465-4.184-1.857-5.734z" fill="#E33226"/><g clip-path="url(#clip0_643_6178)" fill="#101828"><path d="M112.714 15.63V8.266a.848.848 0 01.922-.856.83.83 0 01.848.856v7.366a.872.872 0 01-.858.855.887.887 0 01-.921-.852l-.001-.003m-2.23-7.366v7.366a3.13 3.13 0 006.258 0V8.265a3.088 3.088 0 00-3.086-3.091h-.01a3.106 3.106 0 00-3.162 3.048v.043zm24.311-2.962h-6.323V7.54h2.041v10.985h2.24V7.54h2.042V5.304zm6.589 0v10.327a.863.863 0 11-1.726 0V5.304h-2.305v10.327a3.163 3.163 0 006.323 0V5.304h-2.292zm20.49 2.236V5.304h-5.534v13.22h5.534V16.29h-3.296v-3.422h2.108v-2.236h-2.108v-3.09h3.296zm-35.513 10.985h-2.371l-1.647-6.25s1.45-.26 1.45-1.774V8.462a.9.9 0 00-.917-.922h-.863v10.985h-2.238V5.305h3.101a3.134 3.134 0 013.157 3.027v2.102c0 1.317-.46 2.236-1.252 2.894l1.58 5.197zm24.972-13.221v7.235l-2.307-7.235h-2.305v13.22h2.305v-6.446l2.107 6.447h2.505V5.305h-2.305zm-46.053.198h-2.372v13.22h2.372v-5.658h2.174V10.83h-2.174V7.737h3.426V5.502h-3.426zm15.816 34.775c0-3.39-2.899-6.13-6.469-6.13h-5.47v-6.41h11.904v-5.892h-18.086v18.447h10.743c.68-.02 1.249.514 1.269 1.194v7.453a1.233 1.233 0 01-1.262 1.191h-3.311a1.232 1.232 0 01-1.259-1.19v-4.684h-6.082v5.423c0 3.387 2.902 6.133 6.471 6.133h5.083c3.57 0 6.469-2.746 6.469-6.133v-9.402zm14.036-18.432h-5.423c-3.503 0-6.34 2.746-6.34 6.134v21.715c0 3.387 2.844 6.133 6.35 6.133h5.423c3.508 0 6.35-2.746 6.35-6.133V27.978c0-3.387-2.842-6.133-6.35-6.133h-.01zm.35 27.094a1.215 1.215 0 01-1.232 1.191h-3.683a1.216 1.216 0 01-1.233-1.19V28.944a1.248 1.248 0 011.267-1.193h3.683a1.189 1.189 0 011.201 1.175v.018l-.003 19.994zm20.039-27.094h-5.423c-3.505 0-6.348 2.746-6.348 6.134v21.715c0 3.387 2.843 6.133 6.35 6.133h5.424c3.505 0 6.35-2.746 6.35-6.133V27.978c0-3.387-2.845-6.133-6.35-6.133h-.003zm.348 27.094a1.216 1.216 0 01-1.233 1.191h-3.683a1.215 1.215 0 01-1.232-1.19V28.944a1.249 1.249 0 011.257-1.193h3.698a1.186 1.186 0 011.2 1.17v.023l-.007 19.994z"/></g><defs><clipPath id="clip0_643_6178"><path fill="#fff" transform="translate(102.381 .5)" d="M0 0h60v60H0z"/></clipPath></defs></svg>