<svg width="84" height="30" fill="none" xmlns="http://www.w3.org/2000/svg"><path fill-rule="evenodd" clip-rule="evenodd" d="M17.407 7.219c-4.527 0-7.934 3.328-7.934 7.781 0 4.453 3.407 7.781 7.934 7.781 4.526 0 7.933-3.328 7.933-7.781 0-4.453-3.407-7.781-7.933-7.781zm0 3.75c2.286 0 3.92 1.64 3.92 4.031 0 2.39-1.634 4.031-3.92 4.031-2.287 0-3.92-1.64-3.92-4.031 0-2.39 1.633-4.031 3.92-4.031zm17.5-3.75c-4.527 0-7.934 3.328-7.934 7.781 0 4.453 3.36 7.781 7.934 7.781 4.526 0 7.933-3.328 7.933-7.781 0-4.453-3.407-7.781-7.933-7.781zm0 3.75c2.286 0 3.92 1.64 3.92 4.031 0 2.39-1.634 4.031-3.92 4.031-2.287 0-3.92-1.64-3.92-4.031 0-2.39 1.633-4.031 3.92-4.031z" fill="#5BB50E"/><path fill-rule="evenodd" clip-rule="evenodd" d="M52.92 22.781c4.48 0 7.7-3.328 7.7-7.781 0-4.453-3.22-7.781-7.7-7.781a7.249 7.249 0 00-4.013 1.218V2.345H44.94V22.36h2.94l.467-1.218c1.213 1.03 2.8 1.64 4.573 1.64zM56.607 15c0 2.297-1.727 4.031-4.014 4.031-2.286 0-4.013-1.734-4.013-4.031 0-2.297 1.727-4.031 4.013-4.031 2.334 0 4.014 1.734 4.014 4.031zM1.26 24H0v3.656h1.867c3.22 0 5.506-2.297 5.506-5.531V7.64H3.407v14.203C3.407 23.25 2.66 24 1.26 24zM62.72 2.344h3.967v20.015H62.72V2.344zm21.187 13.781c.046-.375.093-.797.093-1.172 0-4.219-3.08-7.734-7.607-7.734-4.34 0-7.606 3.328-7.606 7.781 0 4.406 3.266 7.781 7.606 7.781 3.407 0 6.207-2.062 7.28-5.25H79.52c-.607 1.032-1.727 1.688-3.127 1.688-1.913 0-3.266-1.078-3.593-3.094h11.107zm-3.874-2.719H72.94c.467-1.734 1.68-2.765 3.453-2.765 1.774 0 3.08.984 3.64 2.765z" fill="#0B71D9"/></svg>