<svg width="145" height="32" fill="none" xmlns="http://www.w3.org/2000/svg"><path d="M0 8.175h15.667v3.656H3.656A3.656 3.656 0 010 8.175z" fill="#0069FF"/><path d="M12.011 8.175h3.656v15.667a3.655 3.655 0 01-3.656-3.656V8.176z" fill="#0069FF"/><path d="M13.168 8.158l2.585 2.585L2.756 23.74.172 21.155 13.168 8.158z" fill="#0069FF"/><path d="M31.723 24.3c-.836 0-1.64-.105-2.413-.314a8.92 8.92 0 01-2.13-.94 7.283 7.283 0 01-1.693-1.504l2.194-2.193a5.347 5.347 0 001.786 1.378c.689.293 1.462.44 2.318.44.773 0 1.358-.116 1.755-.346.397-.23.595-.564.595-1.002 0-.46-.188-.815-.564-1.066-.376-.25-.867-.46-1.472-.626a53.412 53.412 0 00-1.88-.564 10.392 10.392 0 01-1.88-.752 4.237 4.237 0 01-1.442-1.348c-.376-.563-.564-1.295-.564-2.193 0-.96.22-1.786.658-2.475.46-.69 1.097-1.222 1.912-1.598.835-.376 1.827-.564 2.976-.564 1.212 0 2.277.22 3.196.658a5.785 5.785 0 012.35 1.911l-2.193 2.194c-.439-.544-.94-.951-1.504-1.223-.564-.271-1.212-.407-1.943-.407-.69 0-1.222.105-1.598.313-.376.21-.564.512-.564.91 0 .417.188.74.564.97.376.23.857.429 1.442.596.605.167 1.232.355 1.88.564a7.55 7.55 0 011.88.815 4.053 4.053 0 011.472 1.378c.376.564.564 1.306.564 2.225 0 1.462-.511 2.621-1.535 3.478-1.024.856-2.413 1.284-4.167 1.284zm14.904 0c-1.504 0-2.861-.335-4.073-1.003a7.852 7.852 0 01-2.851-2.82c-.69-1.19-1.034-2.528-1.034-4.01 0-1.484.344-2.81 1.034-3.98a7.683 7.683 0 012.788-2.82c1.191-.69 2.507-1.034 3.948-1.034 1.4 0 2.632.324 3.698.971a6.768 6.768 0 012.538 2.664c.626 1.127.94 2.412.94 3.854 0 .25-.021.511-.063.783a7.55 7.55 0 01-.125.846H41.08v-2.82h10.56l-1.285 1.128c-.042-.92-.22-1.692-.533-2.319a3.334 3.334 0 00-1.347-1.441c-.564-.334-1.264-.502-2.1-.502-.877 0-1.639.188-2.287.564a3.833 3.833 0 00-1.504 1.598c-.355.669-.532 1.473-.532 2.413 0 .94.188 1.765.564 2.475.376.71.908 1.264 1.598 1.661.69.376 1.483.564 2.381.564a5.46 5.46 0 002.13-.407 4.448 4.448 0 001.693-1.19l2.193 2.224a7.034 7.034 0 01-2.663 1.942 8.489 8.489 0 01-3.322.658zm16.017 0c-1.462 0-2.788-.345-3.979-1.035a8.103 8.103 0 01-2.851-2.85c-.69-1.192-1.034-2.518-1.034-3.98 0-1.462.344-2.778 1.034-3.948.71-1.17 1.66-2.1 2.851-2.789 1.19-.71 2.517-1.065 3.98-1.065 1.482 0 2.82.344 4.01 1.034a7.63 7.63 0 012.82 2.82c.71 1.17 1.065 2.486 1.065 3.948 0 1.462-.355 2.788-1.065 3.98a7.852 7.852 0 01-2.82 2.85c-1.19.69-2.528 1.034-4.01 1.034zm0-3.322c.857 0 1.609-.188 2.256-.564a3.979 3.979 0 001.536-1.63c.376-.689.564-1.472.564-2.35 0-.877-.188-1.65-.564-2.318A4.098 4.098 0 0064.9 12.55c-.647-.397-1.4-.596-2.256-.596-.835 0-1.587.199-2.256.595a4.098 4.098 0 00-1.535 1.567c-.355.669-.533 1.441-.533 2.319 0 .877.178 1.66.533 2.35a4.27 4.27 0 001.535 1.63c.669.375 1.42.563 2.256.563zM80.832 24.3c-1.148 0-2.172-.24-3.07-.72a5.704 5.704 0 01-2.13-2.037c-.502-.856-.753-1.828-.753-2.914v-4.324c0-1.086.261-2.057.783-2.914a5.469 5.469 0 012.131-2.005c.898-.502 1.911-.752 3.04-.752 1.357 0 2.58.355 3.666 1.065a7.207 7.207 0 012.6 2.82c.648 1.17.971 2.496.971 3.98 0 1.462-.323 2.788-.97 3.979a7.264 7.264 0 01-2.601 2.788c-1.087.69-2.309 1.034-3.666 1.034zm-.563-3.258c.835 0 1.566-.188 2.193-.564a4.043 4.043 0 001.504-1.63c.376-.689.564-1.483.564-2.38 0-.9-.188-1.693-.564-2.382a3.833 3.833 0 00-1.504-1.598c-.627-.397-1.358-.595-2.194-.595-.835 0-1.577.198-2.224.595a3.833 3.833 0 00-1.504 1.598c-.355.69-.533 1.483-.533 2.381 0 .898.178 1.692.533 2.381.355.69.856 1.233 1.504 1.63.647.376 1.389.564 2.225.564zm-7.49 9.212V8.946h3.448v4.042l-.596 3.666.596 3.635v9.964H72.78zm17.55-6.267V8.946h3.447v15.04h-3.447zm3.447-8.366l-1.191-.595c0-1.901.418-3.436 1.253-4.606.857-1.19 2.141-1.786 3.854-1.786.752 0 1.431.136 2.037.407.606.272 1.17.71 1.692 1.316l-2.256 2.319a2.378 2.378 0 00-.909-.627 3.292 3.292 0 00-1.16-.188c-.96 0-1.754.303-2.38.909-.627.606-.94 1.556-.94 2.851zm15.12 8.68c-1.462 0-2.788-.345-3.979-1.035a8.099 8.099 0 01-2.851-2.85c-.69-1.192-1.034-2.518-1.034-3.98 0-1.462.344-2.778 1.034-3.948.71-1.17 1.66-2.1 2.851-2.789 1.191-.71 2.517-1.065 3.979-1.065 1.483 0 2.82.344 4.011 1.034a7.605 7.605 0 012.82 2.82c.71 1.17 1.065 2.486 1.065 3.948 0 1.462-.355 2.788-1.065 3.98a7.846 7.846 0 01-2.82 2.85c-1.191.69-2.528 1.034-4.011 1.034zm0-3.322c.857 0 1.609-.188 2.256-.564a3.982 3.982 0 001.536-1.63c.376-.689.564-1.472.564-2.35 0-.877-.188-1.65-.564-2.318a4.097 4.097 0 00-1.536-1.566c-.647-.397-1.399-.596-2.256-.596-.835 0-1.587.199-2.256.595a4.101 4.101 0 00-1.535 1.567c-.355.669-.533 1.441-.533 2.319 0 .877.178 1.66.533 2.35.376.69.888 1.232 1.535 1.63.669.375 1.421.563 2.256.563zm11.775 3.008V6.972c0-1.149.251-2.162.752-3.04a5.635 5.635 0 012.131-2.067c.919-.501 1.974-.752 3.165-.752.919 0 1.702.157 2.35.47a6.419 6.419 0 011.817 1.347l-2.225 2.225a3.14 3.14 0 00-.814-.596c-.293-.146-.669-.219-1.128-.219-.836 0-1.483.23-1.943.69-.439.438-.658 1.075-.658 1.91v17.046h-3.447zm-3.603-11.907V8.947h11.593v3.133h-11.593zm18.005 12.064L128.65 8.946h3.791l4.387 11.155h-1.097l4.637-11.155h3.823l-6.987 15.197h-2.131zm-4.481 6.11l4.669-9.62 1.943 3.51-2.789 6.11h-3.823z" fill="#101828"/></svg>