<svg width="38" height="39" fill="none" xmlns="http://www.w3.org/2000/svg"><path d="M35.625 23.063h-4.75v-4.75H28.5V29h-19V10l10.688-.001V7.625h-4.75v-4.75h-2.376v4.75H9.5A2.377 2.377 0 007.125 10v3.563h-4.75v2.374h4.75v7.126h-4.75v2.375h4.75V29A2.378 2.378 0 009.5 31.375h3.563v4.75h2.374v-4.75h7.126v4.75h2.375v-4.75H28.5A2.378 2.378 0 0030.875 29v-3.563h4.75v-2.375z" fill="#0069FF"/><path d="M24.938 25.438H13.063V13.563h11.874v11.874zm-9.5-2.375h7.124v-7.125h-7.125v7.124zm21.375-7.125h-2.376A11.889 11.889 0 0022.563 4.062V1.688a14.265 14.265 0 0114.25 14.25z" fill="#0069FF"/><path d="M30.875 15.938H28.5A5.945 5.945 0 0022.562 10V7.625a8.323 8.323 0 018.313 8.313z" fill="#0069FF"/></svg>