<svg width="22" height="22" fill="none" xmlns="http://www.w3.org/2000/svg"><g clip-path="url(#clip0_1199_8247)" fill="#0069FF"><path d="M17.736 6.875a6.875 6.875 0 00-13.488.085 5.154 5.154 0 00.908 10.227H5.5v-1.375h-.344a3.778 3.778 0 01-.259-7.548l.575-.04.062-.572a5.495 5.495 0 0110.785-.777h1.417z"/><path d="M12.85 7.637a5.33 5.33 0 00-5.324 5.324c0 1.21.835 2.98 2.48 5.262a39.547 39.547 0 002.41 3.007l.434.48.433-.48c.05-.055 1.22-1.358 2.41-3.007 1.646-2.281 2.48-4.052 2.48-5.262a5.33 5.33 0 00-5.323-5.324zm0 12.318c-1.466-1.714-4.158-5.226-4.158-6.994a4.162 4.162 0 014.158-4.158 4.162 4.162 0 014.158 4.157c0 1.769-2.692 5.28-4.158 6.995z"/><path fill-rule="evenodd" clip-rule="evenodd" d="M12.33 21.308a39.627 39.627 0 01-2.417-3.017c-.825-1.144-1.45-2.163-1.868-3.051-.418-.886-.634-1.65-.634-2.28a5.445 5.445 0 015.439-5.439c3 0 5.44 2.44 5.44 5.44 0 .63-.217 1.393-.635 2.279-.418.888-1.043 1.907-1.868 3.05a39.636 39.636 0 01-2.418 3.018l-.519.576-.52-.576zm.087-.078a39.542 39.542 0 01-2.41-3.007c-1.646-2.281-2.48-4.052-2.48-5.262a5.33 5.33 0 015.323-5.324 5.33 5.33 0 015.324 5.324c0 1.21-.835 2.98-2.48 5.262a39.534 39.534 0 01-2.41 3.007l-.434.48-.433-.48zm.357-1.364l.076.09.076-.09c1.481-1.744 4.082-5.167 4.082-6.905a4.162 4.162 0 00-4.158-4.158 4.162 4.162 0 00-4.158 4.158c0 1.738 2.6 5.16 4.082 6.905zm.076-.09c.725-.854 1.713-2.105 2.532-3.361.426-.654.805-1.307 1.077-1.904.273-.6.433-1.133.433-1.55a4.047 4.047 0 00-4.042-4.042 4.047 4.047 0 00-4.042 4.042c0 .417.16.95.433 1.55.272.597.65 1.25 1.077 1.904.82 1.256 1.807 2.507 2.532 3.361z"/><path d="M12.85 14.892a1.931 1.931 0 100-3.863 1.931 1.931 0 000 3.863z"/><path fill-rule="evenodd" clip-rule="evenodd" d="M14.897 12.96a2.047 2.047 0 11-4.094 0 2.047 2.047 0 014.094 0zm-.116 0a1.931 1.931 0 11-3.862 0 1.931 1.931 0 013.862 0z"/></g><defs><clipPath id="clip0_1199_8247"><path fill="#fff" d="M0 0h22v22H0z"/></clipPath></defs></svg>