<svg width="22" height="22" fill="none" xmlns="http://www.w3.org/2000/svg"><g clip-path="url(#clip0_1199_8230)" fill="#0069FF"><path d="M2.75 12.375A8.25 8.25 0 1011 4.125H8.25V.687L4.125 4.813 8.25 8.938V5.5H11a6.875 6.875 0 11-6.875 6.875H2.75z"/><g clip-path="url(#clip1_1199_8230)"><path d="M13.692 12.437c0-.181-.016-.353-.044-.52h-2.59v1.033h1.483c-.066.34-.26.626-.55.82v.688h.885c.518-.479.816-1.185.816-2.021z"/><path d="M11.058 15.125c.743 0 1.364-.247 1.818-.667l-.885-.687a1.66 1.66 0 01-.933.266c-.717 0-1.324-.484-1.542-1.137h-.912v.708a2.746 2.746 0 002.454 1.517z"/><path d="M9.516 12.9a1.596 1.596 0 01-.087-.525c0-.183.032-.36.087-.525v-.708h-.912a2.718 2.718 0 000 2.466l.912-.708z"/><path d="M11.058 10.713c.406 0 .768.14 1.055.413l.783-.784a2.63 2.63 0 00-1.838-.717 2.746 2.746 0 00-2.454 1.517l.912.708c.218-.653.825-1.136 1.542-1.136z"/></g></g><defs><clipPath id="clip0_1199_8230"><path fill="#fff" d="M0 0h22v22H0z"/></clipPath><clipPath id="clip1_1199_8230"><path fill="#fff" transform="translate(8.25 9.625)" d="M0 0h5.5v5.5H0z"/></clipPath></defs></svg>