<svg width="38" height="38" fill="none" xmlns="http://www.w3.org/2000/svg"><path d="M31.826 33.748h-5.363a.671.671 0 01-.67-.622l-.626-8.767a2.01 2.01 0 01-1.863-2.257l.858-6.87a3.36 3.36 0 013.328-2.936h3.31a3.357 3.357 0 013.326 2.937l.858 6.87a2.013 2.013 0 01-1.863 2.256l-.626 8.767a.67.67 0 01-.67.622zm-4.739-1.34h4.115l.626-8.763a.67.67 0 01.668-.623h.492a.66.66 0 00.503-.226.663.663 0 00.162-.527l-.858-6.87a2.013 2.013 0 00-1.995-1.762h-3.31c-1.012 0-1.87.758-1.997 1.762l-.858 6.87a.662.662 0 00.162.527.663.663 0 00.503.226h.492c.352 0 .644.273.67.623l.625 8.763zm2.057-21.452a3.357 3.357 0 01-3.351-3.352 3.357 3.357 0 013.351-3.352 3.357 3.357 0 013.352 3.352 3.356 3.356 0 01-3.352 3.352zm0-5.363a2.014 2.014 0 00-2.01 2.01c0 1.11.902 2.012 2.01 2.012a2.014 2.014 0 002.012-2.011 2.013 2.013 0 00-2.012-2.011z" fill="#0069FF"/><path d="M29.144 14.977a.67.67 0 01-.67-.67v-1.341a.67.67 0 011.34 0v1.34a.67.67 0 01-.67.671zm0 5.363a.67.67 0 01-.67-.67v-2.682a.67.67 0 011.34 0v2.682a.67.67 0 01-.67.67zM9.033 33.748H3.67a.67.67 0 01-.67-.67V21.01c0-.37.3-.67.67-.67h5.363c.37 0 .67.3.67.67v12.067a.67.67 0 01-.67.67zm-4.693-1.34h4.023V21.682H4.34v10.726zm15.419 1.34h-5.363a.67.67 0 01-.67-.67V12.966c0-.37.3-.67.67-.67h5.363c.37 0 .67.3.67.67v20.112a.67.67 0 01-.67.67zm-4.693-1.34h4.022V13.637h-4.022v18.77z" fill="#0069FF"/><path fill-rule="evenodd" clip-rule="evenodd" d="M24.886 24.626l.608 8.521c.037.507.46.901.969.901h5.363a.97.97 0 00.968-.9l.609-8.522a2.312 2.312 0 001.88-2.56l-.859-6.87a3.657 3.657 0 00-3.624-3.2h-1.62a1.072 1.072 0 00-.071 0h-1.62a3.66 3.66 0 00-3.625 3.2l-.858 6.87a2.314 2.314 0 001.88 2.56zm.047-2.32l.858-6.87a1.716 1.716 0 011.699-1.499h.684v.37a.97.97 0 001.941 0v-.37h.685c.861 0 1.592.645 1.697 1.499l.858 6.87a.364.364 0 01-.09.291.36.36 0 01-.277.125h-.492a.97.97 0 00-.967.901l-.606 8.485h-3.556l-.47-6.59-.136-1.895a.972.972 0 00-.968-.9H25.3a.374.374 0 01-.126-.022l-.242-.395zm4.212-1.666a.97.97 0 01-.97-.97v-2.682a.97.97 0 011.94 0v2.682a.97.97 0 01-.97.97zM19.76 34.048a.97.97 0 00.97-.97V12.966a.97.97 0 00-.97-.97h-5.364a.97.97 0 00-.97.97v20.112c0 .535.434.97.97.97h5.363zm-.971-1.94V13.937h-3.423v18.17h3.423zM3.67 34.048h5.363a.97.97 0 00.97-.97V21.01a.97.97 0 00-.97-.97H3.67a.97.97 0 00-.97.97v12.067c0 .535.434.97.97.97zm4.393-1.94V21.982H4.641v10.126h3.422zm17.43-24.504a3.657 3.657 0 003.652 3.652 3.656 3.656 0 003.652-3.652 3.657 3.657 0 00-3.652-3.652 3.657 3.657 0 00-3.652 3.652zm5.363 0c0-.943-.767-1.711-1.711-1.711-.944 0-1.712.768-1.712 1.71 0 .944.769 1.712 1.712 1.712s1.71-.768 1.71-1.711z" fill="#0069FF"/></svg>