<svg width="38" height="39" fill="none" xmlns="http://www.w3.org/2000/svg"><path d="M33.25 10H28.5V5.25a2.378 2.378 0 00-2.375-2.375H4.75A2.378 2.378 0 002.375 5.25v21.375A2.378 2.378 0 004.75 29H9.5v4.75a2.378 2.378 0 002.375 2.375H33.25a2.378 2.378 0 002.375-2.375V12.375A2.378 2.378 0 0033.25 10zM4.75 26.625V5.25h21.375V10h-14.25A2.378 2.378 0 009.5 12.375v14.25H4.75zm21.375 0h-3.07l-11.18-11.18v-3.07h3.07l11.181 11.181-.001 3.069zm-14.25-7.82l7.82 7.82h-7.82v-7.82zm14.251 1.392l-7.822-7.822h7.821l.001 7.822zM11.875 33.75V29h14.25a2.378 2.378 0 002.375-2.375v-14.25h4.75V33.75H11.875z" fill="#0069FF"/></svg>