<svg width="38" height="39" fill="none" xmlns="http://www.w3.org/2000/svg"><g clip-path="url(#clip0_629_3669)" fill="#0069FF"><path d="M35.625 21.875a7.126 7.126 0 10-11.875 5.296v8.954l4.75-2.248 4.75 2.248v-8.954a7.102 7.102 0 002.375-5.296zm-4.75 10.498L28.5 31.248l-2.375 1.125v-3.789a6.992 6.992 0 004.75 0v3.789zM28.5 26.625a4.75 4.75 0 110-9.5 4.75 4.75 0 010 9.5zm-9.5-9.5h-8.313V19.5H19v-2.375zM22.563 10H10.688v2.375h11.874V10z"/><path d="M7.125 36.125A2.378 2.378 0 014.75 33.75V5.25a2.377 2.377 0 012.375-2.375h19A2.377 2.377 0 0128.5 5.25V10h-2.375V5.25h-19v28.5H19v2.375H7.125z"/></g><defs><clipPath id="clip0_629_3669"><path fill="#fff" transform="translate(0 .5)" d="M0 0h38v38H0z"/></clipPath></defs></svg>