<svg width="39" height="39" fill="none" xmlns="http://www.w3.org/2000/svg"><path d="M26.792 32.076L23.716 29l-1.674 1.674 4.75 4.75 9.5-9.5-1.674-1.674-7.826 7.826zm-7.125-10.201a2.375 2.375 0 100-4.75 2.375 2.375 0 000 4.75z" fill="#0069FF"/><path d="M19.667 26.625a7.125 7.125 0 117.125-7.125 7.133 7.133 0 01-7.125 7.125zm0-11.875a4.75 4.75 0 100 9.5 4.75 4.75 0 000-9.5z" fill="#0069FF"/><path d="M33.917 19.5a14.25 14.25 0 10-14.25 14.25v-2.375A11.874 11.874 0 1131.542 19.5h2.375z" fill="#0069FF"/></svg>