<svg width="265" height="267" fill="none" xmlns="http://www.w3.org/2000/svg"><rect y="9.246" width="220" height="129" rx="14" fill="#F5F9FF"/><rect x="16" y="29.246" width="78" height="13" rx="6.5" fill="#E0E5ED"/><rect x="16" y="50.246" width="39" height="8" rx="4" fill="#E0E5ED"/><path d="M37.72 100.572l-20.927 16.065a2.03 2.03 0 00-.793 1.609h178c5.523 0 10-4.477 10-10v-70l-21.928 6.517c-1.08.32-2.194.52-3.319.59l-19.048 1.214c-1.859.118-3.68.582-5.369 1.367l-17.991 8.363a15.004 15.004 0 01-6.323 1.397h-16.88c-2.211 0-4.395.49-6.396 1.432L88.4 67.774a15 15 0 00-3.742 2.513L64.993 88.319a15 15 0 01-4.762 2.949l-18.753 7.198a14.987 14.987 0 00-3.759 2.106z" fill="url(#paint0_linear_1628_11052)" fill-opacity=".12"/><path d="M16.106 117.246l18.127-13.981a45.014 45.014 0 0111.356-6.378l9.267-3.557a44.999 44.999 0 0014.364-8.915l11.904-10.967a45 45 0 0111.649-7.77l8.043-3.708a44.998 44.998 0 0118.841-4.134h3.96a45.004 45.004 0 0018.573-4.011l7.203-3.264a44.994 44.994 0 0115.713-3.92l10.014-.638a45.005 45.005 0 0010.423-1.914l18.456-5.701" stroke="#0069FF" stroke-width="2" stroke-linecap="round"/><g filter="url(#filter0_d_1628_11052)"><rect x="30" y="117.754" width="220" height="124" rx="14" fill="#fff" shape-rendering="crispEdges"/><rect x="46" y="144.754" width="7" height="7" rx="3.5" fill="#0069FF"/><rect x="63" y="141.754" width="54" height="8" rx="4" fill="#ECF0F4"/><rect x="63" y="157.754" width="37" height="12" rx="6" fill="#ECF0F4"/><rect x="46" y="192.754" width="7" height="7" rx="3.5" fill="#ECF0F4"/><rect x="63" y="189.754" width="54" height="8" rx="4" fill="#ECF0F4"/><rect x="63" y="205.754" width="37" height="12" rx="6" fill="#ECF0F4"/><path d="M229 179.754c0 23.196-18.804 42-42 42s-42-18.804-42-42 18.804-42 42-42 42 18.804 42 42zm-80.64 0c0 21.34 17.3 38.64 38.64 38.64s38.64-17.3 38.64-38.64-17.3-38.64-38.64-38.64-38.64 17.3-38.64 38.64z" fill="#ECF0F4"/><path d="M187 139.434c0-.928.753-1.684 1.68-1.646a42 42 0 11-34.644 67.992c-.575-.728-.406-1.781.344-2.327.751-.545 1.799-.376 2.376.35a38.645 38.645 0 0033.276 14.472 38.64 38.64 0 00-1.352-77.125c-.927-.04-1.68-.788-1.68-1.716z" fill="#0069FF"/><rect x="174" y="169.738" width="26" height="6" rx="3" fill="#ECF0F4"/><rect x="163" y="180.738" width="48" height="10" rx="5" fill="#ECF0F4"/></g><defs><linearGradient id="paint0_linear_1628_11052" x1="110" y1="38.246" x2="110" y2="118.246" gradientUnits="userSpaceOnUse"><stop stop-color="#0069FF"/><stop offset=".844" stop-color="#0069FF" stop-opacity=".1"/></linearGradient><filter id="filter0_d_1628_11052" x="15" y="112.754" width="250" height="154" filterUnits="userSpaceOnUse" color-interpolation-filters="sRGB"><feFlood flood-opacity="0" result="BackgroundImageFix"/><feColorMatrix in="SourceAlpha" values="0 0 0 0 0 0 0 0 0 0 0 0 0 0 0 0 0 0 127 0" result="hardAlpha"/><feOffset dy="10"/><feGaussianBlur stdDeviation="7.5"/><feComposite in2="hardAlpha" operator="out"/><feColorMatrix values="0 0 0 0 0 0 0 0 0 0 0 0 0 0 0 0 0 0 0.09 0"/><feBlend in2="BackgroundImageFix" result="effect1_dropShadow_1628_11052"/><feBlend in="SourceGraphic" in2="effect1_dropShadow_1628_11052" result="shape"/></filter></defs></svg>