<svg width="39" height="39" fill="none" xmlns="http://www.w3.org/2000/svg"><path d="M37.147 21.875l-7.125-7.125-1.68 1.68 4.259 4.258H20.52v2.375H32.6l-4.259 4.258L30.022 29l7.125-7.125zm-24.938-4.75a4.75 4.75 0 110-9.5 4.75 4.75 0 010 9.5zm0-7.125a2.376 2.376 0 10-.005 4.751A2.376 2.376 0 0012.21 10z" fill="#0069FF"/><path d="M25.342 30.188l-3.564 3.562L5.084 17.055V5.25H16.89l8.312 8.313 1.68-1.68-8.314-8.312a2.375 2.375 0 00-1.679-.696H5.084A2.375 2.375 0 002.709 5.25v11.805c0 .63.25 1.234.696 1.68L20.098 35.43a2.376 2.376 0 003.36 0l3.563-3.563-1.68-1.68z" fill="#0069FF"/></svg>