<svg width="38" height="39" fill="none" xmlns="http://www.w3.org/2000/svg"><path d="M22.213 33.257a6.248 6.248 0 01-4.42-10.668l1.68 1.68a3.876 3.876 0 005.48 5.481l7.161-7.16a3.875 3.875 0 10-5.481-5.482l-1.68-1.679a6.251 6.251 0 018.84 8.84l-7.16 7.16a6.229 6.229 0 01-4.42 1.828z" fill="#0069FF"/><path d="M12.189 36.122a6.249 6.249 0 01-4.42-10.668l7.16-7.16a6.253 6.253 0 018.857-.018 6.25 6.25 0 01-.017 8.857l-1.68-1.68a3.876 3.876 0 10-5.48-5.48l-7.161 7.16a3.876 3.876 0 005.48 5.482l1.68 1.679a6.229 6.229 0 01-4.42 1.828zm-.314-23.747h-9.5v2.375h9.5v-2.375zm4.75-4.75H2.375V10h14.25V7.625zm0-4.75H2.375V5.25h14.25V2.875z" fill="#0069FF"/></svg>