<svg width="39" height="39" fill="none" xmlns="http://www.w3.org/2000/svg"><path d="M33.917 31.375h-28.5v2.375h28.5v-2.375zm0-8.312h-28.5v2.375h28.5v-2.375zm-19-15.438v7.125H7.792V7.625h7.125zm0-2.375H7.792a2.375 2.375 0 00-2.375 2.375v7.125a2.375 2.375 0 002.375 2.375h7.125a2.375 2.375 0 002.375-2.375V7.625a2.375 2.375 0 00-2.375-2.375zm16.625 2.375v7.125h-7.125V7.625h7.125zm0-2.375h-7.125a2.375 2.375 0 00-2.375 2.375v7.125a2.375 2.375 0 002.375 2.375h7.125a2.375 2.375 0 002.375-2.375V7.625a2.375 2.375 0 00-2.375-2.375z" fill="#0069FF"/></svg>