<svg width="150" height="30" fill="none" xmlns="http://www.w3.org/2000/svg"><path d="M12.4 25.722l-5.455-9.556h10.931L12.4 25.722z" fill="#006196"/><path d="M17.876 16.166H6.946l5.453-9.556 5.477 9.556z" fill="#2BA8E0"/><path d="M13.89 4h10.931l-6.945 12.166-5.454-9.556L13.891 4z" fill="#006196"/><path d="M10.908 4l1.491 2.61-5.454 9.556L0 4h10.908z" fill="#6ECFF5"/><path d="M80.314 15.607v-.187c0-3.729 2.657-6.223 5.896-6.223 2.54 0 4.895 1.166 5.268 4.265h-1.911c-.303-1.934-1.702-2.657-3.38-2.657-2.214 0-3.915 1.772-3.915 4.638v.187c0 2.983 1.631 4.568 3.985 4.568 1.725 0 3.286-1.002 3.496-2.983h1.795c-.257 2.633-2.378 4.591-5.291 4.591-3.38-.023-5.943-2.424-5.943-6.2zm12.935-6.2h1.934v2.19c.77-1.374 1.818-2.33 4.01-2.4v1.818c-2.448.117-4.01.886-4.01 3.892v6.666H93.25V9.407zm6.269 6.2v-.187c0-3.682 2.354-6.223 5.687-6.223 2.82 0 5.477 1.702 5.477 6.037v.629h-9.159c.093 2.773 1.421 4.312 3.915 4.312 1.888 0 2.983-.7 3.24-2.121h1.934c-.419 2.447-2.447 3.729-5.174 3.729-3.472 0-5.92-2.424-5.92-6.177zm9.183-1.306c-.186-2.517-1.491-3.519-3.496-3.519-1.981 0-3.309 1.352-3.636 3.52h7.132zm19.158 4.219v-7.481h-1.748V9.407h1.748V6.634h1.934v2.773h2.844v1.632h-2.844v7.294c0 1.189.536 1.772 1.515 1.772.606 0 1.072-.094 1.492-.257v1.632c-.396.14-.862.256-1.655.256-2.214 0-3.286-1.305-3.286-3.216zm5.547-2.913v-.187c0-3.682 2.354-6.223 5.687-6.223 2.82 0 5.477 1.702 5.477 6.037v.629h-9.16c.093 2.773 1.422 4.312 3.916 4.312 1.888 0 2.983-.7 3.239-2.121h1.935c-.42 2.447-2.447 3.729-5.174 3.729-3.473 0-5.92-2.424-5.92-6.177zm9.183-1.306c-.187-2.517-1.492-3.519-3.496-3.519-1.981 0-3.31 1.352-3.636 3.52h7.132zM34.587 18.077l-2.914-8.716h-3.612l4.452 12.189h3.798L40.74 9.36h-3.263l-2.89 8.717zm17.48-4.102c-1.772-.256-2.354-.56-2.354-1.328 0-.746.629-1.259 1.724-1.259.583 0 1.003.117 1.329.35.303.233.49.606.582 1.119h3.1c-.303-2.797-2.33-3.776-5.034-3.776-2.494 0-4.824 1.258-4.824 3.799 0 2.377 1.258 3.31 4.498 3.799 1.748.256 2.47.606 2.47 1.445 0 .839-.606 1.328-1.91 1.328-.723 0-1.236-.163-1.563-.443-.326-.303-.512-.722-.582-1.282h-3.147c.117 2.634 2.028 4.08 5.314 4.08 3.217 0 5.128-1.376 5.128-4.01 0-2.61-1.678-3.379-4.731-3.822zm9.951 3.682v-5.896h2.564v-2.4h-2.564V6.633h-3.356V9.36h-1.561v2.401h1.561v6.2c0 2.54 1.375 3.822 3.916 3.822.909 0 1.585-.163 2.05-.327v-2.61c-.395.163-.768.233-1.281.233-.84.023-1.329-.443-1.329-1.422zm12.959-6.479c-.536-.955-1.865-2.097-4.056-2.097-3.379 0-6.013 2.54-6.013 6.34 0 3.402 2.145 6.362 6.013 6.362 1.678 0 3.287-.653 4.056-2.075v1.818h3.1V9.36h-3.1v1.818zm.07 4.475a3.628 3.628 0 01-.583 1.725c-.536.839-1.445 1.515-2.937 1.515-2.517 0-3.496-2.144-3.496-3.38v-.023c0-1.538 1.072-3.473 3.473-3.473 1.771 0 2.727.956 3.193 1.865.256.56.396 1.165.35 1.771zM45.261 9.36h-3.333v12.19h3.333V9.36zm-1.864-4.917a1.885 1.885 0 00-1.678 1.678 1.865 1.865 0 002.05 2.05 1.885 1.885 0 001.679-1.677 1.887 1.887 0 00-2.051-2.051zm79.171 17.13V19.71c-1.118 1.305-2.54 2.097-4.311 2.097-3.823 0-6.293-2.657-6.293-6.34 0-3.658 2.564-6.245 5.99-6.245 2.191 0 3.869.909 4.614 2.284V9.43h1.935v12.166h-1.935v-.023zm-4.311-10.744c-2.611 0-4.312 1.958-4.312 4.521 0 2.82 1.678 4.825 4.312 4.825 2.61 0 4.335-2.051 4.335-4.825 0-2.587-1.725-4.521-4.335-4.521zm28.503 9.299h-.582v-.256h1.491v.256h-.582v1.655h-.327v-1.655zm1.259-.256h.466l.536 1.351.513-1.351H150v1.91h-.326v-1.49l-.606 1.49h-.117l-.629-1.49v1.49h-.303v-1.91z" fill="#000"/></svg>