<svg width="61" height="30" fill="none" xmlns="http://www.w3.org/2000/svg"><g clip-path="url(#clip0_629_3292)"><path fill-rule="evenodd" clip-rule="evenodd" d="M.957 1.72a3.504 3.504 0 001.26 4.746L8.01 9.87v6.847c0 1.907 1.539 3.467 3.42 3.467 1.88 0 3.42-1.56 3.42-3.467V8.048c0-.541-.129-1.061-.343-1.517a3.492 3.492 0 00-1.474-1.733L5.638.464A3.411 3.411 0 00.957 1.72z" fill="#0785DB"/><path d="M18.91 6.965c1.888 0 3.42-1.552 3.42-3.467S20.797.03 18.91.03c-1.889 0-3.42 1.552-3.42 3.467s1.531 3.467 3.42 3.467z" fill="#6BB6FF"/><path d="M25.3 25.601l1.39-3.077-4.446-9.297h2.8l2.992 6.675 2.8-6.675h2.629L26.839 28.05c-1.24 0-2.052-1.3-1.539-2.449zm13.23-12.699c.792 0 1.497.152 2.16.434a5.246 5.246 0 011.71 1.17c.491.498.854 1.083 1.132 1.755.278.672.406 1.43.406 2.232 0 .802-.128 1.56-.406 2.232-.278.694-.641 1.279-1.133 1.777a5.248 5.248 0 01-1.71 1.17 5.413 5.413 0 01-2.158.434c-.77 0-1.475-.152-2.137-.434a5.03 5.03 0 01-1.71-1.17 5.196 5.196 0 01-1.112-1.777c-.278-.693-.406-1.43-.406-2.232 0-.802.129-1.56.406-2.232a5.681 5.681 0 011.112-1.755 5.03 5.03 0 011.71-1.17c.662-.304 1.367-.434 2.137-.434zm0 8.95c.386 0 .749-.065 1.09-.217a3.04 3.04 0 00.941-.65 2.76 2.76 0 00.642-1.062 4.3 4.3 0 00.235-1.451 4.3 4.3 0 00-.236-1.452 2.836 2.836 0 00-.64-1.04c-.279-.282-.578-.499-.941-.629a3.055 3.055 0 00-1.09-.217 2.65 2.65 0 00-1.09.217c-.342.13-.663.347-.92.628a3.55 3.55 0 00-.64 1.04c-.171.412-.257.89-.257 1.453 0 .541.086 1.04.257 1.451.17.412.384.78.64 1.062.257.282.578.499.92.65.342.13.705.217 1.09.217zm6.947 1.928V10.13c0-1.127.898-2.037 2.01-2.037h.47V21.81c0 1.083-.877 1.972-1.945 1.972h-.535zm9.403-10.878c.791 0 1.497.152 2.16.434a5.245 5.245 0 011.71 1.17c.49.498.854 1.083 1.132 1.755.278.672.406 1.43.406 2.232 0 .802-.128 1.56-.406 2.232-.278.694-.641 1.279-1.133 1.777a5.247 5.247 0 01-1.71 1.17 5.413 5.413 0 01-2.158.434c-.77 0-1.475-.152-2.138-.434a5.03 5.03 0 01-1.71-1.17 5.196 5.196 0 01-1.11-1.777c-.279-.693-.407-1.43-.407-2.232 0-.802.128-1.56.406-2.232a5.681 5.681 0 011.111-1.755 5.03 5.03 0 011.71-1.17c.663-.304 1.368-.434 2.138-.434zm0 8.95a2.64 2.64 0 001.09-.217 3.04 3.04 0 00.941-.65c.278-.282.492-.628.641-1.062a4.3 4.3 0 00.235-1.451 4.3 4.3 0 00-.235-1.452 2.836 2.836 0 00-.64-1.04c-.279-.282-.578-.499-.941-.629a3.056 3.056 0 00-1.09-.217 2.65 2.65 0 00-1.09.217c-.342.13-.663.347-.92.628a3.55 3.55 0 00-.64 1.04c-.172.412-.257.89-.257 1.453 0 .541.086 1.04.257 1.451.17.412.384.78.64 1.062.257.282.578.499.92.65.342.13.705.217 1.09.217zm-20.902 7.086a.676.676 0 00.193.39c.107.109.256.152.427.152.47 0 .706-.26.706-.758v-.26a.742.742 0 01-.257.26.983.983 0 01-.449.108c-.17 0-.32-.022-.47-.087a1.12 1.12 0 01-.363-.26.91.91 0 01-.235-.39 1.286 1.286 0 01-.086-.498c0-.174.021-.325.086-.477.064-.152.128-.282.235-.39a1.13 1.13 0 01.363-.26c.15-.065.3-.108.47-.108a.94.94 0 01.47.108.502.502 0 01.257.26v-.325h.577V28.7c0 .173-.021.325-.064.498a1.249 1.249 0 01-.214.412.989.989 0 01-.385.282c-.17.065-.363.108-.598.108-.17 0-.32-.022-.449-.065a1.183 1.183 0 01-.363-.195.879.879 0 01-.257-.303 1.261 1.261 0 01-.128-.369l.534-.13zm.706-.607a.624.624 0 00.47-.194c.128-.13.171-.304.171-.52 0-.109-.021-.196-.043-.304a.925.925 0 00-.128-.217 1.175 1.175 0 00-.192-.151c-.086-.044-.171-.044-.257-.044a.624.624 0 00-.47.195.708.708 0 00-.192.52c0 .217.064.39.17.52.129.13.279.195.47.195zm3.206-1.321c-.065 0-.129-.022-.193-.022-.235 0-.406.065-.513.195-.107.13-.171.303-.171.542v1.213h-.598v-2.535h.577v.412a.806.806 0 01.277-.326c.129-.086.278-.108.45-.108h.169v.628zm1.367-.672c.193 0 .364.043.513.108.15.065.3.152.406.282.107.13.214.26.278.433.064.173.107.347.107.542 0 .195-.043.368-.107.542a1.16 1.16 0 01-.278.433 1.06 1.06 0 01-.406.282 1.276 1.276 0 01-1.026 0 1.06 1.06 0 01-.406-.282 1.517 1.517 0 01-.278-.433 1.525 1.525 0 01-.106-.542c0-.195.042-.369.106-.542.065-.173.15-.303.278-.433a1.06 1.06 0 01.406-.282 1.36 1.36 0 01.513-.108zm0 2.145c.086 0 .171-.022.257-.043a.767.767 0 00.214-.152.752.752 0 00.15-.26.908.908 0 00.063-.347.909.909 0 00-.064-.347 1.031 1.031 0 00-.15-.26c-.064-.086-.149-.108-.213-.151-.086-.044-.171-.044-.257-.044-.085 0-.17.022-.256.044a.769.769 0 00-.214.151.75.75 0 00-.15.26.909.909 0 00-.064.347c0 .13.022.238.065.347a.749.749 0 00.15.26.767.767 0 00.213.152c.085.021.17.043.256.043zm3.292.195a.604.604 0 01-.3.26c-.15.065-.277.087-.427.087a.857.857 0 01-.406-.087.964.964 0 01-.3-.216.816.816 0 01-.192-.326 1.24 1.24 0 01-.064-.39v-1.603h.599v1.495c0 .087 0 .152.021.217a.44.44 0 00.086.173.871.871 0 00.15.13.76.76 0 00.234.043c.171 0 .3-.043.385-.151a.63.63 0 00.128-.412v-1.495h.599v2.362c0 .087.021.151.021.195h-.577c0-.022-.022-.065-.022-.13s.065-.108.065-.152zm1.133 1.257v-3.51h.577v.346a.949.949 0 01.3-.282c.127-.086.298-.108.49-.108.193 0 .343.043.492.108.15.066.257.152.364.282.106.108.17.26.213.412.043.152.086.325.086.52s-.022.368-.086.52c-.064.152-.128.303-.235.412a1.1 1.1 0 01-.855.39c-.17 0-.342-.043-.47-.109a.862.862 0 01-.3-.238v1.279h-.576v-.022zm1.945-2.254c0-.238-.064-.433-.193-.563a.587.587 0 00-.491-.217.585.585 0 00-.278.065.764.764 0 00-.214.152.519.519 0 00-.128.238c-.043.087-.043.195-.043.325 0 .239.064.434.192.585a.587.587 0 00.492.217.615.615 0 00.492-.217.996.996 0 00.17-.585z" fill="#000"/></g><defs><clipPath id="clip0_629_3292"><path fill="#fff" transform="translate(.5)" d="M0 0h60v30H0z"/></clipPath></defs></svg>