<svg width="139" height="51" fill="none" xmlns="http://www.w3.org/2000/svg"><path d="M7.084 21.636v-3.709h2.299V8.591H7.084V4.626h11.622v3.965h-2.299v9.336h2.299v3.71H7.084zm22.733 0v-3.709h1.532V14.09c0-1.15-.766-1.662-1.916-1.662-1.277 0-2.299.895-2.426 2.174v3.325h1.66v3.71h-8.94v-3.71h1.533v-5.5h-1.533V8.72h7.152v2.558l.383-.384c1.15-1.407 3.065-2.174 4.853-2.046 2.81 0 5.109 1.15 5.109 4.22v4.86h1.532v3.71h-8.94z" fill="#fff"/><path d="M53.571 14.09l-4.98.512c0-1.407-.384-2.814-2.044-2.814-2.171 0-2.299 1.79-2.299 3.454 0 1.79.128 3.58 2.3 3.58 1.02.129 2.042-.639 2.17-1.79v-.256H53.7v.384c-.766 4.093-4.47 4.732-7.024 4.732-4.087 0-8.174-2.046-8.174-6.65 0-4.605 4.087-6.65 8.174-6.65-.128.127 6.386-.257 6.896 5.498z" fill="#fff"/><path d="M57.403 19.59a2.019 2.019 0 01-2.044 2.046 2.019 2.019 0 01-2.043-2.046c0-1.151.894-2.046 2.043-2.046 1.15 0 2.044.895 2.044 2.046zm-33.972 6.474c-4.98 0-7.79 3.325-7.79 9.848 0 6.522 2.81 9.848 7.79 9.848 4.981 0 7.791-3.326 7.791-9.848 0-6.523-2.937-9.848-7.79-9.848zm0 15.73c-1.788 0-2.17-1.79-2.17-5.882 0-4.093.383-5.883 2.17-5.883 1.788 0 2.172 1.79 2.172 5.883 0 4.092-.384 5.883-2.172 5.883zm16.475-15.73c-4.98 0-7.79 3.325-7.79 9.848 0 6.522 2.81 9.848 7.79 9.848 4.981 0 7.79-3.326 7.79-9.848 0-6.523-2.937-9.848-7.79-9.848zm0 15.73c-1.788 0-2.17-1.79-2.17-5.882 0-4.093.382-5.883 2.17-5.883 1.788 0 2.171 1.79 2.171 5.883 0 4.092-.383 5.883-2.17 5.883zm16.475-15.73c-4.98 0-7.79 3.325-7.79 9.848 0 6.522 2.81 9.848 7.79 9.848s7.79-3.326 7.79-9.848c0-6.523-2.937-9.848-7.79-9.848zm0 15.73c-1.788 0-2.171-1.79-2.171-5.882 0-4.093.383-5.883 2.171-5.883 1.788 0 2.171 1.79 2.171 5.883 0 4.092-.383 5.883-2.17 5.883zm-43.039-7.801c-1.277-1.023-2.81-1.662-4.47-1.535-1.277 0-2.682.384-3.576 1.28l.383-3.07h8.046v-4.476H1.975L.699 35.144l3.449 1.79c.894-.767 1.915-1.278 3.065-1.278.638 0 1.15.256 1.66.64.639.639.894 1.534.894 2.43 0 .383 0 .767-.128 1.023-.127 1.15-1.15 1.918-2.299 1.79-2.17 0-2.043-2.686-1.532-3.709L.315 40.772c.383 3.453 3.96 5.115 6.897 5.115 2.043 0 3.959-.64 5.364-1.918.51-.512 1.021-1.023 1.404-1.79.639-1.024.894-2.303.894-3.454.256-1.79-.383-3.453-1.532-4.732z" fill="#fff"/><g clip-path="url(#clip0_2399_14373)" fill="#fff"><path d="M97.699 12.986V6.908a.7.7 0 01.76-.706.686.686 0 01.7.706v6.078a.72.72 0 01-.708.706.732.732 0 01-.76-.703v-.003M95.85 6.908v6.078a2.584 2.584 0 005.165 0V6.908a2.55 2.55 0 00-2.547-2.551h-.008a2.563 2.563 0 00-2.61 2.55zm20.062-2.444h-5.218V6.31h1.684v9.064h1.849V6.31h1.685V4.464zm5.437.001v8.521a.712.712 0 01-1.424 0V4.465h-1.902v8.521a2.61 2.61 0 005.218 0V4.465h-1.892zm16.909 1.845V4.464h-4.567v10.91h4.567V13.53h-2.72v-2.823h1.739V8.86h-1.739V6.31h2.72zm-29.306 9.064h-1.957l-1.359-5.157s1.197-.215 1.197-1.464V7.07a.743.743 0 00-.757-.76h-.712v9.064h-1.847V4.464h2.559a2.588 2.588 0 012.606 2.499v1.735c0 1.086-.381 1.845-1.034 2.388l1.304 4.288zm20.607-10.91v5.971l-1.904-5.97h-1.902v10.91h1.902v-5.32l1.74 5.32h2.067V4.464h-1.903zm-38.004.163h-1.957v10.91h1.957v-4.669h1.794V9.023h-1.794v-2.55h2.828V4.626h-2.828zm13.052 28.698c0-2.798-2.392-5.06-5.338-5.06h-4.514v-5.289h9.824v-4.862H89.653v15.223h8.866a1.017 1.017 0 011.047.985v6.152a1.017 1.017 0 01-1.041.983h-2.732a1.017 1.017 0 01-1.04-.983v-3.865h-5.018v4.475c0 2.795 2.394 5.062 5.34 5.062h4.194c2.946 0 5.338-2.267 5.338-5.062v-7.758zm11.583-15.21h-4.475c-2.891 0-5.232 2.266-5.232 5.06v17.92c0 2.796 2.347 5.062 5.24 5.062h4.475c2.895 0 5.241-2.266 5.241-5.061v-17.92c0-2.795-2.346-5.062-5.241-5.062h-.008zm.289 22.358c-.011.552-.465.99-1.017.983h-3.039a1.002 1.002 0 01-1.017-.983v-16.5a1.03 1.03 0 011.045-.985h3.039a.98.98 0 01.991.97v.015l-.002 16.5zm16.537-22.359h-4.476c-2.892 0-5.238 2.267-5.238 5.062v17.92c0 2.795 2.346 5.06 5.24 5.06h4.476c2.892 0 5.24-2.265 5.24-5.06v-17.92c0-2.795-2.348-5.062-5.24-5.062h-.002zm.287 22.359c-.012.552-.466.99-1.018.983h-3.039a1.003 1.003 0 01-1.017-.983v-16.5a1.031 1.031 0 011.038-.985h3.051a.98.98 0 01.991.967v.018l-.006 16.5z"/></g><defs><clipPath id="clip0_2399_14373"><path fill="#fff" transform="translate(89.171 .5)" d="M0 0h49.513v49.513H0z"/></clipPath></defs></svg>