<svg viewBox="0 0 213 113" xmlns="http://www.w3.org/2000/svg" xmlns:xlink="http://www.w3.org/1999/xlink"><style>:root&gt;svg{display:none}:root&gt;svg:target{display:block}</style><svg viewBox="0 0 14 13" id="sprite--arr-blue" xmlns="http://www.w3.org/2000/svg"><path d="M7.75 1.25L13 6.5l-5.25 5.25M1 6.5h12H1z"/></svg><svg fill="none" viewBox="0 0 63 37" id="sprite--arr-gray" xmlns="http://www.w3.org/2000/svg"><path fill-rule="evenodd" clip-rule="evenodd" d="M1.572 1.262c11.826 21.953 36.73 25.643 59.38 20.299a.725.725 0 01.332 1.41C38 28.468 12.454 24.517.296 1.949a.724.724 0 111.276-.686z" fill="#95A0AA"/><path fill-rule="evenodd" clip-rule="evenodd" d="M60.35 22.491c-1.222-.354-2.762-.783-2.935-.836-4.697-1.456-8.916-3.562-12.974-6.357a.726.726 0 01.823-1.194c3.933 2.711 8.025 4.755 12.58 6.166.266.082 3.728 1.043 4.414 1.29.281.1.41.244.437.28a.7.7 0 01.156.522c-.016.163-.109.427-.395.648-.3.23-1.035.551-1.214.648-2.697 1.46-5.835 2.855-8.47 4.733-2.513 1.79-4.571 4.023-5.242 7.239a.726.726 0 01-1.42-.297c.751-3.595 3.012-6.121 5.82-8.122 2.62-1.867 5.72-3.272 8.42-4.72z" fill="#95A0AA"/></svg><svg fill="none" viewBox="0 0 23 23" id="sprite--arr-little" xmlns="http://www.w3.org/2000/svg"><path d="M17.167 8.75l-5.5 6.875-5.5-6.875h11z" fill="#101828"/></svg><svg fill="none" viewBox="0 0 70 67" id="sprite--arr-long" xmlns="http://www.w3.org/2000/svg"><path fill-rule="evenodd" clip-rule="evenodd" d="M1.932 1.331c4.83 33.06 34.493 49.118 65.46 52.77a.972.972 0 01-.228 1.928C35.33 52.277 4.975 35.597.01 1.611a.97.97 0 111.922-.28z" fill="#95A0AA"/><path fill-rule="evenodd" clip-rule="evenodd" d="M66.697 54.997c-1.377-1.008-3.12-2.252-3.313-2.4-5.247-3.984-9.594-8.569-13.422-13.948a.973.973 0 011.583-1.127c3.71 5.217 7.925 9.665 13.015 13.53.296.225 4.215 3.02 4.965 3.646.308.255.404.495.421.553a.938.938 0 01-.042.728c-.095.199-.333.488-.794.635-.482.152-1.556.22-1.825.26-4.066.602-8.655.921-12.833 2.078-3.985 1.102-7.6 2.97-9.918 6.712a.973.973 0 01-1.651-1.025c2.592-4.183 6.596-6.327 11.05-7.56 4.153-1.149 8.7-1.497 12.764-2.082z" fill="#95A0AA"/></svg><svg viewBox="0 0 14 15" id="sprite--arr-mini" xmlns="http://www.w3.org/2000/svg"><path d="M1.215 7.5H13m0 0L7.107 1.607M13 7.5l-5.893 5.893"/></svg><svg fill="none" viewBox="0 0 14 14" id="sprite--breadcrumbs" xmlns="http://www.w3.org/2000/svg"><path d="M9.625 7L5.25 11.375l-.612-.613L8.4 7 4.638 3.237l.612-.612L9.625 7z" fill="#95A0AA"/></svg><svg fill="none" viewBox="0 0 8 12" id="sprite--btn-arr" xmlns="http://www.w3.org/2000/svg"><path d="M4.805 6L.824 9.982a1.105 1.105 0 001.563 1.563l4.808-4.808a1.042 1.042 0 000-1.474L2.387.455A1.106 1.106 0 00.824 2.018L4.805 6z" fill="#000"/></svg><svg fill="none" viewBox="0 0 30 31" id="sprite--check-30" xmlns="http://www.w3.org/2000/svg"><path d="M26.625 7.25L11.156 23l-7.031-7.16" stroke="#20C845" stroke-width="4" stroke-linecap="round" stroke-linejoin="round"/></svg><svg fill="none" viewBox="0 0 24 24" id="sprite--check-big" xmlns="http://www.w3.org/2000/svg"><path d="M18.667 8L9.5 17.333l-4.167-4.242" stroke="#20C845" stroke-width="2" stroke-linecap="round" stroke-linejoin="round"/></svg><svg fill="none" viewBox="0 0 18 18" id="sprite--check-blue" xmlns="http://www.w3.org/2000/svg"><rect width="18" height="18" rx="9" fill="#0069FF"/><path d="M12.901 6.48a.852.852 0 00-1.211.007l-3.82 3.892-1.565-1.554a.852.852 0 00-1.21.008.865.865 0 00.007 1.219l2.173 2.16a.848.848 0 001.211-.008l4.422-4.506A.866.866 0 0012.9 6.48z" fill="#fff"/></svg><svg fill="none" viewBox="0 0 16 12" id="sprite--check-mini" xmlns="http://www.w3.org/2000/svg"><path d="M14.667 1L5.5 10.333 1.333 6.091" stroke="#20C845" stroke-width="2" stroke-linecap="round" stroke-linejoin="round"/></svg><svg fill="none" viewBox="0 0 24 24" id="sprite--close-dark" xmlns="http://www.w3.org/2000/svg"><path d="M6.217 18.217L17.531 6.904M6.283 6.717l11.314 11.314" stroke="#1D2C4C" stroke-width="1.5"/></svg><svg fill="none" viewBox="0 0 13 14" id="sprite--close-red" xmlns="http://www.w3.org/2000/svg"><path d="M.979 12.333l11.15-11.15M1.044 1l11.15 11.15" stroke="#FF002E" stroke-width="2" stroke-linejoin="round"/></svg><svg fill="none" viewBox="0 0 24 24" id="sprite--close-white" xmlns="http://www.w3.org/2000/svg"><path d="M6.217 18.217L17.531 6.904M6.283 6.717l11.313 11.314" stroke="#fff" stroke-width="1.5"/></svg><svg fill="none" viewBox="0 0 14 13" id="sprite--comm" xmlns="http://www.w3.org/2000/svg"><path d="M2.5 10A2.167 2.167 0 01.333 7.833V2.167C.333.97 1.303 0 2.5 0h9c1.197 0 2.167.97 2.167 2.167v5.666c0 1.197-.97 2.167-2.167 2.167H7.643l-3.59 2.545A.667.667 0 013 12v-2h-.5z" fill="#0069FF"/></svg><svg fill="none" viewBox="0 0 14 13" id="sprite--comm-gray" xmlns="http://www.w3.org/2000/svg"><path d="M2.5 10A2.167 2.167 0 01.333 7.833V2.167C.333.97 1.303 0 2.5 0h9c1.197 0 2.167.97 2.167 2.167v5.666c0 1.197-.97 2.167-2.167 2.167H7.643l-3.59 2.545A.667.667 0 013 12v-2h-.5z" fill="#C0C8D0"/></svg><svg viewBox="0 0 26 26" id="sprite--facebook" xmlns="http://www.w3.org/2000/svg"><path d="M24.132 13c0-6.075-4.926-11-11-11-6.075 0-11 4.925-11 11 0 5.49 4.022 10.04 9.281 10.867V16.18H8.62V13h2.793v-2.424c0-2.757 1.643-4.28 4.155-4.28 1.204 0 2.463.215 2.463.215v2.707h-1.388c-1.366 0-1.793.848-1.793 1.718V13h3.05l-.486 3.18H14.85v7.687c5.26-.825 9.282-5.376 9.282-10.867z"/></svg><svg fill="none" viewBox="0 0 16 16" id="sprite--false" xmlns="http://www.w3.org/2000/svg"><path d="M8 .5C3.86.5.5 3.86.5 8c0 4.14 3.36 7.5 7.5 7.5 4.14 0 7.5-3.36 7.5-7.5C15.5 3.86 12.14.5 8 .5zm.75 11.25h-1.5v-1.5h1.5v1.5zm0-3h-1.5v-4.5h1.5v4.5z" fill="#FF002E"/></svg><svg fill="none" viewBox="0 0 18 19" id="sprite--green-check" xmlns="http://www.w3.org/2000/svg"><rect y=".5" width="18" height="18" rx="9" fill="#20C845"/><path d="M12.9 6.98a.852.852 0 00-1.21.007l-3.821 3.892-1.564-1.554a.852.852 0 00-1.211.008.865.865 0 00.008 1.219l2.172 2.16a.848.848 0 001.211-.008l4.422-4.506A.866.866 0 0012.9 6.98z" fill="#fff"/></svg><svg fill="none" viewBox="0 0 16 16" id="sprite--hamburger" xmlns="http://www.w3.org/2000/svg"><path fill="#fff" style="mix-blend-mode:multiply" d="M0 0h16v16H0z"/><rect y="1" width="16" height="1.5" rx=".75" fill="#101828"/><rect y="7" width="16" height="1.5" rx=".75" fill="#101828"/><rect y="13" width="16" height="1.5" rx=".75" fill="#101828"/></svg><svg fill="none" viewBox="0 0 50 51" id="sprite--icon-success" xmlns="http://www.w3.org/2000/svg"><rect y=".5" width="50" height="50" rx="25" fill="#0069FF" fill-opacity=".1"/><path d="M33 19.9L22 31.1l-5-5.091" stroke="#0069FF" stroke-width="3" stroke-linecap="round" stroke-linejoin="round"/></svg><svg fill="none" viewBox="0 0 32 32" id="sprite--imessage" xmlns="http://www.w3.org/2000/svg"><g clip-path="url(#avclip0_1186_7137)"><g clip-path="url(#avclip1_1186_7137)"><path d="M24.952 0H7.048A7.048 7.048 0 000 7.048v17.904A7.048 7.048 0 007.048 32h17.904A7.048 7.048 0 0032 24.952V7.048A7.048 7.048 0 0024.952 0z" fill="url(#avpaint0_linear_1186_7137)"/></g><path d="M16 8c-2.387 0-4.676.784-6.364 2.18C7.948 11.575 7 13.468 7 15.44c.002 1.284.406 2.545 1.172 3.662.766 1.117 1.869 2.05 3.2 2.71A7.07 7.07 0 019.8 24a9.68 9.68 0 003.655-1.425c.826.203 1.684.306 2.546.308 2.387 0 4.676-.784 6.364-2.18C24.052 19.308 25 17.415 25 15.441c0-1.973-.948-3.866-2.636-5.261C20.676 8.784 18.387 8 16 8z" fill="#fff"/></g><defs><clipPath id="avclip0_1186_7137"><path fill="#fff" d="M0 0h32v32H0z"/></clipPath><clipPath id="avclip1_1186_7137"><rect width="32" height="32" rx="16" fill="#fff"/></clipPath><linearGradient id="avpaint0_linear_1186_7137" x1="16.254" y1="29.876" x2="16.254" y2="3.971" gradientUnits="userSpaceOnUse"><stop stop-color="#0CBD2A"/><stop offset="1" stop-color="#5BF675"/></linearGradient></defs></svg><svg viewBox="0 0 26 26" id="sprite--instagram" xmlns="http://www.w3.org/2000/svg"><g clip-path="url(#awclip0_629_5861)"><path d="M18.204 8.965a1.17 1.17 0 100-2.34 1.17 1.17 0 000 2.34zM13 7.993a5.007 5.007 0 100 10.014 5.007 5.007 0 000-10.014zm0 8.257a3.25 3.25 0 110-6.5 3.25 3.25 0 010 6.5z"/><path d="M13 5.007c2.603 0 2.912.01 3.94.057.618.007 1.23.12 1.81.335a3.23 3.23 0 011.85 1.85c.215.58.33 1.193.336 1.811.047 1.028.057 1.337.057 3.94 0 2.603-.01 2.912-.057 3.94a5.395 5.395 0 01-.335 1.81 3.23 3.23 0 01-1.85 1.85 5.397 5.397 0 01-1.811.336c-1.028.047-1.336.057-3.94.057s-2.912-.01-3.94-.056a5.398 5.398 0 01-1.81-.336 3.23 3.23 0 01-1.85-1.85 5.396 5.396 0 01-.336-1.811c-.047-1.028-.057-1.337-.057-3.94 0-2.603.01-2.912.057-3.94.007-.618.12-1.23.335-1.81A3.23 3.23 0 017.25 5.4a5.396 5.396 0 011.811-.336c1.028-.047 1.337-.057 3.94-.057m0-1.757c-2.648 0-2.98.011-4.02.059a7.155 7.155 0 00-2.366.453 4.986 4.986 0 00-2.852 2.852A7.155 7.155 0 003.31 8.98c-.05 1.04-.06 1.372-.06 4.02 0 2.648.011 2.98.059 4.02.016.809.17 1.609.453 2.367a4.986 4.986 0 002.852 2.851 7.153 7.153 0 002.366.454c1.04.047 1.372.058 4.02.058 2.648 0 2.98-.011 4.02-.059a7.156 7.156 0 002.367-.453 4.986 4.986 0 002.851-2.852 7.155 7.155 0 00.454-2.366c.047-1.04.058-1.372.058-4.02 0-2.648-.011-2.98-.059-4.02a7.153 7.153 0 00-.453-2.366 4.985 4.985 0 00-2.852-2.852 7.156 7.156 0 00-2.366-.453c-1.04-.048-1.372-.059-4.02-.059z"/></g><defs><clipPath id="awclip0_629_5861"><path d="M0 0h26v26H0z"/></clipPath></defs></svg><svg fill="none" viewBox="0 0 213 113" id="sprite--lines" xmlns="http://www.w3.org/2000/svg"><rect y=".359" width="213" height="26" rx="13" fill="#101828" fill-opacity=".05"/><rect y="34.359" width="168" height="14" rx="7" fill="#101828" fill-opacity=".05"/><rect y="68.359" width="168" height="8" rx="4" fill="#101828" fill-opacity=".05"/><rect y="86.359" width="168" height="8" rx="4" fill="#101828" fill-opacity=".05"/><rect y="104.359" width="168" height="8" rx="4" fill="#101828" fill-opacity=".05"/></svg><svg viewBox="0 0 26 26" id="sprite--linkedin" xmlns="http://www.w3.org/2000/svg"><g clip-path="url(#ayclip0_629_5867)"><path d="M7.082 8.812a1.94 1.94 0 01-1.925-1.933c0-1.105.825-1.933 1.925-1.933a1.94 1.94 0 011.925 1.933 1.94 1.94 0 01-1.925 1.933zM8.64 20.778H5.432V10.285H8.64v10.493zm12.284-.092h-3.209v-5.155c0-1.196 0-2.853-1.742-2.853-1.741 0-1.925 1.38-1.925 2.67v5.246H10.84v-10.31h3.025v1.381h.092c.458-.828 1.558-1.749 3.116-1.749 3.3 0 3.942 2.21 3.942 5.063v5.707h-.091z"/></g><defs><clipPath id="ayclip0_629_5867"><path d="M0 0h26v26H0z"/></clipPath></defs></svg><svg viewBox="0 0 10 6" id="sprite--menu" xmlns="http://www.w3.org/2000/svg"><path d="M1.928.221l3.443 3.435L8.813.221 9.871 1.28l-4.5 4.5-4.5-4.5L1.928.22z"/></svg><svg fill="none" viewBox="0 0 14 14" id="sprite--menu-aside" xmlns="http://www.w3.org/2000/svg"><path fill-rule="evenodd" clip-rule="evenodd" d="M0 1a1 1 0 011-1h10a1 1 0 110 2H1a1 1 0 01-1-1zm0 6a1 1 0 011-1h12a1 1 0 110 2H1a1 1 0 01-1-1zm1 5a1 1 0 100 2h6a1 1 0 100-2H1z" fill="#0069FF"/></svg><svg fill="none" viewBox="0 0 154 87" id="sprite--quoke" xmlns="http://www.w3.org/2000/svg"><path d="M33.702.333h46.743L47.186 87H.445L33.702.333zm73.334 0h46.742L120.52 87H73.778L107.036.333z" fill="#0F55DC" fill-opacity=".07"/></svg><svg fill="none" viewBox="0 0 31 30" id="sprite--quote-mini" xmlns="http://www.w3.org/2000/svg"><path d="M9.322 8h7.011l-4.989 13H4.333L9.322 8zm11 0h7.011l-4.989 13h-7.011l4.989-13z" fill="#C0C8D0"/></svg><svg fill="none" viewBox="0 0 12 13" id="sprite--reply" xmlns="http://www.w3.org/2000/svg"><path d="M2.4 10.7V8.906A2.4 2.4 0 014.8 6.5h1.8v3l3.6-3.6-3.6-3.6v3H4.8a3.6 3.6 0 00-3.6 3.6v1.8h1.2z" fill="#C0C8D0"/></svg><svg fill="none" viewBox="0 0 18 18" id="sprite--share" xmlns="http://www.w3.org/2000/svg"><path fill-rule="evenodd" clip-rule="evenodd" d="M15.75 8.25V15a1.5 1.5 0 01-1.5 1.5H3.75a1.5 1.5 0 01-1.5-1.5V8.25h1.5V15h10.5V8.25h1.5zm-6-4.19V12h-1.5V4.06L5.78 6.53 4.72 5.47 9 1.19l4.28 4.28-1.06 1.06-2.47-2.47z" fill="#101828"/></svg><svg fill="none" viewBox="0 0 11 18" id="sprite--slider-black" xmlns="http://www.w3.org/2000/svg"><path d="M10.25 9L1.5 17.75.275 16.525 7.8 9 .275 1.475 1.5.25 10.25 9z" fill="#101828"/></svg><svg fill="none" viewBox="0 0 11 18" id="sprite--slider-blue" xmlns="http://www.w3.org/2000/svg"><path d="M10.25 9L1.5 17.75.275 16.525 7.8 9 .275 1.475 1.5.25 10.25 9z" fill="#0069FF"/></svg><svg fill="none" viewBox="0 0 16 16" id="sprite--star" xmlns="http://www.w3.org/2000/svg"><path d="M8 0l2.472 5.266 5.528.85-4 4.096.944 5.788L8 13.266 3.056 16 4 10.212 0 6.116l5.528-.85L8 0z" fill="#FFD600"/></svg><svg fill="none" viewBox="0 0 32 32" id="sprite--telegram" xmlns="http://www.w3.org/2000/svg"><g clip-path="url(#biclip0_1186_7160)"><path d="M16 32c8.837 0 16-7.163 16-16S24.837 0 16 0 0 7.163 0 16s7.163 16 16 16z" fill="url(#bipaint0_linear_1186_7160)"/><path d="M10.83 17.17l1.899 5.254s.237.491.491.491 4.034-3.932 4.034-3.932l4.204-8.119-10.56 4.95-.067 1.356z" fill="#C8DAEA"/><path d="M13.348 18.517l-.365 3.873s-.152 1.187 1.034 0 2.322-2.102 2.322-2.102" fill="#A9C6D8"/><path d="M10.865 17.357L6.96 16.085s-.467-.19-.316-.619c.03-.088.093-.164.28-.293.865-.603 16.014-6.048 16.014-6.048s.428-.144.68-.048a.369.369 0 01.251.274c.027.112.039.228.034.344-.001.1-.013.193-.023.34-.092 1.488-2.853 12.598-2.853 12.598s-.165.65-.757.673a1.085 1.085 0 01-.79-.306c-1.162-.999-5.176-3.697-6.063-4.29a.168.168 0 01-.073-.12c-.012-.063.056-.14.056-.14s6.99-6.213 7.176-6.866c.014-.05-.04-.075-.113-.053-.464.17-8.513 5.253-9.4 5.814a.426.426 0 01-.198.012z" fill="#fff"/></g><defs><linearGradient id="bipaint0_linear_1186_7160" x1="16" y1="32" x2="16" y2="0" gradientUnits="userSpaceOnUse"><stop stop-color="#1D93D2"/><stop offset="1" stop-color="#38B0E3"/></linearGradient><clipPath id="biclip0_1186_7160"><path fill="#fff" d="M0 0h32v32H0z"/></clipPath></defs></svg><svg fill="none" viewBox="0 0 16 17" id="sprite--timer" xmlns="http://www.w3.org/2000/svg"><g clip-path="url(#bjclip0_1252_6905)" fill="#95A0AA"><path d="M9.04 3.093V1.85h.567a.675.675 0 000-1.35H6.393a.675.675 0 000 1.35h.567v1.243c-3.226.501-5.704 3.298-5.704 6.663A6.751 6.751 0 008 16.5a6.751 6.751 0 006.744-6.744c0-3.365-2.478-6.162-5.704-6.663zM8 15.15a5.4 5.4 0 01-5.393-5.394A5.4 5.4 0 018 4.363a5.4 5.4 0 015.393 5.393A5.4 5.4 0 018 15.15z"/><path d="M8.675 9.476V6.295a.675.675 0 00-1.35 0v3.57c0 .11.044.215.121.293l1.89 1.88a.675.675 0 10.952-.956L8.675 9.476z"/></g><defs><clipPath id="bjclip0_1252_6905"><path fill="#fff" transform="translate(0 .5)" d="M0 0h16v16H0z"/></clipPath></defs></svg><svg viewBox="0 0 26 26" id="sprite--twitter" xmlns="http://www.w3.org/2000/svg"><g clip-path="url(#bkclip0_629_5877)"><path d="M9.685 20.264A10.368 10.368 0 0020.117 9.83v-.48a7.638 7.638 0 001.82-1.892 7.564 7.564 0 01-2.104.577 3.705 3.705 0 001.625-2.032 7.222 7.222 0 01-2.324.894 3.673 3.673 0 00-6.256 3.34A10.391 10.391 0 015.322 6.41a3.664 3.664 0 001.137 4.875 3.633 3.633 0 01-1.625-.455v.04a3.68 3.68 0 002.885 3.616 3.68 3.68 0 01-1.625.065 3.664 3.664 0 003.396 2.51 7.352 7.352 0 01-4.558 1.625 7.932 7.932 0 01-.87-.073 10.375 10.375 0 005.623 1.625"/></g><defs><clipPath id="bkclip0_629_5877"><path d="M0 0h26v26H0z"/></clipPath></defs></svg><svg fill="none" viewBox="0 0 32 32" id="sprite--whatsApp" xmlns="http://www.w3.org/2000/svg"><rect width="32" height="32" rx="16" fill="url(#blpaint0_linear_1186_7190)"/><path fill-rule="evenodd" clip-rule="evenodd" d="M22.24 9.909a8.246 8.246 0 00-5.87-2.434c-4.575 0-8.299 3.723-8.3 8.3a8.285 8.285 0 001.107 4.149L8 24.224l4.4-1.154a8.294 8.294 0 003.966 1.01h.003c4.575 0 8.298-3.723 8.3-8.3a8.25 8.25 0 00-2.428-5.871zm-5.87 12.77h-.003a6.888 6.888 0 01-3.511-.962l-.252-.15-2.611.686.697-2.546-.164-.261a6.882 6.882 0 01-1.055-3.672 6.909 6.909 0 016.901-6.897c1.843 0 3.575.719 4.877 2.023a6.857 6.857 0 012.019 4.88c-.002 3.804-3.096 6.899-6.899 6.899zm3.784-5.167c-.208-.104-1.227-.605-1.418-.675-.19-.069-.328-.103-.466.104-.138.208-.536.675-.657.813-.12.139-.242.156-.45.052-.207-.104-.875-.323-1.667-1.03-.616-.549-1.033-1.228-1.154-1.436-.12-.207-.013-.32.091-.423.094-.093.208-.242.312-.363.103-.122.138-.208.207-.346.069-.139.034-.26-.018-.364-.051-.104-.466-1.124-.639-1.54-.168-.404-.34-.35-.466-.356a8.328 8.328 0 00-.398-.007.762.762 0 00-.553.26c-.19.207-.726.709-.726 1.73 0 1.02.743 2.007.847 2.145.104.138 1.462 2.233 3.543 3.131.494.214.88.342 1.182.437.497.158.949.136 1.306.083.399-.06 1.227-.502 1.4-.987.173-.484.173-.9.12-.986-.05-.086-.19-.138-.396-.242z" fill="#fff"/><defs><linearGradient id="blpaint0_linear_1186_7190" x1="16" y1="0" x2="16" y2="32" gradientUnits="userSpaceOnUse"><stop stop-color="#5EFB7A"/><stop offset="1" stop-color="#27D145"/></linearGradient></defs></svg><svg viewBox="0 0 26 26" id="sprite--youtube" xmlns="http://www.w3.org/2000/svg"><path fill-rule="evenodd" clip-rule="evenodd" d="M22.346 4.514a3.034 3.034 0 012.124 2.148c.793 3.227.61 8.324.016 11.676a3.034 3.034 0 01-2.124 2.148C20.499 21 13.003 21 13.003 21s-7.496 0-9.358-.514a3.034 3.034 0 01-2.124-2.148c-.798-3.213-.579-8.313-.016-11.66A3.034 3.034 0 013.63 4.529C5.492 4.016 12.988 4 12.988 4s7.496 0 9.358.514zm-5.841 8.191l-5.701 3.303V9.403l5.701 3.302z"/></svg></svg>