<svg width="22" height="22" fill="none" xmlns="http://www.w3.org/2000/svg"><g clip-path="url(#clip0_1199_8212)" fill="#0069FF"><path d="M20.625 15.125H19.25v5.5h1.375v-5.5zm-2.75-2.75H16.5v8.25h1.375v-8.25zm-2.75 5.5H13.75v2.75h1.375v-2.75zM6.188 11a4.812 4.812 0 100 9.624 4.812 4.812 0 000-9.624zm3.368 4.125H6.875v-2.68a3.447 3.447 0 012.68 2.68zM6.188 19.25a3.438 3.438 0 01-.688-6.806v2.681A1.375 1.375 0 006.875 16.5h2.68a3.443 3.443 0 01-3.367 2.75zm9.305-11l2.75-4.125h2.382V2.75h-3.118l-2.75 4.125h-2.382v-5.5H11v8.25A1.375 1.375 0 0012.375 11h8.25V9.625h-8.25V8.25h3.118zM7.563 5.5a.687.687 0 100-1.375.687.687 0 000 1.375zM6.188 8.25a.687.687 0 100-1.375.687.687 0 000 1.375zM4.813 4.125a.687.687 0 100-1.375.687.687 0 000 1.375zm-1.375 2.75a.687.687 0 100-1.375.687.687 0 000 1.375zm-1.375 2.75a.687.687 0 100-1.375.687.687 0 000 1.375z"/></g><defs><clipPath id="clip0_1199_8212"><path fill="#fff" d="M0 0h22v22H0z"/></clipPath></defs></svg>