<svg width="34" height="35" fill="none" xmlns="http://www.w3.org/2000/svg"><path d="M12.52 21.063a5.876 5.876 0 01-4.154-10.03l6.062-6.062a5.876 5.876 0 118.31 8.31l-.655.656-1.682-1.678.663-.662a3.504 3.504 0 00-.005-4.947 3.586 3.586 0 00-4.952 0l-6.062 6.061a3.5 3.5 0 000 4.951 3.586 3.586 0 004.952 0l1.68 1.68a5.84 5.84 0 01-4.156 1.72z" fill="#0069FF"/><path d="M22.02 18.688a5.876 5.876 0 01-4.154-10.03L18.522 8l1.68 1.68-.657.656a3.499 3.499 0 000 4.95 3.586 3.586 0 004.952 0c.309-.308 5.616-5.616 6.063-6.061a3.504 3.504 0 000-4.95 3.586 3.586 0 00-4.952 0l-1.68-1.68a5.876 5.876 0 018.31 8.31c-.447.446-5.752 5.75-6.06 6.06a5.842 5.842 0 01-4.157 1.721z" fill="#0069FF"/><path d="M26.833 34.125H3.083A2.378 2.378 0 01.708 31.75V8a2.378 2.378 0 012.375-2.375h4.75V8h-4.75v23.75h23.75V19.875h2.375V31.75a2.378 2.378 0 01-2.375 2.375z" fill="#0069FF"/></svg>