<svg width="150" height="31" fill="none" xmlns="http://www.w3.org/2000/svg"><path opacity=".25" d="M10.98 14.884L8.009 9.74 4.987 4.547c-.174-.3-.424-.55-.699-.724h-.025c-.3.174-.549.424-.724.749L1.292 8.467a1.781 1.781 0 000 1.797l2.697 4.67c.2.324.274.699.274 1.073 0 .375-.1.75-.274 1.074L1.317 21.7a1.781 1.781 0 000 1.797l2.247 3.895c.175.3.425.574.724.749h.025c.3-.175.525-.424.7-.724l2.996-5.194 2.97-5.193a2.193 2.193 0 000-2.147z" fill="url(#paint0_linear_2381_11319)"/><path opacity=".25" d="M25.312 14.734l-2.996-5.169-3.072-5.318a2.2 2.2 0 00-.549-.624.612.612 0 00-.4-.15c-1.572 0-2.646.05-3.445.05-.125 0-.2.15-.175.274l.774 4.345c0 .05 0 .1-.025.15-.3.55-.274 1.223.05 1.773l2.747 4.794c.2.35.3.724.3 1.098 0 .375-.1.75-.3 1.099l-2.772 4.794a1.862 1.862 0 00-.05 1.773c.025.05.025.1.025.15l-.774 4.32c-.025.124.05.274.175.274.724 0-.3.075 3.546.075a.89.89 0 00.25-.05c.274-.1.449-.425.599-.7l3.07-5.343 2.972-5.168c.474-.75.474-1.673.05-2.447z" fill="url(#paint1_linear_2381_11319)"/><path d="M24.088 14.884L18.121 4.547a2.14 2.14 0 00-1.848-1.074H4.338c-.4 0-.774.125-1.123.324v.025c.274.175.524.425.699.725L6.91 9.74c.275-.125.6-.2.899-.2h4.944c.774 0 1.473.4 1.847 1.074l2.472 4.27a2.19 2.19 0 010 2.147L14.6 21.3a2.172 2.172 0 01-1.847 1.073h-4.92c-.324 0-.623-.075-.898-.2l-2.996 5.194c-.175.3-.425.55-.7.724v.025c.325.2.725.325 1.124.325h11.96c.774 0 1.473-.4 1.848-1.074l5.967-10.337a2.19 2.19 0 00-.05-2.147z" fill="url(#paint2_linear_2381_11319)"/><path d="M9.881 14.884L6.911 9.74 3.913 4.547a2.15 2.15 0 00-.7-.724H3.19c-.3.174-.55.424-.724.749L.243 8.442a1.781 1.781 0 000 1.797l2.697 4.67c.2.324.275.699.275 1.073 0 .375-.1.75-.275 1.074L.243 21.7a1.781 1.781 0 000 1.798l2.248 3.895c.174.3.424.574.724.749h.025c.3-.175.524-.424.699-.724l2.996-5.194 2.971-5.143c.375-.724.375-1.523-.025-2.197z" fill="url(#paint3_linear_2381_11319)"/><path d="M33.026 8.509h7.207c1.67 0 3.15.314 4.443.943 1.291.63 2.293 1.522 3.005 2.678.71 1.156 1.066 2.51 1.066 4.06 0 1.55-.355 2.904-1.066 4.06-.712 1.156-1.713 2.048-3.005 2.678-1.292.629-2.773.943-4.443.943h-7.207V8.51zm7.033 11.895c1.307 0 2.352-.373 3.136-1.12.798-.746 1.197-1.777 1.197-3.094s-.399-2.348-1.197-3.095c-.784-.746-1.83-1.119-3.136-1.119h-2.721v8.428h2.721zm24.17 3.467l-.044-8.142-3.92 6.628H58.35l-3.897-6.408v7.922h-3.985V8.51h3.55l5.356 8.866L64.6 8.51h3.55l.043 15.362H64.23zm17.226-2.984h-6.446l-1.197 2.984h-4.399L76.142 8.51h4.246l6.75 15.362h-4.486l-1.197-2.984zm-1.263-3.205l-1.96-4.916-1.96 4.916h3.92zm14.831 2.108h-2.352v4.081h-4.31V8.51h6.967c1.379 0 2.577.234 3.593.702 1.016.454 1.8 1.112 2.351 1.975.552.849.828 1.851.828 3.007 0 1.112-.261 2.085-.784 2.919-.508.82-1.241 1.463-2.2 1.931l3.289 4.828h-4.617l-2.765-4.082zm2.722-5.597c0-.717-.225-1.273-.675-1.668-.45-.395-1.118-.593-2.003-.593H92.67v4.5h2.396c.885 0 1.553-.19 2.003-.571.45-.395.675-.951.675-1.668zm12.613 4.104l-1.612 1.734v3.84h-4.267V8.51h4.267v6.386l5.901-6.386h4.747l-6.227 6.803 6.554 8.56h-5.008l-4.355-5.575zm23.28 2.217v3.357h-12.237V8.51h11.954v3.357h-7.687v2.59h6.772v3.248h-6.772v2.81h7.97zm6.186-8.56h-4.682V8.51h13.653v3.445h-4.66v11.917h-4.311V11.954z" fill="#3C4562"/><defs><linearGradient id="paint0_linear_2381_11319" x1="1.071" y1="15.982" x2="11.256" y2="15.982" gradientUnits="userSpaceOnUse"><stop stop-color="#00BA96"/><stop offset=".525" stop-color="#00D9AF"/><stop offset="1" stop-color="#00D9AF"/></linearGradient><linearGradient id="paint1_linear_2381_11319" x1="14.664" y1="15.957" x2="25.642" y2="15.957" gradientUnits="userSpaceOnUse"><stop stop-color="#008D85"/><stop offset="1" stop-color="#00FFE0"/></linearGradient><linearGradient id="paint2_linear_2381_11319" x1="3.215" y1="15.957" x2="24.395" y2="15.957" gradientUnits="userSpaceOnUse"><stop stop-color="#008D94"/><stop offset="1" stop-color="#00FFE0"/></linearGradient><linearGradient id="paint3_linear_2381_11319" x1="0" y1="15.982" x2="10.184" y2="15.982" gradientUnits="userSpaceOnUse"><stop stop-color="#00BA96"/><stop offset=".525" stop-color="#00D9AF"/><stop offset="1" stop-color="#00FAAF"/></linearGradient></defs></svg>