<svg width="22" height="22" fill="none" xmlns="http://www.w3.org/2000/svg"><g clip-path="url(#clip0_1199_8154)" fill="#0069FF"><path d="M17.736 6.875a6.875 6.875 0 00-13.488.085 5.154 5.154 0 00.908 10.227H5.5v-1.375h-.344a3.778 3.778 0 01-.259-7.548l.575-.04.062-.572a5.495 5.495 0 0110.785-.777h1.417z"/><path d="M19.25 8.25h-6.875A1.377 1.377 0 0011 9.625v2.75H8.25a1.376 1.376 0 00-1.375 1.375v6.875h13.75v-11A1.376 1.376 0 0019.25 8.25zm-11 11v-5.5H11v5.5H8.25zm11 0h-6.875V9.625h6.875v9.625z"/><path d="M15.125 11H13.75v2.75h1.375V11zm2.75 0H16.5v2.75h1.375V11zm-2.75 4.125H13.75v2.75h1.375v-2.75zm2.75 0H16.5v2.75h1.375v-2.75z"/></g><defs><clipPath id="clip0_1199_8154"><path fill="#fff" d="M0 0h22v22H0z"/></clipPath></defs></svg>