<svg width="34" height="35" fill="none" xmlns="http://www.w3.org/2000/svg"><path d="M3.935 2.76l-1.68 1.68 4.057 4.055 1.68-1.68L3.934 2.76zm23.748 23.739l-1.68 1.679 4.055 4.056 1.68-1.679-4.055-4.056zM13.438.875h-2.376v4.75h2.376V.875zM5.125 11.563H.375v2.374h4.75v-2.374zm28.5 9.5h-4.75v2.375h4.75v-2.375zm-10.687 8.312h-2.375v4.75h2.375v-4.75zm-5.249-5.855l-4.406 4.418a4.754 4.754 0 01-6.721-6.721l4.417-4.418-1.686-1.674-4.405 4.418a7.124 7.124 0 00-.072 10.14 7.126 7.126 0 005.059 2.067 7.207 7.207 0 005.13-2.137l4.37-4.406-1.686-1.686zM16.3 11.48l4.417-4.418a4.752 4.752 0 116.721 6.721l-4.417 4.418 1.686 1.674 4.405-4.418a7.123 7.123 0 00.072-10.14 7.126 7.126 0 00-5.059-2.067 7.208 7.208 0 00-5.13 2.138l-4.37 4.405 1.674 1.686z" fill="#0069FF"/></svg>