<svg width="34" height="35" fill="none" xmlns="http://www.w3.org/2000/svg"><path d="M32.597 24.229l-7.523-7.524 7.521-7.522a2.375 2.375 0 00.002-3.358l-.002-.002-4.25-4.252a2.375 2.375 0 00-3.36-.001l-.002.001-7.52 7.52L9.94 1.57a2.38 2.38 0 00-3.359 0L.737 7.414a2.376 2.376 0 000 3.359l7.521 7.522-8.216 8.216v7.614h7.612l8.217-8.217 7.523 7.525a2.384 2.384 0 003.36 0l5.843-5.845a2.377 2.377 0 000-3.359zm-5.94-20.983l4.264 4.263L23.4 15.03l-4.263-4.263 7.52-7.521zM7.168 31.75h-4.75v-4.265l7.516-7.515 4.366 4.367-7.132 7.413zm17.907.004L2.417 9.094 8.26 3.25l4.499 4.498-2.674 2.675 1.68 1.679 2.673-2.674 4.904 4.903-2.676 2.674 1.681 1.68 2.674-2.675 4.905 4.905-2.674 2.673 1.679 1.68 2.674-2.674 3.314 3.315-5.846 5.845z" fill="#0069FF"/></svg>