<svg width="49" height="15" fill="none" xmlns="http://www.w3.org/2000/svg"><g clip-path="url(#clip0_762_4012)"><path d="M28.705 7.635l1.439 1.506c.466.495.701 1.104.701 1.81v1.375h-1.42v-1.374c0-.305-.095-.551-.298-.773L27.706 8.68l-1.468 1.549c-.203.22-.297.463-.297.767v1.33h-1.42v-1.33c0-.703.24-1.31.712-1.804l1.461-1.556-1.453-1.523c-.471-.495-.71-1.104-.71-1.81V3.045h1.421V4.3c0 .296.094.533.298.742l.004.006 1.454 1.536 1.417-1.482c.2-.21.294-.45.294-.753V3.045h1.42V4.35c0 .706-.238 1.314-.708 1.809l-1.426 1.476zm3.562-4.59h6.342v1.48h-2.471v7.801h-1.421V4.524h-2.45V3.045zm15.742 0v9.281h-1.407V5.459l-2.07 4.272h-1.021l-2.075-4.272v6.867H40.03V3.045h1.839l2.15 4.586 2.16-4.585 1.83-.001zM20.014 4.521c-.58.038-1.044.525-1.08 1.133v1.243h3.42v1.48h-3.42v3.949h-1.42V5.749c0-1.494 1.15-2.704 2.571-2.704h3.024v1.476h-3.095z" fill="#000"/><path d="M6.27 3.55l.002.002 2.325 2.335 2.31-2.322c.165-.167.299-.341.405-.529a2.19 2.19 0 00.269-.773A6.958 6.958 0 006.943.5a7.03 7.03 0 00-1.395.14v1.185c0 .42.09.795.273 1.134.114.21.262.406.448.59z" fill="#A4E22D"/><path d="M12.662 3.498a6.954 6.954 0 011.273 4.022c0 1.32-.367 2.557-1.003 3.61a3.635 3.635 0 00-.606-1.417 3.99 3.99 0 00-.412-.494l-2.33-2.326L11.9 4.58l.002-.002c.16-.161.301-.33.426-.507a3.6 3.6 0 00.334-.573zM5.312 4.58l2.32 2.314-2.318 2.334a3.912 3.912 0 00-.488.589c-.417.617-.627 1.326-.627 2.118v1.992A6.98 6.98 0 010 7.52a6.98 6.98 0 014.2-6.407v.755c0 .788.206 1.493.616 2.109.141.212.306.414.496.603zm5.614 5.588a2.48 2.48 0 01.721 1.769l-.018.77A6.926 6.926 0 016.968 14.5a6.94 6.94 0 01-1.392-.14v-2.426c0-.424.09-.807.272-1.154.113-.213.26-.413.448-.602l2.328-2.323 2.302 2.313z" fill="#FF5A24"/></g><defs><clipPath id="clip0_762_4012"><path fill="#fff" transform="translate(0 .5)" d="M0 0h48.222v14H0z"/></clipPath></defs></svg>