<svg width="410" height="415" fill="none" xmlns="http://www.w3.org/2000/svg"><path d="M205 302.013c46.944 0 85-38.056 85-85s-38.056-85-85-85-85 38.056-85 85 38.056 85 85 85z" stroke="#CCCDDD" stroke-dasharray="4 4"/><path d="M170.035 197.876c-.121-.121-.346-.286-.676-.494a6.66 6.66 0 00-1.17-.598c-.45-.191-.944-.355-1.482-.494a5.843 5.843 0 00-1.638-.234c-.97 0-1.707.182-2.21.546-.485.364-.728.875-.728 1.534 0 .503.156.901.468 1.196.312.295.78.546 1.404.754.624.208 1.404.433 2.34.676 1.214.295 2.262.659 3.146 1.092.902.416 1.586.971 2.054 1.664.486.676.728 1.577.728 2.704 0 .988-.182 1.837-.546 2.548a4.565 4.565 0 01-1.508 1.69 6.926 6.926 0 01-2.184.962c-.814.191-1.681.286-2.6.286-.918 0-1.837-.095-2.756-.286a15.182 15.182 0 01-2.652-.806 12.702 12.702 0 01-2.34-1.3l1.586-3.094c.156.156.434.364.832.624.399.243.884.494 1.456.754.572.243 1.196.451 1.872.624.676.173 1.361.26 2.054.26.971 0 1.708-.165 2.21-.494.503-.329.754-.797.754-1.404 0-.555-.199-.988-.598-1.3-.398-.312-.953-.581-1.664-.806a51.769 51.769 0 00-2.522-.78c-1.161-.329-2.132-.693-2.912-1.092-.78-.416-1.36-.936-1.742-1.56-.381-.624-.572-1.404-.572-2.34 0-1.265.295-2.323.884-3.172.607-.867 1.422-1.517 2.444-1.95 1.023-.451 2.158-.676 3.406-.676.867 0 1.682.095 2.444.286.78.191 1.508.442 2.184.754.676.312 1.283.65 1.82 1.014l-1.586 2.912zm17.766 10.478v3.146h-12.818v-18.46h12.584v3.146h-8.996v4.446h7.774v2.912h-7.774v4.81h9.23zm6.385-8.71V211.5h-3.588v-18.46h2.86L203 205.208v-12.142h3.588V211.5h-2.99l-9.412-11.856zm16.242 11.856v-18.46h3.588v18.46h-3.588zm15.317.13c-1.352 0-2.582-.26-3.692-.78a8.976 8.976 0 01-2.834-2.106 10.321 10.321 0 01-1.82-3.016 9.565 9.565 0 01-.65-3.458c0-1.231.226-2.401.676-3.51a10.1 10.1 0 011.898-2.99 8.938 8.938 0 012.86-2.08c1.11-.52 2.323-.78 3.64-.78 1.335 0 2.548.269 3.64.806a8.731 8.731 0 012.834 2.158 10.3 10.3 0 011.82 3.016 9.337 9.337 0 01.65 3.432 9.362 9.362 0 01-.676 3.51 9.832 9.832 0 01-1.898 2.99 8.73 8.73 0 01-2.86 2.054c-1.092.503-2.288.754-3.588.754zm-5.356-9.36c0 .797.122 1.569.364 2.314.243.745.59 1.413 1.04 2.002a5.438 5.438 0 001.69 1.378c.676.329 1.439.494 2.288.494.867 0 1.638-.173 2.314-.52a5.2 5.2 0 001.69-1.43 6.598 6.598 0 001.014-2.002 7.177 7.177 0 00.364-2.236c0-.797-.13-1.56-.39-2.288a6.03 6.03 0 00-1.066-1.976 4.668 4.668 0 00-1.69-1.378c-.658-.347-1.404-.52-2.236-.52-.884 0-1.664.182-2.34.546a5.021 5.021 0 00-1.664 1.404 6.75 6.75 0 00-1.04 1.976 7.529 7.529 0 00-.338 2.236zm17.131 9.23v-18.46h8.164c.849 0 1.629.173 2.34.52a5.792 5.792 0 011.872 1.404 6.188 6.188 0 011.222 1.976c.294.728.442 1.473.442 2.236a6.31 6.31 0 01-.416 2.262A5.453 5.453 0 01250 203.31a5.304 5.304 0 01-1.768 1.248l4.212 6.942h-3.952l-3.796-6.188h-3.588v6.188h-3.588zm3.588-9.334h4.498c.45 0 .849-.13 1.196-.39.346-.277.624-.641.832-1.092.208-.451.312-.953.312-1.508 0-.589-.122-1.101-.364-1.534a2.961 2.961 0 00-.936-1.066 2.014 2.014 0 00-1.196-.39h-4.342v5.98zm-48.627 25.71c-.122-.121-.347-.286-.676-.494a6.66 6.66 0 00-1.17-.598 10.634 10.634 0 00-1.482-.494 5.853 5.853 0 00-1.638-.234c-.971 0-1.708.182-2.21.546-.486.364-.728.875-.728 1.534 0 .503.156.901.468 1.196.312.295.78.546 1.404.754.624.208 1.404.433 2.34.676 1.213.295 2.262.659 3.146 1.092.901.416 1.586.971 2.054 1.664.485.676.728 1.577.728 2.704 0 .988-.182 1.837-.546 2.548a4.574 4.574 0 01-1.508 1.69 6.946 6.946 0 01-2.184.962c-.815.191-1.682.286-2.6.286-.919 0-1.838-.095-2.756-.286a15.13 15.13 0 01-2.652-.806c-.85-.364-1.63-.797-2.34-1.3l1.586-3.094c.156.156.433.364.832.624.398.243.884.494 1.456.754.572.243 1.196.451 1.872.624a8.25 8.25 0 002.054.26c.97 0 1.707-.165 2.21-.494.502-.329.754-.797.754-1.404 0-.555-.2-.988-.598-1.3-.399-.312-.954-.581-1.664-.806a52.467 52.467 0 00-2.522-.78c-1.162-.329-2.132-.693-2.912-1.092-.78-.416-1.361-.936-1.742-1.56-.382-.624-.572-1.404-.572-2.34 0-1.265.294-2.323.884-3.172.606-.867 1.421-1.517 2.444-1.95 1.022-.451 2.158-.676 3.406-.676.866 0 1.681.095 2.444.286.78.191 1.508.442 2.184.754.676.312 1.282.65 1.82 1.014l-1.586 2.912zm17.765 10.478v3.146h-12.818v-18.46h12.584v3.146h-8.996v4.446h7.774v2.912h-7.774v4.81h9.23zm10.345 3.276c-1.352 0-2.583-.26-3.692-.78a8.965 8.965 0 01-2.834-2.106 10.3 10.3 0 01-1.82-3.016 9.565 9.565 0 01-.65-3.458c0-1.231.225-2.401.676-3.51a10.1 10.1 0 011.898-2.99 8.938 8.938 0 012.86-2.08c1.109-.52 2.323-.78 3.64-.78 1.335 0 2.548.269 3.64.806a8.742 8.742 0 012.834 2.158 10.3 10.3 0 011.82 3.016 9.358 9.358 0 01.65 3.432 9.362 9.362 0 01-.676 3.51 9.85 9.85 0 01-1.898 2.99 8.741 8.741 0 01-2.86 2.054c-1.092.503-2.288.754-3.588.754zm-5.356-9.36c0 .797.121 1.569.364 2.314a6.661 6.661 0 001.04 2.002 5.427 5.427 0 001.69 1.378c.676.329 1.439.494 2.288.494.867 0 1.638-.173 2.314-.52a5.211 5.211 0 001.69-1.43 6.598 6.598 0 001.014-2.002 7.177 7.177 0 00.364-2.236c0-.797-.13-1.56-.39-2.288a6.049 6.049 0 00-1.066-1.976 4.676 4.676 0 00-1.69-1.378c-.659-.347-1.404-.52-2.236-.52-.884 0-1.664.182-2.34.546a5.011 5.011 0 00-1.664 1.404 6.726 6.726 0 00-1.04 1.976 7.529 7.529 0 00-.338 2.236z" fill="#596275"/><path d="M60.5 181.013c32.86 0 59.5-26.639 59.5-59.5 0-32.86-26.64-59.5-59.5-59.5S1 88.653 1 121.513c0 32.861 26.64 59.5 59.5 59.5z" stroke="#CCCDDD" stroke-dasharray="4 4"/><path d="M53.759 110.164a2.326 2.326 0 00-.364-.266 3.597 3.597 0 00-.63-.322 5.713 5.713 0 00-.798-.266 3.149 3.149 0 00-.882-.126c-.523 0-.92.098-1.19.294-.262.196-.392.471-.392.826 0 .271.084.485.252.644.168.159.42.294.756.406.336.112.756.233 1.26.364a8.364 8.364 0 011.694.588c.485.224.854.523 1.106.896.261.364.392.849.392 1.456 0 .532-.098.989-.294 1.372a2.462 2.462 0 01-.812.91 3.738 3.738 0 01-1.176.518 6.112 6.112 0 01-1.4.154 7.26 7.26 0 01-1.484-.154 8.154 8.154 0 01-1.428-.434 6.815 6.815 0 01-1.26-.7l.854-1.666c.084.084.233.196.448.336.214.131.476.266.784.406.308.131.644.243 1.008.336.364.093.732.14 1.106.14.522 0 .92-.089 1.19-.266a.851.851 0 00.406-.756c0-.299-.108-.532-.322-.7-.215-.168-.514-.313-.896-.434a27.755 27.755 0 00-1.358-.42 8.627 8.627 0 01-1.568-.588c-.42-.224-.733-.504-.938-.84-.206-.336-.308-.756-.308-1.26 0-.681.158-1.251.476-1.708a2.988 2.988 0 011.316-1.05 4.494 4.494 0 011.834-.364c.466 0 .905.051 1.316.154.42.103.812.238 1.176.406.364.168.69.35.98.546l-.854 1.568zm9.566 5.642v1.694h-6.902v-9.94h6.776v1.694h-4.844v2.394h4.186v1.568h-4.186v2.59h4.97zm5.57 1.764c-.728 0-1.39-.14-1.988-.42a4.829 4.829 0 01-1.526-1.134 5.55 5.55 0 01-.98-1.624 5.147 5.147 0 01-.35-1.862c0-.663.121-1.293.364-1.89a5.436 5.436 0 011.022-1.61 4.813 4.813 0 011.54-1.12 4.56 4.56 0 011.96-.42c.719 0 1.372.145 1.96.434a4.706 4.706 0 011.526 1.162 5.55 5.55 0 01.98 1.624 5.04 5.04 0 01.35 1.848 5.04 5.04 0 01-.364 1.89 5.306 5.306 0 01-1.022 1.61c-.43.467-.943.835-1.54 1.106a4.56 4.56 0 01-1.932.406zm-2.884-5.04c0 .429.066.845.196 1.246s.318.761.56 1.078c.252.308.556.555.91.742.364.177.775.266 1.232.266.467 0 .882-.093 1.246-.28.364-.196.668-.453.91-.77.243-.327.425-.686.546-1.078a3.89 3.89 0 00.196-1.204c0-.429-.07-.84-.21-1.232a3.256 3.256 0 00-.574-1.064 2.517 2.517 0 00-.91-.742 2.542 2.542 0 00-1.204-.28c-.476 0-.896.098-1.26.294a2.702 2.702 0 00-.896.756 3.62 3.62 0 00-.56 1.064 4.049 4.049 0 00-.182 1.204zm-36.026 14.724h-3.178v8.246h-1.918v-8.246H21.71v-1.694h8.274v1.694zm8.136 6.552v1.694h-6.902v-9.94h6.776v1.694H33.15v2.394h4.186v1.568H33.15v2.59h4.97zm4.208-8.246h1.96l3.654 9.94h-1.988l-.924-2.478h-3.472l-.91 2.478H38.66l3.668-9.94zm2.352 6.104l-1.372-4.102-1.428 4.102h2.8zm12.458 3.836v-6.524l-2.548 4.858h-1.078l-2.548-4.858v6.524h-1.932v-9.94h2.072l2.94 5.656 2.968-5.656h2.058v9.94H57.14zm7.37 0v-9.94h1.933v8.246h5.068v1.694h-7zm15.078-1.694v1.694h-6.902v-9.94h6.776v1.694h-4.844v2.394h4.186v1.568h-4.186v2.59h4.97zm4.209-8.246h1.96l3.654 9.94h-1.988l-.924-2.478h-3.472l-.91 2.478h-1.988l3.668-9.94zm2.352 6.104l-1.372-4.102-1.428 4.102h2.8zM90.5 135.5v-9.94h3.612c1.083 0 1.988.224 2.716.672a4.162 4.162 0 011.638 1.792c.364.747.546 1.577.546 2.492 0 1.008-.2 1.885-.602 2.632a4.25 4.25 0 01-1.708 1.736c-.728.411-1.591.616-2.59.616H90.5zm6.566-4.984c0-.644-.117-1.209-.35-1.694a2.632 2.632 0 00-1.008-1.148c-.439-.28-.97-.42-1.596-.42h-1.68v6.552h1.68c.635 0 1.171-.14 1.61-.42.439-.289.77-.681.994-1.176.233-.504.35-1.069.35-1.694z" fill="#596275"/><path d="M356 324.013c20.987 0 38-17.013 38-38s-17.013-38-38-38-38 17.013-38 38 17.013 38 38 38z" stroke="#CCCDDD" stroke-dasharray="4 4"/><path d="M347.271 284.5v-4.66l-1.82 3.47h-.77l-1.82-3.47v4.66h-1.38v-7.1h1.48l2.1 4.04 2.12-4.04h1.47v7.1h-1.38zm2.863 0v-7.1h1.38v7.1h-1.38zm2.861 0v-7.1h2.58c.773 0 1.42.16 1.94.48.52.313.91.74 1.17 1.28.26.533.39 1.127.39 1.78 0 .72-.143 1.347-.43 1.88a3.036 3.036 0 01-1.22 1.24c-.52.293-1.137.44-1.85.44h-2.58zm4.69-3.56c0-.46-.083-.863-.25-1.21a1.884 1.884 0 00-.72-.82c-.313-.2-.693-.3-1.14-.3h-1.2v4.68h1.2c.453 0 .837-.1 1.15-.3a1.95 1.95 0 00.71-.84c.167-.36.25-.763.25-1.21zm2.468 3.56v-7.1h1.38v5.89h3.62v1.21h-5zm10.77-1.21v1.21h-4.93v-7.1h4.84v1.21h-3.46v1.71h2.99v1.12h-2.99v1.85h3.55zm-19.738 7.97a1.621 1.621 0 00-.26-.19 2.53 2.53 0 00-.45-.23 4.05 4.05 0 00-.57-.19 2.252 2.252 0 00-.63-.09c-.373 0-.657.07-.85.21a.694.694 0 00-.28.59c0 .193.06.347.18.46.12.113.3.21.54.29.24.08.54.167.9.26.467.113.87.253 1.21.42.347.16.61.373.79.64.187.26.28.607.28 1.04 0 .38-.07.707-.21.98-.14.267-.333.483-.58.65-.247.167-.527.29-.84.37-.313.073-.647.11-1 .11s-.707-.037-1.06-.11a5.843 5.843 0 01-1.02-.31 4.882 4.882 0 01-.9-.5l.61-1.19c.06.06.167.14.32.24.153.093.34.19.56.29.22.093.46.173.72.24.26.067.523.1.79.1.373 0 .657-.063.85-.19a.61.61 0 00.29-.54.6.6 0 00-.23-.5 2.051 2.051 0 00-.64-.31 21.136 21.136 0 00-.97-.3 6.252 6.252 0 01-1.12-.42c-.3-.16-.523-.36-.67-.6-.147-.24-.22-.54-.22-.9 0-.487.113-.893.34-1.22.233-.333.547-.583.94-.75.393-.173.83-.26 1.31-.26.333 0 .647.037.94.11.3.073.58.17.84.29.26.12.493.25.7.39l-.61 1.12zm6.833 4.03v1.21h-4.93v-7.1h4.84v1.21h-3.46v1.71h2.99v1.12h-2.99v1.85h3.55zm3.979 1.26c-.52 0-.994-.1-1.42-.3-.42-.2-.784-.47-1.09-.81a3.95 3.95 0 01-.7-1.16 3.669 3.669 0 01-.25-1.33c0-.473.086-.923.26-1.35.18-.433.423-.817.73-1.15.313-.34.68-.607 1.1-.8.426-.2.893-.3 1.4-.3.513 0 .98.103 1.4.31.426.207.79.483 1.09.83.3.347.533.733.7 1.16a3.614 3.614 0 01-.01 2.67c-.174.427-.417.81-.73 1.15a3.373 3.373 0 01-1.1.79c-.42.193-.88.29-1.38.29zm-2.06-3.6c0 .307.046.603.14.89.093.287.226.543.4.77.18.22.396.397.65.53.26.127.553.19.88.19.333 0 .63-.067.89-.2.26-.14.476-.323.65-.55.173-.233.303-.49.39-.77.093-.287.14-.573.14-.86 0-.307-.05-.6-.15-.88a2.332 2.332 0 00-.41-.76 1.803 1.803 0 00-.65-.53c-.254-.133-.54-.2-.86-.2-.34 0-.64.07-.9.21a1.907 1.907 0 00-.64.54 2.57 2.57 0 00-.4.76c-.087.28-.13.567-.13.86z" fill="#596275"/><path d="M266 414.013c20.987 0 38-17.013 38-38s-17.013-38-38-38-38 17.013-38 38 17.013 38 38 38z" stroke="#CCCDDD" stroke-dasharray="4 4"/><path d="M242.472 370.9c0-.433.077-.857.23-1.27.16-.42.39-.8.69-1.14.3-.347.667-.62 1.1-.82.433-.207.927-.31 1.48-.31.653 0 1.217.143 1.69.43.48.287.837.66 1.07 1.12l-1.06.73a1.646 1.646 0 00-.47-.63c-.193-.16-.4-.27-.62-.33-.22-.067-.437-.1-.65-.1-.347 0-.65.07-.91.21-.253.14-.467.323-.64.55-.173.227-.303.48-.39.76-.08.28-.12.56-.12.84 0 .313.05.617.15.91.1.287.24.543.42.77.187.22.407.397.66.53.26.127.543.19.85.19.22 0 .443-.037.67-.11.227-.073.437-.19.63-.35.193-.16.343-.367.45-.62l1.13.65c-.14.353-.37.653-.69.9a3.366 3.366 0 01-1.06.56c-.393.127-.783.19-1.17.19a3.1 3.1 0 01-1.39-.31 3.637 3.637 0 01-1.09-.84 4.24 4.24 0 01-.71-1.18 3.72 3.72 0 01-.25-1.33zm10.228 3.65c-.52 0-.994-.1-1.42-.3-.42-.2-.784-.47-1.09-.81a3.95 3.95 0 01-.7-1.16 3.669 3.669 0 01-.25-1.33c0-.473.086-.923.26-1.35.18-.433.423-.817.73-1.15.313-.34.68-.607 1.1-.8.426-.2.893-.3 1.4-.3.513 0 .98.103 1.4.31.426.207.79.483 1.09.83.3.347.533.733.7 1.16a3.614 3.614 0 01-.01 2.67c-.174.427-.417.81-.73 1.15a3.373 3.373 0 01-1.1.79c-.42.193-.88.29-1.38.29zm-2.06-3.6c0 .307.046.603.14.89.093.287.226.543.4.77.18.22.396.397.65.53.26.127.553.19.88.19.333 0 .63-.067.89-.2.26-.14.476-.323.65-.55.173-.233.303-.49.39-.77.093-.287.14-.573.14-.86 0-.307-.05-.6-.15-.88a2.332 2.332 0 00-.41-.76 1.803 1.803 0 00-.65-.53c-.254-.133-.54-.2-.86-.2-.34 0-.64.07-.9.21a1.907 1.907 0 00-.64.54 2.57 2.57 0 00-.4.76c-.087.28-.13.567-.13.86zm7.968-1.01v4.56h-1.38v-7.1h1.1l3.67 4.68v-4.67h1.38v7.09h-1.15l-3.62-4.56zm11.557-1.33h-2.27v5.89h-1.37v-5.89h-2.27v-1.21h5.91v1.21zm5.812 4.68v1.21h-4.93v-7.1h4.84v1.21h-3.46v1.71h2.99v1.12h-2.99v1.85h3.55zm2.456-3.35v4.56h-1.38v-7.1h1.1l3.669 4.68v-4.67h1.381v7.09h-1.15l-3.62-4.56zm11.556-1.33h-2.27v5.89h-1.37v-5.89h-2.27v-1.21h5.91v1.21zm-42.132 17.89v-4.66l-1.82 3.47h-.77l-1.82-3.47v4.66h-1.38v-7.1h1.48l2.1 4.04 2.12-4.04h1.47v7.1h-1.38zm4.792-7.1h1.4l2.61 7.1h-1.42l-.66-1.77h-2.48l-.65 1.77h-1.42l2.62-7.1zm1.68 4.36l-.98-2.93-1.02 2.93h2zm4.489-1.82v4.56h-1.38v-7.1h1.1l3.67 4.68v-4.67h1.38v7.09h-1.15l-3.62-4.56zm8.177-2.54h1.4l2.61 7.1h-1.42l-.66-1.77h-2.48l-.65 1.77h-1.42l2.62-7.1zm1.68 4.36l-.98-2.93-1.02 2.93h2zm5.786 2.79a3.14 3.14 0 01-1.31-.28 3.51 3.51 0 01-1.08-.77 3.68 3.68 0 01-.72-1.16 3.855 3.855 0 01-.26-1.43c0-.487.086-.943.26-1.37.173-.433.416-.813.73-1.14.313-.327.68-.583 1.1-.77.42-.187.876-.28 1.37-.28.666 0 1.236.143 1.71.43.48.28.84.653 1.08 1.12l-1.03.76a1.91 1.91 0 00-.76-.81c-.32-.187-.67-.28-1.05-.28-.3 0-.574.063-.82.19-.247.127-.46.3-.64.52-.18.22-.32.473-.42.76-.094.287-.14.59-.14.91 0 .34.05.653.15.94.106.287.253.537.44.75.193.213.416.383.67.51a2.043 2.043 0 001.87-.1c.333-.187.643-.46.93-.82v1.36c-.594.64-1.287.96-2.08.96zm1.98-2.69h-1.43v-1.01h2.57v3.65h-1.14v-2.64zm7.246 1.43v1.21h-4.93v-7.1h4.84v1.21h-3.46v1.71h2.99v1.12h-2.99v1.85h3.55zm1.075 1.21v-7.1h3.14c.327 0 .627.067.9.2.28.133.52.313.72.54.207.227.364.48.47.76.114.28.17.567.17.86 0 .3-.053.59-.16.87-.1.273-.246.513-.44.72-.193.207-.42.367-.68.48l1.62 2.67h-1.52l-1.46-2.38h-1.38v2.38h-1.38zm1.38-3.59h1.73c.174 0 .327-.05.46-.15.134-.107.24-.247.32-.42.08-.173.12-.367.12-.58 0-.227-.046-.423-.14-.59a1.134 1.134 0 00-.36-.41.774.774 0 00-.46-.15h-1.67v2.3z" fill="#596275"/><path d="M56 314.013c20.987 0 38-17.013 38-38s-17.013-38-38-38-38 17.013-38 38 17.013 38 38 38z" stroke="#CCCDDD" stroke-dasharray="4 4"/><path d="M32.44 274.55c-.52 0-.992-.1-1.42-.3a3.45 3.45 0 01-1.09-.81 3.965 3.965 0 01-.7-1.16 3.675 3.675 0 01-.25-1.33c0-.473.088-.923.26-1.35.18-.433.424-.817.73-1.15.314-.34.68-.607 1.1-.8.428-.2.894-.3 1.4-.3.514 0 .98.103 1.4.31.428.207.79.483 1.09.83.3.347.534.733.7 1.16a3.6 3.6 0 01.25 1.32 3.6 3.6 0 01-.26 1.35c-.172.427-.416.81-.73 1.15a3.362 3.362 0 01-2.48 1.08zm-2.06-3.6c0 .307.048.603.14.89.094.287.228.543.4.77.18.22.398.397.65.53.26.127.554.19.88.19.334 0 .63-.067.89-.2.26-.14.478-.323.65-.55a2.54 2.54 0 00.39-.77c.094-.287.14-.573.14-.86 0-.307-.05-.6-.15-.88a2.319 2.319 0 00-.41-.76 1.797 1.797 0 00-.65-.53c-.252-.133-.54-.2-.86-.2-.34 0-.64.07-.9.21a1.917 1.917 0 00-.64.54c-.172.227-.306.48-.4.76-.086.28-.13.567-.13.86zm9.6 3.6c-.567 0-1.05-.093-1.45-.28a2.597 2.597 0 01-.96-.79 3.452 3.452 0 01-.53-1.13 5.162 5.162 0 01-.17-1.33v-3.62h1.38v3.62c0 .293.026.58.08.86.06.273.156.52.29.74.133.22.31.393.53.52.22.127.493.19.82.19.333 0 .61-.063.83-.19a1.44 1.44 0 00.53-.53c.133-.22.23-.467.29-.74.06-.28.09-.563.09-.85v-3.62h1.37v3.62c0 .487-.06.943-.18 1.37a3.134 3.134 0 01-.55 1.13 2.6 2.6 0 01-.96.76c-.394.18-.864.27-1.41.27zm9.8-5.94h-2.27v5.89h-1.37v-5.89h-2.27v-1.21h5.91v1.21zm.88 5.89v-7.1h3.14c.328 0 .628.067.9.2.28.133.52.313.72.54.208.227.364.48.47.76.114.28.17.567.17.86 0 .3-.052.59-.16.87-.1.273-.246.513-.44.72-.192.207-.42.367-.68.48l1.62 2.67h-1.52l-1.46-2.38h-1.38v2.38h-1.38zm1.38-3.59h1.73c.174 0 .328-.05.46-.15.134-.107.24-.247.32-.42.08-.173.12-.367.12-.58a1.189 1.189 0 00-.5-1 .774.774 0 00-.46-.15h-1.67v2.3zm10.201 2.38v1.21h-4.93v-7.1h4.84v1.21h-3.46v1.71h2.99v1.12h-2.99v1.85h3.55zm3.006-5.89h1.4l2.61 7.1h-1.42l-.66-1.77h-2.48l-.65 1.77h-1.42l2.62-7.1zm1.68 4.36l-.98-2.93-1.02 2.93h2zm2.405-.86a3.623 3.623 0 01.92-2.41c.3-.347.667-.62 1.1-.82.434-.207.927-.31 1.48-.31.654 0 1.217.143 1.69.43.48.287.837.66 1.07 1.12l-1.06.73a1.643 1.643 0 00-.47-.63 1.65 1.65 0 00-.62-.33c-.22-.067-.436-.1-.65-.1-.346 0-.65.07-.91.21a2.03 2.03 0 00-.64.55c-.173.227-.303.48-.39.76-.08.28-.12.56-.12.84 0 .313.05.617.15.91.1.287.24.543.42.77.187.22.407.397.66.53.26.127.544.19.85.19.22 0 .444-.037.67-.11.227-.073.437-.19.63-.35.194-.16.344-.367.45-.62l1.13.65c-.14.353-.37.653-.69.9a3.367 3.367 0 01-1.06.56 3.79 3.79 0 01-1.17.19 3.1 3.1 0 01-1.39-.31 3.632 3.632 0 01-1.09-.84 4.248 4.248 0 01-.71-1.18 3.727 3.727 0 01-.25-1.33zm13.256-3.5v7.1h-1.37v-3.03h-3.22v3.03h-1.38v-7.1h1.38v2.87h3.22v-2.87h1.37zm-49.47 13.86a1.616 1.616 0 00-.26-.19 2.53 2.53 0 00-.45-.23 4.076 4.076 0 00-.57-.19 2.248 2.248 0 00-.63-.09c-.373 0-.656.07-.85.21a.695.695 0 00-.28.59c0 .193.06.347.18.46.12.113.3.21.54.29.24.08.54.167.9.26.467.113.87.253 1.21.42.347.16.61.373.79.64.187.26.28.607.28 1.04 0 .38-.07.707-.21.98-.14.267-.333.483-.58.65-.246.167-.526.29-.84.37a4.39 4.39 0 01-1 .11c-.353 0-.706-.037-1.06-.11a5.828 5.828 0 01-1.02-.31 4.908 4.908 0 01-.9-.5l.61-1.19c.06.06.167.14.32.24.154.093.34.19.56.29.22.093.46.173.72.24.26.067.524.1.79.1.374 0 .657-.063.85-.19a.61.61 0 00.29-.54.6.6 0 00-.23-.5 2.05 2.05 0 00-.64-.31 21.098 21.098 0 00-.97-.3 6.264 6.264 0 01-1.12-.42c-.3-.16-.523-.36-.67-.6-.146-.24-.22-.54-.22-.9 0-.487.114-.893.34-1.22.234-.333.547-.583.94-.75a3.22 3.22 0 011.31-.26c.334 0 .647.037.94.11.3.073.58.17.84.29.26.12.494.25.7.39l-.61 1.12zm1.903 5.24v-7.1h3.01c.327 0 .627.067.9.2.274.133.51.313.71.54.207.227.367.48.48.76.114.28.17.567.17.86 0 .4-.093.78-.28 1.14a2.4 2.4 0 01-.77.88c-.326.227-.713.34-1.16.34h-1.68v2.38h-1.38zm1.38-3.59h1.6a.769.769 0 00.45-.14.97.97 0 00.32-.4c.08-.18.12-.383.12-.61 0-.247-.046-.457-.14-.63a.915.915 0 00-.35-.39.854.854 0 00-.46-.13h-1.54v2.3zm9.78 2.38v1.21h-4.93v-7.1h4.84v1.21h-3.46v1.71h2.99v1.12h-2.99v1.85h3.55zm.52-2.39a3.625 3.625 0 01.92-2.41c.3-.347.666-.62 1.1-.82.433-.207.926-.31 1.48-.31.653 0 1.216.143 1.69.43.48.287.836.66 1.07 1.12l-1.06.73a1.642 1.642 0 00-.47-.63c-.194-.16-.4-.27-.62-.33-.22-.067-.437-.1-.65-.1-.347 0-.65.07-.91.21a2.02 2.02 0 00-.64.55c-.174.227-.304.48-.39.76-.08.28-.12.56-.12.84 0 .313.05.617.15.91.1.287.24.543.42.77a2.2 2.2 0 00.66.53c.26.127.543.19.85.19.22 0 .443-.037.67-.11.226-.073.436-.19.63-.35a1.59 1.59 0 00.45-.62l1.13.65c-.14.353-.37.653-.69.9a3.365 3.365 0 01-1.06.56 3.79 3.79 0 01-1.17.19 3.1 3.1 0 01-1.39-.31 3.634 3.634 0 01-1.09-.84 4.25 4.25 0 01-.71-1.18 3.73 3.73 0 01-.25-1.33zm7.285 3.6v-7.1h1.38v7.1h-1.38zm4.791-7.1h1.4l2.61 7.1h-1.42l-.66-1.77h-2.48l-.65 1.77h-1.42l2.62-7.1zm1.68 4.36l-.98-2.93-1.02 2.93h2zm3.11 2.74v-7.1h1.38v5.89h3.62v1.21h-5zm5.839 0v-7.1h1.38v7.1h-1.38zm7.091-5.24a1.616 1.616 0 00-.26-.19 2.53 2.53 0 00-.45-.23 4.076 4.076 0 00-.57-.19 2.248 2.248 0 00-.63-.09c-.373 0-.656.07-.85.21a.695.695 0 00-.28.59c0 .193.06.347.18.46.12.113.3.21.54.29.24.08.54.167.9.26.467.113.87.253 1.21.42.347.16.61.373.79.64.187.26.28.607.28 1.04 0 .38-.07.707-.21.98-.14.267-.333.483-.58.65-.246.167-.526.29-.84.37a4.39 4.39 0 01-1 .11c-.353 0-.706-.037-1.06-.11a5.828 5.828 0 01-1.02-.31 4.908 4.908 0 01-.9-.5l.61-1.19c.06.06.167.14.32.24.154.093.34.19.56.29.22.093.46.173.72.24.26.067.524.1.79.1.374 0 .657-.063.85-.19a.61.61 0 00.29-.54.6.6 0 00-.23-.5 2.05 2.05 0 00-.64-.31 21.098 21.098 0 00-.97-.3 6.264 6.264 0 01-1.12-.42c-.3-.16-.523-.36-.67-.6-.146-.24-.22-.54-.22-.9 0-.487.114-.893.34-1.22.234-.333.547-.583.94-.75a3.22 3.22 0 011.31-.26c.334 0 .647.037.94.11.3.073.58.17.84.29.26.12.494.25.7.39l-.61 1.12zm7.213-.65h-2.27v5.89h-1.37v-5.89H77.8v-1.21h5.91v1.21z" fill="#596275"/><path d="M118.5 402.013c16.845 0 30.5-13.655 30.5-30.5s-13.655-30.5-30.5-30.5-30.5 13.655-30.5 30.5 13.655 30.5 30.5 30.5z" stroke="#CCCDDD" stroke-dasharray="4 4"/><path d="M108.861 369.5v-6.39h1.242v5.301h3.258v1.089h-4.5zm5.256 0v-6.39h1.242v6.39h-1.242zm3.817-4.104v4.104h-1.242v-6.39h.99l3.303 4.212v-4.203h1.242v6.381h-1.035l-3.258-4.104zm5.622 4.104v-6.381h1.242v3.033l2.682-3.042h1.368l-2.448 2.835 2.601 3.555h-1.404l-1.989-2.754-.81.846v1.908h-1.242zm-18.508 9.353c0 .36-.093.663-.279.909-.186.24-.438.423-.756.549a2.715 2.715 0 01-1.026.189H99.9v-6.39h3.42c.3 0 .558.081.774.243.222.156.39.36.504.612a1.744 1.744 0 01-.054 1.647c-.156.276-.384.48-.684.612.366.108.654.303.864.585.216.282.324.63.324 1.044zm-1.251-.234a.917.917 0 00-.099-.432.747.747 0 00-.27-.306.629.629 0 00-.378-.117h-1.908v1.683h1.845c.15 0 .285-.036.405-.108a.853.853 0 00.297-.306.82.82 0 00.108-.414zm-2.655-3.447v1.611h1.656a.74.74 0 00.378-.099.71.71 0 00.27-.279.824.824 0 00.108-.432.864.864 0 00-.099-.423.67.67 0 00-.603-.378h-1.71zm7.585 5.373c-.51 0-.945-.084-1.305-.252a2.337 2.337 0 01-.864-.711 3.11 3.11 0 01-.477-1.017 4.643 4.643 0 01-.153-1.197v-3.258h1.242v3.258c0 .264.024.522.072.774.054.246.141.468.261.666.12.198.279.354.477.468.198.114.444.171.738.171.3 0 .549-.057.747-.171.204-.12.363-.279.477-.477.12-.198.207-.42.261-.666a3.64 3.64 0 00.081-.765v-3.258h1.233v3.258c0 .438-.054.849-.162 1.233a2.82 2.82 0 01-.495 1.017c-.222.288-.51.516-.864.684-.354.162-.777.243-1.269.243zm4.041-.045v-6.39h1.242v6.39h-1.242zm2.575 0v-6.39h1.242v5.301h3.258v1.089h-4.5zm5.256 0v-6.39h2.322c.696 0 1.278.144 1.746.432.468.282.819.666 1.053 1.152.234.48.351 1.014.351 1.602 0 .648-.129 1.212-.387 1.692s-.624.852-1.098 1.116c-.468.264-1.023.396-1.665.396h-2.322zm4.221-3.204c0-.414-.075-.777-.225-1.089a1.692 1.692 0 00-.648-.738c-.282-.18-.624-.27-1.026-.27h-1.08v4.212h1.08c.408 0 .753-.09 1.035-.27a1.75 1.75 0 00.639-.756c.15-.324.225-.687.225-1.089zm6.658 2.115v1.089h-4.437v-6.39h4.356v1.089h-3.114v1.539h2.691v1.008h-2.691v1.665h3.195zm.968 1.089v-6.39h2.826c.294 0 .564.06.81.18.252.12.468.282.648.486.186.204.327.432.423.684.102.252.153.51.153.774 0 .27-.048.531-.144.783-.09.246-.222.462-.396.648-.174.186-.378.33-.612.432l1.458 2.403h-1.368l-1.314-2.142h-1.242v2.142h-1.242zm1.242-3.231h1.557a.672.672 0 00.414-.135c.12-.096.216-.222.288-.378.072-.156.108-.33.108-.522a1.07 1.07 0 00-.45-.9.697.697 0 00-.414-.135h-1.503v2.07z" fill="#596275"/><path d="M378.5 212.013c16.845 0 30.5-13.655 30.5-30.5s-13.655-30.5-30.5-30.5-30.5 13.655-30.5 30.5 13.655 30.5 30.5 30.5z" stroke="#CCCDDD" stroke-dasharray="4 4"/><path d="M357.325 176.26a3.262 3.262 0 01.828-2.169c.27-.312.6-.558.99-.738.39-.186.834-.279 1.332-.279.588 0 1.095.129 1.521.387.432.258.753.594.963 1.008l-.954.657a1.483 1.483 0 00-.423-.567 1.484 1.484 0 00-.558-.297 2.01 2.01 0 00-.585-.09c-.312 0-.585.063-.819.189-.228.126-.42.291-.576.495a2.175 2.175 0 00-.351.684 2.74 2.74 0 00-.108.756c0 .282.045.555.135.819.09.258.216.489.378.693.168.198.366.357.594.477.234.114.489.171.765.171.198 0 .399-.033.603-.099a1.71 1.71 0 00.567-.315 1.43 1.43 0 00.405-.558l1.017.585a1.892 1.892 0 01-.621.81c-.282.222-.6.39-.954.504a3.42 3.42 0 01-1.053.171c-.456 0-.873-.093-1.251-.279a3.28 3.28 0 01-.981-.756 3.824 3.824 0 01-.639-1.062 3.356 3.356 0 01-.225-1.197zm9.205 3.285c-.468 0-.894-.09-1.278-.27a3.105 3.105 0 01-.981-.729c-.27-.312-.48-.66-.63-1.044a3.308 3.308 0 01-.225-1.197c0-.426.078-.831.234-1.215.162-.39.381-.735.657-1.035a3.09 3.09 0 01.99-.72c.384-.18.804-.27 1.26-.27.462 0 .882.093 1.26.279.384.186.711.435.981.747s.48.66.63 1.044c.15.384.225.78.225 1.188 0 .42-.078.825-.234 1.215a3.409 3.409 0 01-.657 1.035 3.026 3.026 0 01-2.232.972zm-1.854-3.24c0 .276.042.543.126.801.084.258.204.489.36.693.162.198.357.357.585.477.234.114.498.171.792.171.3 0 .567-.06.801-.18.234-.126.429-.291.585-.495.156-.21.273-.441.351-.693.084-.258.126-.516.126-.774 0-.276-.045-.54-.135-.792a2.09 2.09 0 00-.369-.684 1.618 1.618 0 00-.585-.477 1.636 1.636 0 00-.774-.18c-.306 0-.576.063-.81.189-.228.12-.42.282-.576.486a2.33 2.33 0 00-.36.684c-.078.252-.117.51-.117.774zm7.171-.909v4.104h-1.242v-6.39h.99l3.303 4.212v-4.203h1.242v6.381h-1.035l-3.258-4.104zm10.402-1.197h-2.043v5.301h-1.233v-5.301h-2.043v-1.089h5.319v1.089zm5.23 4.212v1.089h-4.437v-6.39h4.356v1.089h-3.114v1.539h2.691v1.008h-2.691v1.665h3.195zm2.21-3.015v4.104h-1.242v-6.39h.99l3.303 4.212v-4.203h1.242v6.381h-1.035l-3.258-4.104zm10.402-1.197h-2.043v5.301h-1.233v-5.301h-2.043v-1.089h5.319v1.089zm-36.237 9.929h1.152l.729 2.115.738-2.115h1.143l-1.098 2.907.81 2.034 1.809-4.959h1.35l-2.556 6.39h-1.071l-1.125-2.682-1.116 2.682h-1.071l-2.547-6.39h1.332l1.818 4.959.792-2.034-1.089-2.907zm7.288 6.372v-6.39h2.826c.294 0 .564.06.81.18.252.12.468.282.648.486.186.204.327.432.423.684.102.252.153.51.153.774 0 .27-.048.531-.144.783-.09.246-.222.462-.396.648-.174.186-.378.33-.612.432l1.458 2.403h-1.368l-1.314-2.142h-1.242v2.142h-1.242zm1.242-3.231h1.557a.672.672 0 00.414-.135c.12-.096.216-.222.288-.378.072-.156.108-.33.108-.522a1.07 1.07 0 00-.45-.9.697.697 0 00-.414-.135h-1.503v2.07zm4.743 3.231v-6.39h1.242v6.39h-1.242zm7.354-5.301h-2.043v5.301h-1.233v-5.301h-2.043v-1.089h5.319v1.089zm5.23 4.212v1.089h-4.437v-6.39h4.356v1.089h-3.114v1.539h2.691v1.008h-2.691v1.665h3.195zm.969 1.089v-6.39h2.826c.294 0 .564.06.81.18.252.12.468.282.648.486.186.204.327.432.423.684.102.252.153.51.153.774 0 .27-.048.531-.144.783-.09.246-.222.462-.396.648-.174.186-.378.33-.612.432l1.458 2.403h-1.368l-1.314-2.142h-1.242v2.142h-1.242zm1.242-3.231h1.557a.672.672 0 00.414-.135c.12-.096.216-.222.288-.378.072-.156.108-.33.108-.522a1.07 1.07 0 00-.45-.9.697.697 0 00-.414-.135h-1.503v2.07z" fill="#596275"/><path d="M168.5 62.013c16.845 0 30.5-13.655 30.5-30.5s-13.655-30.5-30.5-30.5-30.5 13.655-30.5 30.5 13.655 30.5 30.5 30.5z" stroke="#CCCDDD" stroke-dasharray="4 4"/><path d="M146.807 35.5v-6.39h2.322c.696 0 1.278.144 1.746.432.468.282.819.666 1.053 1.152.234.48.351 1.014.351 1.602 0 .648-.129 1.212-.387 1.692s-.624.852-1.098 1.116c-.468.264-1.023.396-1.665.396h-2.322zm4.221-3.204c0-.414-.075-.777-.225-1.089a1.692 1.692 0 00-.648-.738c-.282-.18-.624-.27-1.026-.27h-1.08v4.212h1.08c.408 0 .753-.09 1.035-.27a1.75 1.75 0 00.639-.756c.15-.324.225-.687.225-1.089zm6.658 2.115V35.5h-4.437v-6.39h4.356v1.089h-3.114v1.539h2.691v1.008h-2.691v1.665h3.195zm4.775-3.627a1.478 1.478 0 00-.234-.171 2.298 2.298 0 00-.405-.207 3.67 3.67 0 00-.513-.171 2.024 2.024 0 00-.567-.081c-.336 0-.591.063-.765.189a.625.625 0 00-.252.531c0 .174.054.312.162.414.108.102.27.189.486.261.216.072.486.15.81.234.42.102.783.228 1.089.378.312.144.549.336.711.576.168.234.252.546.252.936 0 .342-.063.636-.189.882-.126.24-.3.435-.522.585-.222.15-.474.261-.756.333a3.94 3.94 0 01-.9.099c-.318 0-.636-.033-.954-.099a5.243 5.243 0 01-.918-.279 4.396 4.396 0 01-.81-.45l.549-1.071c.054.054.15.126.288.216a4.8 4.8 0 00.504.261c.198.084.414.156.648.216.234.06.471.09.711.09.336 0 .591-.057.765-.171a.548.548 0 00.261-.486.54.54 0 00-.207-.45 1.84 1.84 0 00-.576-.279 18.303 18.303 0 00-.873-.27 5.59 5.59 0 01-1.008-.378 1.523 1.523 0 01-.603-.54c-.132-.216-.198-.486-.198-.81 0-.438.102-.804.306-1.098.21-.3.492-.525.846-.675a2.892 2.892 0 011.179-.234c.3 0 .582.033.846.099.27.066.522.153.756.261.234.108.444.225.63.351l-.549 1.008zm1.713 4.716v-6.39h1.242v6.39h-1.242zm5.23.045c-.414 0-.807-.084-1.179-.252a3.167 3.167 0 01-.972-.693 3.327 3.327 0 01-.648-1.044 3.48 3.48 0 01-.234-1.287c0-.438.078-.849.234-1.233.156-.39.375-.732.657-1.026.282-.294.612-.525.99-.693a3.001 3.001 0 011.233-.252c.6 0 1.113.129 1.539.387.432.252.756.588.972 1.008l-.927.684a1.712 1.712 0 00-.684-.729 1.842 1.842 0 00-.945-.252c-.27 0-.516.057-.738.171-.222.114-.414.27-.576.468a2.229 2.229 0 00-.378.684 2.629 2.629 0 00-.126.819c0 .306.045.588.135.846.096.258.228.483.396.675.174.192.375.345.603.459a1.841 1.841 0 001.683-.09c.3-.168.579-.414.837-.738v1.224c-.534.576-1.158.864-1.872.864zm1.782-2.421h-1.287v-.909h2.313V35.5h-1.026v-2.376zm3.326-1.728V35.5h-1.242v-6.39h.99l3.303 4.212v-4.203h1.242V35.5h-1.035l-3.258-4.104zm10.06 3.015V35.5h-4.437v-6.39h4.356v1.089h-3.114v1.539h2.691v1.008h-2.691v1.665h3.195zm.968 1.089v-6.39h2.826c.294 0 .564.06.81.18.252.12.468.282.648.486.186.204.327.432.423.684.102.252.153.51.153.774 0 .27-.048.531-.144.783-.09.246-.222.462-.396.648-.174.186-.378.33-.612.432l1.458 2.403h-1.368l-1.314-2.142h-1.242V35.5h-1.242zm1.242-3.231h1.557a.672.672 0 00.414-.135c.12-.096.216-.222.288-.378.072-.156.108-.33.108-.522a1.07 1.07 0 00-.45-.9.697.697 0 00-.414-.135h-1.503v2.07z" fill="#596275"/><path d="M290.5 130.013c26.234 0 47.5-21.266 47.5-47.5 0-26.233-21.266-47.5-47.5-47.5S243 56.28 243 82.513c0 26.234 21.266 47.5 47.5 47.5z" stroke="#CCCDDD" stroke-dasharray="4 4"/><path d="M263.544 79.5v-9.23h3.913c.424 0 .814.087 1.17.26.355.173.663.407.923.702.268.295.476.624.624.988.147.364.221.737.221 1.118 0 .52-.122 1.014-.364 1.482-.243.468-.577.85-1.001 1.144-.425.295-.928.442-1.508.442h-2.184V79.5h-1.794zm1.794-4.667h2.08a1 1 0 00.585-.182c.173-.121.312-.295.416-.52.104-.234.156-.498.156-.793 0-.32-.061-.594-.182-.819a1.19 1.19 0 00-.455-.507 1.116 1.116 0 00-.598-.169h-2.002v2.99zm6.305 4.667v-9.23h4.082c.425 0 .815.087 1.17.26.364.173.676.407.936.702.269.295.472.624.611.988.147.364.221.737.221 1.118 0 .39-.069.767-.208 1.131a2.73 2.73 0 01-.572.936 2.641 2.641 0 01-.884.624l2.106 3.471h-1.976l-1.898-3.094h-1.794V79.5h-1.794zm1.794-4.667h2.249a.97.97 0 00.598-.195c.173-.139.312-.32.416-.546.104-.225.156-.477.156-.754 0-.295-.061-.55-.182-.767a1.473 1.473 0 00-.468-.533 1.006 1.006 0 00-.598-.195h-2.171v2.99zm10.74 4.732c-.676 0-1.291-.13-1.846-.39a4.488 4.488 0 01-1.417-1.053 5.16 5.16 0 01-.91-1.508 4.772 4.772 0 01-.325-1.729c0-.615.113-1.2.338-1.755a5.04 5.04 0 01.949-1.495 4.46 4.46 0 011.43-1.04 4.234 4.234 0 011.82-.39c.667 0 1.274.134 1.82.403a4.366 4.366 0 011.417 1.079c.39.45.693.953.91 1.508a4.67 4.67 0 01.325 1.716 4.69 4.69 0 01-.338 1.755 4.923 4.923 0 01-.949 1.495 4.37 4.37 0 01-1.43 1.027 4.239 4.239 0 01-1.794.377zm-2.678-4.68c0 .399.061.784.182 1.157s.295.706.52 1.001c.234.286.516.516.845.689.338.165.719.247 1.144.247.433 0 .819-.087 1.157-.26.338-.182.62-.42.845-.715a3.32 3.32 0 00.507-1.001c.121-.373.182-.745.182-1.118 0-.399-.065-.78-.195-1.144a3.013 3.013 0 00-.533-.988 2.334 2.334 0 00-.845-.689 2.363 2.363 0 00-1.118-.26 2.43 2.43 0 00-1.17.273 2.501 2.501 0 00-.832.702 3.366 3.366 0 00-.52.988 3.75 3.75 0 00-.169 1.118zm7.805 2.73c.113.078.312.173.598.286.286.104.624.156 1.014.156.338 0 .615-.056.832-.169a1.18 1.18 0 00.494-.533c.121-.234.199-.537.234-.91.043-.373.065-.819.065-1.339V70.27h1.794v4.693c0 .693-.039 1.326-.117 1.898-.078.572-.23 1.066-.455 1.482a2.262 2.262 0 01-1.027.962c-.451.225-1.053.338-1.807.338-.416 0-.789-.048-1.118-.143a3.13 3.13 0 01-.91-.429l.403-1.456zm13.263.312V79.5h-6.409v-9.23h6.292v1.573h-4.498v2.223h3.887v1.456h-3.887v2.405h4.615zm.674-3.107c0-.563.1-1.114.299-1.651.208-.546.507-1.04.897-1.482.39-.45.867-.806 1.43-1.066.564-.269 1.205-.403 1.924-.403.85 0 1.582.186 2.197.559.624.373 1.088.858 1.391 1.456l-1.378.949a2.135 2.135 0 00-.611-.819 2.141 2.141 0 00-.806-.429 2.899 2.899 0 00-.845-.13c-.45 0-.845.091-1.183.273-.329.182-.606.42-.832.715a3.156 3.156 0 00-.507.988 3.959 3.959 0 00-.156 1.092c0 .407.065.802.195 1.183.13.373.312.706.546 1.001.243.286.529.516.858.689a2.49 2.49 0 001.105.247c.286 0 .577-.048.871-.143.295-.095.568-.247.819-.455.252-.208.447-.477.585-.806l1.469.845c-.182.46-.481.85-.897 1.17-.407.32-.866.563-1.378.728a4.936 4.936 0 01-1.521.247 4.038 4.038 0 01-1.807-.403 4.74 4.74 0 01-1.417-1.092 5.54 5.54 0 01-.923-1.534 4.863 4.863 0 01-.325-1.729zm16.374-2.977h-2.951V79.5h-1.781v-7.657h-2.951V70.27h7.683v1.573zM267.414 95.5v-6.058l-2.366 4.511h-1.001l-2.366-4.511V95.5h-1.794v-9.23h1.924l2.73 5.252 2.756-5.252h1.911v9.23h-1.794zm6.23-9.23h1.82l3.393 9.23h-1.846l-.858-2.301h-3.224l-.845 2.301h-1.846l3.406-9.23zm2.184 5.668l-1.274-3.809-1.326 3.809h2.6zm5.836-2.366V95.5h-1.794v-9.23h1.43l4.771 6.084v-6.071h1.794V95.5h-1.495l-4.706-5.928zm10.63-3.302h1.82l3.393 9.23h-1.846l-.858-2.301h-3.224l-.845 2.301h-1.846l3.406-9.23zm2.184 5.668l-1.274-3.809-1.326 3.809h2.6zm7.521 3.627a4.089 4.089 0 01-1.703-.364 4.566 4.566 0 01-1.404-1.001 4.793 4.793 0 01-.936-1.508 5.014 5.014 0 01-.338-1.859c0-.633.112-1.226.338-1.781a4.553 4.553 0 01.949-1.482 4.482 4.482 0 011.43-1.001 4.333 4.333 0 011.781-.364c.866 0 1.607.186 2.223.559.624.364 1.092.85 1.404 1.456l-1.339.988a2.477 2.477 0 00-.988-1.053 2.66 2.66 0 00-1.365-.364c-.39 0-.746.082-1.066.247-.321.165-.598.39-.832.676a3.219 3.219 0 00-.546.988 3.778 3.778 0 00-.182 1.183c0 .442.065.85.195 1.222.138.373.329.698.572.975.251.277.541.498.871.663.329.156.693.234 1.092.234a2.66 2.66 0 001.339-.364c.433-.243.836-.598 1.209-1.066v1.768c-.772.832-1.673 1.248-2.704 1.248zm2.574-3.497h-1.859v-1.313h3.341V95.5h-1.482v-3.432zm9.42 1.859V95.5h-6.409v-9.23h6.292v1.573h-4.498v2.223h3.887v1.456h-3.887v2.405h4.615zm1.398 1.573v-9.23h4.082c.425 0 .815.087 1.17.26.364.173.676.407.936.702.269.295.473.624.611.988.148.364.221.737.221 1.118 0 .39-.069.767-.208 1.131a2.72 2.72 0 01-.572.936 2.641 2.641 0 01-.884.624l2.106 3.471h-1.976l-1.898-3.094h-1.794V95.5h-1.794zm1.794-4.667h2.249a.968.968 0 00.598-.195c.174-.139.312-.32.416-.546.104-.225.156-.477.156-.754 0-.295-.06-.55-.182-.767a1.473 1.473 0 00-.468-.533 1.006 1.006 0 00-.598-.195h-2.171v2.99z" fill="#596275"/></svg>