<svg width="38" height="39" fill="none" xmlns="http://www.w3.org/2000/svg"><g clip-path="url(#clip0_629_3607)"><path d="M33.25 12.375h-7.125v-4.75A2.375 2.375 0 0023.75 5.25h-9.5a2.375 2.375 0 00-2.375 2.375v4.75H4.75a2.375 2.375 0 00-2.375 2.375v16.625A2.375 2.375 0 004.75 33.75h28.5a2.375 2.375 0 002.375-2.375V14.75a2.375 2.375 0 00-2.375-2.375zm-19-4.75h9.5v4.75h-9.5v-4.75zm-9.5 23.75V14.75h28.5v16.625H4.75z" fill="#0069FF"/></g><defs><clipPath id="clip0_629_3607"><path fill="#fff" transform="translate(0 .5)" d="M0 0h38v38H0z"/></clipPath></defs></svg>