<svg width="34" height="35" fill="none" xmlns="http://www.w3.org/2000/svg"><path d="M9.875 34.125H7.5v-3.563H2.75v3.563H.375v-3.563a2.378 2.378 0 012.375-2.375H7.5a2.378 2.378 0 012.375 2.375v3.563zm23.75 0H31.25v-3.563H26.5v3.563h-2.375v-3.563a2.378 2.378 0 012.375-2.375h4.75a2.378 2.378 0 012.375 2.375v3.563zm-11.875 0h-2.375v-3.563h-4.75v3.563H12.25v-3.563a2.378 2.378 0 012.375-2.375h4.75a2.378 2.378 0 012.375 2.375v3.563zM17 27a2.375 2.375 0 100-4.75A2.375 2.375 0 0017 27zM5.125 27a2.375 2.375 0 100-4.75 2.375 2.375 0 000 4.75zm23.75 0a2.375 2.375 0 100-4.75 2.375 2.375 0 000 4.75zm-5.937-4.75a2.375 2.375 0 100-4.75 2.375 2.375 0 000 4.75zm-11.875 0a2.375 2.375 0 100-4.75 2.375 2.375 0 000 4.75zm17.812-7.125H5.125A2.378 2.378 0 012.75 12.75v-9.5A2.378 2.378 0 015.125.875h23.75A2.378 2.378 0 0131.25 3.25v9.5a2.378 2.378 0 01-2.375 2.375zM5.125 3.25v9.5h23.75v-9.5H5.125z" fill="#0069FF"/></svg>