<svg width="34" height="35" fill="none" xmlns="http://www.w3.org/2000/svg"><path d="M3.083 22.25v2.375H8.53l-7.82 7.82 1.679 1.68 7.82-7.82v5.445h2.375v-9.5h-9.5zm28.5-9.5h-7.125a2.378 2.378 0 01-2.375-2.375V3.25A2.378 2.378 0 0124.458.875h7.125a2.378 2.378 0 012.375 2.375v7.125a2.378 2.378 0 01-2.375 2.375zm-7.125-9.5v7.125h7.125V3.25h-7.125z" fill="#0069FF"/><path d="M26.833 29.375h-9.5V27h9.5v-8.313h-19a2.378 2.378 0 01-2.375-2.375V8a2.378 2.378 0 012.375-2.375h11.875V8H7.833v8.313h19a2.377 2.377 0 012.375 2.375V27a2.377 2.377 0 01-2.375 2.375z" fill="#0069FF"/></svg>